<svg width="150" height="150" xmlns="http://www.w3.org/2000/svg">
 <style type="text/css">.st0{fill:#F5EFD3;}
	.st1{fill:#FFFFFF;}
	.st2{fill:#4E5253;}
	.st3{fill:#D03528;}</style>

 <g>
  <title>background</title>
  <rect fill="none" id="canvas_background" height="152" width="152" y="-1" x="-1"/>
 </g>
 <g>
  <title>Layer 1</title>
  <g id="svg_1">
   <g id="svg_2">
    <rect id="svg_3" height="100.6" width="34.8" class="st0" y="32.400002" x="57.599997"/>
    <rect id="svg_4" height="77.4" width="34.8" class="st1" y="55.600002" x="92.399997"/>
    <rect id="svg_5" height="61.9" width="34.8" class="st1" y="71.100002" x="22.799997"/>
    <rect id="svg_6" height="7.7" width="19.4" class="st1" y="63.400002" x="30.499997"/>
    <rect id="svg_7" height="7.7" width="19.4" class="st1" y="47.900002" x="100.199997"/>
    <rect id="svg_8" height="7.7" width="19.4" class="st1" y="24.700002" x="65.299997"/>
    <path id="svg_9" d="m94.400024,135l-38.700012,0l0,-104.5l38.700012,0l0,104.5zm-34.900024,-3.899994l31,0l0,-96.800018l-31,0l0,96.800018z" class="st2"/>
    <rect id="svg_10" height="3.9" width="34.8" class="st2" y="131.100002" x="57.599997"/>
    <path id="svg_11" d="m129.200012,135l-38.700012,0l0,-81.300018l38.700012,0l0,81.300018zm-34.799988,-3.899994l31,0l0,-73.5l-31,0l0,73.5z" class="st2"/>
    <path id="svg_12" d="m59.5,135l-38.700012,0l0,-65.800018l38.700012,0l0,65.800018zm-34.800003,-3.899994l31.000015,0l0,-58.100006l-31.000015,0l0,58.100006z" class="st2"/>
    <rect id="svg_13" height="15.5" width="89" class="st0" y="117.600002" x="30.499997"/>
    <path id="svg_14" d="m121.5,135l-92.900009,0l0,-19.399994l92.900009,0l0,19.399994zm-89.099991,-3.899994l85.199966,0l0,-11.600006l-85.199966,0l0,11.600006z" class="st2"/>
    <rect id="svg_15" height="3.9" width="9.7" class="st2" y="107.900002" x="28.599997"/>
    <rect id="svg_16" height="3.9" width="9.7" class="st2" y="107.900002" x="42.099997"/>
    <rect id="svg_17" height="3.9" width="9.7" class="st2" y="100.200002" x="28.599997"/>
    <rect id="svg_18" height="3.9" width="9.7" class="st2" y="100.200002" x="42.099997"/>
    <rect id="svg_19" height="3.9" width="9.7" class="st2" y="92.400002" x="28.599997"/>
    <rect id="svg_20" height="3.9" width="9.7" class="st2" y="92.400002" x="42.099997"/>
    <rect id="svg_21" height="3.9" width="23.2" class="st2" y="84.700002" x="28.599997"/>
    <rect id="svg_22" height="3.9" width="9.7" class="st2" y="76.900002" x="28.599997"/>
    <rect id="svg_23" height="3.9" width="9.7" class="st2" y="76.900002" x="42.099997"/>
    <rect id="svg_24" height="3.9" width="9.7" class="st2" y="107.900002" x="98.199997"/>
    <rect id="svg_25" height="3.9" width="9.7" class="st2" y="107.900002" x="111.799997"/>
    <rect id="svg_26" height="3.9" width="9.7" class="st2" y="100.200002" x="98.199997"/>
    <rect id="svg_27" height="3.9" width="9.7" class="st2" y="100.200002" x="111.799997"/>
    <rect id="svg_28" height="3.9" width="23.2" class="st2" y="92.400002" x="98.199997"/>
    <rect id="svg_29" height="3.9" width="9.7" class="st2" y="84.700002" x="98.199997"/>
    <rect id="svg_30" height="3.9" width="9.7" class="st2" y="84.700002" x="111.799997"/>
    <rect id="svg_31" height="3.9" width="9.7" class="st2" y="76.900002" x="98.199997"/>
    <rect id="svg_32" height="3.9" width="9.7" class="st2" y="76.900002" x="111.799997"/>
    <rect id="svg_33" height="3.9" width="9.7" class="st2" y="69.200002" x="98.199997"/>
    <rect id="svg_34" height="3.9" width="9.7" class="st2" y="69.200002" x="111.799997"/>
    <rect id="svg_35" height="3.9" width="9.7" class="st2" y="61.400002" x="98.199997"/>
    <rect id="svg_36" height="3.9" width="9.7" class="st2" y="61.400002" x="111.799997"/>
    <rect id="svg_37" height="3.9" width="23.2" class="st2" y="107.900002" x="63.399997"/>
    <rect id="svg_38" height="3.9" width="9.7" class="st2" y="100.200002" x="63.399997"/>
    <rect id="svg_39" height="3.9" width="9.7" class="st2" y="100.200002" x="76.999997"/>
    <rect id="svg_40" height="3.9" width="9.7" class="st2" y="92.400002" x="63.399997"/>
    <rect id="svg_41" height="3.9" width="9.7" class="st2" y="92.400002" x="76.999997"/>
    <rect id="svg_42" height="3.9" width="9.7" class="st2" y="84.700002" x="63.399997"/>
    <rect id="svg_43" height="3.9" width="9.7" class="st2" y="84.700002" x="76.999997"/>
    <rect id="svg_44" height="3.9" width="9.7" class="st2" y="76.900002" x="63.399997"/>
    <rect id="svg_45" height="3.9" width="9.7" class="st2" y="76.900002" x="76.999997"/>
    <rect id="svg_46" height="3.9" width="23.2" class="st2" y="69.200002" x="63.399997"/>
    <rect id="svg_47" height="3.9" width="9.7" class="st2" y="61.400002" x="63.399997"/>
    <rect id="svg_48" height="3.9" width="9.7" class="st2" y="61.400002" x="76.999997"/>
    <rect id="svg_49" height="3.9" width="9.7" class="st2" y="53.700002" x="63.399997"/>
    <rect id="svg_50" height="3.9" width="9.7" class="st2" y="53.700002" x="76.999997"/>
    <rect id="svg_51" height="3.9" width="9.7" class="st2" y="46.000002" x="63.399997"/>
    <rect id="svg_52" height="3.9" width="9.7" class="st2" y="46.000002" x="76.999997"/>
    <rect id="svg_53" height="3.9" width="9.7" class="st2" y="38.200002" x="63.399997"/>
    <rect id="svg_54" height="3.9" width="9.7" class="st2" y="38.200002" x="76.999997"/>
    <path id="svg_55" d="m51.799988,73.100006l-23.199997,0l0,-11.600006l23.199997,0l0,11.600006zm-19.399979,-3.900024l15.500015,0l0,-3.899994l-15.500015,0l0,3.899994z" class="st2"/>
    <path id="svg_56" d="m121.5,57.600006l-23.200012,0l0,-11.600006l23.200012,0l0,11.600006zm-19.400024,-3.900024l15.5,0l0,-3.899994l-15.5,0l0,3.899994z" class="st2"/>
    <path id="svg_57" d="m86.599976,34.299988l-23.200012,0l0,-11.599998l23.200012,0l0,11.599998zm-19.299988,-3.799988l15.5,0l0,-3.899986l-15.5,0l0,3.899986z" class="st2"/>
    <rect id="svg_58" height="9.7" width="3.9" class="st2" y="15.000002" x="73.099997"/>
    <rect id="svg_59" height="7.7" width="69.7" class="st3" y="125.300002" x="40.199997"/>
    <path id="svg_60" d="m111.799988,135l-73.499985,0l0,-11.600006l73.499985,0l0,11.600006zm-69.700012,-3.899994l65.800049,0l0,-3.899994l-65.800049,0l0,3.899994z" class="st2"/>
    <rect id="svg_61" height="7.7" width="3.9" class="st2" y="125.300002" x="55.699997"/>
    <rect id="svg_62" height="7.7" width="3.9" class="st2" y="125.300002" x="73.099997"/>
    <rect id="svg_63" height="7.7" width="3.9" class="st2" y="125.300002" x="90.499997"/>
   </g>
  </g>
 </g>
</svg>