<svg width="120" height="120" xmlns="http://www.w3.org/2000/svg">
 <style type="text/css">.st0{fill:#F5EFD3;}
	.st1{fill:#B3E1E7;}
	.st2{fill:#4E5253;}
	.st3{fill:#D03528;}
	.st4{fill:#FFFFFF;}</style>

 <g>
  <title>background</title>
  <rect fill="none" id="canvas_background" height="122" width="122" y="-1" x="-1"/>
 </g>
 <g>
  <title>Layer 1</title>
  <g id="svg_1">
   <g id="svg_2">
    <polyline id="svg_3" points="66.65000915527344,98.69998168945312 24.249984741210938,98.69998168945312 24.249984741210938,27.199981689453125 29.550003051757812,21.899993896484375 34.84999084472656,27.199981689453125 40.15000915527344,21.899993896484375 45.44999694824219,27.199981689453125 50.74998474121094,21.899993896484375 56.05000305175781,27.199981689453125 61.34999084472656,21.899993896484375 66.65000915527344,27.199981689453125 71.94999694824219,21.899993896484375 77.24998474121094,27.199981689453125 77.24998474121094,88.10000610351562 " class="st0"/>
    <polygon id="svg_4" points="66.65000915527344,98.69998168945312 66.65000915527344,88.10000610351562 77.24998474121094,88.10000610351562 " class="st1"/>
    <g id="svg_5">
     <path id="svg_6" d="m67.15001,100l-44.20001,0l0,-73.39999l6.60001,-6.60001l5.29999,5.29999l5.30002,-5.29999l5.29999,5.29999l5.29999,-5.29999l5.30002,5.29999l5.29999,-5.29999l5.30002,5.29999l5.29999,-5.29999l6.60001,6.60001l0,62l-11.39999,11.39999zm-41.60001,-2.70001l40.5,0l9.80002,-9.80002l0,-59.79999l-4,-4l-5.30002,5.29999l-5.29999,-5.29999l-5.30002,5.29999l-5.29999,-5.29999l-5.29999,5.29999l-5.30002,-5.29999l-5.30002,5.29999l-5.29999,-5.29999l-4,4l0,69.60001l0.10001,0z" class="st2"/>
    </g>
    <polygon id="svg_7" points="67.94999694824219,98.69998168945312 65.34999084472656,98.69998168945312 65.34999084472656,86.79998779296875 77.24998474121094,86.79998779296875 77.24998474121094,89.39999389648438 67.94999694824219,89.39999389648438 " class="st2"/>
    <g id="svg_8">
     <circle id="svg_9" r="5.3" cy="43.09999" cx="34.85" class="st3"/>
     <polygon id="svg_10" points="34.84999084472656,46.29998779296875 31.249984741210938,42.699981689453125 33.15000915527344,40.79998779296875 34.84999084472656,42.5 39.24998474121094,38.100006103515625 41.05000305175781,40 " class="st4"/>
    </g>
    <g id="svg_11">
     <circle id="svg_12" r="5.3" cy="58.89999" cx="34.85" class="st3"/>
     <polygon id="svg_13" points="34.84999084472656,62.100006103515625 31.249984741210938,58.600006103515625 33.15000915527344,56.699981689453125 34.84999084472656,58.399993896484375 39.24998474121094,54 41.05000305175781,55.899993896484375 " class="st4"/>
    </g>
    <g id="svg_14">
     <circle id="svg_15" r="5.3" cy="74.79999" cx="34.85" class="st3"/>
     <polygon id="svg_16" points="34.84999084472656,78 31.249984741210938,74.39999389648438 33.15000915527344,72.60000610351562 34.84999084472656,74.29998779296875 39.24998474121094,69.89999389648438 41.05000305175781,71.79998779296875 " class="st4"/>
    </g>
    <rect id="svg_17" height="2.6" width="23.8" class="st2" y="39.09999" x="46.75"/>
    <rect id="svg_18" height="2.6" width="15.9" class="st2" y="44.39999" x="46.75"/>
    <rect id="svg_19" height="2.6" width="23.8" class="st2" y="54.99999" x="46.75"/>
    <rect id="svg_20" height="2.6" width="10.6" class="st2" y="60.29999" x="46.75"/>
    <rect id="svg_21" height="2.6" width="23.8" class="st2" y="70.89999" x="46.75"/>
    <rect id="svg_22" height="2.6" width="7.9" class="st2" y="76.19999" x="46.75"/>
    <rect id="svg_23" height="2.6" width="7.9" class="st2" y="76.19999" x="57.35"/>
    <g id="svg_24">
     <rect id="svg_25" height="53" width="10.6" class="st0" y="32.49999" x="85.15"/>
     <polyline id="svg_26" points="95.74998474121094,85.39999389648438 95.74998474121094,92.10000610351562 90.44999694824219,97.29998779296875 85.15000915527344,92.10000610351562 85.15000915527344,85.39999389648438 " class="st4"/>
     <rect id="svg_27" height="53" width="2.6" class="st2" y="32.49999" x="83.85"/>
     <rect id="svg_28" height="53" width="2.6" class="st2" y="32.49999" x="94.45"/>
     <rect id="svg_29" height="2.6" width="2.6" class="st2" y="97.29999" x="89.15"/>
     <rect id="svg_30" height="53" width="2.6" class="st2" y="32.49999" x="89.15"/>
     <g id="svg_31">
      <path id="svg_32" d="m90.45,99.19998l-6.60001,-6.60001l0,-8.5l13.20001,0l0,8.5l-6.60001,6.60001zm-4,-7.69998l4,4l4,-4l0,-4.69998l-7.89999,0l0,4.69998l-0.10001,0z" class="st2"/>
     </g>
     <path id="svg_33" d="m85.15001,25.79999c0,-2.20001 1.79999,-4 4,-4l2.60001,0c2.19998,0 4,1.79999 4,4l0,6.60001l-10.60001,0l0,-6.60001z" class="st4"/>
     <path id="svg_34" d="m97.05,33.79999l-13.19998,0l0,-7.89999c0,-2.90002 2.39999,-5.30002 5.29999,-5.30002l2.60001,0c2.89999,0 5.29999,2.39999 5.29999,5.30002l0,7.89999zm-10.60001,-2.69998l7.89999,0l0,-5.29999c0,-1.5 -1.19998,-2.60001 -2.60001,-2.60001l-2.59998,0c-1.5,0 -2.60001,1.19998 -2.60001,2.60001l0,5.29999l-0.10001,0z" class="st2"/>
    </g>
   </g>
  </g>
 </g>
</svg>