<svg width="150" height="150" xmlns="http://www.w3.org/2000/svg">
 <style type="text/css">.st0{fill:#FFFFFF;}
	.st1{fill:#F5EFD3;}
	.st2{fill:#FCB859;}
	.st3{fill:#D03528;}
	.st4{fill:none;stroke:#4E5253;stroke-width:2;stroke-miterlimit:10;}
	.st5{fill:#4E5253;}</style>

 <g>
  <title>background</title>
  <rect fill="none" id="canvas_background" height="152" width="152" y="-1" x="-1"/>
 </g>
 <g>
  <title>Layer 1</title>
  <g id="svg_1">
   <g id="svg_2">
    <polygon id="svg_3" points="87.80001831054688,86.79998779296875 75,91.10000610351562 62.100006103515625,86.79998779296875 62.100006103515625,78.19998168945312 75,80.39999389648438 87.80001831054688,78.19998168945312 " class="st0"/>
    <path id="svg_4" d="m96.40002,97.5c15,8.60001 36.39999,6.39999 36.39999,27.89999l0,8.60001l-115.70001,0l0,-8.60001c0,-21.39999 21.39999,-19.29999 36.39999,-27.89999" class="st1"/>
    <polygon id="svg_5" points="83.5,108.19998168945312 75,99.69998168945312 66.4000244140625,108.19998168945312 53.5,97.5 57.800018310546875,86.79998779296875 75,91.10000610351562 92.10000610351562,86.79998779296875 96.4000244140625,97.5 " class="st0"/>
    <path id="svg_6" d="m51.40002,44c0,-13 10.60001,-19.29999 23.60001,-19.29999c13,0 23.60001,6.29999 23.60001,19.29999l-10.70001,4.30002l-12.89999,-4.30002l-12.89999,-4.29999l-10.70001,4.29999z" class="st2"/>
    <path id="svg_7" d="m98.5,44l0,12.89999c-2.10001,15 -10.70001,21.40002 -10.70001,21.40002c-4.29999,2.09998 -12.89999,2.09998 -12.89999,2.09998s-8.60001,0 -12.89999,-2.09998c0,0 -8.60001,-6.40002 -10.70001,-21.40002l0,-12.89999l10.70001,-4.29999l12.89999,4.29999l12.89999,4.30002l10.70001,-4.30002z" class="st0"/>
    <path id="svg_8" d="m51.40002,65.39999c-5.89999,0 -10.70001,-4.79999 -10.70001,-10.70001s4.80002,-10.69998 10.70001,-10.69998" class="st3"/>
    <path id="svg_9" d="m98.5,44c5.89999,0 10.70001,4.80002 10.70001,10.70001s-4.80002,10.69998 -10.70001,10.69998" class="st3"/>
    <path id="svg_10" d="m94.20001,97.5" class="st4"/>
    <path id="svg_11" d="m135,136.10001l-120,0l0,-10.70001c0,-16.70001 12,-20.5 23.60001,-24.20001c4.69998,-1.5 9.60001,-3.09998 13.89999,-5.5l2.10001,3.70001c-4.60001,2.60001 -9.70001,4.29999 -14.70001,5.89999c-11.5,3.70001 -20.7,6.60001 -20.7,20.10001l0,6.39999l111.40001,0l0,-6.39999c0,-13.5 -9.10001,-16.39999 -20.70001,-20.10001c-4.89999,-1.60001 -10,-3.19998 -14.69998,-5.89999l2.09998,-3.70001c4.20001,2.40002 9.10001,4 13.90002,5.5c11.59998,3.70001 23.59998,7.60001 23.59998,24.20001l0,10.70001l0.20001,0z" class="st5"/>
    <path id="svg_12" d="m83.40002,111.10001l-8.39999,-8.39999l-8.39999,8.39999l-15.60001,-13l5.60001,-13.89999l18.39999,4.60001l18.39999,-4.60001l5.60001,13.89999l-15.60001,13zm-8.40002,-14.5l8.70001,8.70001l10.19998,-8.5l-3,-7.5l-15.79999,4l-15.80002,-4l-3,7.5l10.20001,8.5l8.5,-8.70001z" class="st5"/>
    <rect id="svg_13" height="8.6" width="4.3" class="st5" y="78.19999" x="85.70001"/>
    <rect id="svg_14" height="8.6" width="4.3" class="st5" y="78.19999" x="60.00001"/>
    <path id="svg_15" d="m75,82.5c-0.39999,0 -9.10001,0 -13.79999,-2.39999l-0.30002,-0.20001c-0.39999,-0.29999 -9.29999,-7.09998 -11.60001,-22.79999l0,-0.29999l0,-12.90002l4.30002,0l0,12.70001c1.89999,12.70001 8.69998,18.89999 9.69998,19.79999c3.20001,1.5 9.5,1.80002 11.70001,1.80002c2.20001,0 8.5,-0.30002 11.70001,-1.80002c1,-0.89999 7.89999,-7 9.69998,-19.79999l0,-12.70001l4.30002,0l0,13.20001c-2.20001,15.70001 -11.20001,22.60001 -11.60001,22.79999l-0.30002,0.20001c-4.69998,2.39999 -13.49997,2.39999 -13.79999,2.39999z" class="st5"/>
    <path id="svg_16" d="m100.70001,44l-4.29999,0c0,-12.60001 -11.10001,-17.10001 -21.40002,-17.10001s-21.39999,4.5 -21.39999,17.10001l-4.39999,0c0,-13 10.10001,-21.39999 25.70001,-21.39999s25.79999,8.29999 25.79999,21.39999z" class="st5"/>
    <path id="svg_17" d="m98.5,67.5l0,-4.29999c4.70001,0 8.60001,-3.80002 8.60001,-8.60001c0,-4.70001 -3.80002,-8.60001 -8.60001,-8.60001l0,-4.30002c7.10001,0 12.89999,5.80002 12.89999,12.90002s-5.79999,12.89999 -12.89999,12.89999z" class="st5"/>
    <path id="svg_18" d="m109.20001,48.19998l-4.29999,0c0,-22.10001 -15.5,-30 -30,-30s-30,7.89999 -30,30l-4.30002,0c0,-20.79999 13.5,-34.29999 34.30002,-34.29999s34.29999,13.5 34.29999,34.29999z" class="st5"/>
    <path id="svg_19" d="m75,71.79999l0,-4.30002c17.60001,0 22.10001,-3.69998 22.10001,-3.69998l3,3.10001c-0.60001,0.5 -5.5,4.89999 -25.10001,4.89999z" class="st5"/>
    <rect id="svg_20" height="4.3" width="4.3" class="st5" y="123.19999" x="72.80001"/>
    <rect id="svg_21" height="4.3" width="4.3" class="st5" y="114.69999" x="72.80001"/>
    <g id="svg_22">
     <path id="svg_23" d="m53.5,67.5l-2.10001,0c-7.10001,0 -12.89999,-5.79999 -12.89999,-12.89999s5.79999,-12.89999 12.89999,-12.89999l0,4.29999c-4.69998,0 -8.60001,3.80002 -8.60001,8.60001c0,4.70001 3.80002,8.60001 8.60001,8.60001l2.10001,0l0,4.29999z" class="st5"/>
    </g>
    <polygon id="svg_24" points="87.9000244140625,50.5 62.20001220703125,41.899993896484375 52.20001220703125,45.899993896484375 50.600006103515625,42 62,37.399993896484375 87.80001831054688,46 97.70001220703125,42 99.30001831054688,45.899993896484375 " class="st5"/>
   </g>
  </g>
 </g>
</svg>