<svg width="120" height="120" xmlns="http://www.w3.org/2000/svg">
 <style type="text/css">.st0{fill:#F5EFD3;}
	.st1{fill:#4E5253;}
	.st2{fill:#FFFFFF;}
	.st3{fill:#D03528;}</style>

 <g>
  <title>background</title>
  <rect fill="none" id="canvas_background" height="122" width="122" y="-1" x="-1"/>
 </g>
 <g>
  <title>Layer 1</title>
  <g id="svg_1">
   <g id="svg_2">
    <path id="svg_3" d="m81.20001,92.5l0,-65c0,-3.5 -2.79999,-6.20001 -6.19998,-6.20001l-30,0c-3.5,0 -6.20001,2.80002 -6.20001,6.20001l0,65c0,3.5 2.79999,6.19998 6.20001,6.19998l30,0c3.39996,0.10004 6.19998,-2.69998 6.19998,-6.19998z" class="st0"/>
    <rect id="svg_4" height="2.5" width="42.5" class="st1" y="35.00001" x="38.70001"/>
    <rect id="svg_5" height="2.5" width="42.5" class="st1" y="82.50001" x="38.70001"/>
    <path id="svg_6" d="m75,100l-30,0c-4.10001,0 -7.5,-3.39999 -7.5,-7.5l0,-65c0,-4.10001 3.39999,-7.5 7.5,-7.5l30,0c4.10001,0 7.5,3.39999 7.5,7.5l0,65c0,4.20001 -3.39999,7.5 -7.5,7.5zm-30,-77.5c-2.80002,0 -5,2.19998 -5,5l0,65c0,2.79999 2.19998,5 5,5l30,0c2.79999,0 5,-2.20001 5,-5l0,-65c0,-2.80002 -2.20001,-5 -5,-5l-30,0z" class="st1"/>
    <rect id="svg_7" height="2.5" width="15" class="st1" y="27.50001" x="52.50001"/>
    <rect id="svg_8" height="5" width="5" class="st2" y="88.80001" x="57.50001"/>
    <path id="svg_9" d="m63.70001,95l-7.5,0l0,-7.5l7.5,0l0,7.5zm-5,-2.5l2.5,0l0,-2.5l-2.5,0l0,2.5z" class="st1"/>
    <rect id="svg_10" height="40" width="35" class="st2" y="40.00001" x="42.50001"/>
    <g id="svg_11">
     <rect id="svg_12" height="5" width="5" class="st3" y="43.80001" x="46.20001"/>
     <rect id="svg_13" height="5" width="5" class="st3" y="43.80001" x="53.70001"/>
     <rect id="svg_14" height="5" width="5" class="st3" y="43.80001" x="61.20001"/>
     <rect id="svg_15" height="5" width="5" class="st3" y="43.80001" x="68.70001"/>
     <rect id="svg_16" height="5" width="5" class="st3" y="51.30001" x="46.20001"/>
     <rect id="svg_17" height="5" width="5" class="st3" y="51.30001" x="53.70001"/>
     <rect id="svg_18" height="5" width="5" class="st3" y="51.30001" x="61.20001"/>
     <rect id="svg_19" height="5" width="5" class="st3" y="51.30001" x="68.70001"/>
     <rect id="svg_20" height="5" width="5" class="st3" y="58.80001" x="46.20001"/>
     <rect id="svg_21" height="5" width="5" class="st3" y="58.80001" x="53.70001"/>
     <rect id="svg_22" height="5" width="5" class="st3" y="71.30001" x="46.20001"/>
     <rect id="svg_23" height="5" width="5" class="st3" y="71.30001" x="53.70001"/>
     <rect id="svg_24" height="5" width="5" class="st3" y="71.30001" x="61.20001"/>
     <rect id="svg_25" height="5" width="5" class="st3" y="71.30001" x="68.70001"/>
    </g>
   </g>
  </g>
 </g>
</svg>