<svg width="120" height="120" xmlns="http://www.w3.org/2000/svg">
 <style type="text/css">.st0{fill:#FFFFFF;}
	.st1{fill:#F5EFD3;}
	.st2{fill:#D03528;}
	.st3{fill:#4E5253;}
	.st4{fill:none;stroke:#4E5253;stroke-width:2;stroke-linecap:round;stroke-miterlimit:10;}</style>

 <g>
  <title>background</title>
  <rect fill="none" id="canvas_background" height="122" width="122" y="-1" x="-1"/>
 </g>
 <g>
  <title>Layer 1</title>
  <g id="svg_1">
   <g id="svg_2">
    <g id="svg_3">
     <path id="svg_4" d="m72.59998,40.25002l-25.20001,0l-16.39999,16.39999l0,1.30002l5,5l0,3.79999l22.70001,22.70001c0,0 1.29999,1.29999 2.5,1.29999c2.10001,0 3.79999,-1.70001 3.79999,-3.79999c0,-1.30002 -1.29999,-2.5 -1.29999,-2.5l2.5,2.5c0,0 1.29999,1.29999 2.5,1.29999c2.10001,0 3.79999,-1.70001 3.79999,-3.79999c0,-1.30002 -1.29999,-2.5 -1.29999,-2.5l1.29999,1.29999c0,0 1.30002,1.29999 2.5,1.29999c2.10001,0 3.80002,-1.69998 3.80002,-3.79999c0,-1.29999 -1.30002,-2.5 -1.30002,-2.5l-2.5,-2.5c0,0 1.30002,1.29999 2.5,1.29999c2.10001,0 3.80002,-1.69998 3.80002,-3.79999c0,-1.29999 -1.30002,-2.5 -1.30002,-2.5l-1.29999,-1.29999l1.29999,0l5,-5l0,-2.5l3.80002,-3.80002l0,-1.29999l-16.20001,-16.60001z" class="st0"/>
     <path id="svg_5" d="m42.39999,74.34999c0,0 -1.29999,1.29999 -2.5,1.29999c-2.10001,0 -3.79999,-1.69998 -3.79999,-3.79999c0,-1.29999 1.29999,-2.5 1.29999,-2.5l5,5z" class="st0"/>
     <path id="svg_6" d="m47.39999,79.34999c0,0 -1.29999,1.29999 -2.5,1.29999c-2.10001,0 -3.79999,-1.69998 -3.79999,-3.79999c0,-1.29999 1.29999,-2.5 1.29999,-2.5l5,5z" class="st0"/>
     <path id="svg_7" d="m52.39999,84.45c0,0 -1.29999,1.29999 -2.5,1.29999c-2.10001,0 -3.79999,-1.69998 -3.79999,-3.79999c0,-1.30002 1.29999,-2.5 1.29999,-2.5l5,5z" class="st0"/>
     <path id="svg_8" d="m57.5,89.45c0,0 -1.29999,1.29999 -2.5,1.29999c-2.10001,0 -3.79999,-1.69998 -3.79999,-3.79999c0,-1.30002 1.29999,-2.5 1.29999,-2.5l5,5z" class="st0"/>
     <polyline id="svg_9" points="20.899993896484375,51.65000915527344 28.5,59.15000915527344 51.199981689453125,36.44999694824219 43.5999755859375,28.949996948242188 " class="st1"/>
     <polyline id="svg_10" points="99.0999755859375,51.65000915527344 91.5999755859375,59.15000915527344 68.79998779296875,36.44999694824219 76.39999389648438,28.949996948242188 " class="st2"/>
     <rect id="svg_11" height="2.5" width="25.2" class="st3" y="38.95" x="47.39999"/>
     <path id="svg_12" d="m80.19998,70.55c-0.30002,0 -0.60001,-0.10001 -0.89999,-0.39999c-0.5,-0.5 -0.5,-1.30002 0,-1.80002l4.69998,-4.69998l0,-2.5l4.20001,-4.20001c0.5,-0.5 1.29999,-0.5 1.79999,0s0.5,1.30002 0,1.80002l-3.39999,3.39999l0,2.5l-5.39999,5.39999c-0.39999,0.39999 -0.69998,0.5 -1,0.5z" class="st3"/>
     <path id="svg_13" d="m77.69998,79.34999c-0.30002,0 -0.60001,-0.10001 -0.89999,-0.39999l-13.90002,-13.89999c-0.5,-0.5 -0.5,-1.30002 0,-1.80002c0.5,-0.5 1.30002,-0.5 1.80002,0l13.89999,13.89999c0.5,0.5 0.5,1.30002 0,1.80002c-0.29999,0.30002 -0.59998,0.39999 -0.89999,0.39999z" class="st3"/>
     <path id="svg_14" d="m77.69998,78.15001c-1.70001,0 -3.20001,-1.5 -3.39999,-1.60001c-0.5,-0.5 -0.5,-1.29999 0,-1.79999s1.29999,-0.5 1.79999,0c0.39999,0.39999 1.10001,0.89999 1.60001,0.89999c1.39999,0 2.5,-1.10001 2.5,-2.5c0,-0.5 -0.5,-1.29999 -0.89999,-1.60001c-0.5,-0.5 -0.5,-1.29999 0,-1.79999c0.5,-0.5 1.29999,-0.5 1.79999,0c0.20001,0.20001 1.60001,1.70001 1.60001,3.39999c0,2.69998 -2.19998,5 -5,5z" class="st3"/>
     <path id="svg_15" d="m75.19998,85.65001c-1.70001,0 -3.20001,-1.5 -3.39999,-1.60001l-13.90002,-13.89999c-0.5,-0.5 -0.5,-1.29999 0,-1.79999c0.5,-0.5 1.30002,-0.5 1.80002,0l13.89999,13.89999c0.39999,0.39999 1.10001,0.89999 1.60001,0.89999c1.39999,0 2.5,-1.10001 2.5,-2.5c0,-0.5 -0.5,-1.29999 -0.89999,-1.60001c-0.5,-0.5 -0.5,-1.29999 0,-1.79999c0.5,-0.5 1.29999,-0.5 1.79999,0c0.20001,0.20001 1.60001,1.70001 1.60001,3.39999c0,2.79999 -2.29999,5 -5,5z" class="st3"/>
     <path id="svg_16" d="m68.79999,89.45c-1.70001,0 -3.20001,-1.5 -3.39999,-1.60001l-12.60001,-12.59998c-0.5,-0.5 -0.5,-1.29999 0,-1.79999s1.29999,-0.5 1.79999,0l12.60001,12.59998c0.39999,0.40002 1.10001,0.90002 1.60001,0.90002c1.39999,0 2.5,-1.10001 2.5,-2.5c0,-0.5 -0.5,-1.30002 -0.89999,-1.60001c-0.5,-0.5 -0.5,-1.30002 0,-1.80002c0.5,-0.5 1.29999,-0.5 1.79999,0c0.20001,0.20001 1.60001,1.70001 1.60001,3.40002c0.10001,2.69998 -2.20001,4.99997 -5,4.99997z" class="st3"/>
     <path id="svg_17" d="m61.29999,91.95c-1.70001,0 -3.20001,-1.5 -3.39999,-1.60001l-23.10001,-23.09998l0,-3.79999l-4.70001,-4.70001c-0.5,-0.5 -0.5,-1.29999 0,-1.79999c0.5,-0.5 1.30002,-0.5 1.80002,0l5.39999,5.39999l0,3.79999l22.29999,22.30002c0.40002,0.39999 1.10001,0.89999 1.60001,0.89999c1.39999,0 2.5,-1.10001 2.5,-2.5c0,-0.5 -0.5,-1.30002 -0.89999,-1.60001c-0.5,-0.5 -0.5,-1.29999 0,-1.79999c0.5,-0.5 1.29999,-0.5 1.79999,0c0.20001,0.19998 1.60001,1.69998 1.60001,3.39999c0.10001,2.89999 -2.10001,5.09998 -4.89999,5.09998z" class="st3"/>
     <path id="svg_18" d="m39.79999,76.84999c-2.79999,0 -5,-2.29999 -5,-5c0,-1.70001 1.5,-3.20001 1.60001,-3.39999c0.5,-0.5 1.29999,-0.5 1.79999,0c0.5,0.5 0.5,1.29999 0,1.79999c-0.39999,0.39999 -0.89999,1.10001 -0.89999,1.60001c0,1.39999 1.10001,2.5 2.5,2.5c0.5,0 1.29999,-0.5 1.60001,-0.89999c0.5,-0.5 1.29999,-0.5 1.79999,0c0.5,0.5 0.5,1.29999 0,1.79999c-0.10001,0.10001 -1.60001,1.60001 -3.39999,1.60001z" class="st3"/>
     <path id="svg_19" d="m44.89999,81.84999c-2.79999,0 -5,-2.29999 -5,-5c0,-1.70001 1.5,-3.20001 1.60001,-3.39999c0.5,-0.5 1.29999,-0.5 1.79999,0s0.5,1.29999 0,1.79999c-0.39999,0.39999 -0.89999,1.10001 -0.89999,1.60001c0,1.39999 1.10001,2.5 2.5,2.5c0.5,0 1.30002,-0.5 1.60001,-0.89999c0.5,-0.5 1.29999,-0.5 1.79999,0c0.5,0.5 0.5,1.29999 0,1.79999c-0.20001,0.20001 -1.70001,1.60001 -3.39999,1.60001z" class="st3"/>
     <path id="svg_20" d="m49.89999,86.95c-2.79999,0 -5,-2.30002 -5,-5c0,-1.70001 1.5,-3.20001 1.60001,-3.39999c0.5,-0.5 1.29999,-0.5 1.79999,0s0.5,1.29999 0,1.79999c-0.39999,0.39999 -0.89999,1.10001 -0.89999,1.60001c0,1.39999 1.10001,2.5 2.5,2.5c0.5,0 1.30002,-0.5 1.60001,-0.89999c0.5,-0.5 1.29999,-0.5 1.79999,0c0.5,0.5 0.5,1.29999 0,1.79999c-0.10001,0.10001 -1.60001,1.60001 -3.39999,1.60001z" class="st3"/>
     <path id="svg_21" d="m55,91.95c-2.79999,0 -5,-2.30002 -5,-5c0,-1.70001 1.5,-3.20001 1.60001,-3.39999c0.5,-0.5 1.29999,-0.5 1.79999,0c0.5,0.5 0.5,1.29999 0,1.79999c-0.39999,0.39999 -0.89999,1.10001 -0.89999,1.60001c0,1.39999 1.10001,2.5 2.5,2.5c0.5,0 1.29999,-0.5 1.60001,-0.89999c0.5,-0.5 1.29999,-0.5 1.79999,0c0.5,0.5 0.5,1.29999 0,1.79999c-0.20001,0.20001 -1.70001,1.60001 -3.39999,1.60001z" class="st3"/>
     <path id="svg_22" d="m80.19998,71.75002c-0.30002,0 -0.60001,-0.10001 -0.89999,-0.39999l-16.80002,-16.80002l0,-6.79999l-2,0l-5.89999,5.89999c-0.20001,0.20001 -1.70001,1.60001 -3.39999,1.60001c-2.80002,0 -5,-2.29999 -5,-5c0,-1.70001 1.5,-3.20001 1.60001,-3.39999l7.59998,-7.60001c0.5,-0.5 1.30002,-0.5 1.80002,0s0.5,1.29999 0,1.79999l-7.60001,7.60001c-0.39999,0.39999 -0.89999,1.10001 -0.89999,1.60001c0,1.39999 1.10001,2.5 2.5,2.5c0.5,0 1.29999,-0.5 1.60001,-0.89999l6.69998,-6.70001l5.60001,0l0,8.30002l16,16c0.5,0.5 0.5,1.29999 0,1.79999c-0.29999,0.39999 -0.59998,0.5 -0.89999,0.5z" class="st3"/>
     <path id="svg_23" d="m70.09998,57.95l-3.79999,0l0,-2.5l3.79999,0c1.39999,0 2.5,-1.10001 2.5,-2.5l2.5,0c0.10001,2.70001 -2.19998,5 -5,5z" class="st3"/>
     <polygon id="svg_24" points="91.5999755859375,60.94999694824219 67.0999755859375,36.44999694824219 75.5,28.050003051757812 77.29998779296875,29.750015258789062 70.5999755859375,36.44999694824219 91.5999755859375,57.44999694824219 98.19998168945312,50.75001525878906 100,52.55000305175781 " class="st3"/>
     <polygon id="svg_25" points="28.5,60.94999694824219 20,52.55000305175781 21.79998779296875,50.75001525878906 28.5,57.44999694824219 49.399993896484375,36.44999694824219 42.699981689453125,29.750015258789062 44.5,28.050003051757812 53,36.44999694824219 " class="st3"/>
     <path id="svg_26" d="m91.59998,52.84999c-0.29999,0 -0.60001,-0.10001 -0.89999,-0.39999l-2.5,-2.5c-0.5,-0.5 -0.5,-1.30002 0,-1.80002s1.29999,-0.5 1.79999,0l2.5,2.5c0.5,0.5 0.5,1.30002 0,1.80002c-0.29999,0.30002 -0.59998,0.39999 -0.89999,0.39999z" class="st3"/>
     <path id="svg_27" d="m28.5,52.84999c-0.29999,0 -0.60001,-0.10001 -0.89999,-0.39999c-0.5,-0.5 -0.5,-1.30002 0,-1.80002l2.5,-2.5c0.5,-0.5 1.29999,-0.5 1.79999,0c0.5,0.5 0.5,1.30002 0,1.80002l-2.5,2.5c-0.30002,0.30002 -0.60001,0.39999 -0.89999,0.39999z" class="st3"/>
    </g>
    <path id="svg_28" d="m55,73.05" class="st4"/>
    <path id="svg_29" d="m52.39999,75.55" class="st4"/>
   </g>
  </g>
 </g>
</svg>