<svg width="120" height="120" xmlns="http://www.w3.org/2000/svg">
 <style type="text/css">.st0{fill:#F5EFD3;}
	.st1{fill:#4E5253;}
	.st2{opacity:0.4;fill:#D03528;}
	.st3{fill:#D03528;}
	.st4{opacity:0.8;fill:#D03528;}</style>

 <g>
  <title>background</title>
  <rect fill="none" id="canvas_background" height="122" width="122" y="-1" x="-1"/>
 </g>
 <g>
  <title>Layer 1</title>
  <g id="svg_1">
   <g id="svg_2">
    <polygon id="svg_3" points="89.3499755859375,98.60000610351562 30.649993896484375,98.60000610351562 30.649993896484375,21.29998779296875 78.64999389648438,21.29998779296875 89.3499755859375,32 " class="st0"/>
    <polygon id="svg_4" points="89.3499755859375,33.29998779296875 77.3499755859375,33.29998779296875 77.3499755859375,21.29998779296875 80.04998779296875,21.29998779296875 80.04998779296875,30.600006103515625 89.3499755859375,30.600006103515625 " class="st1"/>
    <path id="svg_5" d="m90.64999,100l-61.29999,0l0,-80l49.89999,0l11.39999,11.39999l0,68.60001zm-58.60001,-2.70001l56,0l0,-64.79999l-9.89999,-9.89999l-46.10001,0l0,74.69998z" class="st1"/>
    <g id="svg_6">
     <rect id="svg_7" height="2.7" width="14.7" class="st1" y="73.3" x="48.04998"/>
     <rect id="svg_8" height="2.7" width="12" class="st1" y="84" x="53.34998"/>
     <rect id="svg_9" height="2.7" width="14.7" class="st1" y="84" x="68.04998"/>
     <rect id="svg_10" height="2.7" width="8" class="st1" y="73.3" x="37.34998"/>
     <rect id="svg_11" height="2.7" width="25.3" class="st1" y="68" x="37.34998"/>
     <rect id="svg_12" height="2.7" width="22.7" class="st1" y="78.6" x="37.34998"/>
     <rect id="svg_13" height="2.7" width="20" class="st1" y="78.6" x="62.64998"/>
     <rect id="svg_14" height="2.7" width="22.7" class="st1" y="89.3" x="37.34998"/>
     <rect id="svg_15" height="2.7" width="20" class="st1" y="89.3" x="62.64998"/>
     <rect id="svg_16" height="2.7" width="13.3" class="st1" y="84" x="37.34998"/>
    </g>
    <g id="svg_17">
     <g id="svg_18">
      <path id="svg_19" d="m45.84998,36.39999c-1.89999,1.89999 -3.10001,4.60001 -3.10001,7.5c0,5.89999 4.79999,10.69998 10.70001,10.69998l0,-10.69998l-7.60001,-7.5z" class="st2"/>
      <path id="svg_20" d="m53.34998,33.29999c-2.89999,0 -5.60001,1.20001 -7.5,3.10001l7.5,7.5l10.69998,0c0.00003,-5.79999 -4.79999,-10.60001 -10.69998,-10.60001z" class="st3"/>
      <path id="svg_21" d="m53.34998,54.60001c5.89999,0 10.69998,-4.79999 10.69998,-10.69998l-10.69998,0l0,10.69998z" class="st4"/>
     </g>
     <g id="svg_22">
      <path id="svg_23" d="m77.34998,73.89999l-12,-12l0,-5.89999l5.89999,0l12,12l-5.89999,5.89999zm-9.29999,-13.10001l9.30002,9.29999l2.09998,-2.09998l-9.29999,-9.30002l-2.10001,0l0,2.10001z" class="st1"/>
     </g>
     <path id="svg_24" d="m53.34998,60c-8.80002,0 -16,-7.20001 -16,-16s7.19998,-16 16,-16s16,7.20001 16,16s-7.19998,16 -16,16zm0,-29.39999c-7.39999,0 -13.30002,6 -13.30002,13.30002s6,13.29999 13.30002,13.29999c7.39999,0 13.29999,-6 13.29999,-13.29999s-5.99997,-13.30002 -13.29999,-13.30002z" class="st1"/>
     <path id="svg_25" d="m66.64999,58.60001c-0.29999,0 -0.70001,-0.10001 -0.89999,-0.39999l-2.70001,-2.70001c-0.5,-0.5 -0.5,-1.39999 0,-1.89999c0.5,-0.5 1.39999,-0.5 1.89999,0l2.70001,2.70001c0.5,0.5 0.5,1.39999 0,1.89999c-0.30002,0.29999 -0.60001,0.39999 -1,0.39999z" class="st1"/>
    </g>
   </g>
  </g>
 </g>
</svg>