<svg width="120" height="120" xmlns="http://www.w3.org/2000/svg">
 <style type="text/css">.st0{fill:#F5EFD3;}
	.st1{fill:#FFFFFF;}
	.st2{fill:#4E5253;}
	.st3{fill:#D03528;}</style>

 <g>
  <title>background</title>
  <rect fill="none" id="canvas_background" height="122" width="122" y="-1" x="-1"/>
 </g>
 <g>
  <title>Layer 1</title>
  <g id="svg_1">
   <g id="svg_2">
    <circle id="svg_3" r="40" cy="60" cx="60" class="st0"/>
    <path id="svg_4" d="m86.19999,47.49999c0,17.5 -26.20001,51.20001 -26.20001,51.20001s-26.19998,-33.80002 -26.19998,-51.20001c0,-14.5 11.79999,-26.20001 26.19998,-26.20001c14.50003,0.00003 26.20001,11.70001 26.20001,26.20001z" class="st1"/>
    <path id="svg_5" d="m60.00001,99.99999c-0.39999,0 -0.79999,-0.20001 -1,-0.5c-1.10001,-1.39999 -26.5,-34.29999 -26.5,-52c0,-15.20001 12.30002,-27.5 27.5,-27.5s27.5,12.29999 27.5,27.5c0,17.70001 -25.39999,50.60001 -26.5,52c-0.30002,0.30002 -0.70001,0.5 -1,0.5zm0,-77.5c-13.79999,0 -25,11.20001 -25,25c0,15 20.30002,42.89999 25,49.20001c4.70001,-6.30002 25,-34.20001 25,-49.20001c0,-13.79999 -11.30002,-25 -25,-25z" class="st2"/>
    <circle id="svg_6" r="18.8" cy="47.5" cx="60" class="st3"/>
    <g id="svg_7">
     <path id="svg_8" d="m60.00001,58.80001c-3.39999,0 -6.19998,-2.79999 -6.19998,-6.19998l2.5,0c0,2.09998 1.69998,3.79999 3.79999,3.79999s3.79999,-1.70001 3.79999,-3.79999c0,-1.70001 -1.29999,-2.40002 -3.69998,-3.60001l-0.60001,-0.30002l1.10001,-2.19998l0.60001,0.29999c2.39999,1.20001 5.09998,2.5 5.09998,5.80002c-0.20001,3.29999 -3,6.19998 -6.39999,6.19998z" class="st1"/>
     <path id="svg_9" d="m59.4,48.6l-0.60001,-0.30002c-2.39999,-1.19998 -5.10001,-2.5 -5.10001,-5.79999c0,-3.39999 2.80002,-6.20001 6.20001,-6.20001s6.20001,2.80002 6.20001,6.20001l-2.5,0c0,-2.10001 -1.70001,-3.79999 -3.80002,-3.79999s-3.79999,1.69998 -3.79999,3.79999c0,1.70001 1.29999,2.39999 3.69998,3.60001l0.60001,0.29999l-0.89999,2.20001z" class="st1"/>
     <rect id="svg_10" height="3.8" width="2.5" class="st1" y="33.8" x="58.7"/>
     <rect id="svg_11" height="3.8" width="2.5" class="st1" y="57.5" x="58.7"/>
    </g>
    <rect id="svg_12" height="2.5" width="2.5" class="st2" y="83.8" x="58.7"/>
    <rect id="svg_13" height="2.5" width="2.5" class="st2" y="78.8" x="58.7"/>
    <rect id="svg_14" height="2.5" width="2.5" class="st2" y="73.8" x="58.7"/>
   </g>
  </g>
 </g>
</svg>