<svg width="120" height="120" xmlns="http://www.w3.org/2000/svg">
 <style type="text/css">.st0{fill:#F5EFD3;}
	.st1{fill:#D03528;}
	.st2{fill:#FFFFFF;}
	.st3{fill:none;stroke:#54595A;stroke-width:2;stroke-miterlimit:10;}
	.st4{fill:#54595A;}
	.st5{fill:#B0AFB0;}</style>

 <g>
  <title>background</title>
  <rect fill="none" id="canvas_background" height="122" width="122" y="-1" x="-1"/>
 </g>
 <g>
  <title>Layer 1</title>
  <g id="svg_1">
   <g id="svg_2">
    <g id="svg_3">
     <path id="svg_4" d="m82.5,76.19998l0,-33.79999c0,-6.20001 -5,-11.20001 -11.20001,-11.20001l-22.5,0c-6.19998,0 -11.19998,5 -11.19998,11.20001l0,33.79999" class="st0"/>
    </g>
    <g id="svg_5">
     <path id="svg_6" d="m70,57.5c8.79999,5 18.79999,3.80002 18.79999,16.20001l0,2.5l-57.5,0l0,-2.5c0,-12.5 10,-11.20001 18.80002,-16.20001l19.89999,0z" class="st1"/>
     <polygon id="svg_7" points="65,62.5 60,60 55,62.5 50,57.5 52.5,53.699981689453125 53.70001220703125,53.699981689453125 53.70001220703125,48.699981689453125 60,50 66.20001220703125,48.699981689453125 66.20001220703125,53.699981689453125 67.5,53.699981689453125 70,57.5 " class="st2"/>
     <path id="svg_8" d="m68.70001,57.5" class="st3"/>
     <path id="svg_9" d="m65.20001,64l-5.19998,-2.60001l-5.20001,2.60001l-6.39999,-6.39999l3.5,-5.29999l8.10001,1.29999l8.09998,-1.29999l3.5,5.29999l-6.39999,6.39999zm-5.20001,-5.39999l4.79999,2.39999l3.60001,-3.60001l-1.5,-2.19998l-6.89999,1.19998l-6.89999,-1.19998l-1.5,2.19998l3.59998,3.60001l4.80002,-2.39999z" class="st4"/>
     <rect id="svg_10" height="5" width="2.5" class="st4" y="48.69999" x="65.00001"/>
     <rect id="svg_11" height="5" width="2.5" class="st4" y="48.69999" x="52.50001"/>
     <g id="svg_12">
      <path id="svg_13" d="m71.20001,32.5l0,5c-1.19998,8.80002 -5,11.20001 -5,11.20001c-2.5,1.19998 -6.19998,1.19998 -6.19998,1.19998s-3.80002,0 -6.20001,-1.19998c0,0 -3.79999,-2.5 -5,-11.20001l0,-5l5,-2.5l12.5,5l4.89999,-2.5z" class="st2"/>
      <path id="svg_14" d="m48.70001,32.5c0,-7.60001 3.70001,-11.19998 11.20001,-11.19998s11.19998,3.69998 11.19998,11.19998l-5,2.5l-6.19998,-2.5l-6.20001,-2.5l-5,2.5z" class="st5"/>
      <path id="svg_15" d="m60,51.19998c-0.20001,0 -4.10001,0 -6.80002,-1.39999l-0.09998,-0.10001c-0.20001,-0.10001 -4.20001,-2.89999 -5.5,-12.10001l0,-0.19998l0,-5l2.5,0l0,4.89999c1.09998,7.39999 4,10 4.39999,10.29999c2.19998,1.10001 5.60001,1.10001 5.60001,1.10001c0,0 3.39999,0 5.59998,-1.10001c0.40002,-0.29999 3.30002,-2.89999 4.40002,-10.29999l0,-4.89999l2.5,0l0,5.19998c-1.30002,9.20001 -5.40002,12 -5.5,12.10001l-0.10001,0.10001c-3,1.39999 -6.89999,1.39999 -7,1.39999z" class="st4"/>
      <path id="svg_16" d="m72.5,32.5l-2.5,0c0,-6.89999 -3.10001,-10 -10,-10s-10,3.10001 -10,10l-2.5,0c0,-8.29999 4.19998,-12.5 12.5,-12.5s12.5,4.19998 12.5,12.5z" class="st4"/>
      <polygon id="svg_17" points="66.30001831054688,36.29998779296875 53.800018310546875,31.29998779296875 49.300018310546875,33.600006103515625 48.20001220703125,31.29998779296875 53.70001220703125,28.600006103515625 66.20001220703125,33.600006103515625 70.70001220703125,31.29998779296875 71.80001831054688,33.600006103515625 " class="st4"/>
     </g>
    </g>
    <g id="svg_18">
     <rect id="svg_19" height="22.5" width="77.5" class="st2" y="76.19999" x="21.20001"/>
     <polygon id="svg_20" points="100,100 86.20001220703125,100 86.20001220703125,97.5 97.5,97.5 97.5,77.5 22.5,77.5 22.5,97.5 33.70001220703125,97.5 33.70001220703125,100 20,100 20,75 100,75 " class="st4"/>
    </g>
    <g id="svg_21">
     <g id="svg_22">
      <path id="svg_23" d="m81.20001,70l0,28.80002l-42.5,0l0,-28.80002c0,-2.10001 1.70001,-3.79999 3.80002,-3.79999l35,0c1.99997,-0.00003 3.69998,1.69998 3.69998,3.79999z" class="st2"/>
      <path id="svg_24" d="m81.20001,100l-42.5,0c-0.69998,0 -1.19998,-0.60001 -1.19998,-1.19998l0,-28.80002c0,-2.79999 2.19998,-5 5,-5l35,0c2.79999,0 5,2.20001 5,5l0,28.80002c-0.00003,0.59998 -0.60004,1.19998 -1.30002,1.19998zm-41.20001,-2.5l40,0l0,-27.5c0,-1.39999 -1.10001,-2.5 -2.5,-2.5l-35,0c-1.39999,0 -2.5,1.10001 -2.5,2.5l0,27.5z" class="st4"/>
      <path id="svg_25" d="m82.30002,99.29999l-2.20001,-1.10001l3.60001,-7.20001l0,-8.5l-2.5,0l0,-2.5l3.80002,0c0.69998,0 1.19998,0.60001 1.19998,1.20001l0,10c0,0.20001 0,0.39999 -0.10001,0.60001l-3.79999,7.5z" class="st4"/>
      <path id="svg_26" d="m37.60001,99.29999l-3.79999,-7.5c-0.10001,-0.20001 -0.10001,-0.39999 -0.10001,-0.60001l0,-10c0,-0.70001 0.60001,-1.20001 1.19998,-1.20001l3.80002,0l0,2.5l-2.5,0l0,8.5l3.60001,7.20001l-2.20001,1.10001z" class="st4"/>
     </g>
     <circle id="svg_27" r="3.8" cy="82.49999" cx="60.00001" class="st1"/>
    </g>
   </g>
  </g>
 </g>
</svg>