<svg width="150" height="150" xmlns="http://www.w3.org/2000/svg">
 <style type="text/css">.st0{fill:#F5EFD3;}
	.st1{fill:#54595A;}
	.st2{fill:#FEC46C;}
	.st3{fill:#FFFFFF;}
	.st4{fill:#D03528;}
	.st5{fill:#F7F8F8;}</style>

 <g>
  <title>background</title>
  <rect fill="none" id="canvas_background" height="152" width="152" y="-1" x="-1"/>
 </g>
 <g>
  <title>Layer 1</title>
  <g id="svg_1">
   <g id="svg_2">
    <polygon id="svg_3" points="50.65001678466797,16.79998779296875 114.3499984741211,16.79998779296875 129.35000610351562,31.79998779296875 129.35000610351562,118 50.65001678466797,118 " class="st0"/>
    <polygon id="svg_4" points="129.35000610351562,33.5999755859375 112.55001068115234,33.5999755859375 112.55001068115234,16.79998779296875 116.24999237060547,16.79998779296875 116.24999237060547,29.899993896484375 129.35000610351562,29.899993896484375 " class="st1"/>
    <path id="svg_5" d="m129.350006,119.899994l-22.500008,0l0,-3.799988l20.600006,0l0,-83.600006l-13.900024,-13.899994l-61.099976,0l0,97.5l20.600006,0l0,3.799988l-22.5,0c-1,0 -1.899994,-0.799988 -1.899994,-1.899994l0,-101.200012c0,-1 0.799988,-1.899994 1.899994,-1.899994l63.799988,0c0.5,0 1,0.199982 1.300018,0.5l15.000008,15c0.399994,0.399994 0.5,0.799988 0.5,1.299988l0,86.200012c0.099976,1.199982 -0.700012,2 -1.800018,2z" class="st1"/>
    <g id="svg_6">
     <g id="svg_7">
      <polyline id="svg_8" points="101.24999237060547,104.89999389648438 101.24999237060547,133 90.05001068115234,123.5999755859375 78.74999237060547,133 78.74999237060547,104.89999389648438 " class="st2"/>
      <path id="svg_9" d="m101.249992,134.899994c-0.399994,0 -0.899994,-0.100006 -1.200012,-0.399994l-10,-8.399994l-10,8.399994c-0.599976,0.5 -1.299988,0.600006 -2,0.299988c-0.699982,-0.299988 -1.099976,-1 -1.099976,-1.699982l0,-28.100006l3.799988,0l0,24.100006l8.200012,-6.800018c0.699982,-0.599976 1.699982,-0.599976 2.399994,0l8.199982,6.800018l0,-24.100006l3.800018,0l0,28.100006c0,0.699982 -0.399994,1.399994 -1.100006,1.699982c-0.399994,0 -0.699982,0.100006 -1,0.100006z" class="st1"/>
     </g>
     <path id="svg_10" d="m114.349998,86.099976c0,-2.700012 -1.899994,-5 -4.5,-5.5c-0.5,-1.700012 -1.100006,-3.200012 -1.899994,-4.700012c0.5,-0.899994 0.799988,-1.799988 0.799988,-2.899994c0,-3.100006 -2.5,-5.600006 -5.600006,-5.600006c-1.100006,0 -2.100006,0.300018 -2.899994,0.800018c-1.5,-0.800018 -3,-1.5 -4.700012,-1.899994c-0.5,-2.600006 -2.799988,-4.5 -5.5,-4.5s-5,1.899994 -5.5,4.5c-1.699982,0.5 -3.199982,1.099976 -4.699982,1.899994c-0.899994,-0.5 -1.800018,-0.800018 -2.899994,-0.800018c-3.100006,0 -5.600006,2.5 -5.600006,5.600006c0,1.100006 0.299988,2.100006 0.799988,2.899994c-0.799988,1.5 -1.5,3 -1.899994,4.700012c-2.600006,0.5 -4.5,2.799988 -4.5,5.5c0,2.700012 1.899994,5 4.5,5.5c0.5,1.700012 1.100006,3.200012 1.899994,4.700012c-0.5,0.899994 -0.799988,1.799988 -0.799988,2.899994c0,3.100006 2.5,5.600006 5.600006,5.600006c1.099976,0 2.099976,-0.300018 2.899994,-0.800018c1.5,0.800018 3,1.5 4.699982,1.899994c0.5,2.600006 2.800018,4.5 5.5,4.5s5,-1.899994 5.5,-4.5c1.700012,-0.5 3.200012,-1.099976 4.700012,-1.899994c0.899994,0.5 1.799988,0.800018 2.899994,0.800018c3.100006,0 5.600006,-2.5 5.600006,-5.600006c0,-1.100006 -0.299988,-2.100006 -0.799988,-2.899994c0.799988,-1.5 1.5,-3 1.899994,-4.700012c2.600006,-0.5 4.5,-2.699982 4.5,-5.5z" class="st3"/>
     <circle id="svg_11" r="11.199997" cy="86.099988" cx="90.050005" class="st4"/>
     <path id="svg_12" d="m90.050011,112.399994c-3.199982,0 -6,-2 -7,-4.899994c-1.100006,-0.399994 -2.199982,-0.799988 -3.199982,-1.299988c-0.900024,0.399994 -1.900024,0.599976 -2.900024,0.599976c-4.099976,0 -7.5,-3.399994 -7.5,-7.5c0,-1 0.200012,-2 0.600006,-2.899994c-0.5,-1 -1,-2.100006 -1.299988,-3.199982c-2.899994,-1.100006 -4.899994,-3.900024 -4.899994,-7s2,-6 4.899994,-7c0.399994,-1.100006 0.799988,-2.200012 1.299988,-3.200012c-0.399994,-0.899994 -0.600006,-1.899994 -0.600006,-2.899994c0,-4.100006 3.400024,-7.5 7.5,-7.5c1,0 2,0.199982 2.900024,0.600006c1,-0.5 2.099976,-1 3.199982,-1.300018c1.100006,-2.899994 3.899994,-4.899994 7,-4.899994s6,2 7,4.899994c1.100006,0.399994 2.200012,0.800018 3.200012,1.300018c0.899994,-0.400024 1.899994,-0.600006 2.899994,-0.600006c4.100006,0 7.5,3.399994 7.5,7.5c0,1 -0.200012,2 -0.600006,2.899994c0.5,1 1,2.100006 1.300018,3.200012c2.899994,1.099976 4.899994,3.899994 4.899994,7s-2,6 -4.899994,7c-0.400024,1.099976 -0.800018,2.199982 -1.300018,3.199982c0.399994,0.899994 0.600006,1.899994 0.600006,2.899994c0,4.100006 -3.399994,7.5 -7.5,7.5c-1,0 -2,-0.199982 -2.899994,-0.599976c-1,0.5 -2.100006,1 -3.200012,1.299988c-1.100006,2.899994 -3.899994,4.899994 -7,4.899994zm-10.300018,-10.5l1,0.600006c1.299988,0.799988 2.799988,1.399994 4.299988,1.799988l1.100006,0.300018l0.200012,1.100006c0.299988,1.699982 1.899994,3 3.699982,3s3.300018,-1.300018 3.700012,-3l0.200012,-1.100006l1.099976,-0.300018c1.5,-0.399994 2.900024,-1 4.300018,-1.799988l1,-0.600006l0.899994,0.600006c0.600006,0.399994 1.299988,0.600006 1.899994,0.600006c2.100006,0 3.800018,-1.700012 3.800018,-3.800018c0,-0.699982 -0.200012,-1.299988 -0.600006,-1.899994l-0.600006,-0.899994l0.600006,-1c0.799988,-1.299988 1.399994,-2.799988 1.799988,-4.299988l0.300018,-1.100006l1.099976,-0.200012c1.700012,-0.299988 3,-1.899994 3,-3.699982s-1.299988,-3.300018 -3,-3.700012l-1.099976,-0.200012l-0.300018,-1.099976c-0.399994,-1.5 -1,-2.900024 -1.799988,-4.300018l-0.600006,-1l0.600006,-0.899994c0.399994,-0.600006 0.600006,-1.299988 0.600006,-1.899994c0,-2.100006 -1.700012,-3.800018 -3.800018,-3.800018c-0.699982,0 -1.299988,0.200012 -1.899994,0.600006l-0.899994,0.600006l-1,-0.600006c-1.300018,-0.799988 -2.800018,-1.399994 -4.300018,-1.799988l-1.099976,-0.300018l-0.200012,-1.099976c-0.299988,-1.700012 -1.899994,-3 -3.700012,-3s-3.299988,1.299988 -3.699982,3l-0.200012,1.099976l-1.100006,0.300018c-1.5,0.399994 -2.899994,1 -4.299988,1.799988l-1,0.600006l-0.899994,-0.600006c-0.600006,-0.399994 -1.300018,-0.600006 -1.899994,-0.600006c-2.100006,0 -3.800018,1.700012 -3.800018,3.800018c0,0.699982 0.200012,1.299988 0.600006,1.899994l0.600006,0.899994l-0.600006,1c-0.799988,1.300018 -1.399994,2.800018 -1.799988,4.300018l-0.300018,1.099976l-1.100006,0.200012c-1.699982,0.299988 -3,1.899994 -3,3.700012s1.300018,3.299988 3,3.699982l1.100006,0.200012l0.300018,1.100006c0.399994,1.5 1,2.899994 1.799988,4.299988l0.600006,1l-0.600006,0.899994c-0.399994,0.600006 -0.600006,1.300018 -0.600006,1.899994c0,2.100006 1.700012,3.800018 3.800018,3.800018c0.699982,0 1.299988,-0.200012 1.899994,-0.600006l0.899994,-0.600006z" class="st1"/>
    </g>
    <g id="svg_13">
     <rect id="svg_14" height="78.8" width="11.2" class="st0" y="31.799988" x="28.150005"/>
     <g id="svg_15">
      <path id="svg_16" d="m28.150017,31.799988l0,-9.399994c0,-3.100006 2.5,-5.600006 5.600006,-5.600006c3.100006,0 5.600006,2.5 5.600006,5.600006l0,9.399994l-11.200012,0z" class="st5"/>
      <polygon id="svg_17" points="39.349998474121094,110.5 39.349998474121094,123.5999755859375 33.74999237060547,133 28.15001678466797,123.5999755859375 28.15001678466797,110.5 " class="st5"/>
     </g>
     <path id="svg_18" d="m22.550011,74.899994l-3.800003,0l0,-31.899994c0,-3.100006 2.5,-5.600006 5.600006,-5.600006l3.800003,0l0,3.800018l-3.800003,0c-1,0 -1.899994,0.799988 -1.899994,1.899994l0,31.799988l0.099991,0z" class="st1"/>
     <rect id="svg_19" height="3.8" width="11.2" class="st1" y="108.599988" x="28.150005"/>
     <rect id="svg_20" height="3.8" width="11.2" class="st1" y="29.899988" x="28.150005"/>
     <path id="svg_21" d="m33.749992,134.899994c-0.700012,0 -1.299988,-0.299988 -1.600006,-0.899994l-5.600006,-9.399994c-0.199982,-0.300018 -0.299988,-0.600006 -0.299988,-1l0,-101.200012c0,-4.100006 3.399994,-7.5 7.5,-7.5s7.5,3.399994 7.5,7.5l0,101.199982c0,0.300018 -0.100006,0.700012 -0.299988,1l-5.600006,9.400024c-0.299988,0.5 -0.899994,0.899994 -1.600006,0.899994zm-3.699982,-11.800018l3.800018,6.200012l3.799988,-6.200012l0,-100.699982c0,-2.100006 -1.700012,-3.799988 -3.799988,-3.799988s-3.800018,1.699982 -3.800018,3.799988l0,100.699982z" class="st1"/>
    </g>
    <rect id="svg_22" height="3.8" width="22.5" class="st1" y="24.299988" x="60.050005"/>
    <rect id="svg_23" height="3.8" width="60" class="st1" y="37.399988" x="60.050005"/>
    <rect id="svg_24" height="3.8" width="60" class="st1" y="44.899988" x="60.050005"/>
    <rect id="svg_25" height="3.8" width="60" class="st1" y="52.399988" x="60.050005"/>
   </g>
  </g>
 </g>
</svg>