<svg width="120" height="120" xmlns="http://www.w3.org/2000/svg">
 <style type="text/css">.st0{fill:#FCB859;}
	.st1{fill:#F5EFD3;}
	.st2{fill:#4E5253;}
	.st3{fill:#FFFFFF;}</style>

 <g>
  <title>background</title>
  <rect fill="none" id="canvas_background" height="122" width="122" y="-1" x="-1"/>
 </g>
 <g>
  <title>Layer 1</title>
  <g id="svg_1">
   <g id="svg_2">
    <path id="svg_3" d="m74.7,66.65001l24,24c0,4.39999 -3.60001,8 -8,8l-24,-24" class="st0"/>
    <g id="svg_4">
     <circle id="svg_5" r="29.3" cy="50.65" cx="50.69999" class="st1"/>
     <path id="svg_6" d="m50.7,81.34999c-16.89999,0 -30.69998,-13.79999 -30.69998,-30.70001c0,-16.89999 13.79999,-30.69998 30.69998,-30.69998c16.89999,0 30.70001,13.79999 30.70001,30.69998c-0.10001,17.00003 -13.80002,30.70001 -30.70001,30.70001zm0,-58.69998c-15.39999,0 -28,12.60001 -28,28s12.60001,28 28,28s28,-12.60001 28,-28s-12.60001,-28 -28,-28z" class="st2"/>
    </g>
    <rect id="svg_7" height="2.7" width="2.7" class="st2" y="81.35" x="81.29999"/>
    <rect id="svg_8" height="2.7" width="2.7" class="st2" y="85.35" x="85.29999"/>
    <rect id="svg_9" height="2.7" width="2.7" class="st2" y="89.35" x="89.29999"/>
    <path id="svg_10" d="m90.7,100.05l-0.60001,0l-24.39999,-24.39999l1.89999,-1.89999l23.60001,23.59998c3.29999,-0.29999 5.89999,-2.89999 6.10001,-6.09998l-23.60001,-23.60001l1.89999,-1.89999l24.39999,24.39999l0,0.60001c0,5.09998 -4.19998,9.29999 -9.29999,9.29999z" class="st2"/>
    <g id="svg_11">
     <path id="svg_12" d="m54.7,50.65001l9.30002,5.30002c0,0 0,0.5 0,2.69998c0,2.20001 -1.30002,4 -2.70001,4l-21.29999,0c-1.30002,0 -2.70001,-1.79999 -2.70001,-4c0,-2.19998 0,-2.69998 0,-2.69998l9.29999,-5.30002" class="st3"/>
     <path id="svg_13" d="m57.3,43.34999c0,4.70001 -2.60001,8.70001 -6.70001,8.70001c-4,0 -6.69998,-4 -6.69998,-8.70001c0,-4.70001 1.29999,-7.29999 6.69998,-7.29999c5.39999,0 6.70001,2.60001 6.70001,7.29999z" class="st0"/>
     <path id="svg_14" d="m50.7,53.34999c-4.60001,0 -8,-4.29999 -8,-10c0,-4 0.89999,-8.70001 8,-8.70001c7.10001,0 8,4.60001 8,8.70001c0,5.70001 -3.5,10 -8,10zm0,-16c-4,0 -5.29999,1.5 -5.29999,6c0,3.60001 1.89999,7.29999 5.29999,7.29999c3.5,0 5.30002,-3.79999 5.30002,-7.29999c-0.00003,-4.5 -1.30002,-6 -5.30002,-6z" class="st2"/>
     <path id="svg_15" d="m61.3,64.05l-21.29999,0c-2.20001,0 -4,-2.39999 -4,-5.29999l0,-3.40002l10,-5.69998l1.29999,2.29999l-8.70001,4.89999l0,1.90002c0,1.59998 0.90002,2.69998 1.30002,2.69998l21.29999,0c0.39999,0 1.30002,-1 1.30002,-2.69998l0,-1.90002l-8.70001,-4.89999l1.29999,-2.29999l10,5.69998l0,3.40002c0.20001,2.79999 -1.60001,5.29999 -3.79999,5.29999z" class="st2"/>
    </g>
   </g>
  </g>
 </g>
</svg>