<svg width="120" height="120" xmlns="http://www.w3.org/2000/svg">
 <style type="text/css">.st0{fill:#D03528;}
	.st1{fill:#F5EFD3;}
	.st2{fill:#4E5253;}
	.st3{fill:#FFFFFF;}</style>

 <g>
  <title>background</title>
  <rect fill="none" id="canvas_background" height="122" width="122" y="-1" x="-1"/>
 </g>
 <g>
  <title>Layer 1</title>
  <g id="svg_1">
   <g id="svg_2">
    <polyline id="svg_3" points="49.25001525878906,58.84999084472656 21.349990844726562,86.74998474121094 21.349990844726562,89.44999694824219 30.650009155273438,98.74998474121094 33.34999084472656,98.74998474121094 61.25001525878906,70.84999084472656 " class="st0"/>
    <path id="svg_4" d="m79.84999,70.84999l-30.60001,-30.60001l0,-1.29999c0,-12 -5.29999,-17.30002 -15.89999,-17.30002l-2.70001,1.30002l8,8l-8,8l-8,-8l-1.29999,2.69998c0,10.60001 5.29999,15.90002 17.29999,15.90002l1.30002,0l30.60001,30.59998l0,1.30002c0,12 5.29999,17.29999 15.89999,17.29999l2.69998,-1.29999l-8,-8l8,-8l8,8l1.30002,-2.70001c0,-10.60001 -5.30002,-15.89999 -17.30002,-15.89999l-1.29999,0z" class="st1"/>
    <path id="svg_5" d="m86.75002,100.05l-0.29999,0c-11.60001,0 -17.30002,-6.10001 -17.30002,-18.60001l0,-0.79999l-29.70001,-29.80002l-0.80002,0c-12.5,0 -18.59998,-5.60001 -18.59998,-17.29999l0,-0.30002l2.29999,-4.60001l8.29999,8.30002l6.10001,-6.10001l-8.29999,-8.29999l4.60001,-2.30002l0.29999,0c11.60001,0 17.29999,6.10001 17.29999,18.60001l0,0.79999l29.80002,29.80002l0.79999,0c12.5,0 18.60001,5.60001 18.60001,17.29999l0,0.30002l-2.29999,4.59998l-8.30002,-8.29999l-6.10001,6.10001l8.30002,8.29999l-4.69998,2.30002zm-64,-66.10001c0.10001,9.89999 5,14.30002 15.89999,14.30002l1.89999,0l31.30002,31.29999l0,1.89999c0,10.89999 4.39999,15.80002 14.29999,15.89999l0.70001,-0.39999l-7.60001,-7.60001l9.79999,-9.79999l7.60001,7.59998l0.39999,-0.69998c-0.09998,-9.89999 -5,-14.30002 -15.89999,-14.30002l-1.89999,0l-31.30002,-31.29999l0,-1.89999c0,-10.89999 -4.39999,-15.80002 -14.30002,-15.89999l-0.69998,0.39999l7.60001,7.60001l-9.80002,9.79999l-7.60001,-7.60001l-0.39996,0.70001z" class="st2"/>
    <path id="svg_6" d="m33.84999,100.05l-3.79999,0l-10.10001,-10.10001l0,-3.79999l28.29999,-28.30002c0.5,-0.5 1.39999,-0.5 1.89999,0c0.5,0.5 0.5,1.40002 0,1.90002l-27.5,27.5l0,1.59998l8.5,8.5l1.60001,0l27.5,-27.5c0.5,-0.5 1.39999,-0.5 1.89999,0c0.5,0.5 0.5,1.40002 0,1.90002l-28.29999,28.29999z" class="st2"/>
    <polyline id="svg_7" points="51.94999694824219,60.14997863769531 55.94999694824219,56.24998474121094 63.84999084472656,64.14997863769531 59.84999084472656,68.14997863769531 " class="st0"/>
    <path id="svg_8" d="m59.84999,69.45c-0.29999,0 -0.70001,-0.10001 -0.89999,-0.39999c-0.5,-0.5 -0.5,-1.39999 0,-1.89999l3,-3l-6.10001,-6.10001l-3,3c-0.5,0.5 -1.39999,0.5 -1.89999,0c-0.5,-0.5 -0.5,-1.39999 0,-1.89999l4.89999,-4.89999l9.79999,9.79999l-4.89999,4.89999c-0.19998,0.39999 -0.49997,0.5 -0.89999,0.5z" class="st2"/>
    <polyline id="svg_9" points="58.55000305175781,57.55000305175781 85.15000915527344,30.949996948242188 85.15000915527344,26.949996948242188 95.75001525878906,21.649978637695312 98.44999694824219,24.349990844726562 93.15000915527344,34.94999694824219 89.15000915527344,34.94999694824219 62.55000305175781,61.55000305175781 " class="st3"/>
    <path id="svg_10" d="m62.55,62.84999c-0.29999,0 -0.70001,-0.10001 -0.89999,-0.39999c-0.5,-0.5 -0.5,-1.39999 0,-1.89999l27,-27l3.69998,0l4.5,-9l-1.29999,-1.30002l-9,4.5l0,3.70001l-27,27c-0.5,0.5 -1.39999,0.5 -1.89999,0c-0.5,-0.5 -0.5,-1.39999 0,-1.89999l26.19998,-26.20001l0,-4.29999l12.20001,-6.10001l4,4l-6.10001,12.19998l-4.29999,0l-26.20001,26.20001c-0.19998,0.39999 -0.60001,0.5 -0.89999,0.5z" class="st2"/>
    <path id="svg_11" d="m28.05,89.45c-0.29999,0 -0.70001,-0.10001 -0.89999,-0.39999c-0.5,-0.5 -0.5,-1.39999 0,-1.89999l21.29999,-21.30002c0.5,-0.5 1.39999,-0.5 1.89999,0c0.5,0.5 0.5,1.40002 0,1.90002l-21.29999,21.29999c-0.39999,0.19998 -0.70001,0.39999 -1,0.39999z" class="st3"/>
    <path id="svg_12" d="m31.95,93.45c-0.30002,0 -0.70001,-0.10001 -0.89999,-0.39999c-0.5,-0.5 -0.5,-1.39999 0,-1.89999l21.29999,-21.30002c0.5,-0.5 1.39999,-0.5 1.89999,0c0.5,0.5 0.5,1.40002 0,1.90002l-21.29999,21.29999c-0.29999,0.19998 -0.60001,0.39999 -1,0.39999z" class="st3"/>
   </g>
  </g>
 </g>
</svg>