<svg width="120" height="120" xmlns="http://www.w3.org/2000/svg">
 <style type="text/css">.st0{fill:#F5EFD3;}
	.st1{fill:#FFFFFF;}
	.st2{fill:#54595A;}
	.st3{opacity:0.3;fill:#D03528;}
	.st4{fill:#D03528;}</style>

 <g>
  <title>background</title>
  <rect fill="none" id="canvas_background" height="122" width="122" y="-1" x="-1"/>
 </g>
 <g>
  <title>Layer 1</title>
  <g id="svg_1">
   <g id="svg_2">
    <circle id="svg_3" r="40" cy="60" cx="60.00001" class="st0"/>
    <polygon id="svg_4" points="60,95.0000114440918 21.300018310546875,70.0000114440918 60,45.0000114440918 98.80001831054688,70.0000114440918 " class="st1"/>
    <path id="svg_5" d="m60,96.3c-0.20001,0 -0.5,-0.10001 -0.70001,-0.20001l-38.79999,-25c-0.39999,-0.19998 -0.60001,-0.59998 -0.60001,-1s0.20001,-0.79999 0.60001,-1l38.79999,-25c0.40002,-0.29999 0.90002,-0.29999 1.40002,0l38.79999,25c0.39999,0.20001 0.60001,0.60001 0.60001,1s-0.20001,0.80002 -0.60001,1l-38.79999,25c-0.20001,0.10001 -0.39999,0.20001 -0.70001,0.20001zm-36.39999,-26.29999l36.39999,23.5l36.40002,-23.5l-36.40002,-23.5l-36.39999,23.5z" class="st2"/>
    <polygon id="svg_6" points="60,85.0000114440918 21.300018310546875,60.0000114440918 60,35.0000114440918 98.80001831054688,60.0000114440918 " class="st3"/>
    <polygon id="svg_7" points="60,75.0000114440918 36.300018310546875,60.0000114440918 60,45.0000114440918 83.80001831054688,60.0000114440918 " class="st4"/>
    <path id="svg_8" d="m60,86.3c-0.20001,0 -0.5,-0.10001 -0.70001,-0.20001l-38.79999,-25c-0.39999,-0.19998 -0.60001,-0.59998 -0.60001,-1s0.20001,-0.79999 0.60001,-1l38.79999,-25c0.40002,-0.29999 0.90002,-0.29999 1.40002,0l38.79999,25c0.39999,0.20001 0.60001,0.60001 0.60001,1s-0.20001,0.80002 -0.60001,1l-38.79999,25c-0.20001,0.10001 -0.39999,0.20001 -0.70001,0.20001zm-36.39999,-26.29999l36.39999,23.5l36.40002,-23.5l-36.40002,-23.5l-36.39999,23.5z" class="st2"/>
    <path id="svg_9" d="m60,76.3c-0.20001,0 -0.5,-0.10001 -0.70001,-0.20001l-38.79999,-25c-0.39999,-0.19998 -0.60001,-0.59998 -0.60001,-1s0.20001,-0.79999 0.60001,-1l38.79999,-25c0.40002,-0.29999 0.90002,-0.29999 1.40002,0l38.79999,25c0.39999,0.20001 0.60001,0.60001 0.60001,1s-0.20001,0.80002 -0.60001,1l-38.79999,25c-0.20001,0.10001 -0.39999,0.20001 -0.70001,0.20001zm-36.39999,-26.29999l36.39999,23.5l36.40002,-23.5l-36.40002,-23.5l-36.39999,23.5z" class="st2"/>
   </g>
  </g>
 </g>
</svg>