<svg id="SvgjsSvg1024" xmlns="http://www.w3.org/2000/svg" version="1.1" xmlns:xlink="http://www.w3.org/1999/xlink" xmlns:svgjs="http://svgjs.com/svgjs" width="32" height="37" viewBox="0 0 32 37"><title>Fill 1</title><desc>Created with Avocode.</desc><defs id="SvgjsDefs1025"></defs><path id="SvgjsPath1026" d="M1229.77 798.54C1229.77 801.93 1227.01 804.6899999999999 1223.62 804.6899999999999H1206.3799999999999C1202.9899999999998 804.6899999999999 1200.2299999999998 801.93 1200.2299999999998 798.54V792.38C1200.2299999999998 784.92 1206.2999999999997 778.85 1213.7699999999998 778.85H1216.2299999999998C1223.6999999999998 778.85 1229.7699999999998 784.9200000000001 1229.7699999999998 792.38ZM1210.62 770.23H1219.3799999999999L1216.2299999999998 777.62H1213.7699999999998ZM1221.15 769H1208.8500000000001L1212.1100000000001 777.71C1204.7400000000002 778.5400000000001 1199.0000000000002 784.7900000000001 1199.0000000000002 792.38V798.54C1199.0000000000002 802.62 1202.3100000000002 805.92 1206.3800000000003 805.92H1223.6200000000003C1227.6900000000003 805.92 1231.0000000000005 802.62 1231.0000000000005 798.54V792.38C1231.0000000000005 784.79 1225.2600000000004 778.54 1217.8900000000006 777.71Z " fill="#000000" fill-opacity="1" transform="matrix(1,0,0,1,-1199,-769)"></path><path id="SvgjsPath1027" d="M1214.92 797.54V792.62C1216.28 792.62 1217.38 793.72 1217.38 795.08C1217.38 796.4300000000001 1216.2800000000002 797.5400000000001 1214.92 797.5400000000001ZM1213.69 791.38C1212.3300000000002 791.38 1211.23 790.28 1211.23 788.92C1211.23 787.5699999999999 1212.33 786.4599999999999 1213.69 786.4599999999999ZM1218.62 788.92C1218.62 786.89 1216.9599999999998 785.2299999999999 1214.9199999999998 785.2299999999999V783.9999999999999H1213.6899999999998V785.2299999999999C1211.6599999999999 785.2299999999999 1209.9999999999998 786.8899999999999 1209.9999999999998 788.92C1209.9999999999998 790.9599999999999 1211.6599999999999 792.62 1213.6899999999998 792.62V797.54C1212.33 797.54 1211.2299999999998 796.43 1211.2299999999998 795.0799999999999H1209.9999999999998C1209.9999999999998 797.1099999999999 1211.6599999999999 798.77 1213.6899999999998 798.77V800H1214.9199999999998V798.77C1216.9599999999998 798.77 1218.62 797.11 1218.62 795.0799999999999C1218.62 793.04 1216.9599999999998 791.3799999999999 1214.9199999999998 791.3799999999999V786.4599999999999C1216.2799999999997 786.4599999999999 1217.3799999999999 787.5699999999999 1217.3799999999999 788.92Z " fill="#000000" fill-opacity="1" transform="matrix(1,0,0,1,-1199,-769)"></path></svg>