<?xml version="1.0" encoding="utf-8"?>
<svg id="SvgjsSvg1000" width="41" height="40" viewBox="0 0 41 40" xmlns="http://www.w3.org/2000/svg">
  <title>Shape</title>
  <desc>Created with Avocode.</desc>
  <path id="SvgjsPath1007" d="M81.41 30.6C81.21 30.200000000000003 80.61 30 80.00999999999999 30C79.41 30 78.80999999999999 30.2 78.60999999999999 30.6L60.609999999999985 50.6C60.009999999999984 51.2 59.80999999999999 52 60.20999999999999 52.800000000000004C60.40999999999999 53.6 61.20999999999999 54.00000000000001 62.009999999999984 54.00000000000001H64.00999999999999V68C64.00999999999999 69.2 64.80999999999999 70 66.00999999999999 70H94.00999999999999C95.21 70 96.00999999999999 69.2 96.00999999999999 68V54H98.00999999999999C98.80999999999999 54 99.60999999999999 53.6 99.80999999999999 52.8C100.21 52 100.00999999999999 51.199999999999996 99.40999999999998 50.599999999999994ZM76.01 58H84.01V68H76.01ZM94.01 68H86.01V58C86.01 56.8 85.21000000000001 56 84.01 56H76.01C74.81 56 74.01 56.8 74.01 58V68H66.01V52H62.010000000000005L80.01 32L98.01 52H94.01Z " fill-opacity="1" transform="matrix(1,0,0,1,-60,-30)" style="fill: rgb(255, 255, 255);"/>
  <path id="SvgjsPath1008" d="M76 48C76 49.2 76.8 50 78 50H82C83.2 50 84 49.2 84 48V44C84 42.8 83.2 42 82 42H78C76.8 42 76 42.8 76 44ZM78 48V44H82V48Z " fill-opacity="1" transform="matrix(1,0,0,1,-60,-30)" style="fill: rgb(255, 255, 255);"/>
</svg>