<svg id="SvgjsSvg1038" xmlns="http://www.w3.org/2000/svg" version="1.1" xmlns:xlink="http://www.w3.org/1999/xlink" xmlns:svgjs="http://svgjs.com/svgjs" width="32" height="32" viewBox="0 0 32 32"><title>Fill 1</title><desc>Created with Avocode.</desc><defs id="SvgjsDefs1039"></defs><path id="SvgjsPath1040" d="M1219 936.07H1227.53V935H1219Z " fill="#000000" fill-opacity="1" transform="matrix(1,0,0,1,-1199,-928)"></path><path id="SvgjsPath1041" d="M1217.09 934.75L1216.33 934L1213.51 936.82L1211.75 935.07L1211 935.82L1213.51 938.33Z " fill="#000000" fill-opacity="1" transform="matrix(1,0,0,1,-1199,-928)"></path><path id="SvgjsPath1042" d="M1219 944.07H1227.53V943H1219Z " fill="#000000" fill-opacity="1" transform="matrix(1,0,0,1,-1199,-928)"></path><path id="SvgjsPath1043" d="M1217.09 941.75L1216.33 941L1213.51 943.82L1211.75 942.07L1211 942.82L1213.51 945.33Z " fill="#000000" fill-opacity="1" transform="matrix(1,0,0,1,-1199,-928)"></path><path id="SvgjsPath1044" d="M1219 951.07H1227.53V950H1219Z " fill="#000000" fill-opacity="1" transform="matrix(1,0,0,1,-1199,-928)"></path><path id="SvgjsPath1045" d="M1217.09 949.75L1216.33 949L1213.51 951.82L1211.75 950.07L1211 950.82L1213.51 953.33Z " fill="#000000" fill-opacity="1" transform="matrix(1,0,0,1,-1199,-928)"></path><path id="SvgjsPath1046" d="M1229.93 955.73C1229.93 957.5 1228.5 958.9300000000001 1226.73 958.9300000000001H1206.78C1207.8799999999999 958.0500000000001 1208.6 956.72 1208.6 955.2V929.07H1229.9299999999998ZM1208.36 928C1207.77 928 1207.53 928.48 1207.53 929.07V955.2C1207.53 957.26 1205.86 958.9300000000001 1203.8 958.9300000000001C1201.74 958.9300000000001 1200.07 957.2600000000001 1200.07 955.2V948.2700000000001H1205.3999999999999V947.2H1200.07C1199.48 947.2 1199 947.6800000000001 1199 948.2700000000001V955.2C1199 957.85 1201.15 960 1203.8 960C1203.82 960 1203.84 959.99 1203.86 959.99C1203.8799999999999 959.99 1203.8799999999999 960 1203.8899999999999 960H1226.7299999999998C1229.0899999999997 960 1230.9999999999998 958.09 1230.9999999999998 955.73V929.07C1230.9999999999998 928.48 1230.5199999999998 928 1229.9299999999998 928Z " fill="#000000" fill-opacity="1" transform="matrix(1,0,0,1,-1199,-928)"></path></svg>