<svg id="SvgjsSvg1028" xmlns="http://www.w3.org/2000/svg" version="1.1" xmlns:xlink="http://www.w3.org/1999/xlink" xmlns:svgjs="http://svgjs.com/svgjs" width="32" height="32" viewBox="0 0 32 32"><title>Fill 1</title><desc>Created with Avocode.</desc><defs id="SvgjsDefs1029"></defs><path id="SvgjsPath1030" d="M1228.53 878.67H1206.1299999999999C1205.55 878.67 1205.07 878.1899999999999 1205.07 877.5999999999999V854.1299999999999C1205.07 853.5499999999998 1205.55 853.0699999999999 1206.1299999999999 853.0699999999999H1228.53C1229.12 853.0699999999999 1229.6 853.55 1229.6 854.1299999999999V877.5999999999999C1229.6 878.1899999999999 1229.12 878.67 1228.53 878.67ZM1206.13 852C1204.95 852 1204 852.95 1204 854.13V877.6C1204 878.78 1204.95 879.73 1206.13 879.73H1228.5300000000002C1229.7100000000003 879.73 1230.6700000000003 878.78 1230.6700000000003 877.6V854.13C1230.6700000000003 852.95 1229.7100000000003 852 1228.5300000000002 852Z " fill="#000000" fill-opacity="1" transform="matrix(1,0,0,1,-1199,-848)"></path><path id="SvgjsPath1031" d="M1222.2 858.07H1224.65L1217.93 864.7800000000001L1213.71 860.5500000000001L1208 865.1200000000001L1208.67 865.9500000000002L1213.63 861.9800000000001L1217.93 866.2900000000001L1225.4 858.82V861.2700000000001H1226.47V857.0000000000001H1222.2Z " fill="#000000" fill-opacity="1" transform="matrix(1,0,0,1,-1199,-848)"></path><path id="SvgjsPath1032" d="M1200.07 873.6V850.13C1200.07 849.55 1200.55 849.07 1201.1299999999999 849.07H1223.53C1224.12 849.07 1224.6 849.5500000000001 1224.6 850.13H1225.6699999999998C1225.6699999999998 848.95 1224.7099999999998 848 1223.5299999999997 848H1201.1299999999997C1199.9499999999996 848 1198.9999999999995 848.95 1198.9999999999995 850.13V873.6C1198.9999999999995 874.78 1199.9499999999996 875.73 1201.1299999999997 875.73H1202.1999999999996V874.6700000000001H1201.1299999999997C1200.5499999999997 874.6700000000001 1200.0699999999997 874.19 1200.0699999999997 873.6 " fill="#000000" fill-opacity="1" transform="matrix(1,0,0,1,-1199,-848)"></path><path id="SvgjsPath1033" d="M1209 869.07H1220.73V868H1209Z " fill="#000000" fill-opacity="1" transform="matrix(1,0,0,1,-1199,-848)"></path><path id="SvgjsPath1034" d="M1209 872.07H1213.27V871H1209Z " fill="#000000" fill-opacity="1" transform="matrix(1,0,0,1,-1199,-848)"></path><path id="SvgjsPath1035" d="M1222 869.07H1226.27V868H1222Z " fill="#000000" fill-opacity="1" transform="matrix(1,0,0,1,-1199,-848)"></path><path id="SvgjsPath1036" d="M1215 872.07H1226.73V871H1215Z " fill="#000000" fill-opacity="1" transform="matrix(1,0,0,1,-1199,-848)"></path><path id="SvgjsPath1037" d="M1209 876.07H1221.8V875H1209Z " fill="#000000" fill-opacity="1" transform="matrix(1,0,0,1,-1199,-848)"></path></svg>