<?xml version="1.0" encoding="utf-8"?>
<svg id="SvgjsSvg1020" width="41" height="40" viewBox="0 0 41 40" xmlns="http://www.w3.org/2000/svg">
  <title>Shape</title>
  <desc>Created with Avocode.</desc>
  <path id="SvgjsPath1022" d="M391 52C389.8 52 389 52.8 389 54V58C389 59.2 389.8 60 391 60H397C398.2 60 399 59.2 399 58V54C399 52.8 398.2 52 397 52ZM391 58V54H397V58Z " fill="#ffffff" fill-opacity="1" transform="matrix(1,0,0,1,-381,-30)"/>
  <path id="SvgjsPath1023" d="M419.65 37C418.65 35.6 418.04999999999995 33.8 417.25 32.2C416.45 30.200000000000003 415.65 30.000000000000004 414.05 30.000000000000004C412.65000000000003 30.000000000000004 390.05 30.000000000000004 387.05 30.000000000000004C385.85 30.000000000000004 385.45 30.800000000000004 385.05 31.600000000000005C384.05 33.60000000000001 383.05 35.800000000000004 381.85 37.800000000000004C381.45000000000005 38.6 381.05 39.2 381.05 40.00000000000001C381.05 41.20000000000001 380.85 42.60000000000001 381.25 43.800000000000004C381.85 45.6 383.25 47.400000000000006 385.05 48.00000000000001C385.05 48.400000000000006 385.05 62.60000000000001 385.05 68C385.05 69.2 385.85 70 387.05 70H415.05C416.25 70 417.05 69.2 417.05 68V48C418.85 47.4 420.25 45.6 420.85 43.8C421.05 43 421.05 42 421.05 41.199999999999996C421.05 39.599999999999994 420.45 38.199999999999996 419.65000000000003 36.99999999999999ZM419.05 40H409.05V32H415.05ZM407.05 40H395.05V32H407.05ZM403.05 46H399.05C396.85 46 395.05 44.2 395.05 42H407.05C407.05 44.2 405.25 46 403.05 46ZM393.05 32V40H383.05L387.05 32ZM393.05 42C393.05 44.2 391.25 46 389.05 46H387.05C384.85 46 383.05 44.2 383.05 42ZM403.05 54H411.05V68H403.05ZM413.05 68V54C413.05 52.8 412.25 52 411.05 52H403.05C401.85 52 401.05 52.8 401.05 54V68H387.05V48H389.05C391.05 48 393.05 47 394.05 45.4C395.05 47 397.05 48 399.05 48H403.05C405.05 48 407.05 47 408.05 45.4C409.05 47 411.05 48 413.05 48H415.05V68ZM413.05 46C410.85 46 409.05 44.2 409.05 42H419.05C419.05 44.2 417.25 46 415.05 46Z " fill-opacity="1" transform="matrix(1,0,0,1,-381,-30)" style="fill: rgb(255, 255, 255);"/>
</svg>