<svg id="SvgjsSvg1023" xmlns="http://www.w3.org/2000/svg" version="1.1" xmlns:xlink="http://www.w3.org/1999/xlink" xmlns:svgjs="http://svgjs.com/svgjs" width="32" height="32" viewBox="0 0 32 32"><title>Fill 1</title><desc>Created with Avocode.</desc><defs id="SvgjsDefs1024"></defs><path id="SvgjsPath1025" d="M1206.58 364.33L1206.11 364.01L1205.58 364.21999999999997L1200.9099999999999 366.09L1202.7799999999997 361.41999999999996L1202.9899999999998 360.89L1202.6699999999998 360.41999999999996C1200.9699999999998 357.92999999999995 1200.07 355.02 1200.07 351.99999999999994C1200.07 343.7699999999999 1206.77 337.06999999999994 1215 337.06999999999994C1223.23 337.06999999999994 1229.93 343.7699999999999 1229.93 351.99999999999994C1229.93 360.22999999999996 1223.23 366.92999999999995 1215 366.92999999999995C1211.98 366.92999999999995 1209.07 366.03 1206.58 364.3299999999999ZM1199 352C1199 355.35 1200.03 358.45 1201.79 361.02L1199 368L1205.98 365.21C1208.55 366.96999999999997 1211.65 368 1215 368C1223.84 368 1231 360.84 1231 352C1231 343.16 1223.84 336 1215 336C1206.16 336 1199 343.16 1199 352Z " fill="#000000" fill-opacity="1" transform="matrix(1,0,0,1,-1199,-336)"></path><path id="SvgjsPath1026" d="M1215.27 340C1208.5 340 1203 345.5 1203 352.27H1204.07C1204.07 346.09 1209.09 341.07 1215.27 341.07Z " fill="#000000" fill-opacity="1" transform="matrix(1,0,0,1,-1199,-336)"></path></svg>