<svg id="SvgjsSvg1009" xmlns="http://www.w3.org/2000/svg" version="1.1" xmlns:xlink="http://www.w3.org/1999/xlink" xmlns:svgjs="http://svgjs.com/svgjs" width="50" height="50" viewBox="0 0 50 50"><title>Mask</title><desc>Created with Avocode.</desc><defs id="SvgjsDefs1010"></defs><path id="SvgjsPath1011" d="M1190 60C1190 46.19288 1201.19288 35 1215 35C1228.80712 35 1240 46.19288 1240 60C1240 73.80712 1228.80712 85 1215 85C1201.19288 85 1190 73.80712 1190 60Z " fill="#dce3e7" fill-opacity="1" transform="matrix(1,0,0,1,-1190,-35)"></path><path id="SvgjsPath1012" d="M1219.96 63.72C1218.46 63.21 1217.69 62.1 1217.3 61.21C1219.46 59.910000000000004 1220.58 56.84 1220.58 54.5C1220.58 51.46 1218.12 49 1215.08 49C1212.05 49 1209.58 51.46 1209.58 54.5C1209.58 56.84 1210.71 59.92 1212.87 61.21C1212.4799999999998 62.11 1211.7099999999998 63.230000000000004 1210.2199999999998 63.71C1207.5799999999997 64.57000000000001 1204.9999999999998 64.85 1204.9999999999998 69.17V71H1225.1699999999998V69.17C1225.1699999999998 64.91 1222.6999999999998 64.64 1219.9599999999998 63.72Z " fill="#414141" fill-opacity="0.5" transform="matrix(1,0,0,1,-1190,-35)"></path></svg>