<svg id="SvgjsSvg1014" xmlns="http://www.w3.org/2000/svg" version="1.1" xmlns:xlink="http://www.w3.org/1999/xlink" xmlns:svgjs="http://svgjs.com/svgjs" width="32" height="33" viewBox="0 0 32 33"><title>Fill 1</title><desc>Created with Avocode.</desc><defs id="SvgjsDefs1015"></defs><path id="SvgjsPath1016" d="M1221.19 571H1211.4V562.96C1211.4 562.57 1211.5800000000002 562.23 1211.8500000000001 562.09C1212.89 561.5300000000001 1213.5300000000002 560.45 1213.5300000000002 559.27L1213.5400000000002 556.0699999999999C1215.3000000000002 556.0699999999999 1216.7300000000002 557.4999999999999 1216.7300000000002 559.27V562.47H1221.6000000000001C1221.92 562.47 1222.22 562.61 1222.42 562.86C1222.63 563.11 1222.71 563.4300000000001 1222.64 563.74ZM1210.33 572.07H1206.07V563.5300000000001H1210.33ZM1217.8 561.4V559.27C1217.8 556.91 1215.8899999999999 555 1213.53 555C1213.51 555 1213.49 555 1213.46 555C1212.9 555.01 1212.47 555.5 1212.47 556.07V559.2700000000001C1212.47 560.08 1212.01 560.7900000000001 1211.34 561.1500000000001C1210.84 561.4200000000001 1210.52 561.9100000000001 1210.3899999999999 562.4700000000001H1206.07C1205.48 562.4700000000001 1205 562.9400000000002 1205 563.5300000000001V572.07C1205 572.6600000000001 1205.48 573.13 1206.07 573.13H1210.33C1210.9199999999998 573.13 1211.3999999999999 572.66 1211.3999999999999 572.07H1221.1899999999998C1221.6999999999998 572.07 1222.1399999999999 571.71 1222.2399999999998 571.21L1223.6899999999998 563.95C1223.9499999999998 562.63 1222.9399999999998 561.4000000000001 1221.6 561.4000000000001Z " fill="#000000" fill-opacity="1" transform="matrix(1,0,0,1,-1199,-544)"></path><path id="SvgjsPath1017" d="M1209.07 567C1208.48 567 1208 567.48 1208 568.07C1208 568.6600000000001 1208.48 569.13 1209.07 569.13C1209.6599999999999 569.13 1210.1299999999999 568.66 1210.1299999999999 568.07C1210.1299999999999 567.48 1209.6599999999999 567 1209.07 567 " fill="#000000" fill-opacity="1" transform="matrix(1,0,0,1,-1199,-544)"></path><path id="SvgjsPath1018" d="M1226.73 563.13V575.93H1203.26V563.13H1200.06L1214.99 546.06L1222.46 554.5899999999999V550.3299999999999H1224.5900000000001V557.03L1229.93 563.13ZM1225.66 556.63V549.27H1221.39V551.75C1218.38 548.31 1215.8000000000002 545.37 1215.7900000000002 545.36C1215.39 544.9 1214.6200000000001 544.86 1214.1900000000003 545.36C1214.1900000000003 545.36 1199.3100000000002 562.36 1199.2600000000002 562.4300000000001C1198.6700000000003 563.1 1199.1600000000003 564.2 1200.0600000000002 564.2H1202.1900000000003V575.9300000000001H1200.0600000000002V577.0000000000001H1229.93V575.9300000000001H1227.79V564.2H1229.93C1230.79 564.2 1231.3400000000001 563.12 1230.73 562.4300000000001C1230.73 562.4300000000001 1228.44 559.8100000000001 1225.66 556.6300000000001Z " fill="#000000" fill-opacity="1" transform="matrix(1,0,0,1,-1199,-544)"></path></svg>