<svg id="SvgjsSvg1000" xmlns="http://www.w3.org/2000/svg" version="1.1" xmlns:xlink="http://www.w3.org/1999/xlink" xmlns:svgjs="http://svgjs.com/svgjs" width="166" height="187" viewBox="0 0 166 187"><title>Shape</title><desc>Created with Avocode.</desc><defs id="SvgjsDefs1001"></defs><path id="SvgjsPath1007" d="M282.07 3518.45C292.44 3514.1299999999997 326.39 3513 330.01 3513C325.40999999999997 3529.53 318.01 3576.08 317.3 3597.13C305.44 3595.6 286.59000000000003 3591.11 279.88 3586.61C278.07 3578.34 279.17 3532.23 282.07 3518.4500000000003Z " fill="#d03528" fill-opacity="1" transform="matrix(1,0,0,1,-224,-3475)"></path><path id="SvgjsPath1008" d="M331.04 3513C325.22 3531.98 317.76000000000005 3587.94 318.01000000000005 3596.5C318.26000000000005 3595.84 318.74000000000007 3595.29 319.35 3594.93C319.35 3594.93 326.06 3534.3399999999997 332.16 3515.02C331.86 3514.3 331.49 3513.63 331.04 3513Z " fill="#cd2027" fill-opacity="1" transform="matrix(1,0,0,1,-224,-3475)"></path><path id="SvgjsPath1009" d="M287.64 3524.25C297.84 3522.93 308.09999999999997 3522.18 318.38 3522C309.85 3523.13 292.79 3524.76 289.26 3525.6C288.13 3529.02 287.37 3532.54 287 3536.12C287.1 3531.35 287.64 3524.25 287.64 3524.25Z " fill="#ffffff" fill-opacity="1" transform="matrix(1,0,0,1,-224,-3475)"></path><path id="SvgjsPath1010" d="M286.61 3543.35C295.81 3542.15 305.09000000000003 3541.75 314.36 3542.15C305.63 3542.6600000000003 291.26 3543.82 288.06 3544.58C287.04 3547.66 286.35 3550.85 286 3554.08C286.12 3549.74 286.61 3543.35 286.61 3543.35Z " fill="#ffffff" fill-opacity="1" transform="matrix(1,0,0,1,-224,-3475)"></path><path id="SvgjsPath1011" d="M285.58 3570.57C288.26 3570.15 297.64 3569.6600000000003 311.4 3570.3300000000004C303.51 3570.5000000000005 289.96 3571.0200000000004 286.96 3571.7400000000002C285.98999999999995 3574.67 285.33 3577.69 285 3580.7500000000005C285.09 3576.6200000000003 285.58 3570.5700000000006 285.58 3570.5700000000006Z " fill="#ffffff" fill-opacity="1" transform="matrix(1,0,0,1,-224,-3475)"></path><path id="SvgjsPath1012" d="M314.12 3551.07L318.27 3551C318.27 3551 316.41999999999996 3553.02 315.9 3553.68C315.97999999999996 3554.29 316.09999999999997 3560.44 316.15 3562.91H314.13L313 3553.5899999999997C313.26 3552.7999999999997 314.12 3551.0699999999997 314.12 3551.0699999999997Z " fill="#ffffff" fill-opacity="1" transform="matrix(1,0,0,1,-224,-3475)"></path><path id="SvgjsPath1013" d="M318.02 3552L316 3554.34V3563.56L316.51 3563.0499999999997V3554.5099999999998L318.02 3552.83Z " fill="#ffffff" fill-opacity="1" transform="matrix(1,0,0,1,-224,-3475)"></path><path id="SvgjsPath1014" d="M371.4 3509.03C327.26 3487.6200000000003 284.67999999999995 3485.09 238.99999999999997 3481C254.32999999999998 3483.46 268.19 3485.95 280.75 3488.43C347.09000000000003 3501.6 352.33 3507.93 361.58 3513.22C369.7 3513.29 371.4 3509.0299999999997 371.4 3509.0299999999997Z " fill="#d03528" fill-opacity="1" transform="matrix(1,0,0,1,-224,-3475)"></path><path id="SvgjsPath1015" d="M259 3525.92C272.42 3502.06 299.71 3485 319.4 3475C313.14 3479.24 307.58 3483.29 302.62 3487.14C276.37 3507.5699999999997 267.44 3522.23 264.89 3527.87C262.71 3528.5899999999997 260.31 3527.7999999999997 259 3525.92Z " fill="#d03528" fill-opacity="1" transform="matrix(1,0,0,1,-224,-3475)"></path><path id="SvgjsPath1016" d="M240.91 3631.27L231.89 3621.13H226.48V3631.27H224V3609H233.25C236.11 3609 240.81 3609.99 240.81 3614.19C240.81 3616.81 238.23 3619.25 233.78 3620.4500000000003L243.76 3631.26H240.91ZM226.49 3609.73V3620.15C227.35000000000002 3620.29 228.21 3620.36 229.08 3620.39C234.88000000000002 3620.39 238.10000000000002 3618.2 238.10000000000002 3614.31C238.09000000000003 3611.58 235.39000000000001 3609.73 231.40000000000003 3609.73Z " fill="#d03528" fill-opacity="1" transform="matrix(1,0,0,1,-224,-3475)"></path><path id="SvgjsPath1017" d="M248.74 3623.05C248.91 3628.02 251.69 3630.94 257.26 3630.94C259.17 3630.94 261.07 3630.66 262.9 3630.12V3630.85C260.66999999999996 3631.38 258.38 3631.66 256.08 3631.67C247.48999999999998 3631.67 245.99999999999997 3625.98 245.99999999999997 3623.34C245.99999999999997 3619.17 249.00999999999996 3615 255.02999999999997 3615C261.03999999999996 3615 262.92999999999995 3619.13 262.92999999999995 3623.01H248.70999999999995ZM248.84 3622.54H260.22C260.27000000000004 3618.92 259.16 3615.7799999999997 254.78000000000003 3615.7799999999997C250.71000000000004 3615.7799999999997 249.14000000000004 3618.89 248.84000000000003 3622.54Z " fill="#d03528" fill-opacity="1" transform="matrix(1,0,0,1,-224,-3475)"></path><path id="SvgjsPath1018" d="M283.58 3631.86H283.58239L283.58 3631.8900000000003ZM283.84 3628.62H282.21C280.65999999999997 3631.0299999999997 277.93 3632.43 275.06 3632.29C269.16 3632.29 267 3628.41 267 3624.4C267 3620.39 269.62 3615.57 275.78 3615.57C278.19 3615.44 280.55999999999995 3616.27 282.34999999999997 3617.8900000000003L283.86999999999995 3617.9600000000005L283.50999999999993 3614.6800000000003V3608.0000000000005H285.98999999999995V3631.8600000000006H283.58239ZM282.68 3618.98C280.2 3617.23 278.58 3616.34 275.65000000000003 3616.34C270.35 3616.34 268.88000000000005 3620.7400000000002 268.88000000000005 3624.08C268.88000000000005 3627.15 269.84000000000003 3631.16 274.96000000000004 3631.16C277.85 3631.04 280.6 3629.83 282.64000000000004 3627.7799999999997V3619.0199999999995Z " fill="#d03528" fill-opacity="1" transform="matrix(1,0,0,1,-224,-3475)"></path><path id="SvgjsPath1019" d="M303 3631.27V3609H313.54C322.32 3609 327.08000000000004 3612.94 327.08000000000004 3619.59C327.12000000000006 3625.6800000000003 322.85 3631.27 313.51000000000005 3631.27ZM305.48 3609.73V3630.55H313.3C318.04 3630.55 324.41 3628.4700000000003 324.41 3619.8900000000003C324.41 3610.4600000000005 315.52000000000004 3609.7300000000005 312 3609.7300000000005Z " fill="#d03528" fill-opacity="1" transform="matrix(1,0,0,1,-224,-3475)"></path><path id="SvgjsPath1020" d="M331 3623.34C331 3619.73 333.19 3615 341.08 3615C348.96 3615 351.15 3619.73 351.15 3623.34C351.15 3625.98 349.65999999999997 3631.67 341.08 3631.67C332.49 3631.67 331 3625.98 331 3623.34ZM340.75 3615.9C335.11 3615.9 333.43 3619.84 333.43 3623.52C333.43 3627.19 335.08 3631.13 340.75 3631.13C346.41 3631.13 348.07 3627.19 348.07 3623.52C348.07 3619.84 346.40999999999997 3615.89 340.75 3615.89Z " fill="#d03528" fill-opacity="1" transform="matrix(1,0,0,1,-224,-3475)"></path><path id="SvgjsPath1021" d="M354 3623.34C354 3619.73 356.19 3615 364.08 3615C371.96 3615 374.15 3619.73 374.15 3623.34C374.15 3625.98 372.65 3631.67 364.08 3631.67C355.49 3631.67 354 3625.98 354 3623.34ZM363.75 3615.9C358.11 3615.9 356.43 3619.84 356.43 3623.52C356.43 3627.19 358.08 3631.13 363.75 3631.13C369.41 3631.13 371.07 3627.19 371.07 3623.52C371.07 3619.84 369.40999999999997 3615.89 363.74 3615.89Z " fill="#d03528" fill-opacity="1" transform="matrix(1,0,0,1,-224,-3475)"></path><path id="SvgjsPath1022" d="M388.94 3616.13C385.9 3616.19 383.1 3617.78 381.52 3620.37V3631.29H379V3615.4H381.41V3618.51H382.78000000000003C384.25000000000006 3616.2200000000003 386.83000000000004 3614.88 389.55 3615.01H389.98V3616.2000000000003C389.63 3616.1600000000003 389.29 3616.1400000000003 388.94 3616.13Z " fill="#d03528" fill-opacity="1" transform="matrix(1,0,0,1,-224,-3475)"></path><path id="SvgjsPath1023" d="M245.35 3657.54C237.78 3657.54 234 3653.13 234 3647.79C234 3642.45 237.84 3638 245.35 3638C248.07 3638.02 250.78 3638.28 253.44 3638.8V3639.82C250.81 3639.07 248.09 3638.6600000000003 245.35 3638.61C238.57999999999998 3638.61 236.32 3643.33 236.32 3647.79C236.32 3652.25 238.57999999999998 3656.95 245.35 3656.95C248.12 3656.99 250.88 3656.47 253.44 3655.43V3656.23C250.85999999999999 3657.21 248.10999999999999 3657.66 245.35 3657.54Z " fill="#d03528" fill-opacity="1" transform="matrix(1,0,0,1,-224,-3475)"></path><path id="SvgjsPath1024" d="M256 3649.95C256 3646.9399999999996 257.83 3643 264.4 3643C270.96 3643 272.78999999999996 3646.94 272.78999999999996 3649.95C272.78999999999996 3652.16 271.54999999999995 3656.8999999999996 264.4 3656.8999999999996C257.23999999999995 3656.8999999999996 255.99999999999997 3652.16 255.99999999999997 3649.95ZM258.03 3650.09C258.03 3653.15 259.40999999999997 3656.4300000000003 264.14 3656.4300000000003C268.86 3656.4300000000003 270.24 3653.15 270.24 3650.09C270.24 3647.02 268.84000000000003 3643.7400000000002 264.14 3643.7400000000002C259.40999999999997 3643.7400000000002 258.03 3647.0200000000004 258.03 3650.09Z " fill="#d03528" fill-opacity="1" transform="matrix(1,0,0,1,-224,-3475)"></path><path id="SvgjsPath1025" d="M300.33 3656.56V3646.83C300.35999999999996 3645.99 300.02 3645.18 299.4 3644.6C298.78 3644.02 297.95 3643.74 297.10999999999996 3643.8199999999997C294.42999999999995 3643.8199999999997 292.46999999999997 3645.4399999999996 290.72999999999996 3647.2V3656.6099999999997H288.68999999999994V3646.8799999999997C288.69999999999993 3646.0299999999997 288.35999999999996 3645.22 287.72999999999996 3644.64C287.10999999999996 3644.0699999999997 286.27 3643.79 285.42999999999995 3643.87C282.78 3643.87 280.80999999999995 3645.49 279.0799999999999 3647.25V3656.65H276.99999999999994V3643.34H279.00999999999993L278.7799999999999 3646.06H280.13999999999993C281.61999999999995 3644.12 283.92999999999995 3642.99 286.37999999999994 3643C288.3399999999999 3643 290.4099999999999 3643.88 290.62999999999994 3646.06H291.81999999999994C293.2199999999999 3644.14 295.4599999999999 3643.0099999999998 297.8399999999999 3643C299.63999999999993 3643 302.4599999999999 3643.66 302.4599999999999 3646.38V3656.52H300.3299999999999Z " fill="#d03528" fill-opacity="1" transform="matrix(1,0,0,1,-224,-3475)"></path><path id="SvgjsPath1026" d="M311.01 3654.95H309.77L310.08 3657.6499999999996V3661.9199999999996H308V3643.3499999999995H310.02L309.78999999999996 3646.0699999999993H311.15C312.44 3644.0499999999993 314.71999999999997 3642.879999999999 317.12 3643.0099999999993C322.06 3643.0099999999993 323.8 3646.229999999999 323.8 3649.5399999999995C323.8 3652.8499999999995 321.68 3656.9099999999994 316.51 3656.9099999999994C314.49 3657.0099999999993 312.51 3656.3099999999995 311.01 3654.9499999999994ZM316.87 3643.96C314.46 3644.06 312.18 3645.08 310.49 3646.79V3654.13C312.54 3655.56 313.88 3656.3 316.35 3656.3C320.74 3656.3 321.99 3652.6400000000003 321.99 3649.8500000000004C321.97 3647.2900000000004 321.1 3643.9400000000005 316.87 3643.9400000000005Z " fill="#d03528" fill-opacity="1" transform="matrix(1,0,0,1,-224,-3475)"></path><path id="SvgjsPath1027" d="M337.24 3654.17C334.91 3655.94 333.02 3656.9 330.89 3656.9C328.18 3656.9 326 3655.6600000000003 326 3653.52C326 3651.1 328.84 3649.25 334.95 3649.25H336.99V3647.65C336.99 3645.14 336.57 3643.65 332.79 3643.65C331.04 3643.71 329.31 3644.04 327.66 3644.64V3643.94C329.58000000000004 3643.33 331.58000000000004 3643.02 333.59000000000003 3643C337.1 3643 339.07000000000005 3644.13 339.07000000000005 3646.64V3653.15C339.07000000000005 3654.56 339.07000000000005 3656.4300000000003 341.58000000000004 3656.37V3656.68C341.04 3656.81 340.48 3656.8799999999997 339.91 3656.8999999999996C338.56 3656.8999999999996 337.66 3656.2099999999996 337.24 3654.1699999999996ZM334.64 3649.49C332.32 3649.49 328.08 3650.54 328.08 3653.18C328.08 3654.8399999999997 329.78999999999996 3656.14 331.89 3656.14C333.74 3656.04 335.51 3655.41 337 3654.31V3649.49Z " fill="#d03528" fill-opacity="1" transform="matrix(1,0,0,1,-224,-3475)"></path><path id="SvgjsPath1028" d="M357.14 3656.56V3646.86C357.14 3645.04 355.82 3643.9500000000003 353.76 3643.9500000000003C351.09 3644.09 348.64 3645.42 347.08 3647.5800000000004V3656.6000000000004H345V3643.34H347.02L346.78999999999996 3646.06H348.03999999999996C349.67999999999995 3644.15 352.05999999999995 3643.04 354.58 3643C357.47999999999996 3643 359.2 3644.68 359.2 3646.53V3656.5600000000004H357.12Z " fill="#d03528" fill-opacity="1" transform="matrix(1,0,0,1,-224,-3475)"></path><path id="SvgjsPath1029" d="M367.91 3661.55H366.20000000000005L369.15000000000003 3656.98L362.00000000000006 3643H364.18000000000006L370.4000000000001 3655.08L377.6600000000001 3643H379.0900000000001Z " fill="#d03528" fill-opacity="1" transform="matrix(1,0,0,1,-224,-3475)"></path></svg>