<svg id="SvgjsSvg1015" xmlns="http://www.w3.org/2000/svg" version="1.1" xmlns:xlink="http://www.w3.org/1999/xlink" xmlns:svgjs="http://svgjs.com/svgjs" width="60" height="60" viewBox="0 0 60 60"><title>Shape</title><desc>Created with Avocode.</desc><defs id="SvgjsDefs1016"></defs><path id="SvgjsPath1017" d="M633 858.87C633 861.05 633 862.25 633 864.43C634.39 864.43 637.96 864.43 638.56 864.43L648.88 854.1099999999999C652.45 855.4999999999999 656.82 854.6999999999999 659.6 851.9199999999998C663.57 847.9499999999998 663.57 841.7999999999998 659.6 837.8299999999998C655.83 834.0599999999998 649.48 834.0599999999998 645.51 837.8299999999998C642.73 840.6099999999998 641.93 844.7799999999999 643.3199999999999 848.3499999999998ZM658.21 850.33C655.4300000000001 853.11 651.86 852.9200000000001 648.48 851.72L637.76 862.44H634.99V859.6700000000001L645.7 848.95C644.32 845.57 644.32 842 647.09 839.22C648.48 837.63 650.6700000000001 836.84 652.65 836.84C659.6 836.84 663.17 845.37 658.2099999999999 850.33Z " fill="#76797a" fill-opacity="1" transform="matrix(1,0,0,1,-617,-812)"></path><path id="SvgjsPath1018" d="M653 842C653 840.89543 653.89543 840 655 840C656.10457 840 657 840.89543 657 842C657 843.10457 656.10457 844 655 844C653.89543 844 653 843.10457 653 842Z " fill="#76797a" fill-opacity="1" transform="matrix(1,0,0,1,-617,-812)"></path><path id="SvgjsPath1019" d="M666.56 833.71V820.02H658.6199999999999V824.5799999999999C653.06 818.2299999999999 648.2899999999998 812.67 648.2899999999998 812.67C647.4999999999999 811.88 646.1099999999999 811.68 645.3199999999998 812.67C645.3199999999998 812.67 617.7199999999998 844.24 617.5299999999999 844.43C616.3299999999998 845.8199999999999 617.3299999999998 847.81 618.9199999999998 847.81H622.8899999999999V869.64H618.9199999999998V871.63H674.4999999999999V869.64H670.5299999999999V847.81H674.4999999999999C676.0899999999999 847.81 677.0799999999999 845.8199999999999 676.0899999999999 844.43C676.0899999999999 844.43 671.92 839.4699999999999 666.56 833.7099999999999ZM664.57 822V831.53C663.1800000000001 829.9399999999999 661.99 828.55 660.6 826.9599999999999V821.9999999999999ZM668.54 869.64H624.87V845.8199999999999H618.92L646.7099999999999 814.06L674.4999999999999 845.8199999999999H668.5399999999998Z " fill="#76797a" fill-opacity="1" transform="matrix(1,0,0,1,-617,-812)"></path></svg>