<svg id="SvgjsSvg1020" xmlns="http://www.w3.org/2000/svg" version="1.1" xmlns:xlink="http://www.w3.org/1999/xlink" xmlns:svgjs="http://svgjs.com/svgjs" width="62" height="62" viewBox="0 0 62 62"><title>Shape</title><desc>Created with Avocode.</desc><defs id="SvgjsDefs1021"></defs><path id="SvgjsPath1022" d="M968.2 863.15V847H946V863.15ZM966.18 849.02V861.13H948.02V849.02Z " fill="#76797a" fill-opacity="1" transform="matrix(1,0,0,1,-923,-811)"></path><path id="SvgjsPath1023" d="M974.38 834.08V820.1500000000001H966.31V824.7900000000001C960.66 818.33 955.8199999999999 812.6800000000001 955.8199999999999 812.6800000000001C955.01 811.8800000000001 953.5999999999999 811.6700000000001 952.79 812.6800000000001C952.79 812.6800000000001 924.74 844.7700000000001 924.53 844.97C923.3199999999999 846.39 924.3299999999999 848.4100000000001 925.9499999999999 848.4100000000001H929.9799999999999V870.6100000000001H925.9499999999999V872.6200000000001H982.4599999999999V870.6100000000001H978.42V848.4100000000001H982.4599999999999C984.0699999999999 848.4100000000001 985.0799999999999 846.3900000000001 984.0699999999999 844.97C984.0699999999999 844.97 979.8299999999999 839.9300000000001 974.3799999999999 834.08ZM972.37 822.17V831.86C970.95 830.24 969.74 828.83 968.33 827.21V822.1700000000001ZM976.4 870.61H944.11V844.37H970.35V842.35H944.11V838.3100000000001H942.09V842.35H938.0600000000001V844.37H942.09V870.61H932V846.39H925.95L954.2 814.1L982.46 846.39H976.4000000000001Z " fill="#76797a" fill-opacity="1" transform="matrix(1,0,0,1,-923,-811)"></path></svg>