<svg id="SvgjsSvg1000" xmlns="http://www.w3.org/2000/svg" version="1.1" xmlns:xlink="http://www.w3.org/1999/xlink" xmlns:svgjs="http://svgjs.com/svgjs" width="63" height="63" viewBox="0 0 63 63"><title>Shape</title><desc>Created with Avocode.</desc><defs id="SvgjsDefs1001"></defs><path id="SvgjsPath1007" d="M345.62 842.31V838.2099999999999C345.62 833.6899999999999 341.92 829.9999999999999 337.41 829.9999999999999C337.41 829.9999999999999 337.41 829.9999999999999 337.21000000000004 829.9999999999999C336.18000000000006 829.9999999999999 335.36 831.0299999999999 335.36 832.0499999999998V838.2099999999998C335.36 839.8499999999998 334.54 841.0799999999998 333.1 841.8999999999999C332.08000000000004 842.5099999999999 331.46000000000004 843.3299999999998 331.26000000000005 844.3599999999999H323.05000000000007C321.82000000000005 844.3599999999999 321.00000000000006 845.18 321.00000000000006 846.4099999999999V862.8199999999998C321.00000000000006 864.0499999999998 321.82000000000005 864.8699999999998 323.05000000000007 864.8699999999998H331.26000000000005C332.49000000000007 864.8699999999998 333.31000000000006 864.0499999999997 333.31000000000006 862.8199999999998H352.18000000000006C353.21000000000004 862.8199999999998 354.0300000000001 862.2099999999998 354.2300000000001 861.1799999999998L357.1000000000001 847.2299999999998C357.5100000000001 844.7699999999998 355.4600000000001 842.3099999999998 353.00000000000006 842.3099999999998ZM323.05 862.82V846.4100000000001H331.26V862.82ZM333.31 860.77V845.38C333.31 844.56 333.72 843.95 334.13 843.74C336.18 842.72 337.40999999999997 840.67 337.40999999999997 838.41V832.26C340.9 832.26 343.55999999999995 834.92 343.55999999999995 838.41V844.56H352.99999999999994C353.61999999999995 844.56 354.22999999999996 844.77 354.63999999999993 845.38C355.04999999999995 845.79 355.25999999999993 846.41 355.04999999999995 847.03L352.17999999999995 860.77Z " fill="#76797a" fill-opacity="1" transform="matrix(1,0,0,1,-308,-810)"></path><path id="SvgjsPath1008" d="M325 857C325 855.89543 325.89543 855 327 855C328.10457 855 329 855.89543 329 857C329 858.10457 328.10457 859 327 859C325.89543 859 325 858.10457 325 857Z " fill="#76797a" fill-opacity="1" transform="matrix(1,0,0,1,-308,-810)"></path><path id="SvgjsPath1009" d="M360.21 833.44V819.2800000000001H352V824.0000000000001C346.26 817.4400000000002 341.34 811.6900000000002 341.34 811.6900000000002C340.52 810.8700000000001 339.08 810.6700000000002 338.26 811.6900000000002C338.26 811.6900000000002 309.75 844.3100000000002 309.53999999999996 844.5100000000002C308.30999999999995 845.9500000000003 309.34 848.0000000000002 310.97999999999996 848.0000000000002H315.08V870.5700000000003H310.97999999999996V872.6200000000002H368.40999999999997V870.5700000000003H364.30999999999995V848.0000000000002H368.40999999999997C370.05999999999995 848.0000000000002 371.08 845.9500000000003 370.05999999999995 844.5100000000002C370.05999999999995 844.5100000000002 365.74999999999994 839.3900000000002 360.2099999999999 833.4400000000002ZM362.26 870.57H317.13V845.95H310.98L339.70000000000005 813.13L354.06000000000006 829.54V821.3399999999999H358.1600000000001V834.2599999999999L368.4100000000001 845.9499999999999H362.2600000000001Z " fill="#76797a" fill-opacity="1" transform="matrix(1,0,0,1,-308,-810)"></path></svg>