<svg id="SvgjsSvg1013" xmlns="http://www.w3.org/2000/svg" version="1.1" xmlns:xlink="http://www.w3.org/1999/xlink" xmlns:svgjs="http://svgjs.com/svgjs" width="32" height="28" viewBox="0 0 32 28"><title>Fill 1</title><desc>Created with Avocode.</desc><defs id="SvgjsDefs1014"></defs><path id="SvgjsPath1015" d="M1219.67 198.93V192.53H1215.4V198.93H1212.2V193.6H1210.07L1217.53 185.07L1225 193.6H1222.87V198.93ZM1216.47 193.6H1218.6000000000001V198.93H1216.47ZM1221.8 186.13H1222.87V189.54L1221.8 188.32ZM1223.93 194.67H1225C1225.92 194.67 1226.41 193.58999999999997 1225.8 192.89999999999998L1223.93 190.76V185.07H1220.73V187.1L1218.34 184.35999999999999C1217.9199999999998 183.88 1217.1499999999999 183.88 1216.73 184.35999999999999C1216.73 184.35999999999999 1209.27 192.88 1209.26 192.89999999999998C1208.69 193.54999999999998 1209.16 194.67 1210.07 194.67H1211.1299999999999V198.92999999999998H1208.9999999999998V199.99999999999997H1226.0699999999997V198.92999999999998H1223.9299999999996Z " fill="#000000" fill-opacity="1" transform="matrix(1,0,0,1,-1199,-177)"></path><path id="SvgjsPath1016" d="M1229.67 202.33C1229.67 202.92000000000002 1229.19 203.4 1228.6000000000001 203.4H1205.13C1204.5500000000002 203.4 1204.0700000000002 202.92000000000002 1204.0700000000002 202.33V183.13000000000002C1204.0700000000002 182.55 1204.5500000000002 182.07000000000002 1205.13 182.07000000000002H1228.6000000000001C1229.19 182.07000000000002 1229.67 182.55 1229.67 183.13000000000002ZM1205.13 181C1203.95 181 1203 181.95 1203 183.13V202.32999999999998C1203 203.51 1203.95 204.46999999999997 1205.13 204.46999999999997H1228.6000000000001C1229.7800000000002 204.46999999999997 1230.7300000000002 203.50999999999996 1230.7300000000002 202.32999999999998V183.13C1230.7300000000002 181.95 1229.7800000000002 181 1228.6000000000001 181Z " fill="#000000" fill-opacity="1" transform="matrix(1,0,0,1,-1199,-177)"></path><path id="SvgjsPath1017" d="M1201.13 178.07H1224.6000000000001C1225.19 178.07 1225.67 178.54999999999998 1225.67 179.13H1226.73C1226.73 177.95 1225.78 177 1224.6 177H1201.1299999999999C1199.9499999999998 177 1198.9999999999998 177.95 1198.9999999999998 179.13V198.32999999999998C1198.9999999999998 199.51 1199.9499999999998 200.46999999999997 1201.1299999999999 200.46999999999997V199.39999999999998C1200.55 199.39999999999998 1200.07 198.92 1200.07 198.32999999999998V179.13C1200.07 178.54999999999998 1200.55 178.07 1201.1299999999999 178.07 " fill="#000000" fill-opacity="1" transform="matrix(1,0,0,1,-1199,-177)"></path></svg>