<?xml version="1.0" encoding="utf-8"?>
<!-- Generator: Adobe Illustrator 19.2.0, SVG Export Plug-In . SVG Version: 6.00 Build 0)  -->
<svg version="1.1" id="Layer_1" xmlns="http://www.w3.org/2000/svg" xmlns:xlink="http://www.w3.org/1999/xlink" x="0px" y="0px"
	 viewBox="0 0 30 30" style="enable-background:new 0 0 30 30;" xml:space="preserve">
<g id="Home_Selling">
	<path d="M11,25h11v-8H11V25z M12,18h9v6h-9V18z"/>
	<path d="M29.8,16.3c0,0-2.1-2.5-4.8-5.4V4h-4v2.3c-2.8-3.2-5.2-6-5.2-6c-0.4-0.4-1.1-0.5-1.5,0c0,0-13.9,15.9-14,16
		C-0.3,17,0.2,18,1,18h2v11H1v1h28v-1h-2V18c0,0,2,0,2,0C29.8,18,30.3,17,29.8,16.3z M22,5h2v4.8c-0.7-0.8-1.3-1.5-2-2.3V5z M26,17
		v12H10V16h13v-1H10v-2H9v2H7v1h2v13H4V17H1L15,1l14,16H26z"/>
</g>
</svg>
