<?xml version="1.0" encoding="utf-8"?>
<!-- Generator: Adobe Illustrator 21.1.0, SVG Export Plug-In . SVG Version: 6.00 Build 0)  -->
<!DOCTYPE svg PUBLIC "-//W3C//DTD SVG 1.1//EN" "http://www.w3.org/Graphics/SVG/1.1/DTD/svg11.dtd">
<svg version="1.1" id="Layer_1" xmlns="http://www.w3.org/2000/svg" xmlns:xlink="http://www.w3.org/1999/xlink" x="0px" y="0px"
	 viewBox="0 0 256 256" style="enable-background:new 0 0 256 256;" xml:space="preserve">
<g id="residential_townhome">
	<path id="window_4_" d="M76.8,102.4H64c-7.1,0-12.8,5.7-12.8,12.8v25.6c0,7.1,5.7,12.8,12.8,12.8h12.8c7.1,0,12.8-5.7,12.8-12.8
		v-25.6C89.6,108.1,83.9,102.4,76.8,102.4z M76.8,140.8H64v-25.6h12.8V140.8z"/>
	<path id="window_3_" d="M76.8,179.2H64c-7.1,0-12.8,5.7-12.8,12.8v25.6c0,7.1,5.7,12.8,12.8,12.8h12.8c7.1,0,12.8-5.7,12.8-12.8
		V192C89.6,184.9,83.9,179.2,76.8,179.2z M76.8,217.6H64V192h12.8V217.6z"/>
	<path id="window_2_" d="M192,179.2h-12.8c-7.1,0-12.8,5.7-12.8,12.8v25.6c0,7.1,5.7,12.8,12.8,12.8H192c7.1,0,12.8-5.7,12.8-12.8
		V192C204.8,184.9,199.1,179.2,192,179.2z M192,217.6h-12.8V192H192V217.6z"/>
	<path id="window_1_" d="M140.8,102.4h-25.6c-7.1,0-12.8,5.7-12.8,12.8v25.6c0,7.1,5.7,12.8,12.8,12.8h25.6
		c7.1,0,12.8-5.7,12.8-12.8v-25.6C153.6,108.1,147.9,102.4,140.8,102.4z M140.8,140.8h-25.6v-25.6h25.6V140.8z"/>
	<path id="window" d="M166.4,140.8c0,7.1,5.7,12.8,12.8,12.8H192c7.1,0,12.8-5.7,12.8-12.8v-25.6c0-7.1-5.7-12.8-12.8-12.8h-12.8
		c-7.1,0-12.8,5.7-12.8,12.8V140.8z M179.2,115.2H192v25.6h-12.8V115.2z"/>
	<path id="townhome" d="M255.1,72L229.5,8c-1.9-4.9-6.7-8-11.9-8H38.4c-5.2,0-9.9,3.2-11.9,8L0.9,72C-0.7,76-0.2,80.5,2.2,84
		s6.4,5.6,10.6,5.6h12.8v153.6H12.8c-3.5,0-6.4,2.9-6.4,6.4s2.9,6.4,6.4,6.4h230.4c3.5,0,6.4-2.9,6.4-6.4s-2.9-6.4-6.4-6.4h-12.8
		V89.6h12.8c4.2,0,8.2-2.1,10.6-5.6C256.2,80.5,256.7,76,255.1,72z M115.2,243.2V192h25.6v51.2H115.2z M217.6,102.4v140.8h-64V192
		c0-7.1-5.7-12.8-12.8-12.8h-25.6c-7.1,0-12.8,5.7-12.8,12.8v51.2h-64V102.4V89.6h51.2c4,0,7.8-1.9,10.2-5.1L128,46.9l28.2,37.5
		c2.4,3.2,6.2,5.1,10.2,5.1h51.2V102.4z M166.4,76.8l-28.2-37.5c-2.6-3.4-6.4-5.1-10.2-5.1s-7.7,1.7-10.2,5.1L89.6,76.8H12.8
		l25.6-64h179.2l25.6,64H166.4z"/>
</g>
</svg>
