<svg id="Layer_1" data-name="Layer 1" xmlns="http://www.w3.org/2000/svg" viewBox="0 0 256 256"><title>icon-magnifying-glass-house</title><g id="magnifying_glass_house" data-name="magnifying glass house"><path id="lens_glare" data-name="lens glare" d="M111.42,30.62a4,4,0,0,0,4.25-4.25,4,4,0,0,0-4.25-4.25A88.23,88.23,0,0,0,40,57.83c-1.7,1.7-.85,4.25.85,6a3.12,3.12,0,0,0,2.55.85,4.42,4.42,0,0,0,3.4-1.7A80.56,80.56,0,0,1,111.42,30.62Z" transform="translate(0 0)"/><path id="magnifying_glass" data-name="magnifying glass" d="M250.9,225.38,200.72,175.2a110.86,110.86,0,1,0-90.15,45.93c23.81,0,45.93-7.65,64.64-20.41l50.18,50.18a18,18,0,0,0,25.51-25.51ZM9.36,111.42C9.36,55.28,55.28,9.36,111.42,9.36S213.47,55.28,213.47,111.42,167.55,213.48,111.42,213.48,9.36,167.55,9.36,111.42ZM244.94,244.94c-3.4,3.4-10.21,3.4-13.61,0l-48.48-48.48,13.61-13.61,48.48,48.48C248.35,235.59,248.35,241.54,244.94,244.94Z" transform="translate(0 0)"/><path id="house" d="M118.22,54.43a10.35,10.35,0,0,0-13.61,0L53.58,114c-2.55,2.55-2.55,6-.85,9.36s4.25,5.1,7.65,5.1h8.5v34c0,5.1,3.4,8.5,8.5,8.5h17c5.1,0,8.5-3.4,8.5-8.5v-34h17v34c0,5.1,3.4,8.5,8.5,8.5h17c5.1,0,8.5-3.4,8.5-8.5v-34h8.5q5.1,0,7.65-5.1a9.13,9.13,0,0,0-.85-9.36Zm27.22,65.49v42.52h-17V119.92h-34v42.52h-17V119.92h-17l51-59.53,51,59.53Z" transform="translate(0 0)"/></g></svg>