<?xml version="1.0" encoding="utf-8"?>
<!-- Generator: Adobe Illustrator 19.2.0, SVG Export Plug-In . SVG Version: 6.00 Build 0)  -->
<svg version="1.1" id="Layer_1" xmlns="http://www.w3.org/2000/svg" xmlns:xlink="http://www.w3.org/1999/xlink" x="0px" y="0px"
	 viewBox="0 0 30 30" style="enable-background:new 0 0 30 30;" xml:space="preserve">
<g id="Search__x26__Recommendations">
	<path d="M13,3.5c0.3,0,0.5-0.2,0.5-0.5S13.3,2.5,13,2.5C9.7,2.5,6.6,4,4.6,6.7C4.4,6.9,4.5,7.2,4.7,7.4C4.8,7.5,4.9,7.5,5,7.5
		c0.2,0,0.3-0.1,0.4-0.2C7.2,4.9,10,3.5,13,3.5z"/>
	<path d="M29.4,26.4l-5.9-5.9c1.5-2.1,2.4-4.7,2.4-7.6c0-7.2-5.8-13-13-13S0,5.8,0,13s5.8,13,13,13c2.8,0,5.4-0.9,7.6-2.4
		c0,0,5.9,5.9,5.9,5.9c0.8,0.8,2.2,0.8,3,0C30.2,28.6,30.2,27.2,29.4,26.4z M1,13C1,6.4,6.4,1,13,1s12,5.4,12,12s-5.4,12-12,12
		S1,19.6,1,13z M28.7,28.7c-0.4,0.4-1.2,0.4-1.6,0L21.4,23l1.6-1.6l5.7,5.7C29.1,27.6,29.1,28.3,28.7,28.7z"/>
	<path d="M13.8,6.3C13.6,6.1,13.3,6,13,6s-0.6,0.1-0.8,0.3l-6,7c-0.3,0.3-0.3,0.7-0.1,1.1S6.6,15,7,15h1v4c0,0.6,0.4,1,1,1h2
		c0.6,0,1-0.4,1-1v-4h2v4c0,0.6,0.4,1,1,1h2c0.6,0,1-0.4,1-1v-4h1c0.4,0,0.7-0.2,0.9-0.6c0.2-0.4,0.1-0.8-0.1-1.1L13.8,6.3z M17,14
		v5h-2v-5h-4v5H9v-5H7l6-7l6,7H17z"/>
</g>
</svg>
