<?xml version="1.0" encoding="utf-8"?>
<!-- Generator: Adobe Illustrator 21.1.0, SVG Export Plug-In . SVG Version: 6.00 Build 0)  -->
<!DOCTYPE svg PUBLIC "-//W3C//DTD SVG 1.1//EN" "http://www.w3.org/Graphics/SVG/1.1/DTD/svg11.dtd">
<svg version="1.1" id="Layer_1" xmlns="http://www.w3.org/2000/svg" xmlns:xlink="http://www.w3.org/1999/xlink" x="0px" y="0px"
	 viewBox="0 0 256 256" style="enable-background:new 0 0 256 256;" xml:space="preserve">
<g id="house_key">
	<path id="key" d="M112.5,152.9l-44.3,44.3c0,9.4,0,14.5,0,23.9c6,0,21.3,0,23.9,0l44.3-44.3c15.3,6,34.1,2.6,46-9.4
		c17-17,17-43.5,0-60.5c-16.2-16.2-43.5-16.2-60.5,0C109.9,119.6,106.5,137.5,112.5,152.9z M152.5,103.4c29.8,0,45.2,36.6,23.9,58
		c-11.9,11.9-27.3,11.1-41.8,6l-46,46H76.7v-11.9l46-46c-6-14.5-6-29.8,6-41.8C134.6,106.9,144,103.4,152.5,103.4z"/>
	<circle id="key_hole" cx="161.9" cy="128.2" r="8.5"/>
	<path id="house" d="M254,139.2c0,0-17.9-21.3-40.9-46V34.4H179V54c-23.9-27.3-44.3-51.1-44.3-51.1c-3.4-3.4-9.4-4.3-12.8,0
		c0,0-118.5,135.5-119.3,136.4c-5.1,5.1-0.9,14.5,6.8,14.5h17v93.7h-17v8.5H248v-8.5h-17v-93.7h17C254,153.7,258.2,145.2,254,139.2z
		 M187.5,42.9h17v40.9c-6-6.8-11.1-12.8-17-19.6V42.9z M221.6,145.2v102.3H34.1V145.2H8.5L127.8,8.9l119.3,136.4H221.6z"/>
</g>
</svg>
