<?xml version="1.0" encoding="utf-8"?>
<!-- Generator: Adobe Illustrator 21.1.0, SVG Export Plug-In . SVG Version: 6.00 Build 0)  -->
<!DOCTYPE svg PUBLIC "-//W3C//DTD SVG 1.1//EN" "http://www.w3.org/Graphics/SVG/1.1/DTD/svg11.dtd">
<svg version="1.1" id="Layer_1" xmlns="http://www.w3.org/2000/svg" xmlns:xlink="http://www.w3.org/1999/xlink" x="0px" y="0px"
	 viewBox="0 0 256 256" style="enable-background:new 0 0 256 256;" xml:space="preserve">
<g id="house_thumbsup">
	<path id="thumbsup" d="M184,128h-30.4v-17.1c0-18.9-15.3-34.1-34.1-34.1c-0.2,0-0.4,0-0.6,0c-4.5,0.1-8,4-8,8.5v25.6
		c0,6.5-3.6,12.2-9,15c-4,2.2-6.6,6.1-7.6,10.6H59.7c-4.7,0-8.5,3.8-8.5,8.5v68.3c0,4.7,3.8,8.5,8.5,8.5h34.1c4.7,0,8.5-3.8,8.5-8.5
		h78.3c4.1,0,7.6-2.9,8.4-6.9l11.6-58.1C202.8,137.9,194.7,128,184,128z M93.9,213.3H59.7v-68.3h34.1v34.1v25.6V213.3z M180.7,204.8
		h-78.3v-25.6v-38.7c0-3.1,1.4-5.8,3.6-7c8.3-4.5,13.5-13.1,13.5-22.6l0.1-25.6c14.1,0,25.5,11.5,25.5,25.6V128v8.5h8.5H184
		c2.6,0,5,1.1,6.6,3.1c1.6,2,2.3,4.6,1.8,7.1L180.7,204.8z"/>
	<circle id="button" cx="76.8" cy="187.7" r="8.5"/>
	<path id="house" d="M253.9,139.4c0,0-18.3-20.9-40.6-46.4V34.1h-34.1V54c-24.1-27.5-44.7-51.1-44.8-51.2c-3.2-3.7-9.4-3.9-12.8,0
		c0,0-119,136-119.5,136.6c-4.7,5.4-0.7,14.2,6.4,14.2h17.1v93.9H8.5v8.5h238.9v-8.5h-17.1v-93.9c0,0,17,0,17.1,0
		C254.4,153.6,258.8,145,253.9,139.4z M221.9,145.1v102.4H34.1V145.1H8.5L128,8.5l59.7,68.2V42.7h17.1v53.6l42.7,48.8H221.9z"/>
</g>
</svg>
