<?xml version="1.0" encoding="utf-8"?>
<!-- Generator: Adobe Illustrator 19.2.0, SVG Export Plug-In . SVG Version: 6.00 Build 0)  -->
<svg version="1.1" id="Layer_1" xmlns="http://www.w3.org/2000/svg" xmlns:xlink="http://www.w3.org/1999/xlink" x="0px" y="0px"
	 viewBox="0 0 30 30" style="enable-background:new 0 0 30 30;" xml:space="preserve">
<g id="Property_Management">
	<path d="M29.8,16.3c0,0-2.1-2.5-4.8-5.4V4h-4v2.3c-2.8-3.2-5.2-6-5.2-6c-0.4-0.4-1.1-0.5-1.5,0c0,0-13.9,15.9-14,16
		C-0.3,17,0.2,18,1,18h2v11H1v1h28v-1h-2V18c0,0,2,0,2,0C29.8,18,30.3,17,29.8,16.3z M22,5h2v4.8c-0.7-0.8-1.3-1.5-2-2.3V5z M26,17
		v12H4V17H1L15,1l14,16H26z"/>
	<path d="M8,12v14c0,0.6,0.4,1,1,1h9c1.6-1.6,2.4-2.4,4-4v-1V12c0-0.6-0.4-1-1-1H9C8.4,11,8,11.4,8,12z M18,25.6V23h2.6L18,25.6z
		 M21,22h-3c-0.6,0-1,0.4-1,1v3H9V12h12V22z"/>
	<rect x="14" y="14" width="5" height="1"/>
	<rect x="11" y="14" width="1" height="1"/>
	<rect x="14" y="17" width="5" height="1"/>
	<rect x="11" y="17" width="1" height="1"/>
	<rect x="14" y="20" width="5" height="1"/>
	<rect x="11" y="20" width="1" height="1"/>
</g>
</svg>
