<?xml version="1.0" encoding="utf-8"?>
<!-- Generator: Adobe Illustrator 21.1.0, SVG Export Plug-In . SVG Version: 6.00 Build 0)  -->
<!DOCTYPE svg PUBLIC "-//W3C//DTD SVG 1.1//EN" "http://www.w3.org/Graphics/SVG/1.1/DTD/svg11.dtd">
<svg version="1.1" id="Layer_1" xmlns="http://www.w3.org/2000/svg" xmlns:xlink="http://www.w3.org/1999/xlink" x="0px" y="0px"
	 viewBox="0 0 1200 630" style="enable-background:new 0 0 1200 630;" xml:space="preserve">
<g id="house_sign">
	<path id="sign" d="M596,326h11v-8h-11V326z M597,319h9v6h-9V319z"/>
	<path id="house" d="M614.8,317.3c0,0-2.1-2.5-4.8-5.4V305h-4v2.3c-2.8-3.2-5.2-6-5.2-6c-0.4-0.4-1.1-0.5-1.5,0c0,0-13.9,15.9-14,16
		c-0.6,0.6-0.1,1.7,0.8,1.7h2v11h-2v1h28v-1h-2v-11c0,0,2,0,2,0C614.8,319,615.3,318,614.8,317.3z M607,306h2v4.8
		c-0.7-0.8-1.3-1.5-2-2.3V306z M611,318v12h-16v-13h13v-1h-13v-2h-1v2h-2v1h2v13h-5v-12h-3l14-16l14,16H611z"/>
</g>
</svg>
