<?xml version="1.0" encoding="utf-8"?>
<!-- Generator: Adobe Illustrator 19.2.0, SVG Export Plug-In . SVG Version: 6.00 Build 0)  -->
<svg version="1.1" id="Layer_1" xmlns="http://www.w3.org/2000/svg" xmlns:xlink="http://www.w3.org/1999/xlink" x="0px" y="0px"
	 viewBox="0 0 30 30" style="enable-background:new 0 0 30 30;" xml:space="preserve">
<g id="Home_Buying">
	<path d="M15,12h-1v2h-0.5c-1.7,0-3,1.3-3,3s1.3,3,3,3H14v4h-0.5c-1.1,0-2-0.9-2-2h-1c0,1.7,1.3,3,3,3H14v2h1v-2h0.5
		c1.7,0,3-1.3,3-3s-1.3-3-3-3H15v-4h0.5c1.1,0,2,0.9,2,2h1c0-1.7-1.3-3-3-3H15V12z M15.5,20c1.1,0,2,0.9,2,2s-0.9,2-2,2H15v-4H15.5z
		 M14,19h-0.5c-1.1,0-2-0.9-2-2s0.9-2,2-2H14V19z"/>
	<path d="M29.8,16.3c0,0-2.1-2.5-4.8-5.4V4h-4v2.3c-2.8-3.2-5.2-6-5.2-6c-0.4-0.4-1.1-0.5-1.5,0c0,0-13.9,15.9-14,16
		C-0.3,17,0.2,18,1,18h2v11H1v1h28v-1h-2V18c0,0,2,0,2,0C29.8,18,30.3,17,29.8,16.3z M22,5h2v4.8c-0.7-0.8-1.3-1.5-2-2.3V5z M26,17
		v12H4V17H1L15,1l14,16H26z"/>
</g>
</svg>
