<?xml version="1.0" encoding="utf-8"?>
<!-- Generator: Adobe Illustrator 21.1.0, SVG Export Plug-In . SVG Version: 6.00 Build 0)  -->
<!DOCTYPE svg PUBLIC "-//W3C//DTD SVG 1.1//EN" "http://www.w3.org/Graphics/SVG/1.1/DTD/svg11.dtd">
<svg version="1.1" id="Layer_1" xmlns="http://www.w3.org/2000/svg" xmlns:xlink="http://www.w3.org/1999/xlink" x="0px" y="0px"
	 viewBox="0 0 256 256" style="enable-background:new 0 0 256 256;" xml:space="preserve">
<g id="house_dollar">
	<path id="dollar" d="M127.8,102.6h-8.5v17H115c-14.5,0-25.6,11.1-25.6,25.6s11.1,25.6,25.6,25.6h4.3v34.1H115c-9.4,0-17-7.7-17-17
		h-8.5c0,14.5,11.1,25.6,25.6,25.6h4.3v17h8.5v-17h4.3c14.5,0,25.6-11.1,25.6-25.6c0-14.5-11.1-25.6-25.6-25.6h-4.3v-34.1h4.3
		c9.4,0,17,7.7,17,17h8.5c0-14.5-11.1-25.6-25.6-25.6h-4.3V102.6z M132.1,170.8c9.4,0,17,7.7,17,17c0,9.4-7.7,17-17,17h-4.3v-34.1
		H132.1z M119.3,162.3H115c-9.4,0-17-7.7-17-17s7.7-17,17-17h4.3V162.3z"/>
	<path id="house" d="M254,139.2c0,0-17.9-21.3-40.9-46V34.4H179V54c-23.9-27.3-44.3-51.1-44.3-51.1c-3.4-3.4-9.4-4.3-12.8,0
		c0,0-118.5,135.5-119.3,136.4c-5.1,5.1-0.9,14.5,6.8,14.5h17v93.7h-17v8.5H248v-8.5h-17v-93.7h17C254,153.7,258.2,145.2,254,139.2z
		 M187.5,42.9h17v40.9c-6-6.8-11.1-12.8-17-19.6V42.9z M221.6,145.2v102.3H34.1V145.2H8.5L127.8,8.9l119.3,136.4H221.6z"/>
</g>
</svg>
