<?xml version="1.0" encoding="utf-8"?>
<!-- Generator: Adobe Illustrator 21.1.0, SVG Export Plug-In . SVG Version: 6.00 Build 0)  -->
<!DOCTYPE svg PUBLIC "-//W3C//DTD SVG 1.1//EN" "http://www.w3.org/Graphics/SVG/1.1/DTD/svg11.dtd">
<svg version="1.1" id="Layer_1" xmlns="http://www.w3.org/2000/svg" xmlns:xlink="http://www.w3.org/1999/xlink" x="0px" y="0px"
	 viewBox="0 0 1200 630" style="enable-background:new 0 0 1200 630;" xml:space="preserve">
<g id="magnifying_glass_house">
	<path id="lens_glare" d="M598,303.5c0.3,0,0.5-0.2,0.5-0.5s-0.2-0.5-0.5-0.5c-3.3,0-6.4,1.5-8.4,4.2c-0.2,0.2-0.1,0.5,0.1,0.7
		c0.1,0.1,0.2,0.1,0.3,0.1c0.2,0,0.3-0.1,0.4-0.2C592.2,304.9,595,303.5,598,303.5z"/>
	<path id="magnifying_glass" d="M614.4,326.4l-5.9-5.9c1.5-2.1,2.4-4.7,2.4-7.6c0-7.2-5.8-13-13-13s-13,5.8-13,13s5.8,13,13,13
		c2.8,0,5.4-0.9,7.6-2.4c0,0,5.9,5.9,5.9,5.9c0.8,0.8,2.2,0.8,3,0C615.2,328.6,615.2,327.2,614.4,326.4z M586,313
		c0-6.6,5.4-12,12-12s12,5.4,12,12s-5.4,12-12,12S586,319.6,586,313z M613.7,328.7c-0.4,0.4-1.2,0.4-1.6,0l-5.7-5.7l1.6-1.6l5.7,5.7
		C614.1,327.6,614.1,328.3,613.7,328.7z"/>
	<path id="house" d="M598.8,306.3c-0.2-0.2-0.5-0.3-0.8-0.3s-0.6,0.1-0.8,0.3l-6,7c-0.3,0.3-0.3,0.7-0.1,1.1s0.5,0.6,0.9,0.6h1v4
		c0,0.6,0.4,1,1,1h2c0.6,0,1-0.4,1-1v-4h2v4c0,0.6,0.4,1,1,1h2c0.6,0,1-0.4,1-1v-4h1c0.4,0,0.7-0.2,0.9-0.6c0.2-0.4,0.1-0.8-0.1-1.1
		L598.8,306.3z M602,314v5h-2v-5h-4v5h-2v-5h-2l6-7l6,7H602z"/>
</g>
</svg>
