<?xml version="1.0" encoding="utf-8"?>
<!-- Generator: Adobe Illustrator 21.1.0, SVG Export Plug-In . SVG Version: 6.00 Build 0)  -->
<!DOCTYPE svg PUBLIC "-//W3C//DTD SVG 1.1//EN" "http://www.w3.org/Graphics/SVG/1.1/DTD/svg11.dtd">
<svg version="1.1" id="Layer_1" xmlns="http://www.w3.org/2000/svg" xmlns:xlink="http://www.w3.org/1999/xlink" x="0px" y="0px"
	 viewBox="0 0 256 256" style="enable-background:new 0 0 256 256;" xml:space="preserve">
<g id="house">
	<path id="house_1_" d="M252.7,132.2L137.5,4.2C135.1,1.5,131.6,0,128,0c-3.6,0-7.1,1.5-9.5,4.2L3.3,132.2
		c-3.4,3.8-4.2,9.2-2.2,13.8c2.1,4.6,6.6,7.6,11.7,7.6h12.8v89.6c0,7.1,5.7,12.8,12.8,12.8h179.2c7.1,0,12.8-5.7,12.8-12.8v-89.6
		h12.8c5.1,0,9.6-3,11.7-7.6C256.9,141.4,256.1,136,252.7,132.2z M102.4,243.2v-64h51.2v64H102.4z M217.6,140.8v102.4h-51.2v-64
		c0-7.1-5.7-12.8-12.8-12.8h-51.2c-7.1,0-12.8,5.7-12.8,12.8v64H38.4V140.8H12.8L128,12.8l115.2,128H217.6z"/>
	<path id="window" d="M102.4,89.6v25.6c0,7.1,5.7,12.8,12.8,12.8h25.6c7.1,0,12.8-5.7,12.8-12.8V89.6c0-7.1-5.7-12.8-12.8-12.8
		h-25.6C108.1,76.8,102.4,82.5,102.4,89.6z M140.8,115.2h-25.6V89.6h25.6V115.2z"/>
</g>
</svg>
