<?xml version="1.0" encoding="utf-8"?>
<!-- Generator: Adobe Illustrator 21.1.0, SVG Export Plug-In . SVG Version: 6.00 Build 0)  -->
<!DOCTYPE svg PUBLIC "-//W3C//DTD SVG 1.1//EN" "http://www.w3.org/Graphics/SVG/1.1/DTD/svg11.dtd">
<svg version="1.1" id="Layer_1" xmlns="http://www.w3.org/2000/svg" xmlns:xlink="http://www.w3.org/1999/xlink" x="0px" y="0px"
	 viewBox="0 0 256 256" style="enable-background:new 0 0 256 256;" xml:space="preserve">
<g id="house_document">
	<path id="house" d="M254,139.2c0,0-17.9-21.3-40.9-46V34.4H179V54c-23.9-27.3-44.3-51.1-44.3-51.1c-3.4-3.4-9.4-4.3-12.8,0
		c0,0-118.5,135.5-119.3,136.4c-5.1,5.1-0.9,14.5,6.8,14.5h17v93.7h-17v8.5H248v-8.5h-17v-93.7h17C254,153.7,258.2,145.2,254,139.2z
		 M187.5,42.9h17v40.9c-6-6.8-11.1-12.8-17-19.6V42.9z M221.6,145.2v102.3H34.1V145.2H8.5L127.8,8.9l119.3,136.4H221.6z"/>
	<path id="document" d="M68.2,102.6v119.3c0,5.1,3.4,8.5,8.5,8.5h76.7c13.6-13.6,20.5-20.5,34.1-34.1v-8.5v-85.2
		c0-5.1-3.4-8.5-8.5-8.5H76.7C71.6,94.1,68.2,97.5,68.2,102.6z M153.4,218.5v-22.2h22.2L153.4,218.5z M179,187.8h-25.6
		c-5.1,0-8.5,3.4-8.5,8.5v25.6H76.7V102.6H179V187.8z"/>
	<rect id="document_line_2_" x="119.3" y="119.6" width="42.6" height="8.5"/>
	<rect id="document_bullet_2_" x="93.7" y="119.6" width="8.5" height="8.5"/>
	<rect id="document_line" x="119.3" y="145.2" width="42.6" height="8.5"/>
	<rect id="document_bullet_1_" x="93.7" y="145.2" width="8.5" height="8.5"/>
	<rect id="document_line_1_" x="119.3" y="170.8" width="42.6" height="8.5"/>
	<rect id="document_bullet" x="93.7" y="170.8" width="8.5" height="8.5"/>
</g>
</svg>
