<?xml version="1.0" encoding="utf-8"?>
<!-- Generator: Adobe Illustrator 21.1.0, SVG Export Plug-In . SVG Version: 6.00 Build 0)  -->
<!DOCTYPE svg PUBLIC "-//W3C//DTD SVG 1.1//EN" "http://www.w3.org/Graphics/SVG/1.1/DTD/svg11.dtd">
<svg version="1.1" id="Layer_1" xmlns="http://www.w3.org/2000/svg" xmlns:xlink="http://www.w3.org/1999/xlink" x="0px" y="0px"
	 viewBox="0 0 256 256" style="enable-background:new 0 0 256 256;" xml:space="preserve">
<path id="land_wooded" d="M128,204.8v-38.7c42.9-3.3,76.8-39.1,76.8-82.9c0-45.9-37.2-83.2-83.2-83.2S38.4,37.2,38.4,83.2
	c0,43.8,33.9,79.6,76.8,82.9v38.7c0,0.1,0,0.2,0.1,0.3C50.5,207.6,0,229.4,0,256h256C256,227.7,198.7,204.8,128,204.8z M51.2,83.2
	c0-38.8,31.6-70.4,70.4-70.4S192,44.4,192,83.2c0,36.7-28.2,66.8-64,70.1v-41.8l30.1-30.1c2.5-2.5,2.5-6.5,0-9s-6.6-2.5-9.1,0
	L128,93.3V64c0-3.5-2.9-6.4-6.4-6.4s-6.4,2.9-6.4,6.4v42.2L94.1,85.1c-2.5-2.5-6.6-2.5-9.1,0s-2.5,6.6,0,9.1l30.1,30.1v29
	C79.4,150,51.2,119.9,51.2,83.2z M21.2,243.2c16.1-12.9,54.4-25.6,106.8-25.6s90.8,12.7,106.8,25.6H21.2z"/>
</svg>
