<?xml version="1.0" encoding="utf-8"?>
<!-- Generator: Adobe Illustrator 21.1.0, SVG Export Plug-In . SVG Version: 6.00 Build 0)  -->
<!DOCTYPE svg PUBLIC "-//W3C//DTD SVG 1.1//EN" "http://www.w3.org/Graphics/SVG/1.1/DTD/svg11.dtd">
<svg version="1.1" id="Layer_1" xmlns="http://www.w3.org/2000/svg" xmlns:xlink="http://www.w3.org/1999/xlink" x="0px" y="0px"
	 viewBox="0 0 256 256" style="enable-background:new 0 0 256 256;" xml:space="preserve">
<g id="commercial_retail">
	<path id="window" d="M102.4,140.8H64c-7.1,0-12.8,5.7-12.8,12.8v25.6c0,7.1,5.7,12.8,12.8,12.8h38.4c7.1,0,12.8-5.7,12.8-12.8
		v-25.6C115.2,146.5,109.5,140.8,102.4,140.8z M102.4,179.2H64v-25.6h38.4V179.2z"/>
	<path id="retail_space" d="M256.1,72c-0.1-9.7-3.2-19.3-8.8-27.3c-6.5-9.3-10.8-19.8-14.9-30.4C227.6,1.8,222.5,0,212,0
		C201.7,0,57.6,0,38.4,0C31.1,0,28,4.9,25,10.9c-6.7,13.3-13.3,26.6-20,40c-2,4-5.1,8.5-5.1,13.2c0.1,8-0.7,16.2,1.7,24
		c3.6,11.6,12.7,22.9,24,27.1c0,2.5,0,93.8-0.1,128c0,7.1,5.7,12.8,12.8,12.8h179.2c7.1,0,12.8-5.7,12.8-12.8v-128
		c11.3-4.2,20.3-15.5,23.9-27.1C255.9,82.8,256.1,77.4,256.1,72z M217.6,12.8L243.2,64h-64V12.8H217.6z M166.4,12.8V64H89.6V12.8
		H166.4z M166.4,76.8c0,14.1-11.5,25.6-25.6,25.6h-25.6c-14.1,0-25.6-11.5-25.6-25.6H166.4z M38.4,12.8h38.4V64h-64L38.4,12.8z
		 M12.8,76.8h64c0,14.1-11.5,25.6-25.6,25.6H38.4C24.3,102.4,12.8,90.9,12.8,76.8z M140.8,243.2v-89.6H192v89.6H140.8z M217.6,243.2
		h-12.8v-89.6c0-7.1-5.7-12.8-12.8-12.8h-51.2c-7.1,0-12.8,5.7-12.8,12.8v89.6H38.4v-128h12.8c13.4,0,25.1-6.9,32-17.3
		c6.9,10.4,18.6,17.3,32,17.3h25.6c13.4,0,25.1-6.9,32-17.3c6.9,10.4,18.6,17.3,32,17.3h12.8V243.2z M217.6,102.4h-12.8
		c-14.1,0-25.6-11.5-25.6-25.6h64C243.2,90.9,231.7,102.4,217.6,102.4z"/>
</g>
</svg>
