<?xml version="1.0" encoding="utf-8"?>
<svg id="SvgjsSvg1017" width="40" height="40" viewBox="0 0 40 40" xmlns="http://www.w3.org/2000/svg">
  <title>Land_x5F_standart_x5F_outline</title>
  <desc>Created with Avocode.</desc>
  <path id="SvgjsPath1019" d="M560 56C566.8 55.4 572 49.8 572 43C572 35.8 566.2 30 559 30C551.8 30 546 35.8 546 43C546 49.8 551.2 55.4 558 56V62C547.8 62.4 540 65.8 540 70H580C580 65.6 571 62 560 62ZM559 32C565 32 570 37 570 43C570 48.8 565.6 53.4 560 54V47.4L564.8 42.6C565.1999999999999 42.2 565.1999999999999 41.6 564.8 41.2C564.4 40.800000000000004 563.8 40.800000000000004 563.4 41.2L560 44.6V40C560 39.4 559.6 39 559 39C558.4 39 558 39.4 558 40V46.6L554.8 43.2C554.4 42.800000000000004 553.8 42.800000000000004 553.4 43.2C553 43.6 553 44.2 553.4 44.6L558 49.4V54C552.4 53.4 548 48.8 548 43C548 37 553 32 559 32ZM560 64C568.2 64 574.2 66 576.6 68H543.4C546 66 551.8 64 560 64Z " fill-opacity="1" transform="matrix(1,0,0,1,-540,-30)" style="fill: rgb(255, 255, 255);"/>
</svg>