<svg id="SvgjsSvg1017" xmlns="http://www.w3.org/2000/svg" version="1.1" xmlns:xlink="http://www.w3.org/1999/xlink" xmlns:svgjs="http://svgjs.com/svgjs" width="34" height="50" viewBox="0 0 34 50"><title>Fill 57</title><desc>Created with Avocode.</desc><defs id="SvgjsDefs1018"></defs><path id="SvgjsPath1019" d="M48.78 28.17C54.81 25.62 74.54 25 76.65 25C73.97 34.64 69.67 61.8 69.26 74.06C62.370000000000005 73.17 51.42 70.56 47.52000000000001 67.93C46.46000000000001 63.11000000000001 47.09000000000001 36.21000000000001 48.78000000000001 28.17000000000001 " fill="#d33320" fill-opacity="1" transform="matrix(1,0,0,1,-46,-25)"></path><path id="SvgjsPath1020" d="M78.58 26C75.2 37.07 70.86 69.7 71 74.69C71.26 74.03999999999999 71.79 73.78 71.79 73.78C71.79 73.78 75.69000000000001 38.44 79.23 27.18C79.10000000000001 26.78 78.97 26.65 78.58 26 " fill="#d33320" fill-opacity="1" transform="matrix(1,0,0,1,-46,-25)"></path><path id="SvgjsPath1021" d="M52.39 32.31C54.21 32.03 60.74 31.240000000000002 70.25 31.000000000000004C65.3 31.650000000000002 55.38 32.61000000000001 53.33 33.1C52.94 34.18 52.26 36.72 52 39.230000000000004C52.06 36.42 52.39 32.31 52.39 32.31 " fill="#ffffff" fill-opacity="1" transform="matrix(1,0,0,1,-46,-25)"></path><path id="SvgjsPath1022" d="M52.35 43.76C54 43.51 59.9 42.769999999999996 68.48 43.07C63.410000000000004 43.36 55.06 44.04 53.2 44.48C52.85 45.449999999999996 52.230000000000004 47.75 52 50.029999999999994C52.06 47.489999999999995 52.35 43.75999999999999 52.35 43.75999999999999 " fill="#ffffff" fill-opacity="1" transform="matrix(1,0,0,1,-46,-25)"></path><path id="SvgjsPath1023" d="M51.34 59.33C52.89 59.089999999999996 58.35 58.8 66.34 59.19C61.760000000000005 59.29 53.900000000000006 59.589999999999996 52.14 60.01C51.81 60.93 51.22 63.11 51 65.27C51.05 62.86 51.34 59.33 51.34 59.33 " fill="#ffffff" fill-opacity="1" transform="matrix(1,0,0,1,-46,-25)"></path><path id="SvgjsPath1024" d="M67.67 48.04L70.08 48C70.08 48 69.01 49.18 68.7 49.56C68.75 49.92 68.82000000000001 53.49 68.84 54.940000000000005C68.36 54.940000000000005 67.68 54.93000000000001 67.68 54.93000000000001C67.68 54.93000000000001 67.08000000000001 50.150000000000006 67 49.50000000000001C67.17 49.080000000000005 67.67 48.040000000000006 67.67 48.040000000000006 " fill="#ffffff" fill-opacity="1" transform="matrix(1,0,0,1,-46,-25)"></path><path id="SvgjsPath1025" d="M70.17 48L69 49.37V54.739999999999995L69.29 54.449999999999996V49.47L70.17 48.49V48 " fill="#ffffff" fill-opacity="1" transform="matrix(1,0,0,1,-46,-25)"></path></svg>