<svg id="SvgjsSvg1024" xmlns="http://www.w3.org/2000/svg" version="1.1" xmlns:xlink="http://www.w3.org/1999/xlink" xmlns:svgjs="http://svgjs.com/svgjs" width="139" height="50" viewBox="0 0 139 50"><title>RedDoor</title><desc>Created with Avocode.</desc><defs id="SvgjsDefs1025"></defs><path id="SvgjsPath1026" d="M85.76 73.23L79.82000000000001 66.78C82.47000000000001 66.07000000000001 84.01 64.61 84.01 63.050000000000004C84.01 60.540000000000006 81.2 59.95 79.51 59.95H74V73.23H75.48V67.17H78.7L84.07000000000001 73.23ZM77.02 66.74C76.64 66.74 76.25 66.69999999999999 75.47999999999999 66.6V60.379999999999995H78.39999999999999C80.77 60.379999999999995 82.38999999999999 61.489999999999995 82.38999999999999 63.10999999999999C82.38999999999999 65.42999999999999 80.46999999999998 66.74 77.01999999999998 66.74ZM99.24 68.3C99.22 65.99 98.17999999999999 63.519999999999996 94.53 63.519999999999996C90.95 63.519999999999996 89.16 66.00999999999999 89.16 68.49C89.16 70.07 90.05 73.47 95.16 73.47C96.7 73.47 98 73.25 99.22 72.97V72.53999999999999C98.14 72.85999999999999 97.05 73.02999999999999 95.85 73.02999999999999C92.53 73.02999999999999 90.88 71.25999999999999 90.78 68.29999999999998ZM90.84 67.98C90.99000000000001 65.81 91.94 63.95 94.37 63.95C96.97 63.95 97.64 65.83 97.61 67.98ZM114.76 73.23V59H113.28V62.99L113.49 64.94L112.58999999999999 64.89999999999999C111.49999999999999 63.88999999999999 110.24 63.51999999999999 108.67999999999999 63.51999999999999C105.00999999999999 63.51999999999999 103.44999999999999 66.33999999999999 103.44999999999999 68.78999999999999C103.44999999999999 71.16 104.72999999999999 73.47 108.24 73.47C110.08 73.47 111.55999999999999 72.76 112.50999999999999 71.28H113.46999999999998L113.31999999999998 73.23ZM112.78 70.76C111.52 71.93 109.96000000000001 72.80000000000001 108.2 72.80000000000001C105.16 72.80000000000001 104.59 70.41000000000001 104.59 68.57000000000001C104.59 66.58000000000001 105.44 63.95000000000001 108.60000000000001 63.95000000000001C110.34 63.95000000000001 111.30000000000001 64.49000000000001 112.78 65.53000000000002ZM126.97 59.95H120.7V73.23H126.95C132.52 73.23 135.07 69.89 135.07 66.26C135.07 62.300000000000004 132.2 59.95 126.97 59.95ZM126.84 72.8H122.18V60.379999999999995H126.07000000000001C128.16 60.379999999999995 133.45000000000002 60.81999999999999 133.45000000000002 66.44C133.45000000000002 71.55 129.66000000000003 72.8 126.84000000000002 72.8ZM144.84 63.52C140.14000000000001 63.52 138.84 66.34 138.84 68.49000000000001C138.84 70.07000000000001 139.72 73.47000000000001 144.84 73.47000000000001C149.95000000000002 73.47000000000001 150.84 70.07000000000001 150.84 68.49000000000001C150.84 66.34 149.53 63.52000000000001 144.84 63.52000000000001ZM144.64 73.13C141.26 73.13 140.27999999999997 70.78 140.27999999999997 68.58999999999999C140.27999999999997 66.39999999999999 141.25999999999996 64.04999999999998 144.64 64.04999999999998C148.01 64.04999999999998 149 66.39999999999998 149 68.58999999999999C149 70.77999999999999 148.01 73.13 144.64 73.13ZM160.59 63.52C155.89000000000001 63.52 154.59 66.34 154.59 68.49000000000001C154.59 70.07000000000001 155.47 73.47000000000001 160.59 73.47000000000001C165.70000000000002 73.47000000000001 166.59 70.07000000000001 166.59 68.49000000000001C166.59 66.34 165.28 63.52000000000001 160.59 63.52000000000001ZM160.39 73.13C157.01 73.13 156.02999999999997 70.78 156.02999999999997 68.58999999999999C156.02999999999997 66.39999999999999 157.00999999999996 64.04999999999998 160.39 64.04999999999998C163.76 64.04999999999998 164.75 66.39999999999998 164.75 68.58999999999999C164.75 70.77999999999999 163.76 73.13 160.39 73.13ZM177.95 64.23C177.76 64.21000000000001 177.56 64.19 177.33999999999997 64.19C175.34999999999997 64.19 173.82999999999998 65.34 172.92 66.72V73.23H171.42V63.760000000000005H172.85999999999999V65.61H173.67C174.55999999999997 64.23 175.95999999999998 63.519999999999996 177.7 63.519999999999996H177.95Z " fill="#ffffff" fill-opacity="1" transform="matrix(1,0,0,1,-39,-40)"></path><path id="SvgjsPath1027" d="M80.04 86.74C79.43 86.94 78.76 87.03 78.11 87.03C75.95 87.03 75.04 85.68 75.04 84.16C75.04 82.74 75.89 81.28 77.97000000000001 81.28C78.65000000000002 81.28 79.31000000000002 81.38 79.94000000000001 81.5V81.18C79.24000000000001 81.06 78.51 81 77.80000000000001 81C74.83000000000001 81 74.00000000000001 82.79 74.00000000000001 84.15C74.00000000000001 85.15 74.56000000000002 87.30000000000001 77.80000000000001 87.30000000000001C78.55000000000001 87.30000000000001 79.30000000000001 87.18 80.04 87.01ZM86.21 81C83.24 81 82.41 82.79 82.41 84.15C82.41 85.15 82.97999999999999 87.30000000000001 86.21 87.30000000000001C89.44999999999999 87.30000000000001 90.00999999999999 85.15 90.00999999999999 84.15C90.00999999999999 82.79 89.19 81 86.21 81ZM86.09 87.09C83.95 87.09 83.32000000000001 85.60000000000001 83.32000000000001 84.21000000000001C83.32000000000001 82.83000000000001 83.95 81.34 86.09 81.34C88.23 81.34 88.85000000000001 82.83 88.85000000000001 84.21000000000001C88.85000000000001 85.60000000000001 88.23 87.09 86.09 87.09ZM104.54 87.15V82.55000000000001C104.54 81.30000000000001 103.26 81.00000000000001 102.45 81.00000000000001C101.36 81.00000000000001 100.34 81.54000000000002 99.73 82.39000000000001H99.19C99.09 81.40000000000002 98.14999999999999 81.00000000000001 97.25999999999999 81.00000000000001C96.05999999999999 81.00000000000001 95.13 81.54000000000002 94.44 82.39000000000001H93.85L93.94999999999999 81.15000000000002H93.03999999999999V87.15000000000002H93.97999999999999V82.89000000000001C94.75999999999999 82.11000000000001 95.64999999999999 81.38000000000001 96.85 81.38000000000001C97.53999999999999 81.38000000000001 98.33 81.75000000000001 98.33 82.74000000000001V87.15H99.25V82.89C100.04 82.11 100.93 81.38 102.14 81.38C102.82000000000001 81.38 103.6 81.74 103.6 82.74V87.14999999999999ZM112.38 81C111.21 81 110.28 81.45 109.67 82.39H109.06L109.16 81.15H108.25V89.56H109.19V87.63L109.05 86.39999999999999L109.61 86.41C110.3 87.05 111.11 87.3 112.1 87.3C114.44 87.3 115.39999999999999 85.50999999999999 115.39999999999999 83.96C115.39999999999999 82.46 114.60999999999999 81 112.38 81ZM112.03 87.03C110.93 87.03 110.3 86.69 109.38 86.04V82.71000000000001C110.17999999999999 81.98 111.14999999999999 81.43 112.25999999999999 81.43C114.17999999999999 81.43 114.55999999999999 82.94000000000001 114.55999999999999 84.10000000000001C114.55999999999999 85.36000000000001 114.00999999999999 87.03000000000002 112.02999999999999 87.03000000000002ZM124.71 87.06H124.69C123.53999999999999 87.09 123.55 86.24000000000001 123.55 85.60000000000001V82.65C123.55 81.5 122.66 81 121.08 81C120.14999999999999 81 119.25 81.16 118.39 81.43V81.72000000000001C119.1 81.47000000000001 119.95 81.28000000000002 120.71 81.28000000000002C122.42999999999999 81.28000000000002 122.61 81.95000000000002 122.61 83.09000000000002V83.85000000000002H121.69C118.92999999999999 83.85000000000002 117.64 84.69000000000003 117.64 85.79000000000002C117.64 86.74000000000002 118.63 87.30000000000003 119.85 87.30000000000003C120.80999999999999 87.30000000000003 121.67999999999999 86.86000000000003 122.72999999999999 86.06000000000003C122.89999999999999 86.99000000000004 123.32999999999998 87.30000000000003 123.93999999999998 87.30000000000003C124.17999999999998 87.30000000000003 124.47999999999999 87.26000000000002 124.73999999999998 87.20000000000003ZM122.61 86.13C121.88 86.61 121.1 86.94999999999999 120.3 86.94999999999999C119.35 86.94999999999999 118.58 86.35999999999999 118.58 85.60999999999999C118.58 84.40999999999998 120.5 83.93999999999998 121.55 83.93999999999998H122.61ZM133.84 87.15V82.60000000000001C133.84 81.76 133.06 81.00000000000001 131.75 81.00000000000001C130.55 81.00000000000001 129.56 81.55000000000001 128.79 82.39000000000001H128.23L128.32999999999998 81.15000000000002H127.40999999999998V87.15000000000002H128.35L128.35999999999999 83.08000000000001C129.05999999999997 82.21000000000001 130.08999999999997 81.43 131.39 81.43C132.29999999999998 81.43 132.89999999999998 81.93 132.89999999999998 82.75V87.15ZM139.13 89.56H138.35L139.69 87.49000000000001L136.45 81.15H137.44L140.25 86.63000000000001L143.54 81.15H144.19Z " fill="#ffffff" fill-opacity="1" transform="matrix(1,0,0,1,-39,-40)"></path><path id="SvgjsPath1028" d="M49.13 56.02C52.97 54.400000000000006 65.52000000000001 54 66.87 54C65.16000000000001 60.13 62.43000000000001 77.42 62.160000000000004 85.22C57.78 84.65 50.81 82.99 48.330000000000005 81.32C47.660000000000004 78.25 48.06 61.129999999999995 49.13 56.019999999999996 " fill="#ffffff" fill-opacity="1" transform="matrix(1,0,0,1,-39,-40)"></path><path id="SvgjsPath1029" d="M67.82 54C65.66999999999999 61.05 62.91 81.81 62.99999999999999 84.99C63.169999999999995 84.57 63.49999999999999 84.41 63.49999999999999 84.41C63.49999999999999 84.41 65.97999999999999 61.92 68.24 54.75C68.16 54.5 68.07 54.42 67.82 54 " fill="#ffffff" fill-opacity="1" transform="matrix(1,0,0,1,-39,-40)"></path><path id="SvgjsPath1030" d="M51.25 58.83C52.4 58.65 56.56 58.16 62.62 58C59.459999999999994 58.42 53.15 59.03 51.849999999999994 59.34C51.599999999999994 60.02 51.16 61.64 50.99999999999999 63.24C51.03999999999999 61.45 51.24999999999999 58.83 51.24999999999999 58.83 " fill="#be352c" fill-opacity="1" transform="matrix(1,0,0,1,-39,-40)"></path><path id="SvgjsPath1031" d="M51.23 65.48C52.269999999999996 65.32000000000001 56.029999999999994 64.86 61.489999999999995 65.04C58.26 65.23 52.949999999999996 65.66000000000001 51.769999999999996 65.94000000000001C51.54 66.56000000000002 51.15 68.02000000000001 50.99999999999999 69.47000000000001C51.03999999999999 67.86000000000001 51.22999999999999 65.48000000000002 51.22999999999999 65.48000000000002 " fill="#be352c" fill-opacity="1" transform="matrix(1,0,0,1,-39,-40)"></path><path id="SvgjsPath1032" d="M51.21 75.21C52.2 75.05999999999999 55.67 74.86999999999999 60.760000000000005 75.11999999999999C57.85000000000001 75.17999999999999 52.84 75.38 51.730000000000004 75.63999999999999C51.510000000000005 76.22999999999999 51.14 77.61999999999999 51.00000000000001 78.98999999999998C51.03000000000001 77.45999999999998 51.21000000000001 75.20999999999998 51.21000000000001 75.20999999999998 " fill="#be352c" fill-opacity="1" transform="matrix(1,0,0,1,-39,-40)"></path><path id="SvgjsPath1033" d="M61.43 68.03L62.96 68C62.96 68 62.28 68.75 62.08 68.99C62.11 69.22 62.16 71.49 62.17 72.42C61.86 72.42 61.43 72.41 61.43 72.41C61.43 72.41 61.05 69.36999999999999 61 68.96C61.11 68.69 61.43 68.02999999999999 61.43 68.02999999999999 " fill="#ffffff" fill-opacity="1" transform="matrix(1,0,0,1,-39,-40)"></path><path id="SvgjsPath1034" d="M62.74 68L62 68.87V72.29L62.19 72.10000000000001V68.93L62.739999999999995 68.31V68 " fill="#ffffff" fill-opacity="1" transform="matrix(1,0,0,1,-39,-40)"></path><path id="SvgjsPath1035" d="M87.97 52.4C71.65 44.47 55.9 43.519999999999996 39 42C44.67 42.91 49.8 43.84 54.42 44.76C78.96000000000001 49.65 80.9 51.989999999999995 84.32 53.949999999999996C87.33999999999999 53.98 87.97 52.4 87.97 52.4 " fill="#ffffff" fill-opacity="1" transform="matrix(1,0,0,1,-39,-40)"></path><path id="SvgjsPath1036" d="M41 58.9C45.96 50.04 56.06 43.71 63.34 40C61.02 41.57 58.96 43.08 57.13 44.51C47.42 52.089999999999996 44.120000000000005 57.53 43.18000000000001 59.62C41.800000000000004 60.089999999999996 41.00000000000001 58.9 41.00000000000001 58.9 " fill="#ffffff" fill-opacity="1" transform="matrix(1,0,0,1,-39,-40)"></path></svg>