<svg id="SvgjsSvg1010" xmlns="http://www.w3.org/2000/svg" version="1.1" xmlns:xlink="http://www.w3.org/1999/xlink" xmlns:svgjs="http://svgjs.com/svgjs" width="61" height="61" viewBox="0 0 61 61"><title>Shape</title><desc>Created with Avocode.</desc><defs id="SvgjsDefs1011"></defs><path id="SvgjsPath1012" d="M1239.06 818C1234.6299999999999 818 1231 821.63 1231 826.06V860.29C1231 864.7199999999999 1234.63 868.3499999999999 1239.06 868.3499999999999H1243.08V878.42L1254.76 868.3499999999999H1283.36C1287.79 868.3499999999999 1291.4199999999998 864.7199999999999 1291.4199999999998 860.29V826.06C1291.4199999999998 821.63 1287.7899999999997 818 1283.36 818ZM1283.36 866.34H1253.9599999999998L1253.36 866.74L1245.1 873.99V866.34H1239.06C1235.6299999999999 866.34 1233.01 863.72 1233.01 860.2900000000001V826.0600000000001C1233.01 822.6300000000001 1235.6299999999999 820.0100000000001 1239.06 820.0100000000001H1283.36C1286.79 820.0100000000001 1289.4099999999999 822.6300000000001 1289.4099999999999 826.0600000000001V860.2900000000001C1289.4099999999999 863.72 1286.79 866.34 1283.36 866.34Z " fill="#76797a" fill-opacity="1" transform="matrix(1,0,0,1,-1231,-818)"></path><path id="SvgjsPath1013" d="M1275.21 848.14C1276.82 848.14 1277.83 846.13 1276.82 844.72L1262.72 828.6C1261.92 827.8000000000001 1260.51 827.8000000000001 1259.7 828.6L1245.6000000000001 844.72C1244.4 846.13 1245.2 848.14 1247.0100000000002 848.14H1249.0300000000002V856.1999999999999H1245.0000000000002V858.2099999999999H1277.2200000000003V856.1999999999999H1273.2000000000003V848.14ZM1259.1 856.2V848.1400000000001H1263.1299999999999V856.2ZM1265.14 856.2V846.13H1257.0800000000002V856.2H1251.0400000000002V846.13H1247.0100000000002L1261.1100000000001 830.01L1275.21 846.13H1271.18V856.2Z " fill="#76797a" fill-opacity="1" transform="matrix(1,0,0,1,-1231,-818)"></path><path id="SvgjsPath1014" d="M1257 840.03V844.06H1265.06V840.03C1265.06 837.81 1263.24 836 1261.03 836C1258.81 836 1257 837.81 1257 840.03ZM1259.01 842.04V840.03C1259.01 838.8199999999999 1259.82 838.01 1261.03 838.01C1262.24 838.01 1263.04 838.8199999999999 1263.04 840.03V842.04Z " fill="#76797a" fill-opacity="1" transform="matrix(1,0,0,1,-1231,-818)"></path></svg>