<?xml version="1.0" encoding="utf-8"?>
<svg id="SvgjsSvg1009" width="41" height="40" viewBox="0 0 41 40" xmlns="http://www.w3.org/2000/svg">
  <title>Shape</title>
  <desc>Created with Avocode.</desc>
  <path id="SvgjsPath1011" d="M231 46C229.8 46 229 46.8 229 48V52C229 53.2 229.8 54 231 54H233C234.2 54 235 53.2 235 52V48C235 46.8 234.2 46 233 46ZM231 52V48H233V52Z " fill-opacity="1" transform="matrix(1,0,0,1,-221,-30)" style="fill: rgb(255, 255, 255);"/>
  <path id="SvgjsPath1012" d="M231 58C229.8 58 229 58.8 229 60V64C229 65.2 229.8 66 231 66H233C234.2 66 235 65.2 235 64V60C235 58.8 234.2 58 233 58ZM231 64V60H233V64Z " fill-opacity="1" transform="matrix(1,0,0,1,-221,-30)" style="fill: rgb(255, 255, 255);"/>
  <path id="SvgjsPath1013" d="M249 58C247.8 58 247 58.8 247 60V64C247 65.2 247.8 66 249 66H251C252.2 66 253 65.2 253 64V60C253 58.8 252.2 58 251 58ZM249 64V60H251V64Z " fill-opacity="1" transform="matrix(1,0,0,1,-221,-30)" style="fill: rgb(255, 255, 255);"/>
  <path id="SvgjsPath1014" d="M239 46C237.8 46 237 46.8 237 48V52C237 53.2 237.8 54 239 54H243C244.2 54 245 53.2 245 52V48C245 46.8 244.2 46 243 46ZM239 52V48H243V52Z " fill-opacity="1" transform="matrix(1,0,0,1,-221,-30)" style="fill: rgb(255, 255, 255);"/>
  <path id="SvgjsPath1015" d="M249 54H251C252.2 54 253 53.2 253 52V48C253 46.8 252.2 46 251 46H249C247.8 46 247 46.8 247 48V52C247 53.2 247.8 54 249 54ZM251 48V52H249V48Z " fill-opacity="1" transform="matrix(1,0,0,1,-221,-30)" style="fill: rgb(255, 255, 255);"/>
  <path id="SvgjsPath1016" d="M256.82 31.2C256.62 30.4 255.82 30 255.01999999999998 30H227.01999999999998C226.21999999999997 30 225.42 30.4 225.21999999999997 31.2L221.21999999999997 41.2C220.81999999999996 41.800000000000004 221.01999999999998 42.6 221.41999999999996 43.2C221.81999999999996 43.800000000000004 222.41999999999996 44 223.01999999999995 44H225.01999999999995V68H223.01999999999995C222.41999999999996 68 222.01999999999995 68.4 222.01999999999995 69C222.01999999999995 69.6 222.41999999999996 70 223.01999999999995 70H259.02C259.62 70 260.02 69.6 260.02 69C260.02 68.4 259.62 68 259.02 68H257.02V44H259.02C259.62 44 260.21999999999997 43.6 260.62 43.2C261.02 42.800000000000004 261.22 41.800000000000004 260.82 41.2ZM239.02 60H243.02V68H239.02ZM255.02 68H245.02V60C245.02 58.8 244.22 58 243.02 58H239.02C237.82000000000002 58 237.02 58.8 237.02 60V68H227.02V44H235.02C235.62 44 236.22 43.8 236.62 43.2L241.02 37.400000000000006L245.42000000000002 43.2C245.82000000000002 43.800000000000004 246.42000000000002 44 247.02 44H255.02ZM242.62 36.2C242.22 35.6 241.62 35.400000000000006 241.02 35.400000000000006C240.42000000000002 35.400000000000006 239.82000000000002 35.60000000000001 239.42000000000002 36.2L235.02 42H223.02L227.02 32H255.02L259.02 42H247.01999999999998Z " fill-opacity="1" transform="matrix(1,0,0,1,-221,-30)" style="fill: rgb(255, 255, 255);"/>
</svg>