<svg id="SvgjsSvg1019" xmlns="http://www.w3.org/2000/svg" version="1.1" xmlns:xlink="http://www.w3.org/1999/xlink" xmlns:svgjs="http://svgjs.com/svgjs" width="32" height="33" viewBox="0 0 32 33"><title>Fill 1</title><desc>Created with Avocode.</desc><defs id="SvgjsDefs1020"></defs><path id="SvgjsPath1021" d="M1226.73 643.13V655.93H1203.26V643.13H1200.06L1214.99 626.06L1222.46 634.5899999999999V630.3299999999999H1224.5900000000001V637.03L1229.93 643.13ZM1225.66 636.63V629.27H1221.39V631.75C1218.38 628.31 1215.8000000000002 625.37 1215.7900000000002 625.36C1215.39 624.9 1214.6200000000001 624.86 1214.1900000000003 625.36C1214.1900000000003 625.36 1199.3100000000002 642.36 1199.2600000000002 642.4300000000001C1198.6700000000003 643.1 1199.1600000000003 644.2 1200.0600000000002 644.2H1202.1900000000003V655.9300000000001H1200.0600000000002V657.0000000000001H1229.93V655.9300000000001H1227.79V644.2H1229.93C1230.79 644.2 1231.3400000000001 643.12 1230.73 642.4300000000001C1230.73 642.4300000000001 1228.44 639.8100000000001 1225.66 636.6300000000001Z " fill="#000000" fill-opacity="1" transform="matrix(1,0,0,1,-1199,-624)"></path><path id="SvgjsPath1022" d="M1208.74 645.41C1208.74 641.73 1211.73 638.74 1215.41 638.74C1219.0900000000001 638.74 1222.0900000000001 641.73 1222.0900000000001 645.41C1222.0900000000001 649.0899999999999 1219.0900000000001 652.0899999999999 1215.41 652.0899999999999C1211.73 652.0899999999999 1208.74 649.0899999999999 1208.74 645.41ZM1215.41 638C1211.3200000000002 638 1208 641.32 1208 645.41C1208 649.51 1211.32 652.8299999999999 1215.41 652.8299999999999C1219.51 652.8299999999999 1222.8300000000002 649.5099999999999 1222.8300000000002 645.41C1222.8300000000002 641.3199999999999 1219.5100000000002 638 1215.41 638Z " fill="#000000" fill-opacity="1" transform="matrix(1,0,0,1,-1199,-624)"></path><path id="SvgjsPath1023" d="M1214.49 647.19L1212.52 645.22L1212 645.75L1214.49 648.23L1219.2 643.52L1218.67 643Z " fill="#000000" fill-opacity="1" transform="matrix(1,0,0,1,-1199,-624)"></path></svg>