<svg id="SvgjsSvg1009" xmlns="http://www.w3.org/2000/svg" version="1.1" xmlns:xlink="http://www.w3.org/1999/xlink" xmlns:svgjs="http://svgjs.com/svgjs" width="32" height="32" viewBox="0 0 32 32"><title>Fill 1</title><desc>Created with Avocode.</desc><defs id="SvgjsDefs1010"></defs><path id="SvgjsPath1011" d="M1212.77 479.03C1213.06 479.03 1213.29 478.79999999999995 1213.29 478.52C1213.29 478.22999999999996 1213.06 478 1212.77 478C1209.33 478 1206.17 479.58 1204.1 482.34C1203.9299999999998 482.56 1203.98 482.89 1204.2099999999998 483.06C1204.2999999999997 483.13 1204.4099999999999 483.16 1204.5199999999998 483.16C1204.6699999999998 483.16 1204.8299999999997 483.09000000000003 1204.9299999999998 482.95000000000005C1206.7999999999997 480.46000000000004 1209.6599999999999 479.03000000000003 1212.7699999999998 479.03000000000003 " fill="#000000" fill-opacity="1" transform="matrix(1,0,0,1,-1199,-475)"></path><path id="SvgjsPath1012" d="M1228.64 504.64C1229.0900000000001 504.19 1229.0900000000001 503.45 1228.64 503L1222.74 497.1L1221.11 498.74L1227 504.64C1227.45 505.08 1228.19 505.09 1228.64 504.64ZM1200.03 488.42C1200.03 495.25 1205.59 500.81 1212.42 500.81C1219.25 500.81 1224.8100000000002 495.25 1224.8100000000002 488.42C1224.8100000000002 481.59000000000003 1219.2500000000002 476.03000000000003 1212.42 476.03000000000003C1205.5900000000001 476.03000000000003 1200.03 481.59000000000003 1200.03 488.42ZM1229.37 502.27C1230.2199999999998 503.13 1230.2199999999998 504.51 1229.37 505.37C1228.52 506.22 1227.1 506.2 1226.27 505.37L1220.22 499.32C1218.02 500.9 1215.33 501.84 1212.42 501.84C1205.01 501.84 1199 495.83 1199 488.41999999999996C1199 481.00999999999993 1205.01 474.99999999999994 1212.42 474.99999999999994C1219.8300000000002 474.99999999999994 1225.8400000000001 481.00999999999993 1225.8400000000001 488.41999999999996C1225.8400000000001 491.33 1224.9 494.02 1223.3200000000002 496.21999999999997Z " fill="#000000" fill-opacity="1" transform="matrix(1,0,0,1,-1199,-475)"></path><path id="SvgjsPath1013" d="M1216.35 489.26V494.42H1214.29V489.26H1210.1599999999999V494.42H1208.1V489.26H1206.03L1212.23 482.03L1218.42 489.26ZM1213.01 481.36C1212.81 481.13 1212.53 481 1212.23 481C1211.92 481 1211.64 481.13 1211.44 481.36L1205.25 488.59000000000003C1204.99 488.89000000000004 1204.93 489.32000000000005 1205.09 489.69000000000005C1205.26 490.06000000000006 1205.6299999999999 490.2900000000001 1206.03 490.2900000000001H1207.06V494.4200000000001C1207.06 494.99000000000007 1207.53 495.45000000000005 1208.1 495.45000000000005H1210.1599999999999C1210.7299999999998 495.45000000000005 1211.1899999999998 494.99000000000007 1211.1899999999998 494.4200000000001V490.2900000000001H1213.2599999999998V494.4200000000001C1213.2599999999998 494.99000000000007 1213.7199999999998 495.45000000000005 1214.2899999999997 495.45000000000005H1216.3499999999997C1216.9199999999996 495.45000000000005 1217.3899999999996 494.99000000000007 1217.3899999999996 494.4200000000001V490.2900000000001H1218.4199999999996C1218.8199999999997 490.2900000000001 1219.1899999999996 490.06000000000006 1219.3599999999997 489.69000000000005C1219.5299999999997 489.32000000000005 1219.4699999999996 488.89000000000004 1219.1999999999996 488.59000000000003Z " fill="#000000" fill-opacity="1" transform="matrix(1,0,0,1,-1199,-475)"></path></svg>