<svg id="SvgjsSvg1047" xmlns="http://www.w3.org/2000/svg" version="1.1" xmlns:xlink="http://www.w3.org/1999/xlink" xmlns:svgjs="http://svgjs.com/svgjs" width="25.000000000000455" height="25.000000000000007" viewBox="0 0 25.000000000000455 25.000000000000007"><title>Shape</title><desc>Created with Avocode.</desc><defs id="SvgjsDefs1048"></defs><path id="SvgjsPath1049" d="M1560 60C1560 58.79 1559.02 57.82 1557.82 57.82H1556.4399999999998C1556.2399999999998 57.02 1555.9199999999998 56.27 1555.5099999999998 55.57L1556.4899999999998 54.6C1557.3399999999997 53.75 1557.3399999999997 52.370000000000005 1556.4899999999998 51.510000000000005C1555.6299999999999 50.660000000000004 1554.2499999999998 50.660000000000004 1553.3999999999999 51.510000000000005L1552.4299999999998 52.49C1551.7299999999998 52.080000000000005 1550.9799999999998 51.760000000000005 1550.1799999999998 51.56V50.18C1550.1799999999998 48.98 1549.2099999999998 48 1547.9999999999998 48C1546.7899999999997 48 1545.8199999999997 48.98 1545.8199999999997 50.18V51.56C1545.0199999999998 51.760000000000005 1544.2699999999998 52.080000000000005 1543.5699999999997 52.49L1542.5999999999997 51.510000000000005C1541.7499999999998 50.660000000000004 1540.3699999999997 50.660000000000004 1539.5099999999998 51.510000000000005C1538.6599999999999 52.370000000000005 1538.6599999999999 53.75000000000001 1539.5099999999998 54.60000000000001L1540.4899999999998 55.57000000000001C1540.0799999999997 56.27000000000001 1539.7599999999998 57.02000000000001 1539.5599999999997 57.82000000000001H1538.1799999999996C1536.9799999999996 57.82000000000001 1535.9999999999995 58.790000000000006 1535.9999999999995 60.00000000000001C1535.9999999999995 61.21000000000001 1536.9799999999996 62.18000000000001 1538.1799999999996 62.18000000000001H1539.5599999999997C1539.7599999999998 62.980000000000004 1540.0799999999997 63.730000000000004 1540.4899999999998 64.43L1539.5099999999998 65.4C1538.6599999999999 66.25 1538.6599999999999 67.63000000000001 1539.5099999999998 68.49000000000001C1540.3699999999997 69.34 1541.7499999999998 69.34 1542.5999999999997 68.49000000000001L1543.5699999999997 67.51C1544.2699999999998 67.92 1545.0199999999998 68.24000000000001 1545.8199999999997 68.44000000000001V69.82000000000001C1545.8199999999997 71.02000000000001 1546.7899999999997 72.00000000000001 1547.9999999999998 72.00000000000001C1549.2099999999998 72.00000000000001 1550.1799999999998 71.02000000000001 1550.1799999999998 69.82000000000001V68.44000000000001C1550.9799999999998 68.24000000000001 1551.7299999999998 67.92000000000002 1552.4299999999998 67.51L1553.3999999999999 68.49000000000001C1554.2499999999998 69.34 1555.6299999999999 69.34 1556.4899999999998 68.49000000000001C1557.3399999999997 67.63000000000001 1557.3399999999997 66.25000000000001 1556.4899999999998 65.4L1555.5099999999998 64.43C1555.9199999999998 63.730000000000004 1556.2399999999998 62.980000000000004 1556.4399999999998 62.18000000000001H1557.82C1559.02 62.18000000000001 1560 61.21000000000001 1560 60.00000000000001Z " fill-opacity="0" fill="#ffffff" stroke-dasharray="0" stroke-linejoin="miter" stroke-linecap="butt" stroke-opacity="1" stroke="#000000" stroke-miterlimit="50" stroke-width="1" transform="matrix(1,0,0,1,-1535.4999999999998,-47.49999999999999)"></path><path id="SvgjsPath1050" d="M1545 60.5C1545 58.567 1546.567 57 1548.5 57C1550.433 57 1552 58.567 1552 60.5C1552 62.433 1550.433 64 1548.5 64C1546.567 64 1545 62.433 1545 60.5Z " fill-opacity="0" fill="#ffffff" stroke-dasharray="0" stroke-linejoin="miter" stroke-linecap="butt" stroke-opacity="1" stroke="#000000" stroke-miterlimit="50" stroke-width="1" transform="matrix(1,0,0,1,-1535.4999999999998,-47.49999999999999)"></path></svg>