<svg id="SvgjsSvg1018" xmlns="http://www.w3.org/2000/svg" version="1.1" xmlns:xlink="http://www.w3.org/1999/xlink" xmlns:svgjs="http://svgjs.com/svgjs" width="32" height="32" viewBox="0 0 32 32"><title>Fill 1</title><desc>Created with Avocode.</desc><defs id="SvgjsDefs1019"></defs><path id="SvgjsPath1020" d="M1213.07 274.93C1213.07 271.7 1215.7 269.07 1218.9299999999998 269.07C1220.8999999999999 269.07 1222.6399999999999 270.04 1223.7099999999998 271.54L1218.3999999999999 276.85L1215.58 274.02000000000004L1214.82 274.78000000000003L1218.3999999999999 278.35L1224.2599999999998 272.49C1224.5999999999997 273.24 1224.7999999999997 274.06 1224.7999999999997 274.93C1224.7999999999997 278.17 1222.1699999999996 280.8 1218.9299999999998 280.8C1215.6999999999998 280.8 1213.07 278.17 1213.07 274.93ZM1212 274.93C1212 278.76 1215.1 281.87 1218.93 281.87C1222.76 281.87 1225.8700000000001 278.76 1225.8700000000001 274.93C1225.8700000000001 271.1 1222.7600000000002 268 1218.93 268C1215.1000000000001 268 1212 271.1 1212 274.93Z " fill="#000000" fill-opacity="1" transform="matrix(1,0,0,1,-1199,-254)"></path><path id="SvgjsPath1021" d="M1229.93 283.53C1229.93 284.11999999999995 1229.45 284.59999999999997 1228.8700000000001 284.59999999999997H1208.6000000000001C1208.0100000000002 284.59999999999997 1207.5300000000002 284.11999999999995 1207.5300000000002 283.53V265.4C1207.5300000000002 264.81 1208.0100000000002 264.33 1208.6000000000001 264.33H1228.8700000000001C1229.45 264.33 1229.93 264.81 1229.93 265.4ZM1208.6 263.27C1207.4199999999998 263.27 1206.4699999999998 264.21999999999997 1206.4699999999998 265.4V280.33H1201.1299999999999C1200.55 280.33 1200.07 279.84999999999997 1200.07 279.27V261.13C1200.07 260.55 1200.55 260.07 1201.1299999999999 260.07H1221.3999999999999C1221.9899999999998 260.07 1222.4699999999998 260.55 1222.4699999999998 261.13V262.2H1223.5299999999997V261.13C1223.5299999999997 259.95 1222.5799999999997 259 1221.3999999999996 259H1201.1299999999997C1199.9499999999996 259 1198.9999999999995 259.95 1198.9999999999995 261.13V279.27C1198.9999999999995 280.45 1199.9499999999996 281.4 1201.1299999999997 281.4H1206.4699999999996V283.53C1206.4699999999996 284.71 1207.4199999999996 285.66999999999996 1208.5999999999997 285.66999999999996H1228.8699999999997C1230.0499999999997 285.66999999999996 1230.9999999999998 284.71 1230.9999999999998 283.53V265.4C1230.9999999999998 264.21999999999997 1230.0499999999997 263.27 1228.8699999999997 263.27Z " fill="#000000" fill-opacity="1" transform="matrix(1,0,0,1,-1199,-254)"></path><path id="SvgjsPath1022" d="M1204.07 256.13C1204.07 255.54999999999998 1204.55 255.07 1205.1299999999999 255.07H1225.3999999999999C1225.9899999999998 255.07 1226.4699999999998 255.54999999999998 1226.4699999999998 256.13V261.46999999999997H1227.5299999999997V256.13C1227.5299999999997 254.95 1226.5799999999997 254 1225.3999999999996 254H1205.1299999999997C1203.9499999999996 254 1202.9999999999995 254.95 1202.9999999999995 256.13V257.2H1204.0699999999995Z " fill="#000000" fill-opacity="1" transform="matrix(1,0,0,1,-1199,-254)"></path></svg>