<?xml version="1.0" standalone="no"?>
<!DOCTYPE svg PUBLIC "-//W3C//DTD SVG 1.1//EN" "http://www.w3.org/Graphics/SVG/1.1/DTD/svg11.dtd" >
<svg xmlns="http://www.w3.org/2000/svg">
<metadata>Generated by IcoMoon</metadata>
<defs>
<font id="icomoon" horiz-adv-x="1024">
<font-face units-per-em="1024" ascent="960" descent="-64" />
<missing-glyph horiz-adv-x="1024" />
<glyph unicode="&#x20;" horiz-adv-x="512" d="" />
<glyph unicode="&#xe900;" glyph-name="location-arts-outline" d="M972.8 550.4c30.72 0 51.2 20.48 51.2 51.2v51.2c0 20.48-10.24 35.84-25.6 46.080 0 0-460.8 256-460.8 256-15.36 10.24-35.84 10.24-51.2 0l-460.8-256c-15.36-10.24-25.6-25.6-25.6-46.080v-51.2c0-30.72 20.48-51.2 51.2-51.2h51.2v-460.8h-51.2v-102.4h-51.2v-51.2h1024v51.2h-51.2v102.4h-51.2v460.8h51.2zM153.6 550.4h102.4v-460.8h-102.4v460.8zM716.8 89.6h-102.4v460.8h102.4v-460.8zM563.2 89.6h-102.4v460.8h102.4v-460.8zM409.6 89.6h-102.4v460.8h102.4v-460.8zM921.6-12.8h-819.2v51.2h819.2v-51.2zM870.4 89.6h-102.4v460.8h102.4v-460.8zM51.2 601.6v51.2l460.8 256 460.8-256v-51.2h-921.6zM563.2 755.2c0-28.277-22.923-51.2-51.2-51.2s-51.2 22.923-51.2 51.2c0 28.277 22.923 51.2 51.2 51.2s51.2-22.923 51.2-51.2z" />
<glyph unicode="&#xe901;" glyph-name="location-arts-solid" d="M51.2 601.6h921.6c30.72 0 51.2 20.48 51.2 51.2 0 20.48-10.24 35.84-25.6 46.080l-460.8 256c-15.36 10.24-35.84 10.24-51.2 0l-460.8-256c-15.36-10.24-25.6-25.6-25.6-46.080 0-30.72 20.48-51.2 51.2-51.2zM512 806.4c30.72 0 51.2-20.48 51.2-51.2s-20.48-51.2-51.2-51.2-51.2 20.48-51.2 51.2c0 30.72 20.48 51.2 51.2 51.2zM972.8 38.4h-921.6v-51.2h-51.2v-51.2h1024v51.2h-51.2zM102.4 550.4h204.8v-460.8h-204.8v460.8zM716.8 550.4h204.8v-460.8h-204.8v460.8zM409.6 550.4h204.8v-460.8h-204.8v460.8z" />
<glyph unicode="&#xe902;" glyph-name="location-bar-solid" d="M844.8-12.8h-819.2c-15.36 0-25.6-10.24-25.6-25.6s10.24-25.6 25.6-25.6h819.2c15.36 0 25.6 10.24 25.6 25.6s-10.24 25.6-25.6 25.6zM819.2 908.8c0 30.72-20.48 51.2-51.2 51.2h-665.6c-30.72 0-51.2-20.48-51.2-51.2v-102.4h768v102.4zM921.6 755.2h-870.4v-614.4c0-35.84 10.24-71.68 30.72-102.4h711.68c15.36 30.72 30.72 66.56 30.72 102.4v102.4c112.64 0 204.8 92.16 204.8 204.8v204.8c-5.12 56.32-51.2 102.4-107.52 102.4zM256 217.6c0-15.36-10.24-25.6-25.6-25.6s-25.6 10.24-25.6 25.6v409.6c0 15.36 10.24 25.6 25.6 25.6s25.6-10.24 25.6-25.6v-409.6zM460.8 217.6c0-15.36-10.24-25.6-25.6-25.6s-25.6 10.24-25.6 25.6v409.6c0 15.36 10.24 25.6 25.6 25.6s25.6-10.24 25.6-25.6v-409.6zM665.6 217.6c0-15.36-10.24-25.6-25.6-25.6s-25.6 10.24-25.6 25.6v409.6c0 15.36 10.24 25.6 25.6 25.6s25.6-10.24 25.6-25.6v-409.6zM972.8 448c0-87.040-66.56-153.6-153.6-153.6v409.6h102.4c30.72 0 51.2-20.48 51.2-51.2v-204.8z" />
<glyph unicode="&#xe903;" glyph-name="location-bar-outline" d="M921.6 755.2h-102.4v153.6c0 30.72-20.48 51.2-51.2 51.2h-665.6c-30.72 0-51.2-20.48-51.2-51.2v-768c0-61.44 25.6-117.76 71.68-153.6h-97.28c-15.36 0-25.6-10.24-25.6-25.6s10.24-25.6 25.6-25.6h819.2c15.36 0 25.6 10.24 25.6 25.6s-10.24 25.6-25.6 25.6h-97.28c40.96 35.84 71.68 92.16 71.68 153.6v102.4c112.64 0 204.8 92.16 204.8 204.8v204.8c0 56.32-46.080 102.4-102.4 102.4zM102.4 908.8h665.6v-102.4h-665.6v102.4zM768 140.8c0-87.040-66.56-153.6-153.6-153.6h-358.4c-87.040 0-153.6 66.56-153.6 153.6v614.4h665.6v-614.4zM972.8 448c0-87.040-66.56-153.6-153.6-153.6v409.6h102.4c30.72 0 51.2-20.48 51.2-51.2v-204.8zM230.4 652.8c-15.36 0-25.6-10.24-25.6-25.6v-409.6c0-15.36 10.24-25.6 25.6-25.6s25.6 10.24 25.6 25.6v409.6c0 15.36-10.24 25.6-25.6 25.6zM435.2 652.8c-15.36 0-25.6-10.24-25.6-25.6v-409.6c0-15.36 10.24-25.6 25.6-25.6s25.6 10.24 25.6 25.6v409.6c0 15.36-10.24 25.6-25.6 25.6zM640 652.8c-15.36 0-25.6-10.24-25.6-25.6v-409.6c0-15.36 10.24-25.6 25.6-25.6s25.6 10.24 25.6 25.6v409.6c0 15.36-10.24 25.6-25.6 25.6z" />
<glyph unicode="&#xe904;" glyph-name="location-beauty-solid" d="M701.44 934.4l-46.080 15.36-117.76-389.12 61.44 15.36zM506.88 263.68l56.32 194.56 450.56 133.12-15.36 51.2-665.6-199.68c0 35.84-15.36 76.8-46.080 102.4-61.44 61.44-158.72 61.44-220.16 5.12-61.44-61.44-61.44-158.72 0-215.040 56.32-56.32 158.72-61.44 215.040 0 15.36 15.36 25.6 35.84 35.84 56.32l184.32 56.32-56.32-184.32c-20.48-5.12-40.96-20.48-56.32-35.84-61.44-61.44-61.44-158.72 0-215.040 56.32-56.32 158.72-61.44 215.040 0 61.44 61.44 61.44 158.72 0 215.040-20.48 20.48-61.44 35.84-97.28 35.84zM250.88 366.080c-40.96-40.96-102.4-35.84-143.36 0-40.96 40.96-40.96 102.4 0 143.36s102.4 35.84 143.36 0c35.84-35.84 35.84-102.4 0-143.36zM573.44 43.52c-40.96-40.96-102.4-35.84-143.36 0-20.48 20.48-30.72 46.080-30.72 71.68s10.24 51.2 30.72 71.68c40.96 40.96 102.4 35.84 143.36 0 40.96-40.96 40.96-107.52 0-143.36z" />
<glyph unicode="&#xe905;" glyph-name="location-beauty-outline" d="M506.88 263.68l56.32 194.56 450.56 133.12-15.36 51.2-419.84-122.88 122.88 419.84-51.2 15.36-128-455.68-194.56-56.32c0 35.84-15.36 76.8-46.080 102.4-56.32 61.44-153.6 61.44-215.040 5.12-61.44-61.44-61.44-158.72 0-215.040 56.32-56.32 158.72-61.44 215.040 0 15.36 15.36 25.6 35.84 35.84 56.32l184.32 56.32-56.32-184.32c-20.48-5.12-40.96-20.48-56.32-35.84-61.44-61.44-61.44-158.72 0-215.040 56.32-56.32 158.72-61.44 215.040 0 61.44 61.44 61.44 158.72 0 215.040-20.48 20.48-61.44 35.84-97.28 35.84zM179.2 340.48c-25.6 0-51.2 10.24-71.68 30.72-40.96 40.96-40.96 102.4 0 143.36s102.4 35.84 143.36 0c40.96-40.96 40.96-102.4 0-143.36-20.48-25.6-46.080-30.72-71.68-30.72zM573.44 43.52c-40.96-40.96-102.4-35.84-143.36 0-40.96 40.96-40.96 102.4 0 143.36s102.4 35.84 143.36 0c40.96-40.96 40.96-107.52 0-143.36z" />
<glyph unicode="&#xe906;" glyph-name="location-coffee-solid" d="M896-12.8h-870.4c-15.36 0-25.6-10.24-25.6-25.6s10.24-25.6 25.6-25.6h870.4c15.36 0 25.6 10.24 25.6 25.6s-10.24 25.6-25.6 25.6zM921.6 499.2c0 0-102.4 0-102.4 0 0 30.72-20.48 51.2-51.2 51.2h-614.4c-30.72 0-51.2-20.48-51.2-51.2v-102.4h716.8v51.2h102.4c30.72 0 51.2-20.48 51.2-51.2 0-87.040-66.56-153.6-153.6-153.6v102.4h-716.8v-102.4c0-112.64 92.16-204.8 204.8-204.8h307.2c97.28 0 174.080 66.56 199.68 153.6 66.56 0 133.12 30.72 174.080 87.040 51.2 71.68 56.32 220.16-66.56 220.16zM230.4 704c15.36 0 25.6 10.24 25.6 25.6v51.2c0 15.36-10.24 25.6-25.6 25.6s-25.6-10.24-25.6-25.6v-51.2c0-15.36 10.24-25.6 25.6-25.6zM384 652.8c15.36 0 25.6 10.24 25.6 25.6v153.6c0 15.36-10.24 25.6-25.6 25.6s-25.6-10.24-25.6-25.6v-153.6c0-15.36 10.24-25.6 25.6-25.6zM537.6 652.8c15.36 0 25.6 10.24 25.6 25.6v153.6c0 15.36-10.24 25.6-25.6 25.6s-25.6-10.24-25.6-25.6v-153.6c0-15.36 10.24-25.6 25.6-25.6zM691.2 652.8c15.36 0 25.6 10.24 25.6 25.6v51.2c0 15.36-10.24 25.6-25.6 25.6s-25.6-10.24-25.6-25.6v-51.2c0-15.36 10.24-25.6 25.6-25.6z" />
<glyph unicode="&#xe907;" glyph-name="location-coffee-outline" d="M896-12.8h-870.4c-15.36 0-25.6-10.24-25.6-25.6s10.24-25.6 25.6-25.6h870.4c15.36 0 25.6 10.24 25.6 25.6s-10.24 25.6-25.6 25.6zM921.6 499.2h-102.4c0 30.72-20.48 51.2-51.2 51.2h-614.4c-30.72 0-51.2-20.48-51.2-51.2v-256c0-112.64 92.16-204.8 204.8-204.8h307.2c97.28 0 174.080 66.56 199.68 153.6 92.16 0 174.080 51.2 199.68 143.36 25.6 71.68 0 163.84-92.16 163.84zM768 243.2c0-87.040-66.56-153.6-153.6-153.6h-307.2c-87.040 0-153.6 66.56-153.6 153.6v102.4h614.4v-102.4zM768 396.8h-614.4v102.4h614.4v-102.4zM819.2 243.2v204.8h102.4c30.72 0 51.2-20.48 51.2-51.2 0-87.040-66.56-153.6-153.6-153.6zM230.4 704c15.36 0 25.6 10.24 25.6 25.6v51.2c0 15.36-10.24 25.6-25.6 25.6s-25.6-10.24-25.6-25.6v-51.2c0-15.36 10.24-25.6 25.6-25.6zM384 652.8c15.36 0 25.6 10.24 25.6 25.6v153.6c0 15.36-10.24 25.6-25.6 25.6s-25.6-10.24-25.6-25.6v-153.6c0-15.36 10.24-25.6 25.6-25.6zM537.6 652.8c15.36 0 25.6 10.24 25.6 25.6v153.6c0 15.36-10.24 25.6-25.6 25.6s-25.6-10.24-25.6-25.6v-153.6c0-15.36 10.24-25.6 25.6-25.6zM691.2 652.8c15.36 0 25.6 10.24 25.6 25.6v51.2c0 15.36-10.24 25.6-25.6 25.6s-25.6-10.24-25.6-25.6v-51.2c0-15.36 10.24-25.6 25.6-25.6z" />
<glyph unicode="&#xe908;" glyph-name="location-entertainment-solid" d="M629.76 688.64c-20.48 20.48-51.2 20.48-71.68 0l-312.32-312.32c-20.48-20.48-20.48-51.2 0-71.68l128-128c20.48-20.48 51.2-20.48 71.68 0l312.32 312.32c20.48 20.48 20.48 51.2 0 71.68l-128 128zM1018.88 663.040l-291.84 291.84c-40.96-40.96-102.4-40.96-143.36 0l-578.56-578.56c40.96-40.96 40.96-102.4 0-143.36l291.84-291.84c40.96 40.96 102.4 40.96 143.36 0l578.56 578.56c-40.96 40.96-40.96 107.52 0 143.36zM808.96 488.96l-363.52-363.52c-20.48-20.48-51.2-20.48-71.68 0l-179.2 179.2c-20.48 20.48-20.48 51.2 0 71.68l363.52 363.52c20.48 20.48 51.2 20.48 71.68 0l179.2-179.2c20.48-20.48 20.48-51.2 0-71.68z" />
<glyph unicode="&#xe909;" glyph-name="location-entertainment-outline" d="M1018.88 663.040l-291.84 291.84c-20.48-20.48-46.080-30.72-71.68-30.72s-51.2 10.24-71.68 30.72l-578.56-578.56c40.96-40.96 40.96-102.4 0-143.36l291.84-291.84c20.48 20.48 46.080 30.72 71.68 30.72s51.2-10.24 71.68-30.72l578.56 578.56c-40.96 40.96-40.96 107.52 0 143.36zM952.32 524.8l-517.12-517.12c-20.48 10.24-40.96 15.36-66.56 15.36s-46.080-5.12-66.56-15.36l-230.4 230.4c10.24 20.48 15.36 40.96 15.36 66.56s-5.12 46.080-15.36 66.56l517.12 517.12c20.48-10.24 40.96-15.36 66.56-15.36s46.080 5.12 66.56 15.36l230.4-230.4c-10.24-20.48-15.36-40.96-15.36-66.56 0-20.48 5.12-46.080 15.36-66.56zM624.64 744.96c-20.48 20.48-51.2 20.48-71.68 0l-363.52-363.52c-20.48-20.48-20.48-51.2 0-71.68 0 0 179.2-179.2 179.2-179.2 20.48-20.48 51.2-20.48 71.68 0l363.52 363.52c20.48 20.48 20.48 51.2 0 71.68 5.12-5.12-179.2 179.2-179.2 179.2zM409.6 161.28l-184.32 184.32 363.52 363.52c0 0 0 0 0 0l179.2-179.2-358.4-368.64z" />
<glyph unicode="&#xe90a;" glyph-name="location-fire-solid" d="M153.6-12.8h716.8v-51.2h-716.8v51.2zM204.8 499.2c-56.32 0-102.4-46.080-102.4-102.4v-51.2c0-56.32 46.080-102.4 102.4-102.4v256zM819.2 499.2v-256c56.32 0 102.4 46.080 102.4 102.4v51.2c0 56.32-46.080 102.4-102.4 102.4zM819.2 704h-56.32c-20.48 102.4-97.28 179.2-199.68 199.68v56.32h-102.4v-56.32c-102.4-20.48-179.2-97.28-199.68-199.68h-56.32v-51.2h614.4v51.2zM768 38.4v563.2h-512v-563.2h153.6v153.6h51.2v-153.6h102.4v153.6h51.2v-153.6h153.6zM512 294.4c-56.32 0-102.4 46.080-102.4 102.4s46.080 102.4 102.4 102.4 102.4-46.080 102.4-102.4c0-56.32-46.080-102.4-102.4-102.4z" />
<glyph unicode="&#xe90b;" glyph-name="location-fire-outline" d="M819.2 499.2h-51.2v102.4h51.2v51.2h-51.2c0 122.88-87.040 225.28-204.8 250.88v56.32h-102.4v-56.32c-117.76-25.6-204.8-128-204.8-250.88h-51.2v-51.2h51.2v-102.4h-51.2c-56.32 0-102.4-46.080-102.4-102.4v-51.2c0-56.32 46.080-102.4 102.4-102.4h51.2v-256h-102.4v-51.2h716.8v51.2h-102.4v256h51.2c56.32 0 102.4 46.080 102.4 102.4v51.2c0 56.32-46.080 102.4-102.4 102.4zM512 857.6c112.64 0 204.8-92.16 204.8-204.8h-409.6c0 112.64 92.16 204.8 204.8 204.8zM204.8 294.4c-30.72 0-51.2 20.48-51.2 51.2v51.2c0 30.72 20.48 51.2 51.2 51.2h51.2v-153.6h-51.2zM716.8-12.8h-102.4v204.8h-51.2v-204.8h-102.4v204.8h-51.2v-204.8h-102.4v614.4h409.6v-614.4zM870.4 345.6c0-30.72-20.48-51.2-51.2-51.2h-51.2v153.6h51.2c30.72 0 51.2-20.48 51.2-51.2v-51.2zM512 499.2c-56.32 0-102.4-46.080-102.4-102.4s46.080-102.4 102.4-102.4 102.4 46.080 102.4 102.4-46.080 102.4-102.4 102.4zM512 345.6c-30.72 0-51.2 20.48-51.2 51.2s20.48 51.2 51.2 51.2 51.2-20.48 51.2-51.2-20.48-51.2-51.2-51.2z" />
<glyph unicode="&#xe90c;" glyph-name="location-groceries-solid" d="M460.8 38.4c0-56.554-45.846-102.4-102.4-102.4s-102.4 45.846-102.4 102.4c0 56.554 45.846 102.4 102.4 102.4s102.4-45.846 102.4-102.4zM870.4 38.4c0-56.554-45.846-102.4-102.4-102.4s-102.4 45.846-102.4 102.4c0 56.554 45.846 102.4 102.4 102.4s102.4-45.846 102.4-102.4zM993.28 693.76c-5.12 5.12-10.24 10.24-20.48 10.24h-829.44l143.36-491.52c0-15.36 10.24-20.48 20.48-20.48h563.2c10.24 0 20.48 10.24 25.6 20.48 0 0 102.4 460.8 102.4 460.8 0 5.12 0 15.36-5.12 20.48zM460.8 371.2c0-15.36-10.24-25.6-25.6-25.6s-25.6 10.24-25.6 25.6v153.6c0 15.36 10.24 25.6 25.6 25.6s25.6-10.24 25.6-25.6v-153.6zM614.4 371.2c0-15.36-10.24-25.6-25.6-25.6s-25.6 10.24-25.6 25.6v153.6c0 15.36 10.24 25.6 25.6 25.6s25.6-10.24 25.6-25.6v-153.6zM768 371.2c0-15.36-10.24-25.6-25.6-25.6s-25.6 10.24-25.6 25.6v153.6c0 15.36 10.24 25.6 25.6 25.6s25.6-10.24 25.6-25.6v-153.6zM128 939.52c-5.12 15.36-15.36 20.48-25.6 20.48h-102.4v-51.2h81.92l46.080-153.6h51.2l-51.2 184.32z" />
<glyph unicode="&#xe90d;" glyph-name="location-groceries-outline" d="M358.4 140.8c-56.32 0-102.4-46.080-102.4-102.4s46.080-102.4 102.4-102.4 102.4 46.080 102.4 102.4-46.080 102.4-102.4 102.4zM358.4-12.8c-30.72 0-51.2 20.48-51.2 51.2s20.48 51.2 51.2 51.2 51.2-20.48 51.2-51.2-20.48-51.2-51.2-51.2zM768 140.8c-56.32 0-102.4-46.080-102.4-102.4s46.080-102.4 102.4-102.4 102.4 46.080 102.4 102.4-46.080 102.4-102.4 102.4zM768-12.8c-30.72 0-51.2 20.48-51.2 51.2s20.48 51.2 51.2 51.2 51.2-20.48 51.2-51.2-20.48-51.2-51.2-51.2zM993.28 693.76c-5.12 5.12-10.24 10.24-20.48 10.24h-778.24l-66.56 235.52c-5.12 15.36-15.36 20.48-25.6 20.48h-102.4v-51.2h81.92l199.68-696.32c5.12-15.36 15.36-20.48 25.6-20.48h563.2c10.24 0 20.48 10.24 25.6 20.48 0 0 102.4 460.8 102.4 460.8 0 5.12 0 15.36-5.12 20.48zM849.92 243.2h-522.24l-117.76 409.6h732.16l-92.16-409.6zM435.2 345.6c15.36 0 25.6 10.24 25.6 25.6v153.6c0 15.36-10.24 25.6-25.6 25.6s-25.6-10.24-25.6-25.6v-153.6c0-15.36 10.24-25.6 25.6-25.6zM588.8 345.6c15.36 0 25.6 10.24 25.6 25.6v153.6c0 15.36-10.24 25.6-25.6 25.6s-25.6-10.24-25.6-25.6v-153.6c0-15.36 10.24-25.6 25.6-25.6zM742.4 345.6c15.36 0 25.6 10.24 25.6 25.6v153.6c0 15.36-10.24 25.6-25.6 25.6s-25.6-10.24-25.6-25.6v-153.6c0-15.36 10.24-25.6 25.6-25.6z" />
<glyph unicode="&#xe90e;" glyph-name="location-hospital-solid" d="M870.4 960h-716.8c-87.040 0-153.6-66.56-153.6-153.6v-716.8c0-87.040 66.56-153.6 153.6-153.6h716.8c87.040 0 153.6 66.56 153.6 153.6v716.8c0 87.040-66.56 153.6-153.6 153.6zM819.2 345.6h-204.8v-204.8h-204.8v204.8h-204.8v204.8h204.8v204.8h204.8v-204.8h204.8v-204.8z" />
<glyph unicode="&#xe90f;" glyph-name="location-hospital-outline" d="M614.4 755.2h-204.8v-204.8h-204.8v-204.8h204.8v-204.8h204.8v204.8h204.8v204.8h-204.8v204.8zM768 499.2v-102.4h-204.8v-204.8h-102.4v204.8h-204.8v102.4h204.8v204.8h102.4v-204.8h204.8zM870.4 960h-716.8c-87.040 0-153.6-66.56-153.6-153.6v-716.8c0-87.040 66.56-153.6 153.6-153.6h716.8c87.040 0 153.6 66.56 153.6 153.6v716.8c0 87.040-66.56 153.6-153.6 153.6zM972.8 89.6c0-56.32-46.080-102.4-102.4-102.4h-716.8c-56.32 0-102.4 46.080-102.4 102.4v716.8c0 56.32 46.080 102.4 102.4 102.4h716.8c56.32 0 102.4-46.080 102.4-102.4v-716.8z" />
<glyph unicode="&#xe910;" glyph-name="location-nightlife-solid" d="M640-12.8h-307.2c-15.36 0-25.6-10.24-25.6-25.6s10.24-25.6 25.6-25.6h307.2c15.36 0 25.6 10.24 25.6 25.6s-10.24 25.6-25.6 25.6zM962.56 934.4c-5.12 15.36-20.48 25.6-40.96 25.6 0 0-870.4 0-870.4 0-40.96 0-66.56-46.080-40.96-76.8l46.080-76.8h860.16c0 0 46.080 71.68 46.080 76.8 10.24 15.36 10.24 35.84 0 51.2zM460.8 186.88v-148.48h51.2v148.48l368.64 568.32h-788.48l368.64-568.32zM563.2 652.8c56.32 0 102.4-46.080 102.4-102.4s-46.080-102.4-102.4-102.4-102.4 46.080-102.4 102.4c0 56.32 46.080 102.4 102.4 102.4z" />
<glyph unicode="&#xe911;" glyph-name="location-nightlife-outline" d="M962.56 883.2c25.6 30.72 0 76.8-40.96 76.8 0 0-870.4 0-870.4 0-40.96 0-66.56-46.080-40.96-76.8l450.56-696.32v-199.68h-128c-15.36 0-25.6-10.24-25.6-25.6s10.24-25.6 25.6-25.6h307.2c15.36 0 25.6 10.24 25.6 25.6s-10.24 25.6-25.6 25.6h-128v199.68c0 0 450.56 691.2 450.56 696.32zM153.6 755.2h665.6l-332.8-512-332.8 512zM921.6 908.8l-66.56-102.4h-737.28l-66.56 102.4h870.4zM537.6 704c-71.68 0-128-56.32-128-128s56.32-128 128-128c71.68 0 128 56.32 128 128s-56.32 128-128 128zM537.6 499.2c-40.96 0-76.8 35.84-76.8 76.8s35.84 76.8 76.8 76.8 76.8-35.84 76.8-76.8-35.84-76.8-76.8-76.8z" />
<glyph unicode="&#xe912;" glyph-name="location-park-solid" d="M179.2 294.4h358.4c15.36 0 25.6 10.24 25.6 25.6s-10.24 25.6-25.6 25.6h-358.4c-15.36 0-25.6-10.24-25.6-25.6s10.24-25.6 25.6-25.6zM768 115.2c0 0 0 0 0 0v286.72c-10.24 0-15.36 0-25.6 0s-15.36 0-25.6 0v-276.48c-46.080 10.24-97.28 15.36-153.6 15.36v51.2h25.6c15.36 0 25.6 10.24 25.6 25.6s-10.24 25.6-25.6 25.6h-460.8c-15.36 0-25.6-10.24-25.6-25.6s10.24-25.6 25.6-25.6h25.6v-107.52c-92.16-35.84-153.6-87.040-153.6-148.48h1024c0 76.8-102.4 143.36-256 179.2zM204.8 192h307.2v-51.2c-117.76 0-220.16-15.36-307.2-40.96v92.16zM593.92 632.32c-10.24 10.24-10.24 25.6 0 35.84s25.6 10.24 35.84 0l87.040-81.92v143.36c0 15.36 10.24 25.6 25.6 25.6s25.6-10.24 25.6-25.6v-92.16l81.92 81.92c10.24 10.24 25.6 10.24 35.84 0s10.24-25.6 0-35.84l-117.76-117.76v-168.96c143.36 15.36 256 133.12 256 281.6 0 153.6-128 281.6-281.6 281.6s-281.6-128-281.6-281.6c0-148.48 112.64-266.24 256-281.6v117.76l-122.88 117.76z" />
<glyph unicode="&#xe913;" glyph-name="location-park-outline" d="M179.2 294.4h358.4c15.36 0 25.6 10.24 25.6 25.6s-10.24 25.6-25.6 25.6h-358.4c-15.36 0-25.6-10.24-25.6-25.6s10.24-25.6 25.6-25.6zM768 115.2c0 0 0 0 0 0v286.72c143.36 15.36 256 133.12 256 281.6 0 153.6-128 281.6-281.6 281.6s-281.6-133.12-281.6-286.72c0-148.48 112.64-266.24 256-281.6v-276.48c-46.080 10.24-97.28 15.36-153.6 15.36v51.2h25.6c15.36 0 25.6 10.24 25.6 25.6s-10.24 25.6-25.6 25.6h-460.8c-15.36 5.12-25.6-5.12-25.6-20.48s10.24-25.6 25.6-25.6h25.6v-107.52c-92.16-35.84-153.6-87.040-153.6-148.48h1024c0 76.8-102.4 143.36-256 179.2zM512 678.4c0 128 102.4 230.4 230.4 230.4s230.4-102.4 230.4-230.4c0-117.76-92.16-215.040-204.8-225.28v112.64l122.88 122.88c10.24 10.24 10.24 25.6 0 35.84s-25.6 10.24-35.84 0l-87.040-87.040v92.16c0 15.36-10.24 25.6-25.6 25.6s-25.6-10.24-25.6-25.6v-143.36l-81.92 81.92c-10.24 10.24-25.6 10.24-35.84 0s-10.24-25.6 0-35.84l117.76-117.76v-61.44c-112.64 10.24-204.8 107.52-204.8 225.28zM204.8 192h307.2v-51.2c-117.76 0-220.16-15.36-307.2-40.96v92.16zM87.040-12.8c66.56 51.2 215.040 102.4 424.96 102.4s363.52-51.2 424.96-102.4h-849.92z" />
<glyph unicode="&#xe914;" glyph-name="location-pin-solid" d="M512 960c-199.68 0-358.4-158.72-358.4-358.4s358.4-665.6 358.4-665.6 358.4 465.92 358.4 665.6c0 199.68-158.72 358.4-358.4 358.4zM512 448c-87.040 0-153.6 66.56-153.6 153.6s66.56 153.6 153.6 153.6 153.6-66.56 153.6-153.6-66.56-153.6-153.6-153.6z" />
<glyph unicode="&#xe915;" glyph-name="location-pin-outline" d="M512 960c-199.68 0-358.4-158.72-358.4-358.4s358.4-665.6 358.4-665.6 358.4 465.92 358.4 665.6c0 199.68-158.72 358.4-358.4 358.4zM204.8 601.6c0 168.96 138.24 307.2 307.2 307.2s307.2-138.24 307.2-307.2c0-128-194.56-424.96-307.2-578.56-112.64 153.6-307.2 450.56-307.2 578.56zM512 755.2c-87.040 0-153.6-66.56-153.6-153.6s66.56-153.6 153.6-153.6 153.6 66.56 153.6 153.6-66.56 153.6-153.6 153.6zM512 499.2c-56.32 0-102.4 46.080-102.4 102.4s46.080 102.4 102.4 102.4 102.4-46.080 102.4-102.4c0-56.32-46.080-102.4-102.4-102.4z" />
<glyph unicode="&#xe916;" glyph-name="location-police-solid" d="M972.8 960h-921.6c-30.72 0-51.2-20.48-51.2-51.2v-460.8c0-281.6 230.4-512 512-512s512 230.4 512 512v460.8c0 30.72-20.48 51.2-51.2 51.2zM855.040 535.040l-179.2-117.76c0 0 66.56-204.8 66.56-204.8 10.24-30.72-25.6-61.44-56.32-40.96l-174.080 133.12c0 0-179.2-128-179.2-128-25.6-20.48-66.56 10.24-56.32 40.96l66.56 199.68c0 0-174.080 117.76-179.2 117.76-20.48 20.48-10.24 66.56 25.6 66.56h220.16c0 0 66.56 209.92 66.56 209.92 10.24 30.72 56.32 30.72 66.56 0l71.68-209.92c0 0 220.16 0 220.16 0 35.84 0 51.2-51.2 20.48-66.56z" />
<glyph unicode="&#xe917;" glyph-name="location-police-outline" d="M174.080 514.56l158.72-107.52c0 0-61.44-174.080-61.44-174.080-15.36-46.080 40.96-87.040 76.8-56.32l158.72 112.64c0 0 158.72-117.76 158.72-117.76 40.96-30.72 92.16 10.24 76.8 56.32l-61.44 179.2c0 0 158.72 107.52 158.72 107.52 51.2 30.72 25.6 87.040-20.48 87.040h-199.68c0 0-61.44 194.56-61.44 194.56-15.36 51.2-81.92 51.2-97.28 0l-56.32-194.56c0 0-199.68 0-199.68 0-46.080 0-71.68-56.32-30.72-87.040zM440.32 550.4l71.68 225.28 71.68-225.28h235.52l-189.44-122.88 71.68-215.040-189.44 143.36-189.44-138.24 71.68 209.92-189.44 122.88h235.52zM972.8 960h-921.6c-30.72 0-51.2-20.48-51.2-51.2v-460.8c0-281.6 230.4-512 512-512s512 230.4 512 512v460.8c0 30.72-20.48 51.2-51.2 51.2zM972.8 448c0-256-204.8-460.8-460.8-460.8s-460.8 204.8-460.8 460.8v460.8h921.6v-460.8z" />
<glyph unicode="&#xe918;" glyph-name="location-restaurant-solid" d="M409.6 704c0-56.32-46.080-102.4-102.4-102.4v358.4h-51.2v-358.4c-56.32 0-102.4 46.080-102.4 102.4v256h-51.2v-256c0-87.040 66.56-153.6 153.6-153.6v-614.4h51.2v614.4c87.040 0 153.6 66.56 153.6 153.6v256h-51.2v-256zM870.4 192h51.2v-256h-51.2v256zM870.4 960c-87.040 0-153.6-66.56-153.6-153.6v-512c0-30.72 20.48-51.2 51.2-51.2h153.6v716.8h-51.2z" />
<glyph unicode="&#xe919;" glyph-name="location-restaurant-outline" d="M870.4 960c-87.040 0-153.6-66.56-153.6-153.6v-512c0-30.72 20.48-51.2 51.2-51.2h102.4v-307.2h51.2v1024h-51.2zM870.4 294.4h-102.4v512c0 56.32 51.2 102.4 102.4 102.4v-614.4zM409.6 704c0-56.32-46.080-102.4-102.4-102.4v358.4h-51.2v-358.4c-56.32 0-102.4 46.080-102.4 102.4v256h-51.2v-256c0-87.040 66.56-153.6 153.6-153.6v-614.4h51.2v614.4c87.040 0 153.6 66.56 153.6 153.6v256h-51.2v-256z" />
<glyph unicode="&#xe91a;" glyph-name="location-shopping-solid" d="M870.4 652.8h-102.4v-153.6h-51.2v153.6h-409.6v-153.6h-51.2v153.6h-102.4c-30.72 0-51.2-20.48-51.2-51.2v-460.8h819.2v460.8c0 30.72-20.48 51.2-51.2 51.2zM102.4-12.8c0-30.72 20.48-51.2 51.2-51.2h716.8c30.72 0 51.2 20.48 51.2 51.2v102.4h-819.2v-102.4zM307.2 704c0 112.64 92.16 204.8 204.8 204.8s204.8-92.16 204.8-204.8v-51.2h51.2v51.2c0 143.36-112.64 256-256 256s-256-112.64-256-256v-51.2h51.2v51.2z" />
<glyph unicode="&#xe91b;" glyph-name="location-shopping-outline" d="M870.4 652.8h-102.4v51.2c0 143.36-112.64 256-256 256s-256-112.64-256-256v-51.2h-102.4c-30.72 0-51.2-20.48-51.2-51.2v-614.4c0-30.72 20.48-51.2 51.2-51.2h716.8c30.72 0 51.2 20.48 51.2 51.2v614.4c0 30.72-20.48 51.2-51.2 51.2zM307.2 704c0 112.64 92.16 204.8 204.8 204.8s204.8-92.16 204.8-204.8v-51.2h-409.6v51.2zM870.4-12.8h-716.8v102.4h716.8v-102.4zM870.4 140.8h-716.8v460.8h102.4v-102.4h51.2v102.4h409.6v-102.4h51.2v102.4h102.4v-460.8z" />
<glyph unicode="&#xe91c;" glyph-name="location-sports-solid" d="M645.12 616.96c-81.92 92.16-133.12 209.92-133.12 343.040-133.12 0-250.88-51.2-343.040-133.12l343.040-343.040 133.12 133.12zM855.040 826.88c-76.8 71.68-179.2 117.76-291.84 128 0-117.76 46.080-225.28 117.76-302.080l174.080 174.080zM5.12 396.8c10.24-112.64 56.32-215.040 128-291.84l174.080 174.080c-81.92 71.68-189.44 117.76-302.080 117.76zM476.16 448l-343.040 343.040c-81.92-92.16-133.12-209.92-133.12-343.040 133.12 0 250.88-51.2 343.040-133.12l133.12 133.12zM168.96 69.12c76.8-71.68 179.2-117.76 291.84-128 0 117.76-46.080 225.28-117.76 302.080l-174.080-174.080zM378.88 279.040c81.92-92.16 133.12-209.92 133.12-343.040 133.12 0 250.88 51.2 343.040 133.12l-343.040 343.040-133.12-133.12zM680.96 581.12l-133.12-133.12 343.040-343.040c81.92 92.16 133.12 209.92 133.12 343.040-133.12 0-250.88 51.2-343.040 133.12zM1018.88 499.2c-10.24 112.64-56.32 215.040-128 291.84l-174.080-174.080c81.92-71.68 189.44-117.76 302.080-117.76z" />
<glyph unicode="&#xe91d;" glyph-name="location-sports-outline" d="M512 960c-281.6 0-512-230.4-512-512s230.4-512 512-512 512 230.4 512 512c0 281.6-230.4 512-512 512zM967.68 504.32c-97.28 10.24-184.32 51.2-250.88 112.64l138.24 138.24c61.44-71.68 102.4-158.72 112.64-250.88zM819.2 791.040l-138.24-138.24c-61.44 66.56-102.4 153.6-112.64 250.88 92.16-10.24 179.2-51.2 250.88-112.64zM512 908.8c0 0 0 0 0 0 15.36-112.64 61.44-215.040 133.12-291.84l-133.12-133.12-307.2 307.2c81.92 71.68 189.44 117.76 307.2 117.76zM51.2 448c0 117.76 46.080 225.28 117.76 307.2l307.2-307.2-133.12-133.12c-76.8 71.68-179.2 117.76-291.84 133.12 0 0 0 0 0 0zM56.32 391.68c97.28-10.24 184.32-51.2 250.88-112.64l-138.24-138.24c-61.44 71.68-102.4 158.72-112.64 250.88zM204.8 104.96l138.24 138.24c61.44-66.56 102.4-153.6 112.64-250.88-92.16 10.24-179.2 51.2-250.88 112.64zM512-12.8c0 0 0 0 0 0-15.36 112.64-61.44 215.040-133.12 291.84l133.12 133.12 307.2-307.2c-81.92-71.68-189.44-117.76-307.2-117.76zM855.040 140.8l-307.2 307.2 133.12 133.12c76.8-71.68 179.2-117.76 291.84-128 0 0 0 0 0-5.12 0-117.76-46.080-225.28-117.76-307.2z" />
<glyph unicode="&#xe91e;" glyph-name="interface-alert-solid" d="M1018.88 64l-460.8 819.2c-10.24 15.36-25.6 25.6-46.080 25.6s-35.84-10.24-46.080-25.6l-460.8-819.2c-10.24-15.36-10.24-35.84 0-51.2s25.6-25.6 46.080-25.6h921.6c20.48 0 35.84 10.24 46.080 25.6 5.12 15.36 5.12 35.84 0 51.2zM512 140.8c-30.72 0-51.2 20.48-51.2 51.2s20.48 51.2 51.2 51.2 51.2-20.48 51.2-51.2c0-30.72-20.48-51.2-51.2-51.2zM563.2 345.6h-102.4v256h102.4v-256z" />
<glyph unicode="&#xe91f;" glyph-name="interface-alert-outline" d="M460.8 601.6h102.4v-256h-102.4v256zM563.2 192c0-28.277-22.923-51.2-51.2-51.2s-51.2 22.923-51.2 51.2c0 28.277 22.923 51.2 51.2 51.2s51.2-22.923 51.2-51.2zM1018.88 64l-460.8 819.2c-10.24 15.36-25.6 25.6-46.080 25.6s-35.84-10.24-46.080-25.6l-460.8-819.2c-10.24-15.36-10.24-35.84 0-51.2s25.6-25.6 46.080-25.6h921.6c20.48 0 35.84 10.24 46.080 25.6 5.12 15.36 5.12 35.84 0 51.2zM51.2 38.4l460.8 819.2 460.8-819.2h-921.6z" />
<glyph unicode="&#xe920;" glyph-name="interface-arrowdown-solid" d="M512 960c-281.6 0-512-230.4-512-512s230.4-512 512-512 512 230.4 512 512c0 281.6-230.4 512-512 512zM512 258.56l-276.48 271.36 35.84 35.84 235.52-235.52 235.52 235.52 35.84-35.84-266.24-271.36z" />
<glyph unicode="&#xe921;" glyph-name="interface-arrowdown-outline" d="M906.24 417.28l-394.24-368.64v911.36h-51.2v-911.36l-394.24 368.64-30.72-40.96 450.56-424.96 450.56 424.96z" />
<glyph unicode="&#xe922;" glyph-name="interface-arrowleft-solid" d="M512 960c-281.6 0-512-230.4-512-512s230.4-512 512-512 512 230.4 512 512c0 281.6-230.4 512-512 512zM634.88 212.48l-35.84-35.84-276.48 271.36 276.48 276.48 35.84-35.84-240.64-240.64 240.64-235.52z" />
<glyph unicode="&#xe923;" glyph-name="interface-arrowleft-outline" d="M1024 499.2h-911.36l368.64 394.24-40.96 30.72-424.96-450.56 424.96-450.56 40.96 30.72-368.64 394.24h911.36z" />
<glyph unicode="&#xe924;" glyph-name="interface-arrowright-solid" d="M512 960c-281.6 0-512-230.4-512-512s230.4-512 512-512 512 230.4 512 512c0 281.6-230.4 512-512 512zM430.080 171.52l-35.84 35.84 235.52 235.52-240.64 240.64 35.84 35.84 276.48-276.48-271.36-271.36z" />
<glyph unicode="&#xe925;" glyph-name="interface-arrowright-outline" d="M583.68 924.16l-40.96-30.72 368.64-394.24h-911.36v-51.2h911.36l-368.64-394.24 40.96-30.72 424.96 450.56z" />
<glyph unicode="&#xe926;" glyph-name="interface-arrowup-solid" d="M512 960c-281.6 0-512-230.4-512-512s230.4-512 512-512 512 230.4 512 512c0 281.6-230.4 512-512 512zM747.52 325.12l-235.52 240.64-235.52-235.52-35.84 35.84 271.36 271.36 276.48-276.48-40.96-35.84z" />
<glyph unicode="&#xe927;" glyph-name="interface-arrowup-outline" d="M936.96 519.68l-450.56 424.96-450.56-424.96 30.72-40.96 394.24 368.64v-911.36h51.2v911.36l394.24-368.64z" />
<glyph unicode="&#xe928;" glyph-name="interface-bookmark-solid" d="M921.6 755.2v153.6c0 30.72-20.48 51.2-51.2 51.2h-716.8c-30.72 0-51.2-20.48-51.2-51.2v-153.6h819.2zM102.4 704c0 0 0-716.8 0-716.8 0-40.96 46.080-66.56 81.92-40.96l327.68 235.52 327.68-235.52c30.72-25.6 81.92 0 81.92 40.96v716.8h-819.2z" />
<glyph unicode="&#xe929;" glyph-name="interface-bookmark-outline" d="M870.4 960h-716.8c-30.72 0-51.2-20.48-51.2-51.2 0 0 0-916.48 0-921.6 0-40.96 46.080-66.56 81.92-40.96l327.68 235.52c0 0 327.68-235.52 327.68-235.52 30.72-25.6 81.92 0 81.92 40.96v921.6c0 30.72-20.48 51.2-51.2 51.2zM870.4-12.8l-358.4 256-358.4-256v716.8h716.8v-716.8zM870.4 755.2h-716.8v153.6h716.8v-153.6z" />
<glyph unicode="&#xe92a;" glyph-name="interface-calculate-solid" d="M819.2 960h-614.4c-56.32 0-102.4-46.080-102.4-102.4v-819.2c0-56.32 46.080-102.4 102.4-102.4h614.4c56.32 0 102.4 46.080 102.4 102.4v819.2c0 56.32-46.080 102.4-102.4 102.4zM307.2 89.6c-30.72 0-51.2 20.48-51.2 51.2s20.48 51.2 51.2 51.2 51.2-20.48 51.2-51.2c0-30.72-20.48-51.2-51.2-51.2zM307.2 294.4c-30.72 0-51.2 20.48-51.2 51.2s20.48 51.2 51.2 51.2 51.2-20.48 51.2-51.2c0-30.72-20.48-51.2-51.2-51.2zM512 89.6c-30.72 0-51.2 20.48-51.2 51.2s20.48 51.2 51.2 51.2 51.2-20.48 51.2-51.2c0-30.72-20.48-51.2-51.2-51.2zM512 294.4c-30.72 0-51.2 20.48-51.2 51.2s20.48 51.2 51.2 51.2 51.2-20.48 51.2-51.2c0-30.72-20.48-51.2-51.2-51.2zM716.8 89.6c-30.72 0-51.2 20.48-51.2 51.2s20.48 51.2 51.2 51.2 51.2-20.48 51.2-51.2c0-30.72-20.48-51.2-51.2-51.2zM716.8 294.4c-30.72 0-51.2 20.48-51.2 51.2s20.48 51.2 51.2 51.2 51.2-20.48 51.2-51.2c0-30.72-20.48-51.2-51.2-51.2zM768 499.2h-512v307.2h512v-307.2z" />
<glyph unicode="&#xe92b;" glyph-name="interface-calculate-outline" d="M819.2 960h-614.4c-56.32 0-102.4-46.080-102.4-102.4v-819.2c0-56.32 46.080-102.4 102.4-102.4h614.4c56.32 0 102.4 46.080 102.4 102.4v819.2c0 56.32-46.080 102.4-102.4 102.4zM870.4 38.4c0-30.72-20.48-51.2-51.2-51.2h-614.4c-30.72 0-51.2 20.48-51.2 51.2v819.2c0 30.72 20.48 51.2 51.2 51.2h614.4c30.72 0 51.2-20.48 51.2-51.2v-819.2zM256 499.2h512v307.2h-512v-307.2zM307.2 755.2h409.6v-204.8h-409.6v204.8zM358.4 345.6c0-28.277-22.923-51.2-51.2-51.2s-51.2 22.923-51.2 51.2c0 28.277 22.923 51.2 51.2 51.2s51.2-22.923 51.2-51.2zM563.2 345.6c0-28.277-22.923-51.2-51.2-51.2s-51.2 22.923-51.2 51.2c0 28.277 22.923 51.2 51.2 51.2s51.2-22.923 51.2-51.2zM768 345.6c0-28.277-22.923-51.2-51.2-51.2s-51.2 22.923-51.2 51.2c0 28.277 22.923 51.2 51.2 51.2s51.2-22.923 51.2-51.2zM768 140.8c0-28.277-22.923-51.2-51.2-51.2s-51.2 22.923-51.2 51.2c0 28.277 22.923 51.2 51.2 51.2s51.2-22.923 51.2-51.2zM563.2 140.8c0-28.277-22.923-51.2-51.2-51.2s-51.2 22.923-51.2 51.2c0 28.277 22.923 51.2 51.2 51.2s51.2-22.923 51.2-51.2zM358.4 140.8c0-28.277-22.923-51.2-51.2-51.2s-51.2 22.923-51.2 51.2c0 28.277 22.923 51.2 51.2 51.2s51.2-22.923 51.2-51.2z" />
<glyph unicode="&#xe92c;" glyph-name="interface-locked-solid" d="M256 652.8c0 143.36 112.64 256 256 256s256-112.64 256-256v-51.2h51.2v51.2c0 168.96-138.24 307.2-307.2 307.2s-307.2-138.24-307.2-307.2v-51.2h51.2v51.2zM870.4 550.4h-716.8c-30.72 0-51.2-20.48-51.2-51.2v-256c0-168.96 138.24-307.2 307.2-307.2h204.8c168.96 0 307.2 138.24 307.2 307.2v256c0 30.72-20.48 51.2-51.2 51.2zM512 192c-56.32 0-102.4 46.080-102.4 102.4s46.080 102.4 102.4 102.4 102.4-46.080 102.4-102.4c0-56.32-46.080-102.4-102.4-102.4z" />
<glyph unicode="&#xe92d;" glyph-name="interface-locked-outline" d="M870.4 550.4h-51.2v102.4c0 168.96-138.24 307.2-307.2 307.2s-307.2-138.24-307.2-307.2v-102.4h-51.2c-30.72 0-51.2-20.48-51.2-51.2v-256c0-168.96 138.24-307.2 307.2-307.2h204.8c168.96 0 307.2 138.24 307.2 307.2v256c0 30.72-20.48 51.2-51.2 51.2zM256 652.8c0 143.36 112.64 256 256 256s256-112.64 256-256v-102.4h-512v102.4zM870.4 243.2c0-143.36-112.64-256-256-256h-204.8c-143.36 0-256 112.64-256 256v256h716.8v-256zM512 192c56.32 0 102.4 46.080 102.4 102.4s-46.080 102.4-102.4 102.4-102.4-46.080-102.4-102.4 46.080-102.4 102.4-102.4zM512 345.6c30.72 0 51.2-20.48 51.2-51.2s-20.48-51.2-51.2-51.2-51.2 20.48-51.2 51.2 20.48 51.2 51.2 51.2z" />
<glyph unicode="&#xe92e;" glyph-name="interface-expand-solid" d="M921.6 960h-819.2c-56.32 0-102.4-46.080-102.4-102.4v-819.2c0-56.32 46.080-102.4 102.4-102.4h819.2c56.32 0 102.4 46.080 102.4 102.4v819.2c0 56.32-46.080 102.4-102.4 102.4zM665.6 806.4v51.2h256v-256h-51.2v168.96l-235.52-235.52-35.84 35.84 235.52 235.52h-168.96zM358.4 89.6v-51.2h-256v256h51.2v-168.96l235.52 235.52 35.84-35.84-235.52-235.52h168.96zM389.12 529.92l-235.52 240.64v-168.96h-51.2v256h256v-51.2h-168.96l235.52-235.52-35.84-40.96zM665.6 38.4v51.2h168.96l-235.52 235.52 35.84 35.84 235.52-235.52v168.96h51.2v-256h-256z" />
<glyph unicode="&#xe92f;" glyph-name="interface-expand-outline" d="M307.2 908.8v51.2h-307.2v-307.2h51.2v220.16l286.72-291.84 40.96 40.96-291.84 286.72zM716.8 960v-51.2h220.16l-291.84-286.72 40.96-40.96 286.72 291.84v-220.16h51.2v307.2zM972.8 23.040l-286.72 291.84-40.96-40.96 291.84-286.72h-220.16v-51.2h307.2v307.2h-51.2zM337.92 314.88l-286.72-291.84v220.16h-51.2v-307.2h307.2v51.2h-220.16l291.84 286.72z" />
<glyph unicode="&#xe930;" glyph-name="interface-favorite-solid" d="M737.28 908.8c-92.16 0-174.080-46.080-225.28-117.76-51.2 71.68-133.12 117.76-225.28 117.76-158.72 0-286.72-128-286.72-286.72 0-286.72 512-634.88 512-634.88s512 348.16 512 634.88c0 158.72-128 286.72-286.72 286.72z" />
<glyph unicode="&#xe931;" glyph-name="interface-favorite-outline" d="M737.28 908.8c-92.16 0-174.080-46.080-225.28-117.76-51.2 71.68-133.12 117.76-225.28 117.76-158.72 0-286.72-128-286.72-286.72 0-286.72 512-634.88 512-634.88s512 348.16 512 634.88c0 158.72-128 286.72-286.72 286.72zM512 48.64c-153.6 107.52-460.8 373.76-460.8 573.44 0 128 102.4 235.52 235.52 235.52 71.68 0 138.24-35.84 184.32-97.28l40.96-56.32 40.96 56.32c46.080 61.44 112.64 97.28 184.32 97.28 133.12 0 235.52-107.52 235.52-235.52 0-199.68-307.2-465.92-460.8-573.44z" />
<glyph unicode="&#xe932;" glyph-name="interface-fullscreen-solid" d="M153.6 704h716.8v-512h-716.8v512zM51.2 806.4h256v51.2h-256c-30.72 0-51.2-20.48-51.2-51.2v-204.8h51.2v204.8zM972.8 857.6h-256v-51.2h256v-204.8h51.2v204.8c0 30.72-20.48 51.2-51.2 51.2zM51.2 294.4h-51.2v-204.8c0-30.72 20.48-51.2 51.2-51.2h256v51.2h-256v204.8zM972.8 89.6h-256v-51.2h256c30.72 0 51.2 20.48 51.2 51.2v256h-51.2v-256z" />
<glyph unicode="&#xe933;" glyph-name="interface-fullscreen-outline" d="M153.6 192h716.8v512h-716.8v-512zM204.8 652.8h614.4v-409.6h-614.4v409.6zM51.2 806.4h256v51.2h-256c-30.72 0-51.2-20.48-51.2-51.2v-204.8h51.2v204.8zM972.8 857.6h-256v-51.2h256v-204.8h51.2v204.8c0 30.72-20.48 51.2-51.2 51.2zM51.2 294.4h-51.2v-204.8c0-30.72 20.48-51.2 51.2-51.2h256v51.2h-256v204.8zM972.8 89.6h-256v-51.2h256c30.72 0 51.2 20.48 51.2 51.2v256h-51.2v-256z" />
<glyph unicode="&#xe934;" glyph-name="interface-grid-solid" d="M409.6 960h-358.4c-30.72 0-51.2-20.48-51.2-51.2v-358.4c0-30.72 20.48-51.2 51.2-51.2h358.4c30.72 0 51.2 20.48 51.2 51.2v358.4c0 30.72-20.48 51.2-51.2 51.2zM972.8 960h-358.4c-30.72 0-51.2-20.48-51.2-51.2v-358.4c0-30.72 20.48-51.2 51.2-51.2h358.4c30.72 0 51.2 20.48 51.2 51.2v358.4c0 30.72-20.48 51.2-51.2 51.2zM409.6 396.8h-358.4c-30.72 0-51.2-20.48-51.2-51.2v-358.4c0-30.72 20.48-51.2 51.2-51.2h358.4c30.72 0 51.2 20.48 51.2 51.2v358.4c0 30.72-20.48 51.2-51.2 51.2zM972.8 396.8h-358.4c-30.72 0-51.2-20.48-51.2-51.2v-358.4c0-30.72 20.48-51.2 51.2-51.2h358.4c30.72 0 51.2 20.48 51.2 51.2v358.4c0 30.72-20.48 51.2-51.2 51.2z" />
<glyph unicode="&#xe935;" glyph-name="interface-grid-outline" d="M409.6 960h-358.4c-30.72 0-51.2-20.48-51.2-51.2v-358.4c0-30.72 20.48-51.2 51.2-51.2h358.4c30.72 0 51.2 20.48 51.2 51.2v358.4c0 30.72-20.48 51.2-51.2 51.2zM409.6 550.4h-358.4v358.4h358.4v-358.4zM972.8 960h-358.4c-30.72 0-51.2-20.48-51.2-51.2v-358.4c0-30.72 20.48-51.2 51.2-51.2h358.4c30.72 0 51.2 20.48 51.2 51.2v358.4c0 30.72-20.48 51.2-51.2 51.2zM972.8 550.4h-358.4v358.4h358.4v-358.4zM409.6 396.8h-358.4c-30.72 0-51.2-20.48-51.2-51.2v-358.4c0-30.72 20.48-51.2 51.2-51.2h358.4c30.72 0 51.2 20.48 51.2 51.2v358.4c0 30.72-20.48 51.2-51.2 51.2zM409.6-12.8h-358.4v358.4h358.4v-358.4zM972.8 396.8h-358.4c-30.72 0-51.2-20.48-51.2-51.2v-358.4c0-30.72 20.48-51.2 51.2-51.2h358.4c30.72 0 51.2 20.48 51.2 51.2v358.4c0 30.72-20.48 51.2-51.2 51.2zM972.8-12.8h-358.4v358.4h358.4v-358.4z" />
<glyph unicode="&#xe936;" glyph-name="interface-info-solid" d="M512 960c-281.6 0-512-230.4-512-512s230.4-512 512-512 512 230.4 512 512c0 281.6-230.4 512-512 512zM563.2 166.4h-51.2v384c0 15.36-10.24 25.6-25.6 25.6h-25.6v51.2h25.6c40.96 0 76.8-35.84 76.8-76.8v-384zM563.2 704h-51.2v51.2h51.2v-51.2z" />
<glyph unicode="&#xe937;" glyph-name="interface-info-outline" d="M512 908.8c256 0 460.8-204.8 460.8-460.8s-204.8-460.8-460.8-460.8-460.8 204.8-460.8 460.8 204.8 460.8 460.8 460.8zM512 960c-281.6 0-512-230.4-512-512s230.4-512 512-512 512 230.4 512 512-230.4 512-512 512v0zM512 755.2h51.2v-51.2h-51.2v51.2zM563.2 166.4h-51.2v384c0 15.36-10.24 25.6-25.6 25.6h-25.6v51.2h25.6c40.96 0 76.8-35.84 76.8-76.8v-384z" />
<glyph unicode="&#xe938;" glyph-name="interface-list-solid" d="M204.8 908.8h-153.6c-30.72 0-51.2-20.48-51.2-51.2v-153.6c0-30.72 20.48-51.2 51.2-51.2h153.6c30.72 0 51.2 20.48 51.2 51.2v153.6c0 30.72-20.48 51.2-51.2 51.2zM204.8 550.4h-153.6c-30.72 0-51.2-20.48-51.2-51.2v-153.6c0-30.72 20.48-51.2 51.2-51.2h153.6c30.72 0 51.2 20.48 51.2 51.2v153.6c0 30.72-20.48 51.2-51.2 51.2zM204.8 192h-153.6c-30.72 0-51.2-20.48-51.2-51.2v-153.6c0-30.72 20.48-51.2 51.2-51.2h153.6c30.72 0 51.2 20.48 51.2 51.2v153.6c0 30.72-20.48 51.2-51.2 51.2zM460.8 806.4h563.2v-51.2h-563.2v51.2zM460.8 448h563.2v-51.2h-563.2v51.2zM460.8 89.6h563.2v-51.2h-563.2v51.2z" />
<glyph unicode="&#xe939;" glyph-name="interface-list-outline" d="M204.8 908.8h-153.6c-30.72 0-51.2-20.48-51.2-51.2v-153.6c0-30.72 20.48-51.2 51.2-51.2h153.6c30.72 0 51.2 20.48 51.2 51.2v153.6c0 30.72-20.48 51.2-51.2 51.2zM204.8 704h-153.6v153.6h153.6v-153.6zM204.8 550.4h-153.6c-30.72 0-51.2-20.48-51.2-51.2v-153.6c0-30.72 20.48-51.2 51.2-51.2h153.6c30.72 0 51.2 20.48 51.2 51.2v153.6c0 30.72-20.48 51.2-51.2 51.2zM204.8 345.6h-153.6v153.6h153.6v-153.6zM204.8 192h-153.6c-30.72 0-51.2-20.48-51.2-51.2v-153.6c0-30.72 20.48-51.2 51.2-51.2h153.6c30.72 0 51.2 20.48 51.2 51.2v153.6c0 30.72-20.48 51.2-51.2 51.2zM204.8-12.8h-153.6v153.6h153.6v-153.6zM460.8 806.4h563.2v-51.2h-563.2v51.2zM460.8 448h563.2v-51.2h-563.2v51.2zM460.8 89.6h563.2v-51.2h-563.2v51.2z" />
<glyph unicode="&#xe93a;" glyph-name="interface-login-solid" d="M972.8 960h-665.6c-30.72 0-51.2-20.48-51.2-51.2v-409.6h404.48l-117.76 138.24 40.96 35.84 168.96-194.56-168.96-194.56-40.96 35.84 117.76 138.24h-404.48v-460.8c0-30.72 20.48-51.2 51.2-51.2h665.6c30.72 0 51.2 20.48 51.2 51.2v911.36c0 30.72-20.48 51.2-51.2 51.2zM0 499.2h256v-51.2h-256v51.2z" />
<glyph unicode="&#xe93b;" glyph-name="interface-login-outline" d="M542.72 309.76l40.96-30.72 168.96 194.56-168.96 194.56-40.96-30.72 117.76-138.24h-660.48v-51.2h660.48zM972.8 960h-665.6c-30.72 0-51.2-20.48-51.2-51.2v-256h51.2v256h665.6v-921.6h-665.6v256h-51.2v-256c0-30.72 20.48-51.2 51.2-51.2h665.6c30.72 0 51.2 20.48 51.2 51.2v921.6c0 30.72-20.48 51.2-51.2 51.2z" />
<glyph unicode="&#xe93c;" glyph-name="interface-map-solid" d="M399.36 939.52c-199.68-61.44-348.16-261.12-348.16-491.52h204.8c0 209.92 56.32 394.24 143.36 491.52zM56.32 396.8c20.48-209.92 158.72-384 348.16-440.32-81.92 87.040-138.24 250.88-148.48 440.32h-199.68zM307.2 448h204.8v506.88c-102.4-30.72-204.8-230.4-204.8-506.88zM512-58.88v455.68h-204.8c15.36-250.88 107.52-430.080 204.8-455.68zM563.2 954.88v-506.88h204.8c0 276.48-102.4 476.16-204.8 506.88zM563.2 396.8v-455.68c97.28 25.6 189.44 204.8 204.8 455.68h-204.8zM1024 448c0 230.4-148.48 430.080-348.16 491.52 87.040-97.28 143.36-281.6 143.36-491.52h204.8zM675.84-43.52c184.32 56.32 327.68 230.4 348.16 440.32h-204.8c-10.24-189.44-66.56-353.28-143.36-440.32z" />
<glyph unicode="&#xe93d;" glyph-name="interface-map-outline" d="M537.6 960c-266.24 0-486.4-230.4-486.4-512s220.16-512 486.4-512 486.4 230.4 486.4 512c0 281.6-220.16 512-486.4 512zM384 878.080c-76.8-87.040-128-250.88-128-430.080h-153.6c0 199.68 117.76 368.64 281.6 430.080zM107.52 396.8h153.6c10.24-158.72 56.32-296.96 128-378.88-153.6 56.32-266.24 204.8-281.6 378.88zM512-7.68c-97.28 25.6-189.44 179.2-204.8 404.48h204.8v-404.48zM512 448h-204.8c0 256 102.4 430.080 204.8 455.68v-455.68zM972.8 448h-153.6c0 179.2-51.2 343.040-128 430.080 163.84-61.44 281.6-230.4 281.6-430.080zM563.2 903.68c102.4-25.6 204.8-204.8 204.8-455.68h-204.8v455.68zM563.2-7.68v404.48h204.8c-15.36-225.28-107.52-384-204.8-404.48zM691.2 17.92c71.68 81.92 122.88 220.16 128 378.88h153.6c-20.48-174.080-133.12-322.56-281.6-378.88z" />
<glyph unicode="&#xe93e;" glyph-name="interface-masonry-solid" d="M256 960h-204.8c-30.72 0-51.2-20.48-51.2-51.2v-204.8c0-30.72 20.48-51.2 51.2-51.2h204.8c30.72 0 51.2 20.48 51.2 51.2v204.8c0 30.72-20.48 51.2-51.2 51.2zM614.4 960h-204.8c-30.72 0-51.2-20.48-51.2-51.2v-307.2c0-30.72 20.48-51.2 51.2-51.2h204.8c30.72 0 51.2 20.48 51.2 51.2v307.2c0 30.72-20.48 51.2-51.2 51.2zM614.4 499.2h-204.8c-30.72 0-51.2-20.48-51.2-51.2v-460.8c0-30.72 20.48-51.2 51.2-51.2h204.8c30.72 0 51.2 20.48 51.2 51.2v460.8c0 30.72-20.48 51.2-51.2 51.2zM972.8 601.6h-204.8c-30.72 0-51.2-20.48-51.2-51.2v-307.2c0-30.72 20.48-51.2 51.2-51.2h204.8c30.72 0 51.2 20.48 51.2 51.2v307.2c0 30.72-20.48 51.2-51.2 51.2zM256 601.6h-204.8c-30.72 0-51.2-20.48-51.2-51.2v-307.2c0-30.72 20.48-51.2 51.2-51.2h204.8c30.72 0 51.2 20.48 51.2 51.2v307.2c0 30.72-20.48 51.2-51.2 51.2zM256 140.8h-204.8c-30.72 0-51.2-20.48-51.2-51.2v-102.4c0-30.72 20.48-51.2 51.2-51.2h204.8c30.72 0 51.2 20.48 51.2 51.2v102.4c0 30.72-20.48 51.2-51.2 51.2zM972.8 140.8h-204.8c-30.72 0-51.2-20.48-51.2-51.2v-102.4c0-30.72 20.48-51.2 51.2-51.2h204.8c30.72 0 51.2 20.48 51.2 51.2v102.4c0 30.72-20.48 51.2-51.2 51.2zM972.8 960h-204.8c-30.72 0-51.2-20.48-51.2-51.2v-204.8c0-30.72 20.48-51.2 51.2-51.2h204.8c30.72 0 51.2 20.48 51.2 51.2v204.8c0 30.72-20.48 51.2-51.2 51.2z" />
<glyph unicode="&#xe93f;" glyph-name="interface-masonry-outline" d="M256 960h-204.8c-30.72 0-51.2-20.48-51.2-51.2v-204.8c0-30.72 20.48-51.2 51.2-51.2h204.8c30.72 0 51.2 20.48 51.2 51.2v204.8c0 30.72-20.48 51.2-51.2 51.2zM256 704h-204.8v204.8h204.8v-204.8zM614.4 960h-204.8c-30.72 0-51.2-20.48-51.2-51.2v-307.2c0-30.72 20.48-51.2 51.2-51.2h204.8c30.72 0 51.2 20.48 51.2 51.2v307.2c0 30.72-20.48 51.2-51.2 51.2zM614.4 601.6h-204.8v307.2h204.8v-307.2zM614.4 499.2h-204.8c-30.72 0-51.2-20.48-51.2-51.2v-460.8c0-30.72 20.48-51.2 51.2-51.2h204.8c30.72 0 51.2 20.48 51.2 51.2v460.8c0 30.72-20.48 51.2-51.2 51.2zM614.4-12.8h-204.8v460.8h204.8v-460.8zM972.8 601.6h-204.8c-30.72 0-51.2-20.48-51.2-51.2v-307.2c0-30.72 20.48-51.2 51.2-51.2h204.8c30.72 0 51.2 20.48 51.2 51.2v307.2c0 30.72-20.48 51.2-51.2 51.2zM972.8 243.2h-204.8v307.2h204.8v-307.2zM256 601.6h-204.8c-30.72 0-51.2-20.48-51.2-51.2v-307.2c0-30.72 20.48-51.2 51.2-51.2h204.8c30.72 0 51.2 20.48 51.2 51.2v307.2c0 30.72-20.48 51.2-51.2 51.2zM256 243.2h-204.8v307.2h204.8v-307.2zM256 140.8h-204.8c-30.72 0-51.2-20.48-51.2-51.2v-102.4c0-30.72 20.48-51.2 51.2-51.2h204.8c30.72 0 51.2 20.48 51.2 51.2v102.4c0 30.72-20.48 51.2-51.2 51.2zM256-12.8h-204.8v102.4h204.8v-102.4zM972.8 140.8h-204.8c-30.72 0-51.2-20.48-51.2-51.2v-102.4c0-30.72 20.48-51.2 51.2-51.2h204.8c30.72 0 51.2 20.48 51.2 51.2v102.4c0 30.72-20.48 51.2-51.2 51.2zM972.8-12.8h-204.8v102.4h204.8v-102.4zM972.8 960h-204.8c-30.72 0-51.2-20.48-51.2-51.2v-204.8c0-30.72 20.48-51.2 51.2-51.2h204.8c30.72 0 51.2 20.48 51.2 51.2v204.8c0 30.72-20.48 51.2-51.2 51.2zM972.8 704h-204.8v204.8h204.8v-204.8z" />
<glyph unicode="&#xe940;" glyph-name="interface-myaccount-solid" d="M665.6 601.6c0-84.831-68.769-153.6-153.6-153.6s-153.6 68.769-153.6 153.6c0 84.831 68.769 153.6 153.6 153.6s153.6-68.769 153.6-153.6zM512 960c-281.6 0-512-230.4-512-512 0-122.88 46.080-235.52 117.76-327.68 81.92 133.12 225.28 225.28 394.24 225.28s312.32-92.16 394.24-225.28c71.68 87.040 117.76 199.68 117.76 327.68 0 281.6-230.4 512-512 512zM512 396.8c-112.64 0-204.8 92.16-204.8 204.8s92.16 204.8 204.8 204.8 204.8-92.16 204.8-204.8-92.16-204.8-204.8-204.8zM870.4 84.48c-71.68 128-204.8 209.92-358.4 209.92s-286.72-87.040-358.4-209.92c92.16-92.16 220.16-148.48 358.4-148.48s266.24 56.32 358.4 148.48z" />
<glyph unicode="&#xe941;" glyph-name="interface-myaccount-outline" d="M512 806.4c-112.64 0-204.8-92.16-204.8-204.8s92.16-204.8 204.8-204.8c112.64 0 204.8 92.16 204.8 204.8s-92.16 204.8-204.8 204.8zM512 448c-87.040 0-153.6 66.56-153.6 153.6s66.56 153.6 153.6 153.6c87.040 0 153.6-66.56 153.6-153.6s-66.56-153.6-153.6-153.6zM512 960c-281.6 0-512-230.4-512-512s230.4-512 512-512 512 230.4 512 512-230.4 512-512 512zM512-12.8c-107.52 0-209.92 40.96-286.72 102.4 40.96 117.76 153.6 204.8 286.72 204.8s245.76-87.040 286.72-204.8c-76.8-61.44-179.2-102.4-286.72-102.4zM839.68 125.44c-51.2 128-179.2 220.16-327.68 220.16s-276.48-92.16-327.68-220.16c-81.92 81.92-133.12 199.68-133.12 322.56 0 256 204.8 460.8 460.8 460.8s460.8-204.8 460.8-460.8c0-122.88-51.2-240.64-133.12-322.56z" />
<glyph unicode="&#xe942;" glyph-name="interface-next-solid" d="M896 488.96l-716.8 460.8c-5.12 5.12-15.36 10.24-25.6 10.24s-15.36 0-25.6-5.12c-15.36-10.24-25.6-25.6-25.6-46.080v-921.6c0-20.48 10.24-35.84 25.6-46.080 10.24-5.12 15.36-5.12 25.6-5.12s20.48 5.12 25.6 10.24l716.8 460.8c15.36 10.24 25.6 25.6 25.6 40.96s-10.24 35.84-25.6 40.96z" />
<glyph unicode="&#xe943;" glyph-name="interface-next-outline" d="M896 488.96c0 0-711.68 460.8-716.8 460.8-30.72 20.48-76.8-5.12-76.8-40.96 0-5.12 0-916.48 0-921.6 0-35.84 46.080-61.44 76.8-40.96 5.12 0 716.8 460.8 716.8 460.8 30.72 15.36 30.72 66.56 0 81.92zM870.4 448l-716.8-460.8v921.6l716.8-460.8z" />
<glyph unicode="&#xe944;" glyph-name="interface-unlocked-solid" d="M870.4 550.4h-716.8c-30.72 0-51.2-20.48-51.2-51.2v-256c0-168.96 138.24-307.2 307.2-307.2h204.8c168.96 0 307.2 138.24 307.2 307.2v256c0 30.72-20.48 51.2-51.2 51.2zM512 192c-56.32 0-102.4 46.080-102.4 102.4s46.080 102.4 102.4 102.4 102.4-46.080 102.4-102.4c0-56.32-46.080-102.4-102.4-102.4zM256 652.8c0 143.36 112.64 256 256 256 102.4 0 194.56-61.44 235.52-153.6h56.32c-40.96 117.76-153.6 204.8-286.72 204.8-174.080 0-312.32-138.24-312.32-307.2v-51.2h51.2v51.2z" />
<glyph unicode="&#xe945;" glyph-name="interface-unlocked-outline" d="M512 192c56.32 0 102.4 46.080 102.4 102.4s-46.080 102.4-102.4 102.4-102.4-46.080-102.4-102.4c0-56.32 46.080-102.4 102.4-102.4zM512 345.6c30.72 0 51.2-20.48 51.2-51.2s-20.48-51.2-51.2-51.2-51.2 20.48-51.2 51.2 20.48 51.2 51.2 51.2zM870.4 550.4h-614.4v102.4c0 143.36 112.64 256 256 256 102.4 0 194.56-61.44 235.52-153.6h56.32c-40.96 117.76-153.6 204.8-286.72 204.8-174.080 0-312.32-138.24-312.32-307.2v-102.4h-51.2c-30.72 0-51.2-20.48-51.2-51.2v-256c0-168.96 138.24-307.2 307.2-307.2h204.8c168.96 0 307.2 138.24 307.2 307.2v256c0 30.72-20.48 51.2-51.2 51.2zM870.4 243.2c0-143.36-112.64-256-256-256h-204.8c-143.36 0-256 112.64-256 256v256h716.8v-256z" />
<glyph unicode="&#xe946;" glyph-name="interface-photo-solid" d="M972.8 857.6h-921.6c-30.72 0-51.2-20.48-51.2-51.2v-711.68c0 0 337.92 419.84 337.92 424.96 10.24 10.24 30.72 10.24 40.96 0l235.52-286.72c0 0 133.12 133.12 133.12 133.12 10.24 10.24 25.6 10.24 35.84 0l235.52-276.48c0 0 0 0 0 5.12v711.68c5.12 30.72-15.36 51.2-46.080 51.2zM742.4 448c-71.68 0-128 56.32-128 128s56.32 128 128 128 128-56.32 128-128c0-71.68-56.32-128-128-128zM768 309.76c0 0-133.12-133.12-133.12-133.12-10.24-10.24-30.72-10.24-35.84 0l-240.64 281.6-332.8-414.72c10.24 0 15.36-5.12 25.6-5.12h921.6c5.12 0 15.36 0 20.48 5.12l-225.28 266.24z" />
<glyph unicode="&#xe947;" glyph-name="interface-photo-outline" d="M972.8 857.6h-921.6c-30.72 0-51.2-20.48-51.2-51.2v-716.8c0-30.72 20.48-51.2 51.2-51.2h921.6c30.72 0 51.2 20.48 51.2 51.2v716.8c0 30.72-20.48 51.2-51.2 51.2zM972.8 806.4v-675.84c0 0-184.32 230.4-184.32 230.4-10.24 10.24-25.6 10.24-35.84 0l-138.24-133.12-235.52 286.72c-10.24 10.24-30.72 10.24-40.96 0l-286.72-384v675.84h921.6zM942.080 89.6h-860.16l276.48 368.64c0 0 235.52-281.6 235.52-281.6 10.24-10.24 25.6-10.24 35.84 0l133.12 133.12 179.2-220.16zM742.4 448c71.68 0 128 56.32 128 128s-56.32 128-128 128-128-56.32-128-128c0-71.68 56.32-128 128-128zM742.4 652.8c40.96 0 76.8-35.84 76.8-76.8s-35.84-76.8-76.8-76.8-76.8 35.84-76.8 76.8 35.84 76.8 76.8 76.8z" />
<glyph unicode="&#xe948;" glyph-name="interface-play-solid" d="M512 960c-281.6 0-512-230.4-512-512s230.4-512 512-512 512 230.4 512 512-230.4 512-512 512zM747.52 407.040c0 0-307.2-204.8-307.2-204.8-35.84-25.6-81.92 0-81.92 40.96 0 0 0 409.6 0 409.6 0 40.96 46.080 66.56 81.92 40.96 0 0 307.2-204.8 307.2-204.8 25.6-20.48 25.6-61.44 0-81.92z" />
<glyph unicode="&#xe949;" glyph-name="interface-play-outline" d="M512 960c-281.6 0-512-230.4-512-512s230.4-512 512-512 512 230.4 512 512-230.4 512-512 512zM512-12.8c-256 0-460.8 204.8-460.8 460.8s204.8 460.8 460.8 460.8 460.8-204.8 460.8-460.8-204.8-460.8-460.8-460.8zM440.32 693.76c-35.84 25.6-81.92 0-81.92-40.96 0 0 0-409.6 0-409.6 0-40.96 46.080-66.56 81.92-40.96 0 0 307.2 204.8 307.2 204.8 30.72 20.48 30.72 66.56 0 87.040 0-5.12-307.2 199.68-307.2 199.68zM409.6 243.2v409.6l307.2-204.8-307.2-204.8z" />
<glyph unicode="&#xe94a;" glyph-name="interface-previous-solid" d="M128 407.040l716.8-460.8c10.24-5.12 20.48-10.24 25.6-10.24 10.24 0 15.36 0 25.6 5.12 15.36 10.24 25.6 25.6 25.6 46.080v921.6c0 20.48-10.24 35.84-25.6 46.080-10.24 5.12-15.36 5.12-25.6 5.12s-20.48-5.12-25.6-10.24l-716.8-460.8c-15.36-5.12-25.6-25.6-25.6-40.96s10.24-35.84 25.6-40.96z" />
<glyph unicode="&#xe94b;" glyph-name="interface-previous-outline" d="M122.88 407.040c0 0 711.68-460.8 716.8-460.8 30.72-20.48 81.92 5.12 81.92 40.96 0 5.12 0 916.48 0 921.6 0 35.84-46.080 61.44-76.8 40.96-5.12 0-716.8-460.8-716.8-460.8-30.72-15.36-30.72-61.44-5.12-81.92zM153.6 448l716.8 460.8v-921.6l-716.8 460.8z" />
<glyph unicode="&#xe94c;" glyph-name="interface-print-solid" d="M819.2 826.88l-133.12 133.12h-481.28v-460.8h614.4v327.68zM665.6 601.6h-307.2v51.2h307.2v-51.2zM665.6 755.2h-307.2v51.2h307.2v-51.2zM921.6 601.6h-51.2v-153.6h-716.8v153.6h-51.2c-56.32 0-102.4-46.080-102.4-102.4v-358.4c0-56.32 46.080-102.4 102.4-102.4h102.4v-102.4h614.4v102.4h102.4c56.32 0 102.4 46.080 102.4 102.4v358.4c0 56.32-46.080 102.4-102.4 102.4zM768-12.8h-512v153.6h512v-153.6zM870.4 294.4h-102.4v51.2h102.4v-51.2z" />
<glyph unicode="&#xe94d;" glyph-name="interface-print-outline" d="M768 345.6h102.4v-51.2h-102.4v51.2zM921.6 601.6h-102.4v225.28l-133.12 133.12h-481.28v-358.4h-102.4c-56.32 0-102.4-46.080-102.4-102.4v-358.4c0-56.32 46.080-102.4 102.4-102.4h102.4v-102.4h614.4v102.4h102.4c56.32 0 102.4 46.080 102.4 102.4v358.4c0 56.32-46.080 102.4-102.4 102.4zM256 908.8h409.6c40.96-40.96 61.44-61.44 102.4-102.4v-307.2h-512v409.6zM768-12.8h-512v153.6h512v-153.6zM972.8 140.8c0-30.72-20.48-51.2-51.2-51.2h-102.4v102.4h-614.4v-102.4h-102.4c-30.72 0-51.2 20.48-51.2 51.2v358.4c0 30.72 20.48 51.2 51.2 51.2h102.4v-102.4h614.4v102.4h102.4c30.72 0 51.2-20.48 51.2-51.2v-358.4zM358.4 652.8h307.2v-51.2h-307.2v51.2zM358.4 806.4h307.2v-51.2h-307.2v51.2z" />
<glyph unicode="&#xe94e;" glyph-name="interface-question-solid" d="M921.6 960h-819.2c-56.32 0-102.4-46.080-102.4-102.4v-665.6c0-56.32 46.080-102.4 102.4-102.4h440.32l138.24-138.24c10.24-10.24 20.48-15.36 35.84-15.36 5.12 0 15.36 0 20.48 5.12 20.48 10.24 30.72 25.6 30.72 46.080v102.4h153.6c56.32 0 102.4 46.080 102.4 102.4v665.6c0 56.32-46.080 102.4-102.4 102.4zM512 243.2h-51.2v51.2h51.2v-51.2zM665.6 627.2c0-71.68-56.32-128-128-128-15.36 0-25.6-10.24-25.6-25.6v-76.8h-51.2v76.8c0 40.96 35.84 76.8 76.8 76.8s76.8 35.84 76.8 76.8v25.6c0 56.32-46.080 102.4-102.4 102.4s-102.4-46.080-102.4-102.4h-51.2c0 87.040 66.56 153.6 153.6 153.6s153.6-66.56 153.6-153.6v-25.6z" />
<glyph unicode="&#xe94f;" glyph-name="interface-question-outline" d="M460.8 294.4h51.2v-51.2h-51.2v51.2zM512 806.4c-87.040 0-153.6-66.56-153.6-153.6h51.2c0 56.32 46.080 102.4 102.4 102.4s102.4-46.080 102.4-102.4v-25.6c0-40.96-35.84-76.8-76.8-76.8s-76.8-35.84-76.8-76.8v-76.8h51.2v76.8c0 15.36 10.24 25.6 25.6 25.6 71.68 0 128 56.32 128 128v25.6c0 87.040-66.56 153.6-153.6 153.6zM921.6 960h-819.2c-56.32 0-102.4-46.080-102.4-102.4v-665.6c0-56.32 46.080-102.4 102.4-102.4h440.32l138.24-138.24c10.24-10.24 20.48-15.36 35.84-15.36 5.12 0 15.36 0 20.48 5.12 20.48 10.24 30.72 25.6 30.72 46.080v102.4h153.6c56.32 0 102.4 46.080 102.4 102.4v665.6c0 56.32-46.080 102.4-102.4 102.4zM972.8 192c0-30.72-20.48-51.2-51.2-51.2h-204.8v-153.6l-153.6 153.6h-460.8c-30.72 0-51.2 20.48-51.2 51.2v665.6c0 30.72 20.48 51.2 51.2 51.2h819.2c30.72 0 51.2-20.48 51.2-51.2v-665.6z" />
<glyph unicode="&#xe950;" glyph-name="interface-remove-solid" d="M512 960c-281.6 0-512-230.4-512-512s230.4-512 512-512 512 230.4 512 512c0 281.6-230.4 512-512 512zM737.28 263.68l-35.84-35.84-189.44 184.32-184.32-184.32-35.84 35.84 184.32 184.32-189.44 184.32 35.84 35.84 189.44-184.32 184.32 184.32 35.84-35.84-184.32-184.32 189.44-184.32z" />
<glyph unicode="&#xe951;" glyph-name="interface-remove-outline" d="M890.88 785.92l-40.96 40.96-337.92-343.040-337.92 343.040-40.96-40.96 343.040-337.92-343.040-337.92 40.96-40.96 337.92 343.040 337.92-343.040 40.96 40.96-343.040 337.92z" />
<glyph unicode="&#xe952;" glyph-name="interface-report-solid" d="M716.8 960c81.92-81.92 122.88-122.88 204.8-204.8h-204.8v204.8zM665.6 755.2v204.8h-512c-30.72 0-51.2-20.48-51.2-51.2v-921.6c0-30.72 20.48-51.2 51.2-51.2h716.8c30.72 0 51.2 20.48 51.2 51.2v716.8h-204.8c-30.72 0-51.2 20.48-51.2 51.2zM256 755.2h256v-307.2h-256v307.2zM665.6 140.8h-409.6v51.2h409.6v-51.2zM768 294.4h-512v51.2h512v-51.2zM768 448h-153.6v51.2h153.6v-51.2zM768 601.6h-153.6v51.2h153.6v-51.2z" />
<glyph unicode="&#xe953;" glyph-name="interface-report-outline" d="M614.4 499.2h153.6v-51.2h-153.6v51.2zM614.4 652.8h153.6v-51.2h-153.6v51.2zM256 345.6h512v-51.2h-512v51.2zM256 192h409.6v-51.2h-409.6v51.2zM512 755.2h-256v-307.2h256v307.2zM460.8 499.2h-153.6v204.8h153.6v-204.8zM716.8 960h-563.2c-30.72 0-51.2-20.48-51.2-51.2v-921.6c0-30.72 20.48-51.2 51.2-51.2h716.8c30.72 0 51.2 20.48 51.2 51.2v768c-81.92 81.92-122.88 122.88-204.8 204.8zM716.8 888.32l133.12-133.12h-133.12v133.12zM870.4-12.8h-716.8v921.6h512v-153.6c0-30.72 20.48-51.2 51.2-51.2h153.6v-716.8z" />
<glyph unicode="&#xe954;" glyph-name="interface-search-solid" d="M358.4 960c-199.68 0-358.4-158.72-358.4-358.4s158.72-358.4 358.4-358.4c199.68 0 358.4 158.72 358.4 358.4s-158.72 358.4-358.4 358.4zM358.4 345.6c-143.36 0-256 112.64-256 256s112.64 256 256 256 256-112.64 256-256-112.64-256-256-256zM630.931 256.651l72.407 72.407 307.73-307.73-72.407-72.407-307.73 307.73z" />
<glyph unicode="&#xe955;" glyph-name="interface-search-outline" d="M629.76 366.080c56.32 61.44 87.040 143.36 87.040 235.52 0 199.68-158.72 358.4-358.4 358.4s-358.4-158.72-358.4-358.4c0-199.68 158.72-358.4 358.4-358.4 92.16 0 174.080 30.72 235.52 87.040l363.52-363.52 35.84 35.84-363.52 363.52zM358.4 294.4c-168.96 0-307.2 138.24-307.2 307.2s138.24 307.2 307.2 307.2 307.2-138.24 307.2-307.2-138.24-307.2-307.2-307.2z" />
<glyph unicode="&#xe956;" glyph-name="interface-settings-solid" d="M988.16 350.72l-71.68 40.96c5.12 20.48 5.12 35.84 5.12 56.32s0 35.84-5.12 56.32l71.68 40.96c25.6 15.36 30.72 46.080 20.48 71.68 0 0-102.4 179.2-102.4 179.2-15.36 25.6-46.080 30.72-71.68 20.48l-71.68-40.96c-30.72 25.6-61.44 40.96-97.28 56.32v76.8c0 30.72-20.48 51.2-51.2 51.2h-204.8c-30.72 0-51.2-20.48-51.2-51.2v-81.92c-35.84-15.36-66.56-30.72-97.28-56.32 0 0-71.68 40.96-71.68 40.96-25.6 15.36-56.32 5.12-71.68-20.48l-102.4-179.2c-10.24-20.48-5.12-51.2 20.48-66.56l71.68-40.96c-5.12-20.48-5.12-35.84-5.12-56.32s0-35.84 5.12-56.32l-71.68-40.96c-25.6-15.36-30.72-46.080-20.48-71.68 0 0 102.4-179.2 102.4-179.2 15.36-25.6 46.080-30.72 71.68-20.48l71.68 40.96c30.72-25.6 61.44-40.96 97.28-56.32v-76.8c0-30.72 20.48-51.2 51.2-51.2h204.8c30.72 0 51.2 20.48 51.2 51.2v81.92c35.84 15.36 66.56 35.84 97.28 56.32l71.68-40.96c25.6-15.36 56.32-5.12 71.68 20.48l102.4 179.2c10.24 20.48 5.12 51.2-20.48 66.56zM512 243.2c-112.64 0-204.8 92.16-204.8 204.8s92.16 204.8 204.8 204.8 204.8-92.16 204.8-204.8c0-112.64-92.16-204.8-204.8-204.8z" />
<glyph unicode="&#xe957;" glyph-name="interface-settings-outline" d="M512 652.8c-112.64 0-204.8-92.16-204.8-204.8s92.16-204.8 204.8-204.8 204.8 92.16 204.8 204.8-92.16 204.8-204.8 204.8zM512 294.4c-87.040 0-153.6 66.56-153.6 153.6s66.56 153.6 153.6 153.6 153.6-66.56 153.6-153.6-66.56-153.6-153.6-153.6zM988.16 350.72l-71.68 40.96c5.12 20.48 5.12 35.84 5.12 56.32s0 35.84-5.12 56.32l71.68 40.96c25.6 15.36 30.72 46.080 20.48 71.68l-102.4 179.2c-10.24 15.36-25.6 25.6-46.080 25.6-10.24 0-15.36 0-25.6-5.12l-71.68-40.96c-30.72 25.6-61.44 40.96-97.28 56.32v76.8c0 30.72-20.48 51.2-51.2 51.2h-204.8c-30.72 0-51.2-20.48-51.2-51.2v-81.92c-35.84-15.36-66.56-30.72-97.28-56.32l-71.68 40.96c-10.24 5.12-15.36 5.12-25.6 5.12-15.36 0-35.84-10.24-46.080-25.6l-102.4-179.2c-10.24-20.48-5.12-51.2 20.48-66.56l71.68-40.96c-5.12-20.48-5.12-35.84-5.12-56.32s0-35.84 5.12-56.32l-71.68-40.96c-25.6-15.36-30.72-46.080-20.48-71.68l102.4-179.2c5.12-10.24 20.48-20.48 30.72-25.6 5.12 0 10.24 0 15.36 0 10.24 0 15.36 0 25.6 5.12l71.68 40.96c30.72-25.6 61.44-40.96 97.28-56.32v-76.8c0-30.72 20.48-51.2 51.2-51.2h204.8c30.72 0 51.2 20.48 51.2 51.2v81.92c35.84 15.36 66.56 35.84 97.28 56.32l71.68-40.96c10.24-5.12 15.36-5.12 25.6-5.12 15.36 0 35.84 10.24 46.080 25.6l102.4 179.2c10.24 20.48 5.12 51.2-20.48 66.56zM860.16 130.56l-102.4 56.32c-40.96-35.84-87.040-66.56-143.36-81.92v-117.76h-204.8v117.76c-56.32 15.36-102.4 46.080-143.36 81.92l-102.4-56.32-102.4 179.2 102.4 56.32c-5.12 25.6-10.24 51.2-10.24 81.92s5.12 56.32 10.24 81.92l-102.4 56.32 102.4 179.2 102.4-56.32c40.96 35.84 87.040 66.56 143.36 81.92v117.76h204.8v-117.76c56.32-15.36 102.4-46.080 143.36-81.92l102.4 56.32 102.4-179.2-102.4-56.32c5.12-25.6 10.24-51.2 10.24-81.92s-5.12-56.32-10.24-81.92l102.4-56.32-102.4-179.2z" />
<glyph unicode="&#xe958;" glyph-name="interface-share-solid" d="M512 852.48l138.24-117.76 30.72 40.96-194.56 168.96-194.56-168.96 30.72-40.96 138.24 117.76v-250.88h51.2zM870.4 601.6h-358.4v-409.6h-51.2v409.6h-358.4c-30.72 0-51.2-20.48-51.2-51.2v-563.2c0-30.72 20.48-51.2 51.2-51.2h768c30.72 0 51.2 20.48 51.2 51.2v563.2c0 30.72-20.48 51.2-51.2 51.2z" />
<glyph unicode="&#xe959;" glyph-name="interface-share-outline" d="M460.8 852.48v-660.48h51.2v660.48l138.24-117.76 30.72 40.96-194.56 168.96-194.56-168.96 30.72-40.96zM870.4 601.6h-204.8v-51.2h204.8v-563.2h-768v563.2h204.8v51.2h-204.8c-30.72 0-51.2-20.48-51.2-51.2v-563.2c0-30.72 20.48-51.2 51.2-51.2h768c30.72 0 51.2 20.48 51.2 51.2v563.2c0 30.72-20.48 51.2-51.2 51.2z" />
<glyph unicode="&#xe95a;" glyph-name="interface-support-solid" d="M691.2 627.2c25.6-25.6 46.080-56.32 61.44-87.040l189.44 189.44c-20.48 25.6-40.96 56.32-66.56 81.92s-51.2 46.080-81.92 66.56l-189.44-189.44c30.72-15.36 61.44-35.84 87.040-61.44zM332.8 268.8c-25.6 25.6-46.080 56.32-61.44 87.040l-189.44-189.44c20.48-25.6 40.96-56.32 66.56-81.92s51.2-46.080 81.92-66.56l189.44 189.44c-30.72 15.36-61.44 35.84-87.040 61.44zM793.6 23.040c25.6 20.48 56.32 40.96 81.92 66.56s46.080 51.2 66.56 81.92l-189.44 189.44c-10.24-30.72-30.72-61.44-56.32-87.040s-56.32-46.080-87.040-56.32l184.32-194.56zM332.8 627.2c25.6 25.6 56.32 46.080 87.040 61.44l-189.44 184.32c-30.72-15.36-56.32-35.84-81.92-61.44s-46.080-51.2-61.44-81.92l189.44-189.44c10.24 30.72 30.72 61.44 56.32 87.040zM762.88 483.84c5.12-25.6 5.12-46.080 0-71.68l199.68-199.68c76.8 148.48 76.8 327.68 0 476.16l-199.68-204.8zM547.84 197.12c-25.6-5.12-46.080-5.12-71.68 0l-199.68-199.68c148.48-76.8 327.68-76.8 476.16 0l-204.8 199.68zM476.16 698.88c25.6 5.12 46.080 5.12 71.68 0l199.68 199.68c-148.48 76.8-327.68 76.8-476.16 0l204.8-199.68zM261.12 412.16c-5.12 25.6-5.12 46.080 0 71.68l-204.8 199.68c-76.8-148.48-76.8-327.68 0-476.16l204.8 204.8z" />
<glyph unicode="&#xe95b;" glyph-name="interface-support-outline" d="M875.52 811.52c-199.68 199.68-527.36 199.68-727.040 0s-199.68-522.24 0-721.92c199.68-199.68 522.24-199.68 721.92 0 204.8 194.56 204.8 522.24 5.12 721.92zM839.68 775.68c25.6-25.6 46.080-51.2 66.56-81.92l-153.6-153.6c-15.36 30.72-35.84 61.44-61.44 87.040s-56.32 46.080-87.040 61.44l153.6 153.6c25.6-20.48 56.32-40.96 81.92-66.56zM655.36 304.64c-81.92-81.92-209.92-81.92-291.84 0s-81.92 209.92 0 291.84 209.92 81.92 291.84 0 81.92-215.040 0-291.84zM711.68 862.72l-163.84-163.84c-25.6 5.12-46.080 5.12-71.68 0l-163.84 163.84c128 61.44 271.36 61.44 399.36 0zM184.32 775.68c25.6 25.6 51.2 46.080 81.92 66.56l153.6-153.6c-30.72-15.36-61.44-35.84-87.040-61.44s-46.080-56.32-61.44-87.040l-153.6 153.6c20.48 25.6 40.96 56.32 66.56 81.92zM97.28 647.68l163.84-163.84c-5.12-25.6-5.12-46.080 0-71.68l-163.84-163.84c-61.44 128-61.44 271.36 0 399.36zM184.32 120.32c-25.6 25.6-46.080 51.2-66.56 81.92l153.6 153.6c15.36-30.72 35.84-61.44 61.44-87.040s56.32-46.080 87.040-56.32l-153.6-153.6c-25.6 15.36-56.32 35.84-81.92 61.44zM312.32 33.28l163.84 163.84c25.6-5.12 46.080-5.12 71.68 0l163.84-163.84c-128-61.44-271.36-61.44-399.36 0zM839.68 120.32c-25.6-25.6-51.2-46.080-81.92-66.56l-153.6 153.6c30.72 10.24 61.44 30.72 87.040 56.32s46.080 56.32 56.32 87.040l153.6-153.6c-15.36-20.48-35.84-51.2-61.44-76.8zM762.88 412.16c5.12 25.6 5.12 46.080 0 71.68l163.84 163.84c61.44-122.88 61.44-271.36 0-394.24l-163.84 158.72z" />
<glyph unicode="&#xe95c;" glyph-name="interface-time-solid" d="M512 960c-281.6 0-512-230.4-512-512s230.4-512 512-512 512 230.4 512 512c0 281.6-230.4 512-512 512zM701.44 273.92l-240.64 158.72v373.76h51.2v-343.040l220.16-148.48-30.72-40.96z" />
<glyph unicode="&#xe95d;" glyph-name="interface-time-outline" d="M512 960c-281.6 0-512-230.4-512-512s230.4-512 512-512 512 230.4 512 512c0 281.6-230.4 512-512 512zM512-12.8c-256 0-460.8 204.8-460.8 460.8s204.8 460.8 460.8 460.8 460.8-204.8 460.8-460.8c0-256-204.8-460.8-460.8-460.8zM512 806.4h-51.2v-373.76l240.64-158.72 30.72 40.96-220.16 148.48z" />
<glyph unicode="&#xe95e;" glyph-name="social-angieslist-solid" d="M701.44 581.12c-128 0-261.12 0-389.12 0-51.2-5.12-81.92-56.32-76.8-102.4s46.080-76.8 87.040-76.8c15.36 0 35.84 0 51.2 0 5.12 0 10.24 0 10.24-5.12 5.12-20.48 30.72-76.8 35.84-92.16 0 5.12 25.6 61.44 35.84 87.040 0 5.12 5.12 10.24 10.24 10.24 81.92 0 158.72 0 240.64 0 56.32 0 97.28 51.2 87.040 107.52-10.24 40.96-46.080 71.68-92.16 71.68zM921.6 960h-819.2c-56.32 0-102.4-46.080-102.4-102.4v-819.2c0-56.32 46.080-102.4 102.4-102.4h819.2c56.32 0 102.4 46.080 102.4 102.4v819.2c0 56.32-46.080 102.4-102.4 102.4zM706.56 325.12c-66.56 0-209.92 0-209.92 0l-81.92-153.6-81.92 153.6c-81.92 0-163.84 56.32-179.2 138.24-15.36 97.28 66.56 189.44 163.84 189.44 128 0 261.12 0 389.12 0 76.8 0 148.48-56.32 163.84-133.12 15.36-102.4-66.56-194.56-163.84-194.56z" />
<glyph unicode="&#xe95f;" glyph-name="social-angieslist-outline" d="M706.56 652.8c-128 0-261.12 0-389.12 0-97.28 0-179.2-92.16-163.84-184.32 15.36-87.040 92.16-143.36 179.2-138.24l81.92-153.6 81.92 153.6c0 0 143.36 0 209.92 0 102.4 0 179.2 92.16 163.84 194.56-15.36 71.68-87.040 128-163.84 128zM706.56 401.92c-81.92 0-158.72 0-240.64 0-5.12 0-10.24 0-10.24-10.24-10.24-25.6-30.72-87.040-35.84-87.040-5.12 10.24-25.6 71.68-35.84 92.16 0 5.12-5.12 5.12-10.24 5.12-15.36 0-35.84 0-51.2 0-46.080 0-81.92 30.72-87.040 76.8-10.24 46.080 25.6 97.28 76.8 102.4 128 0 261.12 0 389.12 0 46.080 0 81.92-30.72 87.040-71.68 15.36-56.32-25.6-107.52-81.92-107.52zM921.6 960h-819.2c-56.32 0-102.4-46.080-102.4-102.4v-819.2c0-56.32 46.080-102.4 102.4-102.4h819.2c56.32 0 102.4 46.080 102.4 102.4v819.2c0 56.32-46.080 102.4-102.4 102.4zM972.8 38.4c0-30.72-20.48-51.2-51.2-51.2h-819.2c-30.72 0-51.2 20.48-51.2 51.2v819.2c0 30.72 20.48 51.2 51.2 51.2h819.2c30.72 0 51.2-20.48 51.2-51.2v-819.2z" />
<glyph unicode="&#xe960;" glyph-name="social-angieslist-symbol" d="M373.76 38.4l-117.76 220.16c-117.76 0-235.52 76.8-256 199.68-20.48 138.24 92.16 266.24 230.4 266.24 184.32 0 368.64 0 552.96 0 112.64 0 209.92-81.92 230.4-194.56 25.6-143.36-92.16-276.48-230.4-276.48-97.28 0-296.96 0-296.96 0l-112.64-215.040zM378.88 227.84c0 5.12 35.84 87.040 46.080 128 5.12 10.24 5.12 10.24 15.36 10.24 112.64 0 230.4 0 343.040 0 81.92 0 138.24 76.8 122.88 153.6-10.24 61.44-61.44 102.4-128 102.4-184.32 0-373.76 0-558.080 0-66.56-10.24-112.64-76.8-102.4-148.48 10.24-66.56 61.44-107.52 128-107.52 25.6 0 46.080 0 71.68 0 10.24 0 10.24 0 15.36-10.24 5.12-25.6 40.96-112.64 46.080-128z" />
<glyph unicode="&#xe961;" glyph-name="social-facebook-solid" d="M921.6 960h-819.2c-56.32 0-102.4-46.080-102.4-102.4v-819.2c0-56.32 46.080-102.4 102.4-102.4h819.2c56.32 0 102.4 46.080 102.4 102.4v819.2c0 56.32-46.080 102.4-102.4 102.4zM655.36 427.52c-35.84 0-71.68 0-107.52 0 0 0 0-194.56 0-286.72 0 0-112.64 0-112.64 0 0 97.28 0 286.72 0 286.72s-76.8 0-76.8 0c0 35.84 0 71.68 0 107.52 0 0 76.8 0 76.8 0s0 76.8 0 87.040c0 92.16 71.68 133.12 153.6 133.12 5.12 0 66.56 0 66.56-5.12 0-30.72 0-66.56 0-97.28 0 0 0 0 0 0-20.48 0-40.96 0-66.56 0-30.72 0-40.96-15.36-40.96-46.080 0-5.12 0-76.8 0-76.8 35.84 0 112.64 0 112.64 0 0 5.12-5.12-97.28-5.12-102.4z" />
<glyph unicode="&#xe962;" glyph-name="social-facebook-outline" d="M563.2 606.72c0 30.72 5.12 46.080 35.84 46.080 20.48 0 35.84 0 56.32 0 0 0 0 0 0 0 0 51.2 0 66.56 0 97.28 0 5.12-51.2 5.12-56.32 5.12-76.8 0-138.24-46.080-138.24-133.12 0-10.24 0-87.040 0-87.040s-102.4 0-102.4 0c0-35.84 0-71.68 0-107.52 0 0 102.4 0 102.4 0s0-184.32 0-286.72h102.4c0 102.4 0 307.2 0 307.2s56.32 0 92.16 0c0 0 5.12 102.4 5.12 102.4s-97.28 0-97.28 0 0 51.2 0 56.32zM921.6 960h-819.2c-56.32 0-102.4-46.080-102.4-102.4v-819.2c0-56.32 46.080-102.4 102.4-102.4h819.2c56.32 0 102.4 46.080 102.4 102.4v819.2c0 56.32-46.080 102.4-102.4 102.4zM972.8 38.4c0-30.72-20.48-51.2-51.2-51.2h-819.2c-30.72 0-51.2 20.48-51.2 51.2v819.2c0 30.72 20.48 51.2 51.2 51.2h819.2c30.72 0 51.2-20.48 51.2-51.2v-819.2z" />
<glyph unicode="&#xe963;" glyph-name="social-facebook-symbol" d="M762.88 591.36c0 0-10.24-174.080-10.24-174.080-61.44 0-117.76 0-179.2 0 0 0 0-322.56 0-481.28 0 0-184.32 0-184.32 0 0 158.72 0 481.28 0 481.28s-128 0-128 0c0 56.32 0 117.76 0 174.080 0 0 128 0 128 0s0 133.12 0 148.48 122.88 220.16 256 220.16c10.24 0 112.64 0 112.64-5.12 0-56.32-5.12-107.52-5.12-163.84 0 0 0 0-5.12 0-35.84 0-71.68 0-107.52 0-51.2 0-71.68-25.6-71.68-71.68 0-10.24 0-128 0-128 66.56 0 194.56 0 194.56 0z" />
<glyph unicode="&#xe964;" glyph-name="social-foursquare-solid" d="M640 688.64c-10.24 0-184.32 0-261.12 0-15.36 0-20.48-5.12-20.48-20.48 0-35.84 0-66.56 0-102.4s0-66.56 0-102.4 0-138.24 0-204.8c0 0 0 0 0 0s0 0 0 0c35.84 40.96 71.68 87.040 107.52 133.12 10.24 10.24 20.48 20.48 35.84 15.36 30.72 0 56.32 0 87.040 0 10.24 0 15.36 5.12 20.48 15.36 5.12 25.6 10.24 46.080 15.36 71.68 5.12 15.36-10.24 20.48-20.48 20.48-35.84 0-71.68 0-107.52 0-15.36 0-25.6 10.24-25.6 25.6 0 5.12 0 10.24 0 15.36 0 15.36 10.24 30.72 30.72 30.72 40.96 0 81.92 0 122.88 0 15.36 0 20.48 5.12 25.6 20.48 5.12 20.48 10.24 46.080 15.36 66.56 0 5.12-10.24 15.36-25.6 15.36zM921.6 960h-819.2c-56.32 0-102.4-46.080-102.4-102.4v-819.2c0-56.32 46.080-102.4 102.4-102.4h819.2c56.32 0 102.4 46.080 102.4 102.4v819.2c0 56.32-46.080 102.4-102.4 102.4zM665.6 376.32c-5.12-25.6-25.6-35.84-51.2-35.84-30.72 0-61.44 0-92.16 0-5.12 0-10.24 0-15.36-5.12-30.72-30.72-133.12-153.6-153.6-179.2s-61.44-10.24-61.44 25.6c0 174.080 0 353.28 0 527.36 5.12 30.72 20.48 51.2 56.32 51.2 112.64 0 225.28 0 343.040 0 30.72 0 46.080-15.36 46.080-46.080-5.12-30.72-56.32-281.6-71.68-337.92z" />
<glyph unicode="&#xe965;" glyph-name="social-foursquare-outline" d="M291.84 704c5.12 30.72 20.48 51.2 56.32 51.2 112.64 0 225.28 0 343.040 0 30.72 0 46.080-15.36 46.080-46.080 0-25.6-51.2-276.48-66.56-332.8-5.12-25.6-25.6-35.84-51.2-35.84-30.72 0-61.44 0-92.16 0-5.12 0-10.24 0-15.36-5.12-30.72-30.72-133.12-153.6-153.6-179.2s-61.44-10.24-61.44 25.6c-5.12 168.96-5.12 343.040-5.12 522.24zM358.4 258.56c0 0 0 0 0 0 40.96 40.96 71.68 87.040 107.52 133.12 10.24 10.24 20.48 20.48 35.84 15.36 30.72 0 56.32 0 87.040 0 10.24 0 15.36 5.12 20.48 15.36 5.12 25.6 10.24 46.080 15.36 71.68 5.12 15.36-10.24 20.48-20.48 20.48-35.84 0-71.68 0-107.52 0-15.36 0-25.6 10.24-25.6 25.6 0 5.12 0 10.24 0 15.36 0 15.36 10.24 30.72 30.72 30.72 40.96 0 81.92 0 122.88 0 15.36 0 20.48 5.12 25.6 20.48 5.12 20.48 10.24 46.080 15.36 66.56 5.12 10.24-5.12 20.48-20.48 25.6-10.24 0-184.32 0-261.12 0-20.48-10.24-25.6-15.36-25.6-30.72 0-35.84 0-66.56 0-102.4s0-66.56 0-102.4 0-138.24 0-204.8c0 0 0 0 0 0zM921.6 908.8c30.72 0 51.2-20.48 51.2-51.2v-819.2c0-30.72-20.48-51.2-51.2-51.2h-819.2c-30.72 0-51.2 20.48-51.2 51.2v819.2c0 30.72 20.48 51.2 51.2 51.2h819.2zM921.6 960h-819.2c-56.32 0-102.4-46.080-102.4-102.4v-819.2c0-56.32 46.080-102.4 102.4-102.4h819.2c56.32 0 102.4 46.080 102.4 102.4v819.2c0 56.32-46.080 102.4-102.4 102.4v0z" />
<glyph unicode="&#xe966;" glyph-name="social-foursquare-symbol" d="M143.36 872.96c10.24 46.080 35.84 87.040 92.16 87.040 189.44 0 378.88 0 568.32 0 46.080 0 76.8-30.72 76.8-76.8 0-40.96-87.040-460.8-112.64-552.96-10.24-40.96-40.96-61.44-87.040-61.44-51.2 0-102.4 0-153.6 0-10.24 0-20.48-5.12-25.6-10.24-46.080-56.32-220.16-256-256-296.96s-102.4-15.36-102.4 40.96c0 286.72 0 578.56 0 870.4zM256 130.56c0 0 5.12 0 0 0 66.56 66.56 122.88 143.36 179.2 220.16 15.36 20.48 35.84 30.72 61.44 30.72 46.080 0 97.28 0 143.36 0 15.36 0 30.72 10.24 30.72 25.6 10.24 40.96 15.36 81.92 25.6 117.76 5.12 20.48-15.36 35.84-35.84 35.84-56.32 0-117.76 0-174.080 0-20.48 0-35.84 15.36-35.84 40.96 0 5.12 0 15.36 0 20.48-5.12 30.72 20.48 46.080 46.080 46.080 66.56 0 133.12 0 199.68 0 25.6 0 35.84 10.24 40.96 30.72 10.24 35.84 15.36 76.8 25.6 112.64 5.12 20.48-10.24 35.84-30.72 40.96-20.48 0-307.2 0-435.2 0-30.72 0-40.96-15.36-40.96-40.96 0-56.32 0-112.64 0-168.96s0-112.64 0-168.96 0-225.28 0-343.040c0 0 0 0 0 0z" />
<glyph unicode="&#xe967;" glyph-name="social-googleplus-solid" d="M921.6 960h-819.2c-56.32 0-102.4-46.080-102.4-102.4v-819.2c0-56.32 46.080-102.4 102.4-102.4h819.2c56.32 0 102.4 46.080 102.4 102.4v819.2c0 56.32-46.080 102.4-102.4 102.4zM378.88 227.84c-138.24 0-250.88 133.12-220.16 271.36 20.48 102.4 112.64 179.2 220.16 179.2 56.32 0 112.64-20.48 153.6-56.32l-66.56-66.56c-20.48 15.36-46.080 25.6-51.2 25.6-97.28 25.6-189.44-66.56-163.84-163.84 15.36-61.44 71.68-102.4 128-102.4 46.080 0 87.040 20.48 112.64 56.32 5.12 10.24 15.36 25.6 15.36 25.6h-148.48v102.4c0 0 240.64 0 240.64 0 5.12 0 5.12-30.72 5.12-46.080 0-122.88-102.4-225.28-225.28-225.28zM921.6 448h-102.4v-102.4h-51.2v102.4h-102.4v51.2h102.4v102.4h51.2v-102.4h102.4v-51.2z" />
<glyph unicode="&#xe968;" glyph-name="social-googleplus-outline" d="M819.2 601.6h-51.2v-102.4h-102.4v-51.2h102.4v-102.4h51.2v102.4h102.4v51.2h-102.4zM358.4 499.2v-102.4h148.48c0 0-10.24-15.36-15.36-25.6-25.6-35.84-66.56-56.32-112.64-56.32-61.44 0-117.76 46.080-128 102.4-25.6 97.28 66.56 189.44 163.84 163.84 5.12 0 30.72-10.24 51.2-25.6l66.56 66.56c-40.96 30.72-97.28 56.32-153.6 56.32-107.52 0-199.68-76.8-220.16-184.32-25.6-138.24 81.92-271.36 220.16-271.36 122.88 0 225.28 102.4 225.28 225.28 0 15.36 0 46.080-5.12 46.080 0 5.12-240.64 5.12-240.64 5.12zM921.6 960h-819.2c-56.32 0-102.4-46.080-102.4-102.4v-819.2c0-56.32 46.080-102.4 102.4-102.4h819.2c56.32 0 102.4 46.080 102.4 102.4v819.2c0 56.32-46.080 102.4-102.4 102.4zM972.8 38.4c0-30.72-20.48-51.2-51.2-51.2h-819.2c-30.72 0-51.2 20.48-51.2 51.2v819.2c0 30.72 20.48 51.2 51.2 51.2h819.2c30.72 0 51.2-20.48 51.2-51.2v-819.2z" />
<glyph unicode="&#xe969;" glyph-name="social-googleplus-symbol" d="M921.6 499.2v102.4h-51.2v-102.4h-102.4v-51.2h102.4v-102.4h51.2v102.4h102.4v51.2zM307.2 499.2v-102.4h194.56c0 0-15.36-35.84-20.48-46.080-35.84-51.2-97.28-87.040-158.72-87.040-87.040 0-163.84 61.44-184.32 143.36-35.84 138.24 97.28 266.24 235.52 230.4 5.12 0 46.080-20.48 71.68-40.96l92.16 92.16c-56.32 51.2-133.12 81.92-215.040 81.92-158.72 0-286.72-112.64-317.44-261.12-40.96-194.56 117.76-389.12 317.44-389.12 174.080 0 322.56 143.36 322.56 317.44 0 20.48 0 56.32-5.12 56.32h-332.8z" />
<glyph unicode="&#xe96a;" glyph-name="social-instagram-solid" d="M716.8 673.28c0 15.36-15.36 30.72-30.72 30.72h-40.96c-15.36 0-30.72-15.36-30.72-30.72v-40.96c0-15.36 15.36-30.72 30.72-30.72h40.96c15.36 0 30.72 15.36 30.72 30.72v40.96zM512 263.68c-102.4 0-184.32 81.92-184.32 184.32h-71.68v-215.040c0-15.36 25.6-40.96 40.96-40.96h430.080c15.36 0 40.96 25.6 40.96 40.96v215.040h-71.68c0-102.4-81.92-184.32-184.32-184.32zM634.88 448c0-67.865-55.015-122.88-122.88-122.88s-122.88 55.015-122.88 122.88c0 67.865 55.015 122.88 122.88 122.88s122.88-55.015 122.88-122.88zM921.6 960h-819.2c-56.32 0-102.4-46.080-102.4-102.4v-819.2c0-56.32 46.080-102.4 102.4-102.4h819.2c56.32 0 102.4 46.080 102.4 102.4v819.2c0 56.32-46.080 102.4-102.4 102.4zM819.2 232.96c0-51.2-40.96-92.16-92.16-92.16h-430.080c-51.2 0-92.16 40.96-92.16 92.16v430.080c0 51.2 40.96 92.16 92.16 92.16h430.080c51.2 0 92.16-40.96 92.16-92.16v-430.080z" />
<glyph unicode="&#xe96b;" glyph-name="social-instagram-outline" d="M727.040 755.2h-430.080c-51.2 0-92.16-40.96-92.16-92.16v-430.080c0-51.2 40.96-92.16 92.16-92.16h430.080c51.2 0 92.16 40.96 92.16 92.16v430.080c0 51.2-40.96 92.16-92.16 92.16zM512 570.88c66.56 0 122.88-56.32 122.88-122.88s-56.32-122.88-122.88-122.88-122.88 56.32-122.88 122.88 56.32 122.88 122.88 122.88zM768 232.96c0-15.36-25.6-40.96-40.96-40.96h-430.080c-15.36 0-40.96 25.6-40.96 40.96v215.040h71.68c0-102.4 81.92-184.32 184.32-184.32s184.32 81.92 184.32 184.32h71.68v-215.040zM716.8 632.32c0-15.36-15.36-30.72-30.72-30.72h-40.96c-15.36 0-30.72 15.36-30.72 30.72v40.96c0 15.36 15.36 30.72 30.72 30.72h40.96c15.36 0 30.72-15.36 30.72-30.72v-40.96zM921.6 960h-819.2c-56.32 0-102.4-46.080-102.4-102.4v-819.2c0-56.32 46.080-102.4 102.4-102.4h819.2c56.32 0 102.4 46.080 102.4 102.4v819.2c0 56.32-46.080 102.4-102.4 102.4zM972.8 38.4c0-30.72-20.48-51.2-51.2-51.2h-819.2c-30.72 0-51.2 20.48-51.2 51.2v819.2c0 30.72 20.48 51.2 51.2 51.2h819.2c30.72 0 51.2-20.48 51.2-51.2v-819.2z" />
<glyph unicode="&#xe96c;" glyph-name="social-instagram-symbol" d="M870.4 960h-716.8c-87.040 0-153.6-66.56-153.6-153.6v-716.8c0-87.040 66.56-153.6 153.6-153.6h716.8c87.040 0 153.6 66.56 153.6 153.6v716.8c0 87.040-66.56 153.6-153.6 153.6zM870.4 857.6c30.72 0 51.2-20.48 51.2-51.2v-102.4c0-30.72-20.48-51.2-51.2-51.2h-102.4c-30.72 0-51.2 20.48-51.2 51.2v102.4c0 30.72 20.48 51.2 51.2 51.2h102.4zM512 652.8c112.64 0 204.8-92.16 204.8-204.8s-92.16-204.8-204.8-204.8-204.8 92.16-204.8 204.8 92.16 204.8 204.8 204.8zM921.6 89.6c0-30.72-20.48-51.2-51.2-51.2h-716.8c-30.72 0-51.2 20.48-51.2 51.2v358.4h102.4c0-168.96 138.24-307.2 307.2-307.2s307.2 138.24 307.2 307.2h102.4v-358.4z" />
<glyph unicode="&#xe96d;" glyph-name="social-linkedin-solid" d="M921.6 960h-819.2c-56.32 0-102.4-46.080-102.4-102.4v-819.2c0-56.32 46.080-102.4 102.4-102.4h819.2c56.32 0 102.4 46.080 102.4 102.4v819.2c0 56.32-46.080 102.4-102.4 102.4zM343.040 140.8c-46.080 0-87.040 0-133.12 0 0 0 0 414.72 0 414.72 46.080 0 87.040 0 133.12 0 0 0 0-414.72 0-414.72zM343.040 642.56c-35.84-51.2-128-35.84-138.24 30.72-5.12 51.2 35.84 87.040 81.92 81.92 51.2-5.12 87.040-66.56 56.32-112.64zM819.2 140.8c-46.080 0-87.040 0-133.12 0 0 61.44 0 122.88 0 189.44 0 25.6 0 51.2-5.12 76.8-5.12 15.36-10.24 25.6-20.48 35.84-25.6 25.6-71.68 15.36-92.16-10.24-5.12-10.24-15.36-20.48-15.36-30.72s0-15.36 0-25.6c0-76.8 0-235.52 0-235.52h-133.12v414.72h133.12v-56.32c0 0 0 0 0 0 40.96 61.44 122.88 81.92 184.32 46.080 71.68-35.84 81.92-112.64 81.92-184.32s0-148.48 0-220.16z" />
<glyph unicode="&#xe96e;" glyph-name="social-linkedin-outline" d="M419.84 140.8v414.72h133.12v-56.32c0 0 0 0 0 0 40.96 61.44 122.88 81.92 184.32 46.080 71.68-35.84 81.92-112.64 81.92-184.32s0-148.48 0-220.16c-46.080 0-87.040 0-133.12 0 0 61.44 0 122.88 0 189.44 0 25.6 0 51.2-5.12 76.8-5.12 15.36-10.24 25.6-20.48 35.84-25.6 25.6-71.68 15.36-92.16-10.24-5.12-10.24-15.36-20.48-15.36-30.72s0-15.36 0-25.6c0-76.8 0-235.52 0-235.52h-133.12zM215.040 140.8c0 0 0 414.72 0 414.72 46.080 0 87.040 0 133.12 0 0 0 0-414.72 0-414.72-46.080 0-92.16 0-133.12 0zM286.72 755.2c51.2-5.12 87.040-66.56 56.32-112.64-35.84-51.2-128-35.84-138.24 30.72-5.12 51.2 35.84 87.040 81.92 81.92zM921.6 908.8c30.72 0 51.2-20.48 51.2-51.2v-819.2c0-30.72-20.48-51.2-51.2-51.2h-819.2c-30.72 0-51.2 20.48-51.2 51.2v819.2c0 30.72 20.48 51.2 51.2 51.2h819.2zM921.6 960h-819.2c-56.32 0-102.4-46.080-102.4-102.4v-819.2c0-56.32 46.080-102.4 102.4-102.4h819.2c56.32 0 102.4 46.080 102.4 102.4v819.2c0 56.32-46.080 102.4-102.4 102.4v0z" />
<glyph unicode="&#xe96f;" glyph-name="social-linkedin-symbol" d="M353.28-64v691.2h220.16v-97.28c0 0 0 5.12 0 5.12 66.56 102.4 204.8 138.24 312.32 81.92 117.76-61.44 138.24-189.44 138.24-312.32s0-245.76 0-368.64c-71.68 0-148.48 0-220.16 0 5.12 102.4 0 209.92 0 312.32 0 40.96 5.12 87.040-5.12 128-5.12 25.6-15.36 46.080-35.84 61.44-46.080 40.96-117.76 25.6-158.72-20.48-10.24-15.36-20.48-30.72-25.6-51.2-5.12-15.36-5.12-25.6-5.12-40.96 0-128 0-389.12 0-389.12h-220.16zM15.36-64c0 0 0 686.080 0 691.2 71.68 0 148.48 0 220.16 0 0 0 0-686.080 0-691.2-76.8 0-148.48 0-220.16 0zM138.24 960c87.040-5.12 143.36-107.52 92.16-184.32-61.44-92.16-215.040-61.44-230.4 51.2-10.24 81.92 61.44 138.24 138.24 133.12z" />
<glyph unicode="&#xe970;" glyph-name="social-pinterest-solid" d="M921.6 960h-819.2c-56.32 0-102.4-46.080-102.4-102.4v-819.2c0-56.32 46.080-102.4 102.4-102.4h819.2c56.32 0 102.4 46.080 102.4 102.4v819.2c0 56.32-46.080 102.4-102.4 102.4zM788.48 514.56c-10.24-92.16-71.68-189.44-163.84-220.16-51.2-15.36-122.88-10.24-153.6 40.96 0 0 0 0-5.12 5.12 0 0 0 0 0-5.12-5.12-30.72-15.36-56.32-20.48-87.040-15.36-56.32-46.080-107.52-81.92-158.72 0 0-5.12 0-5.12 0s-5.12 5.12-5.12 5.12c-5.12 25.6-5.12 56.32-5.12 87.040 0 25.6 5.12 56.32 10.24 81.92 15.36 71.68 30.72 138.24 51.2 209.92 0 5.12 0 5.12 0 10.24-15.36 25.6-20.48 61.44-10.24 92.16 10.24 46.080 61.44 92.16 107.52 61.44 25.6-15.36 25.6-56.32 20.48-81.92-10.24-30.72-20.48-61.44-25.6-97.28-5.12-10.24-10.24-25.6-5.12-40.96 0-25.6 15.36-51.2 40.96-56.32 66.56-25.6 112.64 35.84 138.24 87.040 30.72 66.56 40.96 163.84-5.12 225.28-71.68 81.92-199.68 81.92-276.48 25.6-46.080-30.72-71.68-76.8-81.92-133.12-5.12-40.96 5.12-81.92 30.72-112.64 5.12-5.12 5.12-10.24 5.12-15.36-5.12-10.24-5.12-25.6-10.24-35.84s-10.24-15.36-20.48-10.24c-76.8 30.72-97.28 138.24-76.8 215.040 35.84 122.88 158.72 199.68 286.72 199.68 71.68 0 143.36-25.6 189.44-71.68 61.44-56.32 81.92-138.24 71.68-220.16z" />
<glyph unicode="&#xe971;" glyph-name="social-pinterest-outline" d="M527.36 806.4c-128 0-250.88-76.8-286.72-199.68-20.48-71.68 0-179.2 76.8-215.040 10.24-5.12 15.36 0 20.48 10.24s5.12 25.6 10.24 35.84c0 5.12 0 10.24-5.12 15.36-25.6 30.72-35.84 71.68-30.72 112.64 10.24 56.32 35.84 102.4 81.92 133.12 76.8 51.2 204.8 56.32 266.24-25.6 46.080-61.44 35.84-158.72 5.12-225.28-25.6-51.2-71.68-112.64-138.24-87.040-25.6 10.24-40.96 30.72-40.96 56.32 0 15.36 5.12 25.6 5.12 40.96 10.24 30.72 20.48 61.44 25.6 97.28 5.12 25.6 5.12 61.44-20.48 81.92-35.84 30.72-87.040-15.36-97.28-61.44-10.24-30.72-5.12-66.56 5.12-97.28 0 0 0-5.12 0-10.24-15.36-71.68-30.72-138.24-51.2-209.92-5.12-25.6-10.24-56.32-10.24-81.92 0-30.72 0-56.32 5.12-87.040 0 0 0-5.12 5.12-5.12 0 0 5.12 0 5.12 0 35.84 46.080 66.56 97.28 81.92 153.6 5.12 30.72 15.36 56.32 20.48 87.040 0 0 0 0 0 5.12 0 0 0 0 5.12-5.12 30.72-51.2 102.4-56.32 153.6-40.96 92.16 25.6 153.6 128 163.84 220.16 10.24 76.8-10.24 163.84-66.56 215.040-46.080 61.44-117.76 87.040-189.44 87.040zM921.6 960h-819.2c-56.32 0-102.4-46.080-102.4-102.4v-819.2c0-56.32 46.080-102.4 102.4-102.4h819.2c56.32 0 102.4 46.080 102.4 102.4v819.2c0 56.32-46.080 102.4-102.4 102.4zM972.8 38.4c0-30.72-20.48-51.2-51.2-51.2h-819.2c-30.72 0-51.2 20.48-51.2 51.2v819.2c0 30.72 20.48 51.2 51.2 51.2h819.2c30.72 0 51.2-20.48 51.2-51.2v-819.2z" />
<glyph unicode="&#xe972;" glyph-name="social-pinterest-symbol" d="M532.48 960c102.4 0 199.68-35.84 276.48-102.4 81.92-76.8 112.64-199.68 97.28-312.32-15.36-133.12-97.28-276.48-235.52-312.32-71.68-20.48-174.080-15.36-220.16 56.32 0 0 0 5.12-5.12 5.12 0 0-5.12-5.12-5.12-5.12-10.24-40.96-20.48-81.92-30.72-122.88-20.48-81.92-61.44-153.6-112.64-220.16 0 0-5.12-5.12-10.24-5.12 0 0-5.12 5.12-5.12 5.12-5.12 40.96-10.24 81.92-10.24 122.88s5.12 76.8 15.36 117.76c25.6 97.28 46.080 199.68 71.68 296.96 0 5.12 0 10.24 0 10.24-15.36 46.080-20.48 92.16-5.12 138.24 15.36 61.44 87.040 133.12 153.6 81.92 35.84-25.6 35.84-76.8 25.6-112.64-10.24-46.080-25.6-92.16-40.96-138.24-5.12-20.48-10.24-35.84-10.24-56.32 0-35.84 20.48-71.68 56.32-81.92 92.16-35.84 158.72 51.2 194.56 122.88 40.96 97.28 56.32 235.52-10.24 322.56-81.92 112.64-271.36 112.64-378.88 35.84-66.56-46.080-102.4-112.64-112.64-189.44-10.24-56.32 0-112.64 40.96-158.72 5.12-5.12 5.12-15.36 5.12-25.6-5.12-15.36-10.24-35.84-15.36-51.2s-15.36-20.48-30.72-15.36c-112.64 46.080-138.24 199.68-107.52 302.080 51.2 184.32 230.4 296.96 409.6 291.84z" />
<glyph unicode="&#xe973;" glyph-name="social-twitter-solid" d="M921.6 960h-819.2c-56.32 0-102.4-46.080-102.4-102.4v-819.2c0-56.32 46.080-102.4 102.4-102.4h819.2c56.32 0 102.4 46.080 102.4 102.4v819.2c0 56.32-46.080 102.4-102.4 102.4zM829.44 611.84c-10.24-10.24-30.72-25.6-30.72-25.6s-5.12-81.92-15.36-122.88c-25.6-112.64-107.52-220.16-209.92-271.36 0 0 0 0-5.12 0-128-66.56-291.84-56.32-414.72 20.48 0 0 0 0 0 0 81.92-10.24 153.6 10.24 215.040 61.44-30.72 0-61.44 10.24-81.92 30.72-25.6 20.48-40.96 40.96-51.2 71.68 20.48-5.12 40.96-5.12 66.56 0-35.84 10.24-61.44 25.6-87.040 51.2-20.48 35.84-30.72 66.56-30.72 102.4 20.48-15.36 40.96-20.48 61.44-20.48-30.72 25.6-51.2 51.2-61.44 92.16-5.12 35.84 0 71.68 20.48 102.4 81.92-92.16 179.2-143.36 302.080-153.6-10.24 81.92 35.84 168.96 122.88 179.2 40.96 5.12 81.92-5.12 112.64-30.72 5.12-5.12 10.24-10.24 15.36-10.24 0 0 56.32 15.36 92.16 35.84-10.24-35.84-30.72-61.44-61.44-81.92 30.72 0 56.32 10.24 81.92 20.48-10.24-20.48-25.6-35.84-40.96-51.2z" />
<glyph unicode="&#xe974;" glyph-name="social-twitter-outline" d="M849.92 724.48c-40.96-20.48-92.16-35.84-92.16-35.84-5.12 5.12-10.24 10.24-15.36 10.24-30.72 25.6-71.68 35.84-112.64 30.72-92.16-10.24-138.24-92.16-122.88-179.2-122.88 10.24-225.28 61.44-302.080 153.6-20.48-30.72-25.6-66.56-20.48-102.4 10.24-35.84 30.72-66.56 61.44-92.16-20.48 0-40.96 5.12-61.44 20.48 0-35.84 10.24-66.56 30.72-92.16s51.2-46.080 87.040-51.2c-20.48-5.12-46.080-5.12-66.56 0 10.24-30.72 25.6-56.32 51.2-71.68 25.6-20.48 51.2-30.72 81.92-30.72-61.44-56.32-133.12-76.8-215.040-66.56 0 0 0 0 0 0 122.88-76.8 286.72-87.040 414.72-20.48 0 0 0 0 5.12 0 102.4 56.32 184.32 158.72 209.92 271.36 10.24 40.96 15.36 122.88 15.36 122.88s20.48 15.36 30.72 25.6c15.36 15.36 30.72 30.72 40.96 51.2-25.6-10.24-51.2-20.48-81.92-20.48 30.72 15.36 51.2 40.96 61.44 76.8zM921.6 960h-819.2c-56.32 0-102.4-46.080-102.4-102.4v-819.2c0-56.32 46.080-102.4 102.4-102.4h819.2c56.32 0 102.4 46.080 102.4 102.4v819.2c0 56.32-46.080 102.4-102.4 102.4zM972.8 38.4c0-30.72-20.48-51.2-51.2-51.2h-819.2c-30.72 0-51.2 20.48-51.2 51.2v819.2c0 30.72 20.48 51.2 51.2 51.2h819.2c30.72 0 51.2-20.48 51.2-51.2v-819.2z" />
<glyph unicode="&#xe975;" glyph-name="social-twitter-symbol" d="M0 120.32c112.64-10.24 215.040 15.36 307.2 87.040-46.080 5.12-87.040 15.36-117.76 40.96-35.84 25.6-61.44 61.44-71.68 102.4 25.6-5.12 56.32-5.12 92.16 5.12-51.2 10.24-92.16 35.84-122.88 76.8-30.72 35.84-46.080 81.92-46.080 133.12 30.72-15.36 61.44-25.6 92.16-25.6-46.080 30.72-71.68 71.68-87.040 128-10.24 51.2-5.12 102.4 25.6 153.6 112.64-133.12 256-209.92 435.2-220.16-15.36 122.88 46.080 240.64 179.2 256 56.32 5.12 117.76-10.24 163.84-46.080 5.12-5.12 15.36-10.24 20.48-15.36 0 0 76.8 20.48 133.12 51.2-15.36-51.2-46.080-87.040-87.040-112.64 40.96 5.12 76.8 15.36 117.76 30.72-15.36-25.6-35.84-51.2-61.44-71.68-20.48-20.48-51.2-40.96-51.2-40.96s-10.24-117.76-20.48-174.080c-35.84-158.72-148.48-312.32-296.96-389.12 0 0-5.12 0-5.12-5.12-189.44-92.16-419.84-76.8-599.040 35.84 0-5.12 0-5.12 0 0z" />
<glyph unicode="&#xe976;" glyph-name="social-yelp-solid" d="M921.6 960h-819.2c-56.32 0-102.4-46.080-102.4-102.4v-819.2c0-56.32 46.080-102.4 102.4-102.4h819.2c56.32 0 102.4 46.080 102.4 102.4v819.2c0 56.32-46.080 102.4-102.4 102.4zM317.44 750.080c40.96 15.36 143.36 56.32 153.6 56.32 40.96 0 35.84-56.32 35.84-81.92 0-66.56 0-133.12 0-199.68 0-15.36-5.12-30.72-20.48-35.84-10.24-5.12-25.6 0-35.84 10.24-25.6 35.84-51.2 71.68-76.8 102.4-25.6 35.84-51.2 66.56-76.8 102.4-10.24 20.48-5.12 40.96 20.48 46.080zM230.4 314.88c-15.36 5.12-20.48 20.48-15.36 35.84 5.12 20.48 5.12 112.64 15.36 128 10.24 20.48 30.72 20.48 46.080 15.36 51.2-25.6 102.4-51.2 148.48-76.8 15.36-5.12 25.6-20.48 20.48-35.84 0-15.36-10.24-20.48-20.48-25.6-51.2-10.24-102.4-20.48-153.6-35.84-10.24 0-25.6-5.12-40.96-5.12zM506.88 125.44c0-20.48-5.12-40.96-30.72-35.84-40.96 5.12-81.92 25.6-122.88 40.96-25.6 10.24-20.48 40.96-5.12 56.32 40.96 40.96 76.8 87.040 117.76 128 15.36 20.48 51.2 15.36 51.2-15.36-10.24-61.44-10.24-117.76-10.24-174.080zM568.32 458.24c30.72 51.2 61.44 97.28 92.16 148.48 20.48 35.84 46.080 10.24 66.56-10.24 20.48-25.6 40.96-51.2 61.44-76.8 20.48-20.48-5.12-46.080-25.6-51.2-46.080-15.36-87.040-25.6-133.12-40.96-15.36-5.12-25.6-10.24-40.96-10.24-20.48 0-35.84 20.48-20.48 40.96zM788.48 253.44c-20.48-30.72-46.080-66.56-66.56-97.28-5.12-10.24-20.48-15.36-30.72-10.24-15.36 0-25.6 15.36-30.72 25.6-30.72 46.080-56.32 97.28-87.040 143.36-15.36 20.48 0 51.2 30.72 40.96 56.32-15.36 112.64-35.84 163.84-51.2 10.24-5.12 25.6-10.24 25.6-25.6 5.12-10.24 0-20.48-5.12-25.6z" />
<glyph unicode="&#xe977;" glyph-name="social-yelp-outline" d="M373.76 601.6c25.6-35.84 51.2-71.68 76.8-102.4 10.24-10.24 25.6-15.36 35.84-15.36 15.36 5.12 20.48 20.48 20.48 35.84 0 66.56 0 133.12 0 199.68 0 30.72 5.12 87.040-35.84 87.040-10.24 0-112.64-40.96-153.6-56.32-25.6-5.12-30.72-25.6-15.36-46.080 20.48-35.84 46.080-66.56 71.68-102.4zM450.56 381.44c0 15.36-10.24 25.6-20.48 35.84-51.2 25.6-102.4 51.2-148.48 76.8-20.48 5.12-40.96 5.12-51.2-10.24s-10.24-107.52-15.36-128c0-15.36 0-30.72 15.36-35.84 10.24-5.12 25.6 0 40.96 5.12 51.2 15.36 102.4 25.6 153.6 35.84 15.36 0 25.6 10.24 25.6 20.48zM768 304.64c-56.32 15.36-112.64 35.84-163.84 51.2-30.72 10.24-46.080-20.48-30.72-40.96 30.72-46.080 56.32-97.28 87.040-143.36 5.12-10.24 15.36-20.48 30.72-25.6 10.24 0 25.6 5.12 30.72 10.24 20.48 30.72 46.080 66.56 66.56 97.28 5.12 5.12 10.24 15.36 10.24 25.6 0 15.36-15.36 20.48-30.72 25.6zM460.8 309.76c-40.96-40.96-76.8-87.040-117.76-128-15.36-15.36-20.48-46.080 5.12-56.32 40.96-10.24 81.92-30.72 122.88-40.96 25.6-5.12 30.72 15.36 30.72 35.84 0 56.32 0 112.64 0 168.96 5.12 35.84-25.6 40.96-40.96 20.48zM629.76 427.52c46.080 15.36 87.040 25.6 133.12 40.96 20.48 5.12 46.080 30.72 25.6 51.2-20.48 25.6-40.96 51.2-61.44 76.8-20.48 20.48-40.96 46.080-66.56 10.24-30.72-51.2-61.44-97.28-92.16-148.48-10.24-20.48 5.12-40.96 25.6-40.96 10.24-5.12 25.6 5.12 35.84 10.24zM921.6 960h-819.2c-56.32 0-102.4-46.080-102.4-102.4v-819.2c0-56.32 46.080-102.4 102.4-102.4h819.2c56.32 0 102.4 46.080 102.4 102.4v819.2c0 56.32-46.080 102.4-102.4 102.4zM972.8 38.4c0-30.72-20.48-51.2-51.2-51.2h-819.2c-30.72 0-51.2 20.48-51.2 51.2v819.2c0 30.72 20.48 51.2 51.2 51.2h819.2c30.72 0 51.2-20.48 51.2-51.2v-819.2z" />
<glyph unicode="&#xe978;" glyph-name="social-yelp-symbol" d="M322.56 668.16c35.84-51.2 71.68-97.28 107.52-148.48 10.24-15.36 30.72-20.48 51.2-15.36s30.72 30.72 30.72 51.2c0 97.28 0 189.44 0 286.72 0 35.84 5.12 117.76-51.2 117.76-15.36 0-163.84-56.32-220.16-76.8-30.72-15.36-40.96-40.96-25.6-71.68 35.84-46.080 71.68-97.28 107.52-143.36zM430.080 355.84c5.12 20.48-15.36 40.96-30.72 51.2-71.68 30.72-143.36 71.68-215.040 107.52-25.6 10.24-51.2 10.24-66.56-15.36s-15.36-153.6-20.48-184.32c0-20.48 0-46.080 25.6-51.2 15.36-5.12 40.96 0 56.32 5.12 71.68 20.48 148.48 30.72 220.16 51.2 20.48 0 30.72 15.36 30.72 35.84zM890.88 238.080c-76.8 25.6-158.72 51.2-235.52 76.8-40.96 15.36-61.44-30.72-46.080-61.44 40.96-66.56 81.92-138.24 122.88-204.8 10.24-15.36 25.6-30.72 40.96-35.84 15.36 0 30.72 5.12 40.96 15.36 30.72 46.080 66.56 92.16 97.28 138.24 5.12 10.24 15.36 20.48 15.36 35.84 0 20.48-20.48 30.72-35.84 35.84zM445.44 253.44c-56.32-61.44-112.64-122.88-163.84-179.2-20.48-25.6-30.72-66.56 10.24-81.92 56.32-20.48 117.76-46.080 174.080-56.32 40.96-5.12 46.080 20.48 46.080 51.2 0 81.92 5.12 163.84 5.12 240.64 0 46.080-46.080 51.2-71.68 25.6zM634.88 401.92c20.48 0 40.96 10.24 56.32 15.36 61.44 20.48 128 35.84 189.44 56.32 30.72 10.24 61.44 40.96 35.84 76.8-30.72 35.84-61.44 71.68-92.16 107.52-25.6 30.72-61.44 66.56-92.16 15.36-46.080-71.68-87.040-138.24-133.12-209.92-15.36-30.72 5.12-61.44 35.84-61.44z" />
<glyph unicode="&#xe979;" glyph-name="social-youtube-solid" d="M409.6 345.6l204.8 102.4-204.8 102.4zM921.6 960h-819.2c-56.32 0-102.4-46.080-102.4-102.4v-819.2c0-56.32 46.080-102.4 102.4-102.4h819.2c56.32 0 102.4 46.080 102.4 102.4v819.2c0 56.32-46.080 102.4-102.4 102.4zM870.4 345.6c0-87.040-66.56-153.6-153.6-153.6h-409.6c-87.040 0-153.6 66.56-153.6 153.6v204.8c0 87.040 66.56 153.6 153.6 153.6h409.6c87.040 0 153.6-66.56 153.6-153.6v-204.8z" />
<glyph unicode="&#xe97a;" glyph-name="social-youtube-outline" d="M716.8 704h-409.6c-87.040 0-153.6-66.56-153.6-153.6v-204.8c0-87.040 66.56-153.6 153.6-153.6h409.6c87.040 0 153.6 66.56 153.6 153.6v204.8c0 87.040-66.56 153.6-153.6 153.6zM409.6 345.6v204.8l204.8-102.4-204.8-102.4zM921.6 960h-819.2c-56.32 0-102.4-46.080-102.4-102.4v-819.2c0-56.32 46.080-102.4 102.4-102.4h819.2c56.32 0 102.4 46.080 102.4 102.4v819.2c0 56.32-46.080 102.4-102.4 102.4zM972.8 38.4c0-30.72-20.48-51.2-51.2-51.2h-819.2c-30.72 0-51.2 20.48-51.2 51.2v819.2c0 30.72 20.48 51.2 51.2 51.2h819.2c30.72 0 51.2-20.48 51.2-51.2v-819.2z" />
<glyph unicode="&#xe97b;" glyph-name="social-youtube-symbol" d="M1024 601.6c0 112.64-92.16 204.8-204.8 204.8h-614.4c-112.64 0-204.8-92.16-204.8-204.8v-307.2c0-112.64 92.16-204.8 204.8-204.8h614.4c112.64 0 204.8 92.16 204.8 204.8v307.2zM409.6 294.4v307.2l307.2-153.6-307.2-153.6z" />
<glyph unicode="&#xe97c;" glyph-name="listing-apartment-favorite-solid" d="M998.4 647.68l-40.96 25.6-66.56-56.32c-25.6-20.48-61.44-20.48-87.040 0l-138.24 112.64c-30.72 25.6-51.2 61.44-51.2 102.4 0 10.24 0 15.36 5.12 25.6l-81.92 46.080c-10.24 5.12-15.36 5.12-25.6 5.12s-15.36 0-25.6-5.12l-460.8-256c-20.48-10.24-30.72-35.84-25.6-61.44s25.6-35.84 51.2-35.84h51.2v-563.2c0-30.72 20.48-51.2 51.2-51.2h102.4v204.8c0 30.72 20.48 51.2 51.2 51.2h102.4c30.72 0 51.2-20.48 51.2-51.2v-204.8h102.4v204.8c0 30.72 20.48 51.2 51.2 51.2h102.4c30.72 0 51.2-20.48 51.2-51.2v-204.8h102.4c30.72 0 51.2 20.48 51.2 51.2v563.2h51.2c25.6 0 46.080 15.36 51.2 35.84 5.12 25.6-5.12 51.2-25.6 61.44zM460.8 345.6c0-30.72-20.48-51.2-51.2-51.2h-102.4c-30.72 0-51.2 20.48-51.2 51.2v102.4c0 30.72 20.48 51.2 51.2 51.2h102.4c30.72 0 51.2-20.48 51.2-51.2v-102.4zM768 345.6c0-30.72-20.48-51.2-51.2-51.2h-102.4c-30.72 0-51.2 20.48-51.2 51.2v102.4c0 30.72 20.48 51.2 51.2 51.2h102.4c30.72 0 51.2-20.48 51.2-51.2v-102.4zM808.96 668.16c20.48-15.36 46.080-15.36 66.56 0l107.52 97.28c25.6 20.48 40.96 51.2 40.96 87.040 0 61.44-46.080 107.52-97.28 107.52-30.72 0-61.44-15.36-81.92-46.080-20.48 30.72-46.080 46.080-81.92 46.080-51.2 0-97.28-46.080-97.28-107.52 0-35.84 15.36-66.56 40.96-87.040 0 0 102.4-97.28 102.4-97.28zM762.88 908.8c15.36 0 25.6-10.24 35.84-20.48s20.48-25.6 35.84-30.72c5.12 0 5.12 0 10.24 0s5.12 0 10.24 0c15.36 5.12 25.6 15.36 30.72 25.6 10.24 15.36 25.6 25.6 40.96 25.6 25.6 0 46.080-25.6 46.080-56.32 0-20.48-10.24-35.84-20.48-46.080 0 0-107.52-97.28-107.52-97.28s-97.28 87.040-107.52 97.28c-10.24 10.24-20.48 25.6-20.48 46.080 0 30.72 20.48 56.32 46.080 56.32z" />
<glyph unicode="&#xe97d;" glyph-name="listing-apartment-favorite-outline" d="M1024 862.72c0 51.2-46.080 97.28-97.28 97.28-30.72 0-61.44-15.36-81.92-40.96-20.48 25.6-46.080 40.96-81.92 40.96-51.2 0-97.28-46.080-97.28-97.28 0-30.72 15.36-61.44 40.96-81.92v0l107.52-92.16c20.48-15.36 46.080-15.36 66.56 0l107.52 92.16c20.48 20.48 35.84 46.080 35.84 81.92zM307.2 550.4c-30.72 0-51.2-20.48-51.2-51.2v-102.4c0-30.72 20.48-51.2 51.2-51.2h102.4c30.72 0 51.2 20.48 51.2 51.2v102.4c0 30.72-20.48 51.2-51.2 51.2h-102.4zM409.6 396.8h-102.4v102.4h102.4v-102.4zM563.2 499.2v-102.4c0-30.72 20.48-51.2 51.2-51.2h102.4c30.72 0 51.2 20.48 51.2 51.2v102.4c0 30.72-20.48 51.2-51.2 51.2h-102.4c-30.72 0-51.2-20.48-51.2-51.2zM716.8 396.8h-102.4v102.4h102.4v-102.4zM870.4-12.8h-102.4v204.8c0 30.72-20.48 51.2-51.2 51.2h-102.4c-30.72 0-51.2-20.48-51.2-51.2v-204.8h-102.4v204.8c0 30.72-20.48 51.2-51.2 51.2h-102.4c-30.72 0-51.2-20.48-51.2-51.2v-204.8h-102.4v614.4h-102.4l460.8 256 102.4-56.32v56.32l-76.8 40.96c-10.24 10.24-15.36 10.24-25.6 10.24s-15.36 0-25.6-5.12l-460.8-256c-20.48-10.24-30.72-35.84-25.6-61.44s25.6-35.84 51.2-35.84h51.2v-563.2c0-30.72 20.48-51.2 51.2-51.2h716.8c30.72 0 51.2 20.48 51.2 51.2v614.4h-51.2v-614.4zM409.6-12.8h-102.4v204.8h102.4v-204.8zM716.8-12.8h-102.4v204.8h102.4v-204.8z" />
<glyph unicode="&#xe97e;" glyph-name="listing-apartment-featured-solid" d="M844.8 872.96l10.24-35.84c5.12-20.48 25.6-35.84 51.2-35.84h30.72l-20.48-15.36c-20.48-15.36-25.6-35.84-20.48-56.32l10.24-30.72-30.72 20.48c-10.24 5.12-20.48 10.24-30.72 10.24s-20.48-5.12-30.72-10.24l-30.72-20.48 10.24 30.72c5.12 20.48 0 46.080-20.48 56.32l-20.48 15.36h30.72c20.48 0 40.96 15.36 51.2 35.84l10.24 35.84zM844.8 960c-15.36 0-25.6-10.24-30.72-25.6l-25.6-87.040h-81.92c-35.84 0-46.080-46.080-20.48-61.44l66.56-46.080-25.6-76.8c-10.24-25.6 10.24-46.080 30.72-46.080 5.12 0 15.36 0 20.48 5.12l71.68 51.2 71.68-51.2c5.12-5.12 15.36-5.12 20.48-5.12 20.48 0 40.96 20.48 30.72 46.080l-25.6 81.92 66.56 46.080c25.6 15.36 10.24 61.44-25.6 61.44h-81.92l-25.6 87.040c-10.24 10.24-20.48 20.48-35.84 20.48v0zM921.6 591.36l-76.8 56.32-92.16-66.56c-35.84-25.6-81.92 10.24-66.56 51.2l35.84 102.4-87.040 56.32c-25.6 15.36-25.6 46.080-10.24 66.56l-87.040 51.2c-10.24 0-15.36 0-25.6 0s-15.36 0-25.6-5.12l-460.8-256c-20.48-10.24-30.72-35.84-25.6-61.44s25.6-35.84 51.2-35.84h51.2v-563.2c0-30.72 20.48-51.2 51.2-51.2h102.4v204.8c0 30.72 20.48 51.2 51.2 51.2h102.4c30.72 0 51.2-20.48 51.2-51.2v-204.8h102.4v204.8c0 30.72 20.48 51.2 51.2 51.2h102.4c30.72 0 51.2-20.48 51.2-51.2v-204.8h102.4c30.72 0 51.2 20.48 51.2 51.2v604.16zM460.8 345.6c0-30.72-20.48-51.2-51.2-51.2h-102.4c-30.72 0-51.2 20.48-51.2 51.2v102.4c0 30.72 20.48 51.2 51.2 51.2h102.4c30.72 0 51.2-20.48 51.2-51.2v-102.4zM768 345.6c0-30.72-20.48-51.2-51.2-51.2h-102.4c-30.72 0-51.2 20.48-51.2 51.2v102.4c0 30.72 20.48 51.2 51.2 51.2h102.4c30.72 0 51.2-20.48 51.2-51.2v-102.4z" />
<glyph unicode="&#xe97f;" glyph-name="listing-apartment-featured-outline" d="M875.52 934.4l25.6-87.040h81.92c35.84 0 46.080-46.080 20.48-61.44l-66.56-46.080 25.6-81.92c10.24-30.72-25.6-56.32-51.2-40.96l-71.68 51.2-71.68-51.2c-25.6-20.48-61.44 5.12-51.2 40.96l25.6 76.8-66.56 46.080c-25.6 25.6-10.24 71.68 25.6 71.68h81.92l25.6 87.040c15.36 30.72 56.32 30.72 66.56-5.12zM409.6 550.4h-102.4c-30.72 0-51.2-20.48-51.2-51.2v-102.4c0-30.72 20.48-51.2 51.2-51.2h102.4c30.72 0 51.2 20.48 51.2 51.2v102.4c0 30.72-20.48 51.2-51.2 51.2zM409.6 396.8h-102.4v102.4h102.4v-102.4zM614.4 345.6h102.4c30.72 0 51.2 20.48 51.2 51.2v102.4c0 30.72-20.48 51.2-51.2 51.2h-102.4c-30.72 0-51.2-20.48-51.2-51.2v-102.4c0-30.72 20.48-51.2 51.2-51.2zM614.4 499.2h102.4v-102.4h-102.4v102.4zM870.4-12.8h-102.4v204.8c0 30.72-20.48 51.2-51.2 51.2h-102.4c-30.72 0-51.2-20.48-51.2-51.2v-204.8h-102.4v204.8c0 30.72-20.48 51.2-51.2 51.2h-102.4c-30.72 0-51.2-20.48-51.2-51.2v-204.8h-102.4v614.4h-102.4l460.8 256 102.4-56.32v56.32l-76.8 40.96c-10.24 10.24-15.36 10.24-25.6 10.24s-15.36 0-25.6-5.12l-460.8-256c-20.48-10.24-30.72-35.84-25.6-61.44s25.6-35.84 51.2-35.84h51.2v-563.2c0-30.72 20.48-51.2 51.2-51.2h716.8c30.72 0 51.2 20.48 51.2 51.2v563.2h-51.2v-563.2zM409.6-12.8h-102.4v204.8h102.4v-204.8zM716.8-12.8h-102.4v204.8h102.4v-204.8z" />
<glyph unicode="&#xe980;" glyph-name="listing-apartment-foreclosed-solid" d="M972.8 908.8v51.2h-230.4c-15.36 0-25.6-10.24-25.6-25.6v-332.8h51.2v153.6h153.6v51.2h-153.6v102.4h204.8zM870.4 550.4h-153.6c-30.72 0-51.2 20.48-51.2 51.2v230.4l-128 71.68c-10.24 5.12-15.36 5.12-25.6 5.12s-15.36 0-25.6-5.12l-460.8-256c-20.48-10.24-30.72-35.84-25.6-61.44s25.6-35.84 51.2-35.84h51.2v-563.2c0-30.72 20.48-51.2 51.2-51.2h102.4v204.8c0 30.72 20.48 51.2 51.2 51.2h102.4c30.72 0 51.2-20.48 51.2-51.2v-204.8h102.4v204.8c0 30.72 20.48 51.2 51.2 51.2h102.4c30.72 0 51.2-20.48 51.2-51.2v-204.8h102.4c30.72 0 51.2 20.48 51.2 51.2v512c0 30.72-20.48 51.2-51.2 51.2zM460.8 345.6c0-30.72-20.48-51.2-51.2-51.2h-102.4c-30.72 0-51.2 20.48-51.2 51.2v102.4c0 30.72 20.48 51.2 51.2 51.2h102.4c30.72 0 51.2-20.48 51.2-51.2v-102.4zM768 345.6c0-30.72-20.48-51.2-51.2-51.2h-102.4c-30.72 0-51.2 20.48-51.2 51.2v102.4c0 30.72 20.48 51.2 51.2 51.2h102.4c30.72 0 51.2-20.48 51.2-51.2v-102.4z" />
<glyph unicode="&#xe981;" glyph-name="listing-apartment-foreclosed-outline" d="M972.8 908.8v51.2h-230.4c-15.36 0-25.6-10.24-25.6-25.6v-332.8h51.2v153.6h153.6v51.2h-153.6v102.4h204.8zM307.2 550.4c-30.72 0-51.2-20.48-51.2-51.2v-102.4c0-30.72 20.48-51.2 51.2-51.2h102.4c30.72 0 51.2 20.48 51.2 51.2v102.4c0 30.72-20.48 51.2-51.2 51.2h-102.4zM409.6 396.8h-102.4v102.4h102.4v-102.4zM563.2 499.2v-102.4c0-30.72 20.48-51.2 51.2-51.2h102.4c30.72 0 51.2 20.48 51.2 51.2v102.4c0 30.72-20.48 51.2-51.2 51.2h-102.4c-30.72 0-51.2-20.48-51.2-51.2zM716.8 396.8h-102.4v102.4h102.4v-102.4zM870.4-12.8h-102.4v204.8c0 30.72-20.48 51.2-51.2 51.2h-102.4c-30.72 0-51.2-20.48-51.2-51.2v-204.8h-102.4v204.8c0 30.72-20.48 51.2-51.2 51.2h-102.4c-30.72 0-51.2-20.48-51.2-51.2v-204.8h-102.4v614.4h-102.4l460.8 256 102.4-56.32v56.32c0 0-76.8 40.96-76.8 40.96-15.36 10.24-35.84 10.24-51.2 0 0 0-460.8-256-460.8-256-46.080-20.48-25.6-92.16 25.6-92.16h51.2v-563.2c0-30.72 20.48-51.2 51.2-51.2h716.8c30.72 0 51.2 20.48 51.2 51.2v614.4h-51.2v-614.4zM409.6-12.8h-102.4v204.8h102.4v-204.8zM716.8-12.8h-102.4v204.8h102.4v-204.8z" />
<glyph unicode="&#xe982;" glyph-name="listing-apartment-tour-solid" d="M680.96 652.8l71.68-71.68 35.84 35.84-35.84 35.84 117.76 117.76c15.36-10.24 30.72-15.36 51.2-15.36 56.32 0 102.4 46.080 102.4 102.4s-46.080 102.4-102.4 102.4-102.4-46.080-102.4-102.4c0-20.48 5.12-35.84 15.36-51.2l-153.6-153.6zM921.6 908.8c30.72 0 51.2-20.48 51.2-51.2s-20.48-51.2-51.2-51.2-51.2 20.48-51.2 51.2 20.48 51.2 51.2 51.2zM998.4 647.68l-112.64 61.44c0 0 0 0-5.12 0l-56.32-56.32 30.72-30.72-71.68-71.68c-20.48-20.48-51.2-20.48-71.68 0l-71.68 71.68c-20.48 20.48-20.48 51.2 0 71.68l97.28 97.28c0 0-204.8 112.64-204.8 112.64-15.36 10.24-35.84 10.24-51.2 0 0 0-460.8-256-460.8-256-40.96-25.6-20.48-97.28 30.72-97.28h51.2v-563.2c0-30.72 20.48-51.2 51.2-51.2h102.4v204.8c0 30.72 20.48 51.2 51.2 51.2h102.4c30.72 0 51.2-20.48 51.2-51.2v-204.8h102.4v204.8c0 30.72 20.48 51.2 51.2 51.2h102.4c30.72 0 51.2-20.48 51.2-51.2v-204.8h102.4c30.72 0 51.2 20.48 51.2 51.2v563.2c0 0 51.2 0 51.2 0 51.2 0 71.68 71.68 25.6 97.28zM460.8 345.6c0-30.72-20.48-51.2-51.2-51.2h-102.4c-30.72 0-51.2 20.48-51.2 51.2v102.4c0 30.72 20.48 51.2 51.2 51.2h102.4c30.72 0 51.2-20.48 51.2-51.2v-102.4zM768 345.6c0-30.72-20.48-51.2-51.2-51.2h-102.4c-30.72 0-51.2 20.48-51.2 51.2v102.4c0 30.72 20.48 51.2 51.2 51.2h102.4c30.72 0 51.2-20.48 51.2-51.2v-102.4z" />
<glyph unicode="&#xe983;" glyph-name="listing-apartment-tour-outline" d="M921.6 960c-56.32 0-102.4-46.080-102.4-102.4 0-20.48 5.12-35.84 15.36-51.2l-153.6-153.6 71.68-71.68 35.84 35.84-35.84 35.84 117.76 117.76c15.36-10.24 30.72-15.36 51.2-15.36 56.32 0 102.4 46.080 102.4 102.4s-46.080 102.4-102.4 102.4zM921.6 806.4c-30.72 0-51.2 20.48-51.2 51.2s20.48 51.2 51.2 51.2 51.2-20.48 51.2-51.2-20.48-51.2-51.2-51.2zM307.2 550.4c-30.72 0-51.2-20.48-51.2-51.2v-102.4c0-30.72 20.48-51.2 51.2-51.2h102.4c30.72 0 51.2 20.48 51.2 51.2v102.4c0 30.72-20.48 51.2-51.2 51.2h-102.4zM409.6 396.8h-102.4v102.4h102.4v-102.4zM563.2 499.2v-102.4c0-30.72 20.48-51.2 51.2-51.2h102.4c30.72 0 51.2 20.48 51.2 51.2v102.4c0 30.72-20.48 51.2-51.2 51.2h-102.4c-30.72 0-51.2-20.48-51.2-51.2zM716.8 396.8h-102.4v102.4h102.4v-102.4zM870.4-12.8h-102.4v204.8c0 30.72-20.48 51.2-51.2 51.2h-102.4c-30.72 0-51.2-20.48-51.2-51.2v-204.8h-102.4v204.8c0 30.72-20.48 51.2-51.2 51.2h-102.4c-30.72 0-51.2-20.48-51.2-51.2v-204.8h-102.4v614.4h-102.4l460.8 256 102.4-56.32v56.32c0 0-76.8 40.96-76.8 40.96-15.36 10.24-35.84 10.24-51.2 0 0 0-460.8-256-460.8-256-46.080-20.48-25.6-92.16 25.6-92.16h51.2v-563.2c0-30.72 20.48-51.2 51.2-51.2h716.8c30.72 0 51.2 20.48 51.2 51.2v614.4h-51.2v-614.4zM409.6-12.8h-102.4v204.8h102.4v-204.8zM716.8-12.8h-102.4v204.8h102.4v-204.8z" />
<glyph unicode="&#xe984;" glyph-name="listing-apartment-shortsale-solid" d="M972.8 857.6v76.8c0 15.36-10.24 25.6-25.6 25.6h-204.8c-15.36 0-25.6-10.24-25.6-25.6v-153.6c0-15.36 10.24-25.6 25.6-25.6h179.2v-102.4h-153.6v51.2h-51.2v-76.8c0-15.36 10.24-25.6 25.6-25.6h204.8c15.36 0 25.6 10.24 25.6 25.6v153.6c0 15.36-10.24 25.6-25.6 25.6h-179.2v102.4h153.6v-51.2h51.2zM870.4 550.4h-153.6c-30.72 0-51.2 20.48-51.2 51.2v230.4l-128 71.68c-10.24 5.12-15.36 5.12-25.6 5.12s-15.36 0-25.6-5.12l-460.8-256c-20.48-10.24-30.72-35.84-25.6-61.44s25.6-35.84 51.2-35.84h51.2v-563.2c0-30.72 20.48-51.2 51.2-51.2h102.4v204.8c0 30.72 20.48 51.2 51.2 51.2h102.4c30.72 0 51.2-20.48 51.2-51.2v-204.8h102.4v204.8c0 30.72 20.48 51.2 51.2 51.2h102.4c30.72 0 51.2-20.48 51.2-51.2v-204.8h102.4c30.72 0 51.2 20.48 51.2 51.2v512c0 30.72-20.48 51.2-51.2 51.2zM460.8 345.6c0-30.72-20.48-51.2-51.2-51.2h-102.4c-30.72 0-51.2 20.48-51.2 51.2v102.4c0 30.72 20.48 51.2 51.2 51.2h102.4c30.72 0 51.2-20.48 51.2-51.2v-102.4zM768 345.6c0-30.72-20.48-51.2-51.2-51.2h-102.4c-30.72 0-51.2 20.48-51.2 51.2v102.4c0 30.72 20.48 51.2 51.2 51.2h102.4c30.72 0 51.2-20.48 51.2-51.2v-102.4z" />
</font>
</defs>
</svg>
