<?xml version="1.0" standalone="no"?>
<!DOCTYPE svg PUBLIC "-//W3C//DTD SVG 1.1//EN" "http://www.w3.org/Graphics/SVG/1.1/DTD/svg11.dtd" >
<svg xmlns="http://www.w3.org/2000/svg">
<metadata>Generated by IcoMoon</metadata>
<defs>
<font id="icomoon" horiz-adv-x="1024">
<font-face units-per-em="1024" ascent="960" descent="-64" />
<missing-glyph horiz-adv-x="1024" />
<glyph unicode="&#x20;" horiz-adv-x="512" d="" />
<glyph unicode="&#xe900;" glyph-name="rdc-accurate-data" d="M256 345.6c-27.307 0-51.2-23.893-51.2-51.2s23.893-51.2 51.2-51.2 51.2 23.893 51.2 51.2-23.893 51.2-51.2 51.2zM256 277.333c-10.24 0-17.067 6.827-17.067 17.067s6.827 17.067 17.067 17.067 17.067-6.827 17.067-17.067-6.827-17.067-17.067-17.067zM256 174.933c-27.307 0-51.2-23.893-51.2-51.2s23.893-51.2 51.2-51.2 51.2 23.893 51.2 51.2-23.893 51.2-51.2 51.2zM256 106.667c-10.24 0-17.067 6.827-17.067 17.067s6.827 17.067 17.067 17.067 17.067-6.827 17.067-17.067-6.827-17.067-17.067-17.067zM580.267 823.467h-477.867c-20.48 0-34.133-13.653-34.133-34.133v-819.2c0-20.48 13.653-34.133 34.133-34.133h682.667c20.48 0 34.133 13.653 34.133 34.133v648.533c-78.507 78.507-126.293 126.293-204.8 204.8h-34.133zM785.067-29.867h-682.667v819.2h477.867v-170.667c0-20.48 13.653-34.133 34.133-34.133h170.667v-614.4zM771.413 618.667h-157.013v157.013l157.013-157.013zM750.933 960h-512c-20.48 0-34.133-13.653-34.133-34.133v-68.267h34.133v68.267h477.867v-170.667c0-20.48 13.653-34.133 34.133-34.133h170.667v-614.4h-68.267v-34.133h68.267c20.48 0 34.133 13.653 34.133 34.133v648.533c-78.507 78.507-126.293 126.293-204.8 204.8zM750.933 912.213l157.013-157.013h-157.013v157.013zM375.467 311.467h307.2v-34.133h-307.2v34.133zM477.867 482.133h204.8v-34.133h-204.8v34.133zM375.467 140.8h307.2v-34.133h-307.2v34.133zM375.467 448c20.48 0 34.133 13.653 34.133 34.133v204.8c0 20.48-13.653 34.133-34.133 34.133h-170.667c-20.48 0-34.133-13.653-34.133-34.133v-204.8c0-20.48 13.653-34.133 34.133-34.133h170.667zM204.8 686.933h170.667v-204.8h-170.667v204.8z" />
<glyph unicode="&#xe901;" glyph-name="rdc-attention-communication" d="M887.467 550.4h136.533v-34.133h-136.533v34.133zM879.176 390.758l24.136 24.136 120.678-120.678-24.136-24.136-120.678 120.678zM879.179 669.678l120.678 120.678 24.136-24.136-120.678-120.678-24.136 24.136zM785.067 960h-68.267c-20.48 0-34.133-13.653-34.133-34.133v-17.067l-341.333-187.733h-238.933c-58.027 0-102.4-44.373-102.4-102.4v-170.667c0-58.027 44.373-102.4 102.4-102.4h40.96l78.507-344.747c10.24-37.547 44.373-64.853 81.92-64.853 54.613 0 92.16 51.2 81.92 102.4l-71.68 307.2h27.307l341.333-187.733v-17.067c0-20.48 13.653-34.133 34.133-34.133h68.267c20.48 0 34.133 13.653 34.133 34.133v785.067c0 20.48-13.653 34.133-34.133 34.133zM102.4 379.733c-37.547 0-68.267 30.72-68.267 68.267v170.667c0 37.547 30.72 68.267 68.267 68.267v-307.2zM351.573 31.573c6.827-30.72-17.067-61.44-47.787-61.44-23.893 0-40.96 17.067-47.787 37.547l-75.093 337.92h98.987c0 0 71.68-314.027 71.68-314.027zM341.333 379.733h-204.8v307.2h204.8v-307.2zM682.667 198.827l-307.2 167.253v334.507l307.2 167.253v-669.013zM785.067 140.8h-68.267v785.067h68.267v-785.067z" />
<glyph unicode="&#xe902;" glyph-name="rdc-best-foot-forward" d="M945.493 359.253c-54.613 54.613-54.613 139.947 0 194.56l23.893 23.893-290.133 290.133-361.813-361.813c-13.653-13.653-13.653-34.133 0-47.787 0 0 529.067-529.067 532.48-532.48 13.653-13.653 34.133-13.653 47.787 0l47.787 47.787c105.813 105.813 105.813 279.893 0 385.707zM918.187 577.707c-64.853-64.853-64.853-174.080 0-242.347 0 0 0 0 0 0l-153.6-153.6-215.040 215.040c51.2 34.133 81.92 92.16 78.507 157.013 0 58.027-27.307 109.227-71.68 143.36l119.467 119.467 242.347-238.933zM597.333 553.813c0-54.613-27.307-102.4-71.68-133.12l-122.88 122.88 129.707 129.707c40.96-27.307 64.853-71.68 64.853-119.467zM870.4-50.347l-529.067 532.48 40.96 40.96 532.48-532.48-44.373-40.96zM935.253 14.507l-143.36 143.36 150.187 150.187c64.853-85.333 61.44-208.213-6.827-293.547zM136.533 652.8h170.667v-34.133h-170.667v34.133zM0 652.8h68.267v-34.133h-68.267v34.133zM68.267 482.133h136.533v-34.133h-136.533v34.133zM0 311.467h307.2v-34.133h-307.2v34.133zM68.267 140.8h273.067v-34.133h-273.067v34.133zM409.6 140.8h68.267v-34.133h-68.267v34.133z" />
<glyph unicode="&#xe903;" glyph-name="rdc-closing" d="M580.267 823.467h-477.867c-20.48 0-34.133-13.653-34.133-34.133v-819.2c0-20.48 13.653-34.133 34.133-34.133h682.667c20.48 0 34.133 13.653 34.133 34.133v648.533c-78.507 78.507-126.293 126.293-204.8 204.8h-34.133zM785.067-29.867h-682.667v819.2h477.867v-170.667c0-20.48 13.653-34.133 34.133-34.133h170.667v-614.4zM771.413 618.667h-157.013v157.013l157.013-157.013zM750.933 960h-512c-20.48 0-34.133-13.653-34.133-34.133v-68.267h34.133v68.267h477.867v-170.667c0-20.48 13.653-34.133 34.133-34.133h170.667v-614.4h-68.267v-34.133h68.267c20.48 0 34.133 13.653 34.133 34.133v648.533c-78.507 78.507-126.293 126.293-204.8 204.8zM750.933 912.213l157.013-157.013h-157.013v157.013zM546.133 379.733c-95.573 0-170.667-75.093-170.667-170.667s75.093-170.667 170.667-170.667 170.667 75.093 170.667 170.667-75.093 170.667-170.667 170.667zM546.133 72.533c-75.093 0-136.533 61.44-136.533 136.533s61.44 136.533 136.533 136.533c40.96 0 75.093-17.067 102.4-44.373l-102.4-102.4-54.613 54.613-23.893-23.893 81.92-81.92 119.467 119.467c10.24-20.48 17.067-40.96 17.067-61.44-3.413-71.68-64.853-133.12-139.947-133.12zM204.8 686.933h273.067v-34.133h-273.067v34.133zM204.8 584.533h273.067v-34.133h-273.067v34.133zM204.8 482.133h477.867v-34.133h-477.867v34.133z" />
<glyph unicode="&#xe904;" glyph-name="rdc-complete-transparency" d="M512 591.36c-81.92 0-150.187-64.853-150.187-143.36s68.267-143.36 150.187-143.36 150.187 64.853 150.187 143.36-68.267 143.36-150.187 143.36zM512 338.773c-64.853 0-116.053 47.787-116.053 109.227s51.2 109.227 116.053 109.227 116.053-47.787 116.053-109.227-51.2-109.227-116.053-109.227zM512 686.933c-208.213 0-375.467-238.933-375.467-238.933s167.253-238.933 375.467-238.933 375.467 238.933 375.467 238.933-167.253 238.933-375.467 238.933zM512 243.2c-153.6 0-286.72 150.187-331.093 204.8 44.373 54.613 177.493 204.8 331.093 204.8s286.72-150.187 331.093-204.8c-44.373-54.613-177.493-204.8-331.093-204.8zM750.933 960h-477.867c-105.813-105.813-167.253-167.253-273.067-273.067v-477.867c105.813-105.813 167.253-167.253 273.067-273.067h477.867c105.813 105.813 167.253 167.253 273.067 273.067v477.867c-105.813 105.813-167.253 167.253-273.067 273.067zM989.867 222.72l-252.587-252.587h-450.56l-252.587 252.587v450.56l252.587 252.587h450.56l252.587-252.587v-450.56z" />
<glyph unicode="&#xe905;" glyph-name="rdc-customer-commitment" d="M648.533 721.067h273.067v-34.133h-273.067v34.133zM593.92 741.547l-27.307 27.307-88.747-92.16-54.613 58.027-27.307-27.307 81.92-78.507zM648.533 482.133h273.067v-34.133h-273.067v34.133zM593.92 502.613l-27.307 27.307-88.747-92.16-54.613 58.027-27.307-27.307 81.92-78.507zM648.533 243.2h273.067v-34.133h-273.067v34.133zM593.92 263.68l-27.307 27.307-88.747-92.16-54.613 58.027-27.307-27.307 81.92-78.507zM989.867 960h-689.493c-20.48 0-27.307-13.653-27.307-34.133v-836.267c0-64.853-54.613-119.467-119.467-119.467s-119.467 54.613-119.467 119.467v221.867h170.667v34.133h-170.667c-20.48 0-34.133-13.653-34.133-34.133v-221.867c0-85.333 68.267-153.6 153.6-153.6 0 0 0 0 3.413 0 0 0 0 0 0 0h730.453c75.093 0 136.533 61.44 136.533 136.533v853.333c0 20.48-13.653 34.133-34.133 34.133zM989.867 72.533c0-58.027-44.373-102.4-102.4-102.4h-638.293c34.133 27.307 58.027 71.68 58.027 119.467v836.267h682.667v-853.333z" />
<glyph unicode="&#xe906;" glyph-name="rdc-emergency-response" d="M1010.347 130.56l-375.467 754.347c-23.893 47.787-71.68 75.093-122.88 75.093s-98.987-27.307-119.467-75.093l-375.467-754.347c-20.48-40.96-20.48-92.16 6.827-133.12 20.48-37.547 64.853-61.44 112.64-61.44h750.933c47.787 0 88.747 23.893 116.053 64.853 23.893 40.96 27.307 88.747 6.827 129.707zM887.467-29.867h-750.933c-75.093 0-122.88 78.507-92.16 146.773l375.467 754.347c20.48 37.547 54.613 54.613 92.16 54.613s71.68-17.067 92.16-54.613l375.467-754.347c34.133-68.267-17.067-146.773-92.16-146.773zM546.133 686.933h-68.267c-20.48 0-34.133-13.653-34.133-34.133v-307.2c0-37.547 30.72-68.267 68.267-68.267s68.267 30.72 68.267 68.267v307.2c0 20.48-13.653 34.133-34.133 34.133zM546.133 345.6c0-20.48-13.653-34.133-34.133-34.133s-34.133 13.653-34.133 34.133v307.2h68.267v-307.2zM512 209.067c-37.547 0-68.267-30.72-68.267-68.267s30.72-68.267 68.267-68.267 68.267 30.72 68.267 68.267-30.72 68.267-68.267 68.267zM512 106.667c-20.48 0-34.133 13.653-34.133 34.133s13.653 34.133 34.133 34.133 34.133-13.653 34.133-34.133-13.653-34.133-34.133-34.133zM28.709 670.698l8.277 33.113 135.762-33.937-8.277-33.113-135.762 33.937zM124.977 913.284l24.136 24.136 101.37-101.37-24.136-24.136-101.37 101.37zM847.875 669.018l135.762 33.937 8.277-33.113-135.762-33.937-8.277 33.113zM773.507 836.046l101.37 101.37 24.136-24.136-101.37-101.37-24.136 24.136z" />
<glyph unicode="&#xe907;" glyph-name="rdc-expertise" d="M737.28 448h-122.88v68.267c0 75.093-61.44 136.533-136.533 136.533 0 0 0 0-3.413 0-17.067 0-30.72-17.067-30.72-34.133v-102.4c0-27.307-13.653-47.787-37.547-61.44-17.067-10.24-27.307-23.893-30.72-40.96h-136.533c-20.48 0-34.133-13.653-34.133-34.133v-273.067c0-20.48 13.653-34.133 34.133-34.133h136.533c20.48 0 34.133 13.653 34.133 34.133h314.027c17.067 0 30.72 10.24 34.133 27.307l47.787 232.107c6.827 40.96-27.307 81.92-68.267 81.92zM375.467 106.667h-136.533v273.067h136.533v-273.067zM723.627 140.8h-314.027v256c0 13.653 6.827 23.893 13.653 27.307 34.133 17.067 54.613 51.2 54.613 88.747v102.4c58.027 0 102.4-44.373 102.4-102.4v-102.4h157.013c10.24 0 20.48-3.413 27.307-13.653 6.827-6.827 10.24-17.067 6.827-27.307l-47.787-228.693zM341.333 209.067c0-18.851-15.282-34.133-34.133-34.133s-34.133 15.282-34.133 34.133c0 18.851 15.282 34.133 34.133 34.133s34.133-15.282 34.133-34.133zM1017.173 403.627c0 0-71.68 85.333-163.84 184.32v235.52h-136.533v-78.507c-95.573 109.227-177.493 204.8-177.493 204.8-13.653 13.653-37.547 17.067-51.2 0 0 0-474.453-542.72-477.867-546.133-20.48-23.893-3.413-58.027 23.893-58.027h68.267v-375.467h-68.267v-34.133h955.733v34.133h-68.267v375.467c0 0 68.267 0 68.267 0 27.307 0 44.373 34.133 27.307 58.027zM887.467 379.733v-409.6h-750.933v409.6h-102.4l477.867 546.133 238.933-273.067v136.533h68.267v-215.040l170.667-194.56h-102.4z" />
<glyph unicode="&#xe908;" glyph-name="rdc-full-service" d="M512 618.667c-95.573 0-170.667-75.093-170.667-170.667s75.093-170.667 170.667-170.667 170.667 75.093 170.667 170.667-75.093 170.667-170.667 170.667zM512 311.467c-75.093 0-136.533 61.44-136.533 136.533s61.44 136.533 136.533 136.533 136.533-61.44 136.533-136.533-61.44-136.533-136.533-136.533zM512 772.267c-177.493 0-324.267-146.773-324.267-324.267h34.133c0 160.427 129.707 290.133 290.133 290.133v34.133zM989.867 584.533h-54.613c-6.827 23.893-17.067 44.373-27.307 64.853l40.96 40.96c13.653 13.653 13.653 34.133 0 47.787l-143.36 143.36c-10.24 6.827-20.48 10.24-27.307 10.24s-17.067-3.413-23.893-10.24l-40.96-40.96c-20.48 10.24-40.96 20.48-64.853 27.307v58.027c0 20.48-13.653 34.133-34.133 34.133h-204.8c-20.48 0-34.133-13.653-34.133-34.133v-54.613c-23.893-6.827-44.373-17.067-64.853-27.307l-40.96 37.547c-6.827 6.827-13.653 10.24-23.893 10.24s-17.067-3.413-23.893-10.24l-143.36-143.36c-13.653-13.653-13.653-34.133 0-47.787l40.96-40.96c-13.653-20.48-23.893-40.96-30.72-64.853h-54.613c-20.48 0-34.133-13.653-34.133-34.133v-204.8c0-20.48 13.653-34.133 34.133-34.133h54.613c6.827-23.893 17.067-44.373 27.307-64.853l-40.96-40.96c-13.653-13.653-13.653-34.133 0-47.787l143.36-143.36c10.24-6.827 20.48-10.24 27.307-10.24s17.067 3.413 23.893 10.24l40.96 40.96c20.48-10.24 40.96-20.48 64.853-27.307v-58.027c0-20.48 13.653-34.133 34.133-34.133h204.8c20.48 0 34.133 13.653 34.133 34.133v54.613c23.893 6.827 44.373 17.067 64.853 27.307l40.96-40.96c6.827-6.827 17.067-10.24 23.893-10.24s17.067 3.413 23.893 10.24l143.36 143.36c13.653 13.653 13.653 34.133 0 47.787l-40.96 40.96c10.24 20.48 20.48 40.96 27.307 64.853h58.027c20.48 0 34.133 13.653 34.133 34.133v204.8c0 23.893-13.653 37.547-34.133 37.547zM989.867 345.6h-81.92l-44.373-105.813 58.027-58.027-143.36-143.36-58.027 58.027-105.813-44.373v-81.92h-204.8v81.92l-105.813 44.373-58.027-58.027-143.36 143.36 58.027 58.027-44.373 105.813h-81.92v204.8h81.92l44.373 105.813-58.027 58.027 143.36 143.36 58.027-58.027 105.813 44.373v81.92h204.8v-81.92l105.813-44.373 58.027 58.027 143.36-143.36-58.027-58.027 44.373-105.813h81.92v-204.8z" />
<glyph unicode="&#xe909;" glyph-name="rdc-high-exposure-marketing" d="M0-29.867h1024v-34.133h-1024v34.133zM238.933 174.933h-170.667v-136.533h170.667v136.533zM204.8 72.533h-102.4v68.267h102.4v-68.267zM307.2 38.4h170.667v375.467h-170.667v-375.467zM341.333 379.733h102.4v-307.2h-102.4v307.2zM546.133 38.4h170.667v273.067h-170.667v-273.067zM580.267 277.333h102.4v-204.8h-102.4v204.8zM785.067 38.4h170.667v546.133h-170.667v-546.133zM819.2 550.4h102.4v-477.867h-102.4v477.867zM153.6 345.6c47.787 0 85.333 37.547 85.333 85.333 0 17.067-6.827 34.133-13.653 47.787l122.88 153.6c10.24-10.24 27.307-13.653 44.373-13.653 27.307 0 51.2 13.653 68.267 34.133l98.987-75.093c-10.24-13.653-13.653-27.307-13.653-44.373 0-47.787 37.547-85.333 85.333-85.333s85.333 37.547 85.333 85.333c0 17.067-6.827 34.133-17.067 47.787l126.293 218.453c13.653-6.827 27.307-10.24 44.373-10.24 47.787 0 85.333 37.547 85.333 85.333s-37.547 85.333-85.333 85.333c-47.787 0-85.333-37.547-85.333-85.333 0-17.067 6.827-34.133 17.067-47.787l-126.293-218.453c-13.653 6.827-27.307 10.24-44.373 10.24s-34.133-6.827-47.787-13.653l-109.227 81.92c3.413 3.413 3.413 10.24 3.413 17.067 0 47.787-37.547 85.333-85.333 85.333s-85.333-37.547-85.333-85.333c0-17.067 6.827-34.133 13.653-47.787l-122.88-153.6c-10.24 10.24-27.307 13.653-44.373 13.653-47.787 0-85.333-37.547-85.333-85.333s37.547-85.333 85.333-85.333zM870.4 925.867c27.307 0 51.2-23.893 51.2-51.2s-23.893-51.2-51.2-51.2-51.2 23.893-51.2 51.2 23.893 51.2 51.2 51.2zM631.467 584.533c27.307 0 51.2-23.893 51.2-51.2s-23.893-51.2-51.2-51.2-51.2 23.893-51.2 51.2 23.893 51.2 51.2 51.2zM392.533 755.2c27.307 0 51.2-23.893 51.2-51.2s-23.893-51.2-51.2-51.2-51.2 23.893-51.2 51.2 23.893 51.2 51.2 51.2zM153.6 482.133c27.307 0 51.2-23.893 51.2-51.2s-23.893-51.2-51.2-51.2-51.2 23.893-51.2 51.2 23.893 51.2 51.2 51.2z" />
<glyph unicode="&#xe90a;" glyph-name="rdc-home-buying" d="M512 550.4h-34.133v-68.267h-17.067c-58.027 0-102.4-44.373-102.4-102.4s44.373-102.4 102.4-102.4h17.067v-136.533h-17.067c-37.547 0-68.267 30.72-68.267 68.267h-34.133c0-58.027 44.373-102.4 102.4-102.4h17.067v-68.267h34.133v68.267h17.067c58.027 0 102.4 44.373 102.4 102.4s-44.373 102.4-102.4 102.4h-17.067v136.533h17.067c37.547 0 68.267-30.72 68.267-68.267h34.133c0 58.027-44.373 102.4-102.4 102.4h-17.067v68.267zM529.067 277.333c37.547 0 68.267-30.72 68.267-68.267s-30.72-68.267-68.267-68.267h-17.067v136.533h17.067zM477.867 311.467h-17.067c-37.547 0-68.267 30.72-68.267 68.267s30.72 68.267 68.267 68.267h17.067v-136.533zM1017.173 403.627c0 0-71.68 85.333-163.84 184.32v235.52h-136.533v-78.507c-95.573 109.227-177.493 204.8-177.493 204.8-13.653 13.653-37.547 17.067-51.2 0 0 0-474.453-542.72-477.867-546.133-20.48-23.893-3.413-58.027 23.893-58.027h68.267v-375.467h-68.267v-34.133h955.733v34.133h-68.267v375.467c0 0 68.267 0 68.267 0 27.307 0 44.373 34.133 27.307 58.027zM750.933 789.333h68.267v-163.84c-23.893 27.307-44.373 51.2-68.267 78.507v85.333zM887.467 379.733v-409.6h-750.933v409.6h-102.4l477.867 546.133 477.867-546.133h-102.4z" />
<glyph unicode="&#xe90b;" glyph-name="rdc-home-renting" d="M450.56 349.013l-177.493-180.907c0-37.547 0-58.027 0-95.573 23.893 0 85.333 0 95.573 0 0 0 177.493 177.493 177.493 177.493 61.44-23.893 136.533-10.24 184.32 37.547 68.267 68.267 68.267 174.080 0 242.347-64.853 64.853-174.080 64.853-242.347 0-47.787-47.787-61.44-119.467-37.547-180.907zM610.987 546.987c119.467 0 180.907-146.773 95.573-232.107-47.787-47.787-109.227-44.373-167.253-23.893l-184.32-184.32h-47.787v47.787c0 0 184.32 184.32 184.32 184.32-23.893 58.027-23.893 119.467 23.893 167.253 23.893 27.307 61.44 40.96 95.573 40.96zM682.667 448c0-18.851-15.282-34.133-34.133-34.133s-34.133 15.282-34.133 34.133c0 18.851 15.282 34.133 34.133 34.133s34.133-15.282 34.133-34.133zM1017.173 403.627c0 0-71.68 85.333-163.84 184.32v235.52h-136.533v-78.507c-95.573 109.227-177.493 204.8-177.493 204.8-13.653 13.653-37.547 17.067-51.2 0 0 0-474.453-542.72-477.867-546.133-20.48-23.893-3.413-58.027 23.893-58.027h68.267v-375.467h-68.267v-34.133h955.733v34.133h-68.267v375.467c0 0 68.267 0 68.267 0 27.307 0 44.373 34.133 27.307 58.027zM750.933 789.333h68.267v-163.84c-23.893 27.307-44.373 51.2-68.267 78.507v85.333zM887.467 379.733v-409.6h-750.933v409.6h-102.4l477.867 546.133 477.867-546.133h-102.4z" />
<glyph unicode="&#xe90c;" glyph-name="rdc-home-selling" d="M375.467 106.667h375.467v273.067h-375.467v-273.067zM409.6 345.6h307.2v-204.8h-307.2v204.8zM1017.173 403.627c0 0-71.68 85.333-163.84 184.32v235.52h-136.533v-78.507c-95.573 109.227-177.493 204.8-177.493 204.8-13.653 13.653-37.547 17.067-51.2 0 0 0-474.453-542.72-477.867-546.133-20.48-23.893-3.413-58.027 23.893-58.027h68.267v-375.467h-68.267v-34.133h955.733v34.133h-68.267v375.467c0 0 68.267 0 68.267 0 27.307 0 44.373 34.133 27.307 58.027zM750.933 789.333h68.267v-163.84c-23.893 27.307-44.373 51.2-68.267 78.507v85.333zM887.467 379.733v-409.6h-546.133v443.733h443.733v34.133h-443.733v68.267h-34.133v-68.267h-68.267v-34.133h68.267v-443.733h-170.667v409.6h-102.4l477.867 546.133 477.867-546.133h-102.4z" />
<glyph unicode="&#xe90d;" glyph-name="rdc-honest-pricing" d="M614.4 550.4h34.133c0 58.027-44.373 102.4-102.4 102.4v34.133h-34.133v-34.133c-58.027 0-102.4-44.373-102.4-102.4s44.373-102.4 102.4-102.4v-136.533c-37.547 0-68.267 30.72-68.267 68.267h-34.133c0-58.027 44.373-102.4 102.4-102.4v-34.133h34.133v34.133c58.027 0 102.4 44.373 102.4 102.4s-44.373 102.4-102.4 102.4v136.533c37.547 0 68.267-30.72 68.267-68.267zM512 482.133c-37.547 0-68.267 30.72-68.267 68.267s30.72 68.267 68.267 68.267v-136.533zM614.4 379.733c0-37.547-30.72-68.267-68.267-68.267v136.533c37.547 0 68.267-30.72 68.267-68.267zM0 833.707l34.133-3.413c3.413 34.133 23.893 64.853 54.613 81.92l-17.067 30.72c-40.96-20.48-68.267-61.44-71.68-109.227zM204.8 960h136.533v-34.133h-136.533v34.133zM122.88-29.867l-3.413-34.133c3.413 0 17.067 0 17.067 0v0c0 0-3.413 0-3.413 0s0 0 0 0 0 0 0 0v0c0 0 0 0 0 0s0 0 0 0 0 0 0 0 0 0 0 0 0 0 0 0v0c0 0 0 0 0 0s0 0 0 0 0 0 0 0 0 0 0 0 0 0 0 0 0 0 0 0 0 0 0 0 0 0 0 0 0 0 0 0v0c0 0 0 0 0 0s0 0 0 0 0 0 0 0v0c0 0 0 0 0 0s0 0 0 0 0 0 0 0 0 0 0 0 0 0 0 0 0 0 0 0 0 0 0 0 0 0 0 0 0 0 0 0 0 0 0 0 0 0 0 0 0 0 0 0 0 0 0 0 0 0 0 0 0 0 0 0v0c0 0 0 0 0 0s0 0 0 0 0 0 0 0 0 0 0 0 0 0 0 0 0 0 0 0 0 0 0 0 0 0 0 0 0 0 0 0h102.4v34.133h-98.987c-3.413 0-10.24 0-13.653 0zM34.133 140.8h-34.133v-68.267c0 0 0 0 0 0s0 0 0 0 0 0 0 0 0 0 0 0 0 0 0 0 0 0 0 0 0 0 0 0 0 0 0 0 0 0 0 0 0 0 0 0 0 0 0 0 0 0 0 0 0 0 0 0 0 0 0 0 0 0 0 0 0 0 0 0 0 0 0 0 0 0 0 0 0 0 0 0 0 0 0 0 0 0 0 0 0 0 0 0 0 0 0 0 0 0 0 0 0 0 0 0 0 0 0 0 0 0 0 0 0 0 0 0 0 0 0 0 0 0 0 0 0 0 0 0 0 0 0 0 0 0 0 0 0 0 0 0 0 0 0 0 0 0 0 0 0 0 0 0 0 0 0 0 0 0 0 0 0 0 0 0 0 0 0 0 0 0 0 0 0 0 0 0 0 0 0 0 0 0 0 0 0 0 0 0 0 0 0 0 0 0 0 0 0 0 0 0 0 0 0 0 0 0 0 0 0 0 0 0 0 0 0 0 0 0 0 0 0 0 0 0 0 0 0 0 0 0 0 0 0 0 0 0 0 0 0 0 0 0 0 0 0 0 0 0 0 0 0 0 0 0 0 0 0 0 0 0 0 0 0 0 0 0 0 0 0 0 0 0 0 0 0 0 0 0 0 0 0 0 0 0 0 0 0 0 0 0 0 0 0 0 0 0 0 0 0 0 0 0 0 0 0 0 0 0 0 0 0 0 0 0 0 0 0 0 0 0 0 0 0 0 0 0 0 0 0 0 0 0 0 0 0 0 0 0 0 0 0 0 0 0 0 0 0 0 0 0 0 0 0 0 0 0 0 0 0 0 0 0 0 0 0 0 0 0 0 0 0 0 0 0 0 0 0 0 0 0 0 0 0 0 0 0 0 0 0 0 0 0 0 0 0 0 0 0 0 0 0 0 0 0 0 0 0 0 0 0 0 0 0 0 0 0 0 0 0 0 0 0 0 0 0 0 0 0 0 0 0 0 0 0 0 0 0 0 0 0 0 0 0 0 0 0 0 0 0 0 0 0 0 0 0 0 0 0 0 0 0 0 0 0 0 0 0 0 0 0 0 0 0 0 0 0 0 0 0 0 0 0 0 0 0 0 0 0 0 0 0 0 0 0 0 0 0 0 0 0 0 0 0 0 0 0 0 0v0c0 0 0 0 0 0s0 0 0 0 0 0 0 0 0 0 0 0 0 0 0 0 0 0 0 0 0 0 0 0 0 0 0 0 0 0 0 0 0 0 0 0 0 0 0 0 0 0 0 0 0 0 0 0 0 0 0 0 0 0 0 0 0 0 0 0 0 0 0 0 0 0 0 0 0 0 0 0 0 0 0 0 0 0 0 0 0 0 0 0 0 0 0 0 0 0 0 0 0 0 0 0 0 0 0 0 0 0 0 0 0 0 0 0 0 0 0 0 0 0 0 0 0 0 0 0 0 0 0 0 0 0 0 0 0 0 0 0 0 0 0 0 0 0 0 0 0 0 0 0 0 0 0 0 0 0 0 0 0 0 0 0 0 10.24 0 10.24 0 0 0 0c0 0 0 0 0 0v0c0 0 0-10.24 0-10.24v0c0 0 0 0 0 0s0 0 0 0 0 0 0 0 0 0 0 0 0 0 0 0 0 0 0 0 0 0 0 0 0 0 0 0 0 10.24 0 10.24v0c0-34.133 6.827-37.547 13.653-51.2l30.72 10.24c-6.827 3.413-10.24 17.067-10.24 30.72v68.267zM477.867 960h136.533v-34.133h-136.533v34.133zM0 413.867h34.133v-136.533h-34.133v136.533zM0 686.933h34.133v-136.533h-34.133v136.533zM989.867 311.467h34.133v-136.533h-34.133v136.533zM989.867 584.533h34.133v-136.533h-34.133v136.533zM925.013-23.040l13.653-34.133c17.067 6.827 30.72 27.307 44.373 27.307 0 0 6.827 0 6.827 0s6.827 0 6.827 0c0 0 0 0 0 0s-10.24 0-10.24 0c0 0 3.413 0 3.413 0s3.413 3.413 3.413 3.413v0c0 0-10.24 0-10.24 0s3.413 0 3.413 0c0 0 3.413 3.413 3.413 3.413s0 0 0 0-10.24 0-10.24 0c0 0 3.413 0 3.413 0s3.413 3.413 3.413 3.413c0 0 0 0 0 0s-10.24 0-10.24 0c0 0 3.413 0 3.413 0s3.413 3.413 3.413 3.413c0 0 0 0 0 0s-6.827 0-6.827 0c0 0 3.413 0 3.413 0s3.413 3.413 3.413 3.413c0 0 0-3.413 0-3.413s-6.827-3.413-6.827-3.413c0 0 3.413 0 3.413 0s3.413 3.413 3.413 3.413c0 0 0-3.413 0-3.413s-6.827-3.413-6.827-3.413c0 0 3.413 0 3.413 0s3.413 3.413 3.413 3.413c0 0 0-3.413 0-3.413s-6.827-3.413-6.827-3.413c0 0 0 0 0 0s6.827 3.413 6.827 3.413c0 0 0 0 0 0s0 0 0 0 0 0 0 0 0 0 0 0 0 0 0 0 0 0 0 0 0 0 0 0-3.413 0-3.413 0c0 0-3.413 0-3.413 0s0 0 0 0 0 0 0 0 3.413 0 3.413 0c0 0 3.413 0 3.413 0s0 0 0 0 0 0 0 0-3.413 0-3.413 0c0 0 0 0 0 0s0 0 0 0 0-3.413 0-3.413c0 0 0-3.413 0-3.413s0 0 0 0 0 3.413 0 3.413c0 0 0 0 0 0s0 0 0 0 0 0 0 0 0 0 0 0 0 0 0 0 0 0 0 0 0 0 0 0 0 0 0 0 0 0 0 0 0 0 0 0 0 0 0 0 0 0 0 0 0 0 0 0 0 0 0 0 0 0 0 0 0 0 0 0 0 0 0 0 0 0 0 0 0 0 0 0 0 0 0 0 0 0 0 0 0 0 0 0 0 0 0 0 0 0 0 0 0 0 0 0 0 0 0 0 0 0 0 0 0 0 0 0 0 0 0 0 0 0 0 0 0 0 0 0 0 0 0 0 0 0 0 0 0 0 0 0 0 0 0 0 0 0 0 0 0 0 0 0 0 0 0 0 0 0 0 0 0-3.413 0-3.413c0 0 0-3.413 0-3.413s3.413 0 3.413 0c0 0 3.413 6.827 3.413 6.827s0 0 0 0-3.413 0-3.413 0c0 0 0 0 0 0s0 0 0 0 0 0 0 0-3.413-6.827-3.413-6.827c0 0 0 0 0 0s0 0 0 0 0 0 0 0 0 0 0 0 3.413 0 3.413 0 0 6.827 0 6.827c0 0 0 0 0 0s-3.413-6.827-3.413-6.827c0 0 0 0 0 0s0 0 0 0 0 0 0 0 0 0 0 0 0 0 0 0 3.413 6.827 3.413 6.827c0 0 0-3.413 0-3.413s-3.413-3.413-3.413-3.413c0 0 3.413 0 3.413 0s3.413 6.827 3.413 6.827c0 0 0 0 0 0s0-6.827 0-6.827c0 0 0 0 0 0s0 3.413 0 3.413c0 0 0 3.413 0 3.413s0 0 0 0 0 0 0 0 0 0 0 0 0 0 0 0 0 0 0 0 0 0 0 0 0 0 0 0 0 0 0 0 0 0 0 0 0 0 0 0 0 0 0 0 0 0 0 0 0 0 0 0 0 0 0 0 0 0 0 0 0 0 0 0 0 0 0 0 0 0 0 0 0 0 0 0 0 0 0 0 0 0 0 0 0 0 0 0 0 0 0 0 0-3.413 0-3.413c0 0 0-3.413 0-3.413s0 0 0 0 0 10.24 0 10.24c0 0 0-3.413 0-3.413s-3.413-3.413-3.413-3.413c0 0 0 0 0 0s0 10.24 0 10.24c0 0 0-3.413 0-3.413s0-3.413 0-3.413c0 0 0 0 0 0s0 10.24 0 10.24c0 0 0-6.827 0-6.827s0-6.827 0-6.827c0 0 0 0 0 0s0 10.24 0 10.24c0 0 0-6.827 0-6.827s0-6.827 0-6.827c0 0 0 0 0 0s0 10.24 0 10.24c0 0 0-6.827 0-6.827s0-6.827 0-6.827c0 0 0 0 0 0s0 10.24 0 10.24c0 0 0-6.827 0-6.827s0-6.827 0-6.827c0 0 0 0 0 0s0 10.24 0 10.24c0 0 0-6.827 0-6.827s0-6.827 0-6.827c0 0 0 0 0 0s0 10.24 0 10.24c0 0 0 0 0 0s0-10.24 0-10.24c0 0 0 0 0 0v0c0 0 0 0 0 0s0 0 0 0 0 0 0 0v0c0 0 0 0 0 0s0 6.827 0 6.827c0 0 0 3.413 0 3.413s0 0 0 0 0 0 0 0 0 0 0 0 0 0 0 0 0 0 0 0 0 0 0 0 0 0 0 0 0 0 0 0 0-13.653 0-13.653c0 0 0 0 0 0s0 6.827 0 6.827c0 0 0 3.413 0 3.413s0 0 0 0 0 0 0 0 0 0 0 0 0 0 0 0 0 0 0 0 0 0 0 0 0 0 0 0 0 0 0 0 0-13.653 0-13.653c0 0 0 0 0 0s0 0 0 0 0 0 0 0 0 6.827 0 6.827c0 0 0 3.413 0 3.413s0 0 0 3.413c0 0 0 0 0 0s0 0 0 0v0c0 0 0 0 0 0s0 0 0 0 0 0 0 0 0 0 0 0 0-13.653 0-13.653c0 0 0 0 0 0s0 0 0 0 0 0 0 0 0 0 0 0 0 0 0 0 0 6.827 0 6.827c0 0 0 3.413 0 3.413s0 3.413 0 3.413c0 0 0 0 0 0s0 0 0 0 0 0 0 0 0 0 0 0 0 0 0 0 0 0 0 0 0-13.653 0-13.653c0 0 0 0 0 0s0 0 0 0v0c0 0 0 0 0 0v0c0 0-3.413 6.827-3.413 6.827s0 3.413 0 3.413c0 0 0 3.413 0 3.413s0 0 0 0 0 0 0 0 0 0 0 0v0c0 0 3.413 6.827 3.413 10.24 0 0 0 10.24 3.413 10.24v0c13.653 0 20.48 27.307 27.307 47.787l-34.133 3.413c0-13.653-23.893-47.787-54.613-58.027zM375.467-29.867h136.533v-34.133h-136.533v34.133zM1024 823.467c0 0 0 0 0 0s0 0 0 0 0 0 0 0 0 0 0 0 0 0 0 0 0 0 0 0 0 0 0 0 0 0 0 0 0 0 0 0 0 0 0 0 0 0 0 0 0 0 0 0 0 0 0 0 0 0 0 0c0 3.413 0 3.413 0 0 0 3.413 0 3.413 0 0 0 3.413 0 3.413 0 0 0 3.413 0 3.413 0 0 0 3.413 0 3.413 0 0 0 3.413 0 3.413 0 0 0 3.413 0 3.413 0 0 0 3.413 0 3.413 0 0 0 3.413 0 3.413 0 0 0 3.413 0 3.413 0 0 0 3.413 0 3.413 0 0 0 3.413 0 3.413 0 0 0 3.413 0 3.413 0 0 0 3.413 0 3.413 0 0 0 3.413 0 3.413 0 0 0 3.413 0 3.413 0 0 0 3.413 0 3.413 0 0 0 3.413 0 3.413 0 0 0 3.413 0 3.413 0 0 0 3.413 0 3.413 0 0 0 3.413 0 3.413 0 0 0 3.413 0 3.413 0 0 0 3.413 0 3.413 0 0 0 3.413 0 3.413 0 0 0 3.413 0 3.413 0 0 0 3.413 0 3.413 0 0 0 3.413 0 3.413 0 0 0 3.413 0 3.413 0 0 0 3.413 0 3.413 0 0 0 3.413 0 3.413 0 3.413s0 0 0 0 0 0 0 0 0 0 0 0 0 0 0 0 0 0 0 0 0 0 0 0 0 0 0 0 0 0 0 0 0 0 0 0 0 0 0 0 0 0 0 0 0 0 0 0 0 0 0 0 0 0 0 0 0 0 0 0 0 0 0 0 0 0 0 0 0 0 0 0 0 0 0 0 0 0 0 0 0 0 0 0 0 0 0 0 0 0 0 0 0 0 0 0 0 0 0 0 0 0 0 0 0 0 0 0 0 0 0 0 0 0 0 0 0 0 0 0 0 0 0 0 0 0 0 0 0 0 0 0 0 0 0 0 0 0 0 0 0 0 0 0 0 0 0 0 0 0 0 0 0 0 0 0 0 0 0 0 0 0 0 0 0 0 0 0 0 0 0 0 0 0 0 0 0 0 0 0 0 0 0 0 0 0 0 0 0 0 0 0 0 0 0 0 0 0 0 0 0 0 0 0 0 0 0 0 0 0 0 0 0 0 0 0 0 0 0 0 0 0 0 0 0 0 0 0 0 0 0 0 0 0 0 0 0 0 0 0 0 0 0 0 0 0 0 0 0 0 0 0 0 0 0 0 0 0 0 0 0 0 0 0 0 0 0 0 0 0 0 0 0 0 0 0 0 0 0 0 0 0 0 0 0 0 0 0 0 0 0 0 0 0 0 0 0 0 0 0 0 0 0 0 0 0 0 0 0 0 0 0 0 0 0 0 0 0 0 0 0 0 0 0 0 0 0 0 0 0 0 0 0 0 0 0 0 0 0 0 0 0 0 0 0 0 0 0 0 0 0 0 0 0 0 0 0 0 0 0 0 0 0 0 0 0 0 0 0 0 0 0 0 0 0 0 0 0 0 0 0 0 0 0 0 0 0 0 0 0 0 0 0 0 0 0 0 0 0 0 0 0 0 0 0 0 0 0 0 0 0 0 0 0 0 0 0 0 0 0 0 0 0 0 0 0 0 0 0 0 0 0 0 0 0 0 0 0 0 0 0 0 0 0 0 0 0 0 0 0 0 0 0 0 0 0 0 0 0 0 0 0 0 0 0 0 0 0 0 0 0 0 0 0 0 0 0 0 0 0 0 0 0 0 0 0 0 0 0 0 0 0 0 0 0 0 0 0 0 0 0 0 0 0 0 0 0 0 0 0 0 0 0 0 0 0 0 0 0 0 0 0 0 0 0 0 0 0 0 0 0 0 0 0 0 0 0 0 0 0 0 0 0 0 0 0 0 0 0 0 0 0 0 0 0 0 0 0 0 0 0 0 0 0 0 0 0 0 0 0 0 0 0 0 0 0 0 0 0 0 0 0 0 0 0 0 0 0 0 0 0 0 0 0 0 0 0 0 0 0 0 0 0 0 0 0 0 0 0 0 0 0 0 0 0 0 0 0 0 0 0 0 0 0 0 0 0 0 0 0 0 0 0 0 0 0 0 0 0 0 0 0 0 0 0 0 0 0 0 0 0 0 0 0 0 0 0 0 0 0 0 0 0 0 0 0 0 0 0 0 0 0 0 0 0 0 0 0 0 0 0 0 0 0 0 0 0 0 0 0 0 0 0 0 0 0 0 0 0 0 0 0 0 0 0 0 0 0 0 0 0 0 0 0 0 0 0 0 0 0 0 0 0 0 0 0 0 0 0 0 0 0 0 0 0 0 0 0 0 0 0 0 0 0 0 0 0 0 0 0 0 0 0 0 0 0 0 0 0 0 0 0 0 0 0 0 0 0 0 0 0 0 0 0 0 0 0 0 0 0 0 0 0 0 0 13.653 0 13.653v0c0 0 0 0 0 0s0 0 0 0 0 0 0 0 0 0 0 0 0 0 0 0v0c0 0 0-13.653 0-13.653s0 0 0 0 0 0 0 0 0 0 0 0 0 13.653 0 13.653 0 0 0 0c0 0 0 0 0 0s0 0 0 0 0-13.653 0-13.653v0c0 0 0 0 0 0s0 0 0 0 0 13.653 0 13.653v0c0 0 0 0 0 0s0 0 0 0 0 0 0 0v0c0 0 3.413-6.827 3.413-6.827s0-3.413 0-3.413c0 0 0 0 0 0s0 0 0 0 0 0 0 0 0 0 0 0 0 0 0 0 0 0 0 0 0 10.24 0 10.24v0c0 0-3.413 3.413-3.413 10.24l-34.133-13.653c0 6.827 0-3.413 0-13.653v-102.4h34.133v102.4c0 0 0 0 0 0s0 0 0 0 0 0 0 0 0 0 0 0 0 0 0 0 0 0 0 0 0 0 0 0zM648.533-29.867h136.533v-34.133h-136.533v34.133zM887.467 960v0c0 0 6.827 0 6.827 0s0 0 0 0 0 0 0 0 0 0 0 0 0 0 0 0 0 0 0 0v0c0 0 0 0 0 0s0 0 0 0 0 0 0 0 0 0 0 0 0 0 0 0v0c0 0 0 0 0 0s0 0 0 0 0 0 0 0 0 0 0 0 0 0 0 0 0 0 0 0 0 0 0 0 0 0 0 0 0 0 0 0 0 0 0 0 0 0 0 0 0 0 0 0 0 0 0 0 0 0 0 0 0 0 0 0 0 0 0 0 0 0 0 0 0 0 0 0 0 0 0 0 0 0 0 0 0 0 0 0 0 0 0 0 0 0 0 0 0 0 0 0 0 0 0 0 0 0 0 0 0 0 0 0 0 0 0 0 0 0 0 0 0 0 0 0c-3.413 0-3.413 0-6.827 0 3.413 0 3.413 0 0 0 3.413 0 3.413 0 0 0 3.413 0 3.413 0 0 0 3.413 0 3.413 0 0 0 3.413 0 3.413 0 0 0 3.413 0 3.413 0 0 0 3.413 0 3.413 0 0 0 3.413 0 3.413 0 0 0 3.413 0 3.413 0 0 0 3.413 0 3.413 0 0 0 3.413 0 3.413 0 0 0 3.413 0 3.413 0 0 0 3.413 0 3.413 0 0 0 3.413 0 3.413 0 0 0 3.413 0 3.413 0 0 0 3.413 0 3.413 0 0 0 3.413 0 3.413 0 0 0 3.413 0 3.413 0 0 0 3.413 0 0 0 0 0s0 0 0 0 0 0 0 0 0 0 0 0 0 0 0 0 0 0 0 0 0 0 0 0 0 0 0 0 0 0 0 0 0 0 0 0 0 0 0 0 0 0 0 0 0 0 0 0 0 0 0 0 0 0 0 0 0 0 0 0 0 0 0 0 0 0 0 0 0 0 0 0 0 0 0 0 0 0 0 0 0 0 0 0h-136.533v-34.133h136.533c10.24 0 20.48 0 27.307-3.413l6.827 34.133c-10.24 0 0 3.413-34.133 3.413zM512 823.467c-208.213 0-375.467-167.253-375.467-375.467s167.253-375.467 375.467-375.467 375.467 167.253 375.467 375.467-167.253 375.467-375.467 375.467zM512 106.667c-187.733 0-341.333 153.6-341.333 341.333s153.6 341.333 341.333 341.333 341.333-153.6 341.333-341.333c0-187.733-153.6-341.333-341.333-341.333z" />
<glyph unicode="&#xe90e;" glyph-name="rdc-innovative-technology" d="M993.28 519.68c-34.133 34.133-92.16 40.96-129.707 10.24l-160.427 191.147c30.72 23.893 47.787 61.44 47.787 102.4 0 75.093-61.44 136.533-136.533 136.533s-136.533-61.44-136.533-136.533c0-10.24 0-20.48 3.413-30.72l-324.267-146.773c-3.413 6.827-6.827 10.24-10.24 17.067-34.133 34.133-88.747 34.133-119.467 0s-34.133-88.747 0-119.467c17.067-20.48 40.96-27.307 64.853-27.307l92.16-392.533c-6.827-3.413-10.24-6.827-17.067-13.653-40.96-40.96-40.96-105.813 0-143.36 40.96-40.96 105.813-40.96 143.36 0 17.067 17.067 27.307 37.547 27.307 58.027l273.067 27.307c3.413-44.373 37.547-81.92 85.333-81.92s85.333 37.547 85.333 85.333c0 17.067-6.827 34.133-17.067 47.787l122.88 245.76c34.133-10.24 75.093-3.413 102.4 23.893 44.373 44.373 44.373 105.813 3.413 146.773zM839.68 506.027c-17.067-23.893-23.893-54.613-17.067-81.92l-252.587-54.613c-6.827 13.653-20.48 27.307-34.133 34.133l58.027 286.72c3.413-3.413 13.653-3.413 20.48-3.413 23.893 0 44.373 6.827 61.44 17.067l163.84-197.973zM494.933 379.733c27.307 0 51.2-23.893 51.2-51.2s-23.893-51.2-51.2-51.2-51.2 23.893-51.2 51.2 23.893 51.2 51.2 51.2zM614.4 925.867c58.027 0 102.4-44.373 102.4-102.4s-44.373-102.4-102.4-102.4-102.4 44.373-102.4 102.4c0 58.027 44.373 102.4 102.4 102.4zM491.52 762.027c13.653-27.307 37.547-51.2 64.853-61.44l-54.613-286.72c-3.413 0-3.413 0-6.827 0-27.307 0-54.613-13.653-68.267-34.133l-269.653 177.493c10.24 17.067 13.653 37.547 10.24 58.027l324.267 146.773zM47.787 564.053c-17.067 20.48-17.067 54.613 0 75.093s51.2 20.48 71.68 0 20.48-51.2 0-71.68c-17.067-20.48-51.2-20.48-71.68-3.413zM286.72-9.387c-27.307-27.307-68.267-27.307-95.573 0s-27.307 68.267 0 95.573c27.307 27.307 68.267 27.307 95.573 0 10.24-10.24 17.067-23.893 17.067-34.133v-6.827c3.413-20.48 0-40.96-17.067-54.613zM699.733 4.267c-27.307 0-51.2 23.893-51.2 51.2v0 6.827c3.413 23.893 23.893 44.373 51.2 44.373s51.2-23.893 51.2-51.2-23.893-51.2-51.2-51.2zM744.107 127.147c-13.653 10.24-27.307 13.653-44.373 13.653-37.547 0-68.267-23.893-78.507-54.613l-279.893-27.307c-3.413 20.48-13.653 37.547-27.307 51.2-27.307 27.307-61.44 34.133-95.573 27.307l-92.16 389.12c3.413 0 6.827 3.413 6.827 3.413l276.48-184.32c0-6.827-3.413-10.24-3.413-17.067 0-47.787 37.547-85.333 85.333-85.333s85.333 37.547 85.333 85.333c0 3.413 0 3.413 0 6.827 0 0 256 58.027 256 58.027s23.893-30.72 27.307-27.307c0 0-116.053-238.933-116.053-238.933zM969.387 400.213c-27.307-27.307-68.267-27.307-95.573 0s-27.307 68.267 0 95.573c27.307 27.307 68.267 27.307 95.573 0s27.307-68.267 0-95.573z" />
<glyph unicode="&#xe90f;" glyph-name="rdc-inspections-contingencies" d="M819.2 960h-614.4c0-112.64-92.16-204.8-204.8-204.8v-337.92c0-167.253 102.4-317.44 256-378.88l256-102.4 256 102.4c153.6 61.44 256 211.627 256 378.88v337.92c-112.64 0-204.8 92.16-204.8 204.8zM989.867 417.28c0-153.6-92.16-290.133-235.52-348.16l-242.347-95.573-242.347 95.573c-143.36 58.027-235.52 194.56-235.52 348.16v307.2c105.813 13.653 187.733 95.573 201.387 201.387h549.547c13.653-105.813 98.987-187.733 201.387-201.387v-307.2zM204.8 243.2h546.133v341.333h-546.133v-341.333zM238.933 550.4h477.867v-273.067h-477.867v273.067zM273.067 618.667h34.133v34.133h477.867v-307.2h34.133v341.333h-546.133zM477.867 516.267c-58.027 0-102.4-44.373-102.4-102.4s44.373-102.4 102.4-102.4 102.4 44.373 102.4 102.4-44.373 102.4-102.4 102.4zM477.867 345.6c-37.547 0-68.267 30.72-68.267 68.267s30.72 68.267 68.267 68.267 68.267-30.72 68.267-68.267-30.72-68.267-68.267-68.267zM273.067 516.267h68.267v-34.133h-68.267v34.133zM614.4 345.6h68.267v-34.133h-68.267v34.133z" />
<glyph unicode="&#xe910;" glyph-name="rdc-leases-breaches" d="M368.64 72.533l177.493 177.493c20.48-6.827 40.96-10.24 61.44-10.24 150.187 0 225.28 187.733 119.467 290.133-64.853 64.853-174.080 64.853-242.347 0-47.787-47.787-61.44-122.88-37.547-184.32l-174.080-177.493c0-37.547 0-58.027 0-95.573 23.893 0 85.333 0 95.573 0zM307.2 106.667v47.787c0 0 184.32 184.32 184.32 184.32-23.893 58.027-23.893 119.467 23.893 167.253 51.2 51.2 139.947 51.2 194.56 0 51.2-51.2 51.2-139.947 0-194.56-47.787-47.787-109.227-44.373-167.253-23.893l-187.733-180.907c0 0-47.787 0-47.787 0zM682.667 448c0-18.851-15.282-34.133-34.133-34.133s-34.133 15.282-34.133 34.133c0 18.851 15.282 34.133 34.133 34.133s34.133-15.282 34.133-34.133zM955.733 823.467h-477.867l-58.027 116.053c-6.827 13.653-17.067 20.48-30.72 20.48h-320.853c-37.547 0-68.267-30.72-68.267-68.267v-887.467c0-37.547 30.72-68.267 68.267-68.267h887.467c37.547 0 68.267 30.72 68.267 68.267v750.933c0 37.547-30.72 68.267-68.267 68.267zM989.867 4.267c0-20.48-13.653-34.133-34.133-34.133h-887.467c-20.48 0-34.133 13.653-34.133 34.133v682.667h955.733v-682.667zM34.133 721.067v170.667c0 20.48 13.653 34.133 34.133 34.133h320.853l68.267-136.533h498.347c20.48 0 34.133-13.653 34.133-34.133v-34.133h-955.733z" />
<glyph unicode="&#xe911;" glyph-name="rdc-legal-compliance" d="M307.2 789.333h409.6c20.48 0 34.133 13.653 34.133 34.133v102.4c0 20.48-13.653 34.133-34.133 34.133h-409.6c-20.48 0-34.133-13.653-34.133-34.133v-102.4c0-20.48 13.653-34.133 34.133-34.133zM307.2 925.867h409.6v-102.4h-409.6v102.4zM887.467 891.733h-102.4v-34.133h34.133v-785.067h-614.4v785.067h34.133v34.133h-102.4c-37.547 0-68.267-30.72-68.267-68.267v-819.2c0-37.547 30.72-68.267 68.267-68.267h750.933c37.547 0 68.267 30.72 68.267 68.267v819.2c0 37.547-30.72 68.267-68.267 68.267zM921.6 4.267c0-20.48-13.653-34.133-34.133-34.133h-750.933c-20.48 0-34.133 13.653-34.133 34.133v819.2c0 20.48 13.653 34.133 34.133 34.133h34.133v-785.067c0-20.48 13.653-34.133 34.133-34.133h614.4c20.48 0 34.133 13.653 34.133 34.133v785.067h34.133c20.48 0 34.133-13.653 34.133-34.133v-819.2zM477.867 652.8h273.067v-34.133h-273.067v34.133zM341.333 584.533c37.547 0 68.267 30.72 68.267 68.267s-30.72 68.267-68.267 68.267-68.267-30.72-68.267-68.267c0-37.547 30.72-68.267 68.267-68.267zM341.333 686.933c20.48 0 34.133-13.653 34.133-34.133s-13.653-34.133-34.133-34.133-34.133 13.653-34.133 34.133 13.653 34.133 34.133 34.133zM477.867 448h273.067v-34.133h-273.067v34.133zM341.333 379.733c37.547 0 68.267 30.72 68.267 68.267s-30.72 68.267-68.267 68.267-68.267-30.72-68.267-68.267c0-37.547 30.72-68.267 68.267-68.267zM341.333 482.133c20.48 0 34.133-13.653 34.133-34.133s-13.653-34.133-34.133-34.133-34.133 13.653-34.133 34.133 13.653 34.133 34.133 34.133zM477.867 243.2h273.067v-34.133h-273.067v34.133zM341.333 174.933c37.547 0 68.267 30.72 68.267 68.267s-30.72 68.267-68.267 68.267-68.267-30.72-68.267-68.267c0-37.547 30.72-68.267 68.267-68.267zM341.333 277.333c20.48 0 34.133-13.653 34.133-34.133s-13.653-34.133-34.133-34.133-34.133 13.653-34.133 34.133 13.653 34.133 34.133 34.133z" />
<glyph unicode="&#xe912;" glyph-name="rdc-marketing-showing" d="M955.733 857.6h-887.467c-37.547 0-68.267-30.72-68.267-68.267v-648.533c0-37.547 30.72-68.267 68.267-68.267h887.467c37.547 0 68.267 30.72 68.267 68.267v648.533c0 37.547-30.72 68.267-68.267 68.267zM989.867 140.8c0-20.48-13.653-34.133-34.133-34.133h-887.467c-20.48 0-34.133 13.653-34.133 34.133v648.533c0 20.48 13.653 34.133 34.133 34.133h887.467c20.48 0 34.133-13.653 34.133-34.133v-648.533zM443.733 960h136.533v-34.133h-136.533v34.133zM307.2-29.867h409.6v-34.133h-409.6v34.133zM819.2 550.4h34.133v136.533h-136.533v-34.133h78.507l-283.307-283.307-136.533 136.533-218.453-215.040 27.307-27.307 191.147 194.56 136.533-136.533 307.2 307.2zM136.533 482.133h68.267v-34.133h-68.267v34.133zM477.867 482.133h68.267v-34.133h-68.267v34.133zM716.8 482.133h34.133v-34.133h-34.133v34.133zM819.2 482.133h68.267v-34.133h-68.267v34.133z" />
<glyph unicode="&#xe913;" glyph-name="rdc-negotiation-closing" d="M887.467 960h-614.4c-75.093 0-136.533-61.44-136.533-136.533v-477.867c0-75.093 61.44-136.533 136.533-136.533h443.733l170.667-170.667v170.667c75.093 0 136.533 61.44 136.533 136.533v477.867c0 75.093-61.44 136.533-136.533 136.533zM989.867 345.6c0-58.027-44.373-102.4-102.4-102.4h-34.133v-122.88l-122.88 122.88h-457.387c-58.027 0-102.4 44.373-102.4 102.4v477.867c0 58.027 44.373 102.4 102.4 102.4h614.4c58.027 0 102.4-44.373 102.4-102.4v-477.867zM170.667 17.92v122.88h-102.4c-20.48 0-34.133 13.653-34.133 34.133v614.4c0 20.48 13.653 34.133 34.133 34.133v34.133c-37.547 0-68.267-30.72-68.267-68.267v-614.4c0-37.547 30.72-68.267 68.267-68.267h68.267v-170.667l170.667 170.667h409.6v34.133h-423.253l-122.88-122.88zM580.267 823.467c-133.12 0-238.933-105.813-238.933-238.933s105.813-238.933 238.933-238.933c133.12 0 238.933 105.813 238.933 238.933s-105.813 238.933-238.933 238.933zM580.267 379.733c-112.64 0-204.8 92.16-204.8 204.8s92.16 204.8 204.8 204.8 204.8-92.16 204.8-204.8-92.16-204.8-204.8-204.8zM669.013 700.587l-88.747-92.16-88.747 92.16-27.307-27.307 92.16-88.747-92.16-88.747 27.307-27.307 88.747 92.16 88.747-92.16 27.307 27.307-92.16 88.747 92.16 88.747z" />
<glyph unicode="&#xe914;" glyph-name="rdc-offer-negotation" d="M887.467 960h-750.933c-75.093 0-136.533-61.44-136.533-136.533v-580.267c0-75.093 61.44-136.533 136.533-136.533h68.267v-170.667l197.973 170.667h484.693c75.093 0 136.533 61.44 136.533 136.533v580.267c0 75.093-61.44 136.533-136.533 136.533zM989.867 243.2c0-58.027-44.373-102.4-102.4-102.4h-498.347l-10.24-6.827-139.947-122.88v129.707h-102.4c-58.027 0-102.4 44.373-102.4 102.4v580.267c0 58.027 44.373 102.4 102.4 102.4h750.933c58.027 0 102.4-44.373 102.4-102.4v-580.267zM716.8 448c0 0 34.133 0 34.133 0 27.307 0 44.373 34.133 27.307 58.027 0 0-238.933 273.067-238.933 273.067-13.653 13.653-37.547 13.653-51.2 0 0 0-238.933-273.067-238.933-273.067-20.48-23.893-6.827-58.027 23.893-58.027h34.133v-136.533h-68.267v-34.133h546.133v34.133h-68.267v136.533zM546.133 311.467h-68.267v136.533h68.267v-136.533zM682.667 311.467h-102.4v170.667h-136.533v-170.667h-102.4v170.667h-68.267l238.933 273.067 238.933-273.067h-68.267v-170.667zM512 652.8c-37.547 0-68.267-30.72-68.267-68.267v-68.267h136.533v68.267c0 37.547-30.72 68.267-68.267 68.267zM546.133 550.4h-68.267v34.133c0 20.48 13.653 34.133 34.133 34.133s34.133-13.653 34.133-34.133v-34.133z" />
<glyph unicode="&#xe915;" glyph-name="rdc-professional-service" d="M750.933 516.267c95.573 0 170.667 75.093 170.667 170.667s-75.093 170.667-170.667 170.667-170.667-75.093-170.667-170.667 75.093-170.667 170.667-170.667zM750.933 823.467c75.093 0 136.533-61.44 136.533-136.533s-61.44-136.533-136.533-136.533-136.533 61.44-136.533 136.533c0 75.093 61.44 136.533 136.533 136.533zM477.867 243.2l-136.533-170.667-136.533 170.667c-112.64 0-204.8-92.16-204.8-204.8v-68.267c0-20.48 13.653-34.133 34.133-34.133h614.4c20.48 0 34.133 13.653 34.133 34.133v68.267c0 112.64-92.16 204.8-204.8 204.8zM648.533-29.867h-614.4v68.267c0 88.747 68.267 160.427 153.6 170.667l153.6-191.147 153.6 191.147c85.333-6.827 153.6-81.92 153.6-170.667v-68.267zM1024 686.933c0 150.187-122.88 273.067-273.067 273.067-139.947 0-256-105.813-269.653-242.347 10.24-6.827 23.893-13.653 34.133-23.893 0 129.707 105.813 232.107 235.52 232.107 133.12 0 238.933-105.813 238.933-238.933 0-129.707-109.227-238.933-238.933-238.933-47.787 0-98.987 17.067-136.533 44.373 0-3.413 0-283.307 0-283.307l136.533 102.4 136.533-102.4v242.347c81.92 47.787 136.533 133.12 136.533 235.52zM853.333 277.333l-102.4 75.093-102.4-75.093v157.013c30.72-13.653 64.853-20.48 102.4-20.48s71.68 6.827 102.4 20.48v-157.013zM341.333 243.2c112.64 0 204.8 139.947 204.8 273.067s-92.16 204.8-204.8 204.8-204.8-71.68-204.8-204.8c0-133.12 92.16-273.067 204.8-273.067zM341.333 277.333c-81.92 0-163.84 105.813-170.667 221.867 6.827 0 30.72-3.413 64.853-3.413 64.853 0 160.427 10.24 215.040 58.027 17.067 17.067 30.72 34.133 37.547 58.027 13.653-27.307 23.893-58.027 23.893-95.573 0-119.467-85.333-238.933-170.667-238.933zM341.333 686.933c47.787 0 88.747-17.067 119.467-40.96-3.413-27.307-10.24-47.787-30.72-64.853-75.093-68.267-256-47.787-256-47.787l-3.413-17.067c0 102.4 68.267 170.667 170.667 170.667z" />
<glyph unicode="&#xe916;" glyph-name="rdc-professionals" d="M512 448c92.16 0 170.667 143.36 170.667 266.24s-78.507 177.493-170.667 177.493-170.667-54.613-170.667-177.493c0-122.88 78.507-266.24 170.667-266.24zM648.533 714.24c0-109.227-71.68-232.107-136.533-232.107-61.44 0-126.293 102.4-136.533 204.8h68.267c81.92 0 150.187 58.027 167.253 133.12 20.48-20.48 37.547-54.613 37.547-105.813zM512 857.6c13.653 0 40.96-3.413 68.267-13.653-6.827-68.267-64.853-122.88-136.533-122.88h-68.267c3.413 126.293 105.813 136.533 136.533 136.533zM512 243.2l-136.533 170.667c-112.64 0-204.8-92.16-204.8-204.8v-102.4c0-20.48 13.653-34.133 34.133-34.133h614.4c20.48 0 34.133 13.653 34.133 34.133v102.4c0 112.64-92.16 204.8-204.8 204.8l-136.533-170.667zM819.2 209.067v-102.4h-614.4v102.4c0 88.747 68.267 160.427 153.6 170.667l126.293-157.013 27.307-34.133 27.307 34.133 126.293 157.013c85.333-10.24 153.6-81.92 153.6-170.667zM204.8 454.827c54.613 0 102.4 85.333 102.4 160.427 0 71.68-47.787 105.813-102.4 105.813s-102.4-34.133-102.4-105.813c0-71.68 47.787-160.427 102.4-160.427zM204.8 686.933c23.893 0 68.267-10.24 68.267-71.68s-40.96-126.293-68.267-126.293-68.267 64.853-68.267 126.293c0 61.44 44.373 71.68 68.267 71.68zM819.2 454.827c54.613 0 102.4 85.333 102.4 160.427 0 71.68-47.787 105.813-102.4 105.813s-102.4-34.133-102.4-105.813c0-71.68 47.787-160.427 102.4-160.427zM819.2 686.933c23.893 0 68.267-10.24 68.267-71.68s-40.96-126.293-68.267-126.293-68.267 64.853-68.267 126.293c0 61.44 44.373 71.68 68.267 71.68zM0-29.867h1024v-34.133h-1024v34.133zM34.133 174.933h68.267v34.133h-68.267v34.133c0 75.093 61.44 136.533 136.533 136.533h34.133v34.133h-34.133c-95.573 0-170.667-75.093-170.667-170.667v-34.133c0-20.48 13.653-34.133 34.133-34.133zM853.333 413.867h-34.133v-34.133h34.133c75.093 0 136.533-61.44 136.533-136.533v-34.133h-68.267v-34.133h68.267c20.48 0 34.133 13.653 34.133 34.133v34.133c0 95.573-75.093 170.667-170.667 170.667z" />
<glyph unicode="&#xe917;" glyph-name="rdc-prompt-maintenance" d="M788.48 553.813c64.853-10.24 129.707 10.24 177.493 58.027 61.44 61.44 75.093 153.6 40.96 228.693l-143.36-143.36-78.507 23.893-23.893 78.507 143.36 143.36c-27.307 10.24-58.027 17.067-85.333 17.067-51.2 0-102.4-20.48-143.36-58.027-47.787-47.787-68.267-116.053-58.027-177.493l-122.88-122.88-85.333 85.333 170.667 170.667-68.267 68.267c-75.093 0-95.573 0-170.667 0l-88.747-88.747-85.333 85.333-143.36-143.36 85.333-85.333-102.4-102.4 153.6-153.6 102.4 102.4 85.333-85.333-109.227-112.64c-13.653 3.413-23.893 3.413-34.133 3.413-51.2 0-105.813-20.48-143.36-58.027-61.44-61.44-75.093-153.6-40.96-228.693l143.36 143.36 75.093-27.307 23.893-78.507-143.36-143.36c27.307-10.24 58.027-17.067 85.333-17.067 51.2 0 102.4 20.48 143.36 58.027 47.787 47.787 68.267 116.053 58.027 177.493l112.64 112.64 348.16-348.16 143.36 143.36-348.16 351.573c0 0 126.293 122.88 126.293 122.88zM641.707 697.173l13.653 13.653-3.413 17.067c-10.24 54.613 6.827 109.227 47.787 146.773 37.547 37.547 88.747 54.613 139.947 47.787l-116.053-116.053 6.827-17.067 23.893-78.507 6.827-17.067 17.067-6.827 75.093-20.48 20.48-6.827 116.053 116.053c6.827-51.2-10.24-102.4-47.787-139.947-34.133-34.133-75.093-51.2-122.88-51.2-10.24 0-17.067 0-27.307 3.413l-17.067 3.413-136.533-136.533-119.467 119.467 122.88 122.88zM71.68 779.093l95.573 95.573 61.44-61.44-95.573-95.573-61.44 61.44zM160.427 485.547l-105.813 105.813 40.96 40.96 105.813-105.813-40.96-40.96zM122.88 656.213l232.107 235.52h143.36l34.133-34.133-303.787-303.787-105.813 102.4zM368.64 185.173c10.24-61.44 0-119.467-44.373-163.84-37.547-37.547-88.747-54.613-139.947-47.787l116.053 116.053-34.133 116.053-116.053 34.133-116.053-116.053c-6.827 51.2 10.24 102.4 47.787 139.947 44.373 44.373 105.813 54.613 163.84 44.373l122.88 122.88 119.467-119.467c6.827-3.413-119.467-126.293-119.467-126.293zM866.987-16.213l-580.267 580.267 95.573 95.573 580.267-580.267-95.573-95.573z" />
<glyph unicode="&#xe918;" glyph-name="rdc-property-management" d="M1017.173 403.627c0 0-71.68 85.333-163.84 184.32v235.52h-136.533v-78.507c-95.573 109.227-177.493 204.8-177.493 204.8-13.653 13.653-37.547 17.067-51.2 0 0 0-474.453-542.72-477.867-546.133-20.48-23.893-3.413-58.027 23.893-58.027h68.267v-375.467h-68.267v-34.133h955.733v34.133h-68.267v375.467c0 0 68.267 0 68.267 0 27.307 0 44.373 34.133 27.307 58.027zM750.933 789.333h68.267v-163.84c-23.893 27.307-44.373 51.2-68.267 78.507v85.333zM887.467 379.733v-409.6h-750.933v409.6h-102.4l477.867 546.133 477.867-546.133h-102.4zM273.067 550.4v-477.867c0-20.48 13.653-34.133 34.133-34.133h307.2c54.613 54.613 81.92 81.92 136.533 136.533v375.467c0 20.48-13.653 34.133-34.133 34.133h-409.6c-20.48 0-34.133-13.653-34.133-34.133zM614.4 86.187v88.747h88.747l-88.747-88.747zM716.8 209.067h-102.4c-20.48 0-34.133-13.653-34.133-34.133v-102.4h-273.067v477.867h409.6v-341.333zM477.867 482.133h170.667v-34.133h-170.667v34.133zM375.467 482.133h34.133v-34.133h-34.133v34.133zM477.867 379.733h170.667v-34.133h-170.667v34.133zM375.467 379.733h34.133v-34.133h-34.133v34.133zM477.867 277.333h170.667v-34.133h-170.667v34.133zM375.467 277.333h34.133v-34.133h-34.133v34.133z" />
<glyph unicode="&#xe919;" glyph-name="rdc-proven" d="M853.333 448c0 187.733-153.6 341.333-341.333 341.333s-341.333-153.6-341.333-341.333c0-187.733 153.6-341.333 341.333-341.333s341.333 153.6 341.333 341.333zM512 140.8c-170.667 0-307.2 136.533-307.2 307.2s136.533 307.2 307.2 307.2 307.2-136.533 307.2-307.2c0-170.667-136.533-307.2-307.2-307.2zM34.133 857.6c0 37.547 30.72 68.267 68.267 68.267h170.667v34.133h-170.667c-58.027 0-102.4-44.373-102.4-102.4v-170.667h34.133v170.667zM921.6 960h-170.667v-34.133h170.667c37.547 0 68.267-30.72 68.267-68.267v-170.667h34.133v170.667c0 58.027-44.373 102.4-102.4 102.4zM989.867 38.4c0-37.547-30.72-68.267-68.267-68.267h-170.667v-34.133h170.667c58.027 0 102.4 44.373 102.4 102.4v170.667h-34.133v-170.667zM34.133 38.4v170.667h-34.133v-170.667c0-58.027 44.373-102.4 102.4-102.4h170.667v34.133h-170.667c-37.547 0-68.267 30.72-68.267 68.267zM477.867 369.493l-88.747 92.16-27.307-27.307 116.053-112.64 218.453 215.040-27.307 27.307z" />
<glyph unicode="&#xe91a;" glyph-name="rdc-rent-deposits" d="M955.733 823.467h-546.133c-37.547 0-68.267-30.72-68.267-68.267v-648.533h-102.4v170.667c0 20.48-13.653 34.133-34.133 34.133h-170.667v614.4h682.667v-34.133h34.133v34.133c0 20.48-13.653 34.133-34.133 34.133h-682.667c-20.48 0-34.133-13.653-34.133-34.133v-648.533c78.507-78.507 126.293-126.293 204.8-204.8h136.533v-68.267c0-37.547 30.72-68.267 68.267-68.267h546.133c37.547 0 68.267 30.72 68.267 68.267v750.933c0 37.547-30.72 68.267-68.267 68.267zM126.293 198.827l-78.507 78.507h157.013v-157.013l-78.507 78.507zM989.867 4.267c0-20.48-13.653-34.133-34.133-34.133h-546.133c-20.48 0-34.133 13.653-34.133 34.133v750.933c0 20.48 13.653 34.133 34.133 34.133h546.133c20.48 0 34.133-13.653 34.133-34.133v-750.933zM887.467 721.067h-409.6c-20.48 0-34.133-13.653-34.133-34.133v-136.533c0-20.48 13.653-34.133 34.133-34.133h409.6c20.48 0 34.133 13.653 34.133 34.133v136.533c0 20.48-13.653 34.133-34.133 34.133zM887.467 550.4h-409.6v136.533h409.6v-136.533zM477.867 413.867h68.267v-68.267h-68.267v68.267zM648.533 413.867h68.267v-68.267h-68.267v68.267zM819.2 413.867h68.267v-68.267h-68.267v68.267zM477.867 277.333h68.267v-68.267h-68.267v68.267zM648.533 277.333h68.267v-68.267h-68.267v68.267zM819.2 277.333h68.267v-68.267h-68.267v68.267zM477.867 140.8h68.267v-68.267h-68.267v68.267zM648.533 140.8h68.267v-68.267h-68.267v68.267zM819.2 140.8h68.267v-68.267h-68.267v68.267zM136.533 755.2h136.533v-34.133h-136.533v34.133zM136.533 618.667h136.533v-34.133h-136.533v34.133zM136.533 482.133h136.533v-34.133h-136.533v34.133z" />
<glyph unicode="&#xe91b;" glyph-name="rdc-representing-you" d="M785.067 311.467h34.133c30.72 0 44.373 34.133 27.307 58.027l-61.44 68.267v180.907h-102.4v-64.853l-75.093 88.747c-13.653 13.653-37.547 13.653-51.2 0 0 0-238.933-273.067-238.933-273.067-20.48-23.893-6.827-58.027 23.893-58.027h34.133v-136.533h-68.267v-34.133h546.133v34.133h-68.267v136.533zM716.8 584.533h34.133v-109.227l-34.133 40.96v68.267zM546.133 174.933v170.667h68.267v-170.667h-68.267zM648.533 174.933v204.8h-136.533v-204.8h-102.4v170.667h-68.267l238.933 273.067 238.933-273.067h-68.267v-170.667h-102.4zM955.733 755.2h-750.933c-37.547 0-68.267-30.72-68.267-68.267v-614.4c0-37.547 30.72-68.267 68.267-68.267h750.933c37.547 0 68.267 30.72 68.267 68.267v614.4c0 37.547-30.72 68.267-68.267 68.267zM989.867 72.533c0-20.48-13.653-34.133-34.133-34.133h-750.933c-20.48 0-34.133 13.653-34.133 34.133v614.4c0 20.48 13.653 34.133 34.133 34.133h750.933c20.48 0 34.133-13.653 34.133-34.133v-614.4zM68.267 857.6h750.933c20.48 0 34.133-13.653 34.133-34.133h34.133c0 37.547-30.72 68.267-68.267 68.267h-750.933c-37.547 0-68.267-30.72-68.267-68.267v-614.4c0-37.547 30.72-68.267 68.267-68.267v34.133c-20.48 0-34.133 13.653-34.133 34.133v614.4c0 20.48 13.653 34.133 34.133 34.133z" />
<glyph unicode="&#xe91c;" glyph-name="rdc-right-price-strategy" d="M47.787 707.413l88.747 92.16 88.747-92.16 27.307 27.307-92.16 88.747 92.16 88.747-27.307 27.307-88.747-92.16-88.747 92.16-27.307-27.307 92.16-88.747-92.16-88.747zM976.213 188.587l-88.747-92.16-88.747 92.16-27.307-27.307 92.16-88.747-92.16-88.747 27.307-27.307 88.747 92.16 88.747-92.16 27.307 27.307-92.16 88.747 92.16 88.747zM1003.52 912.213l-27.307 27.307-54.613-58.027-54.613 58.027-27.307-27.307 58.027-54.613-58.027-54.613 27.307-27.307 54.613 58.027 54.613-58.027 27.307 27.307-58.027 54.613zM887.467 499.2c0 177.493-146.773 324.267-324.267 324.267s-324.267-146.773-324.267-324.267 146.773-324.267 324.267-324.267 324.267 146.773 324.267 324.267zM563.2 209.067c-160.427 0-290.133 129.707-290.133 290.133s129.707 290.133 290.133 290.133c160.427 0 290.133-129.707 290.133-290.133s-129.707-290.133-290.133-290.133zM648.533 584.533h34.133c0 58.027-44.373 102.4-102.4 102.4v34.133h-34.133v-34.133c-58.027 0-102.4-44.373-102.4-102.4s44.373-102.4 102.4-102.4v-136.533c-37.547 0-68.267 30.72-68.267 68.267h-34.133c0-58.027 44.373-102.4 102.4-102.4v-34.133h34.133v34.133c58.027 0 102.4 44.373 102.4 102.4s-44.373 102.4-102.4 102.4v136.533c37.547 0 68.267-30.72 68.267-68.267zM546.133 516.267c-37.547 0-68.267 30.72-68.267 68.267s30.72 68.267 68.267 68.267v-136.533zM648.533 413.867c0-37.547-30.72-68.267-68.267-68.267v136.533c37.547 0 68.267-30.72 68.267-68.267zM68.267 277.333h109.227c-153.6-116.053-160.427-331.093-160.427-341.333h34.133c0 3.413 3.413 215.040 153.6 320.853v-116.053h34.133v170.667h-170.667v-34.133z" />
<glyph unicode="&#xe91d;" glyph-name="rdc-right-way-to-rent" d="M542.72 751.787c-44.373 0-88.747-17.067-119.467-51.2-47.787-47.787-61.44-122.88-37.547-184.32l-180.907-177.493c0-37.547 0-58.027 0-95.573 34.133 0 85.333 0 95.573 0 0 0 177.493 177.493 177.493 177.493 61.44-23.893 136.533-10.24 184.32 37.547 68.267 68.267 68.267 174.080 0 242.347-30.72 34.133-75.093 51.2-119.467 51.2zM638.293 485.547c-47.787-47.787-109.227-44.373-167.253-23.893l-184.32-184.32c0 0-47.787 0-47.787 0v47.787l170.667 170.667c0 0 17.067 17.067 17.067 17.067-23.893 58.027-23.893 119.467 23.893 167.253 51.2 51.2 139.947 51.2 194.56 0 47.787-54.613 47.787-143.36-6.827-194.56zM614.4 618.667c0-18.851-15.282-34.133-34.133-34.133s-34.133 15.282-34.133 34.133c0 18.851 15.282 34.133 34.133 34.133s34.133-15.282 34.133-34.133zM1024 499.2l-170.667 392.533h-819.2c-20.48 0-34.133-13.653-34.133-34.133v-716.8c0-20.48 13.653-34.133 34.133-34.133h375.467v-170.667h204.8v170.667h238.933l170.667 392.533zM580.267-29.867h-136.533v136.533h136.533v-136.533zM614.4 140.8h-580.267v716.8h795.307l157.013-358.4-157.013-358.4h-215.040zM409.6 960h204.8v-34.133h-204.8v34.133z" />
<glyph unicode="&#xe91e;" glyph-name="rdc-screening-selection" d="M631.467 516.267c-122.88 0-221.867-98.987-221.867-221.867s98.987-221.867 221.867-221.867 221.867 98.987 221.867 221.867-98.987 221.867-221.867 221.867zM631.467 106.667c-102.4 0-187.733 85.333-187.733 187.733s85.333 187.733 187.733 187.733c61.44 0 119.467-30.72 153.6-78.507l-170.667-170.667-88.747 88.747-23.893-23.893 116.053-116.053 187.733 187.733c10.24-23.893 17.067-51.2 17.067-78.507-3.413-98.987-88.747-184.32-191.147-184.32zM955.733 652.8h-648.533c-37.547 0-68.267-30.72-68.267-68.267v-477.867h-170.667c-20.48 0-34.133 13.653-34.133 34.133v580.267c0 20.48 13.653 34.133 34.133 34.133h648.533c20.48 0 34.133-13.653 34.133-34.133v-34.133h34.133v34.133c0 37.547-30.72 68.267-68.267 68.267h-648.533c-37.547 0-68.267-30.72-68.267-68.267v-580.267c0-37.547 30.72-68.267 68.267-68.267h170.667v-68.267c0-37.547 30.72-68.267 68.267-68.267h648.533c37.547 0 68.267 30.72 68.267 68.267v580.267c0 37.547-30.72 68.267-68.267 68.267zM989.867 4.267c0-20.48-13.653-34.133-34.133-34.133h-648.533c-20.48 0-34.133 13.653-34.133 34.133v580.267c0 20.48 13.653 34.133 34.133 34.133h648.533c20.48 0 34.133-13.653 34.133-34.133v-580.267zM170.667 891.733c0 20.48 13.653 34.133 34.133 34.133h648.533c20.48 0 34.133-13.653 34.133-34.133v-170.667h34.133v170.667c0 37.547-30.72 68.267-68.267 68.267h-648.533c-37.547 0-68.267-30.72-68.267-68.267v-34.133h34.133v34.133z" />
<glyph unicode="&#xe91f;" glyph-name="rdc-search-recommendations" d="M443.733 840.533c10.24 0 17.067 6.827 17.067 17.067s-6.827 17.067-17.067 17.067c-112.64 0-218.453-51.2-286.72-143.36-6.827-6.827-3.413-17.067 3.413-23.893 3.413-3.413 6.827-3.413 10.24-3.413 6.827 0 10.24 3.413 13.653 6.827 61.44 81.92 157.013 129.707 259.413 129.707zM1003.52 58.88l-201.387 201.387c51.2 71.68 81.92 160.427 81.92 259.413 0 245.76-197.973 443.733-443.733 443.733s-440.32-201.387-440.32-447.147 197.973-443.733 443.733-443.733c95.573 0 184.32 30.72 259.413 81.92 0 0 201.387-201.387 201.387-201.387 27.307-27.307 75.093-27.307 102.4 0 23.893 30.72 23.893 78.507-3.413 105.813zM34.133 516.267c0 225.28 184.32 409.6 409.6 409.6s409.6-184.32 409.6-409.6-184.32-409.6-409.6-409.6-409.6 184.32-409.6 409.6zM979.627-19.627c-13.653-13.653-40.96-13.653-54.613 0l-194.56 194.56 54.613 54.613 194.56-194.56c13.653-17.067 13.653-40.96 0-54.613zM471.040 744.96c-6.827 6.827-17.067 10.24-27.307 10.24s-20.48-3.413-27.307-10.24l-204.8-238.933c-10.24-10.24-10.24-23.893-3.413-37.547s17.067-20.48 30.72-20.48h34.133v-136.533c0-20.48 13.653-34.133 34.133-34.133h68.267c20.48 0 34.133 13.653 34.133 34.133v136.533h68.267v-136.533c0-20.48 13.653-34.133 34.133-34.133h68.267c20.48 0 34.133 13.653 34.133 34.133v136.533h34.133c13.653 0 23.893 6.827 30.72 20.48s3.413 27.307-3.413 37.547l-204.8 238.933zM580.267 482.133v-170.667h-68.267v170.667h-136.533v-170.667h-68.267v170.667h-68.267l204.8 238.933 204.8-238.933h-68.267z" />
<glyph unicode="&#xe920;" glyph-name="rdc-seasoned-modern" d="M1000.107 830.293l-477.867 126.293c-3.413 0-6.827 0-10.24 0s-6.827 0-10.24 0l-477.867-126.293c-13.653-3.413-23.893-17.067-23.893-34.133v-699.733c0-17.067 10.24-27.307 23.893-34.133l477.867-126.293c3.413 0 6.827 0 10.24 0s6.827 0 10.24 0l477.867 126.293c13.653 3.413 23.893 17.067 23.893 34.133v699.733c0 17.067-10.24 30.72-23.893 34.133zM34.133 772.267l443.733-133.12v-658.773l-443.733 119.467v672.427zM512-29.867v682.667c0 6.827-3.413 13.653-13.653 17.067l-447.147 133.12 460.8 122.88 460.8-122.88-296.96-98.987c-10.24-3.413-13.653-13.653-10.24-20.48s10.24-10.24 17.067-10.24c3.413 0 3.413 0 6.827 0l300.373 98.987v-672.427l-477.867-129.707zM921.6 174.933v409.6l-341.333-512 341.333 102.4zM887.467 198.827l-225.28-68.267 225.28 344.747v-276.48zM747.52 533.333l47.787 78.507-88.747-30.72-102.4-34.133-23.893-6.827v-283.307l64.853 105.813 102.4 170.667zM614.4 516.267l102.4 34.133-102.4-170.667v136.533zM372.053 362.667c0 0 3.413 0 3.413 0 6.827 0 13.653 3.413 17.067 13.653s-3.413 17.067-10.24 20.48l-238.933 68.267c0 0-3.413 0-3.413 0v102.4l235.52-68.267c0 0 3.413 0 3.413 0 6.827 0 13.653 3.413 17.067 13.653s-3.413 17.067-10.24 20.48l-238.933 68.267c0 0-3.413 0-3.413 0v17.067c0 10.24-6.827 17.067-17.067 17.067s-23.893-6.827-23.893-17.067v-457.387l269.653-71.68c0 0 3.413 0 3.413 0 6.827 0 13.653 3.413 17.067 13.653s-3.413 17.067-13.653 20.48l-242.347 64.853v105.813l235.52-68.267c0 0 3.413 0 3.413 0 6.827 0 13.653 3.413 17.067 13.653s-3.413 17.067-10.24 20.48l-238.933 68.267c0 0-3.413 0-3.413 0v102.4l232.107-68.267z" />
<glyph unicode="&#xe921;" glyph-name="rdc-smart-search" d="M593.92 704c-102.4 0-187.733-85.333-187.733-187.733 0-10.24 6.827-17.067 17.067-17.067s17.067 6.827 17.067 17.067c0 85.333 68.267 153.6 153.6 153.6 10.24 0 17.067 6.827 17.067 17.067s-6.827 17.067-17.067 17.067zM1003.52 188.587l-180.907 180.907c68.267 105.813 54.613 249.173-37.547 341.333-51.2 51.2-122.88 78.507-191.147 78.507s-139.947-27.307-194.56-78.507c-105.813-105.813-105.813-279.893 0-385.707 54.613-54.613 122.88-78.507 194.56-78.507 44.373 0 88.747 10.24 129.707 34.133l61.44-61.44v-249.173h-546.133v170.667c0 20.48-13.653 34.133-34.133 34.133h-170.667v750.933h750.933v-170.667h34.133v170.667c0 20.48-13.653 34.133-34.133 34.133h-750.933c-20.48 0-34.133-13.653-34.133-34.133v-785.067c78.507-78.507 126.293-126.293 204.8-204.8h580.267c20.48 0 34.133 13.653 34.133 34.133v211.627c0 0 88.747-88.747 88.747-88.747 27.307-27.307 71.68-27.307 95.573 0 27.307 27.307 27.307 68.267 0 95.573zM47.787 140.8h157.013v-157.013l-157.013 157.013zM423.253 349.013c-92.16 92.16-92.16 245.76 0 337.92 47.787 44.373 105.813 68.267 170.667 68.267s122.88-23.893 167.253-71.68c92.16-92.16 92.16-245.76 0-337.92-44.373-44.373-102.4-68.267-167.253-68.267s-122.88 23.893-170.667 71.68zM979.627 116.907c-13.653-13.653-34.133-13.653-47.787 0 0 0-177.493 177.493-177.493 177.493 3.413-3.413 51.2 44.373 51.2 47.787 0 0 177.493-177.493 177.493-177.493 10.24-13.653 10.24-34.133-3.413-47.787zM238.933 823.467c0 20.48-13.653 34.133-34.133 34.133h-68.267c-20.48 0-34.133-13.653-34.133-34.133v-68.267c0-20.48 13.653-34.133 34.133-34.133h68.267c20.48 0 34.133 13.653 34.133 34.133v68.267zM204.8 755.2h-68.267v68.267h68.267v-68.267zM238.933 618.667c0 20.48-13.653 34.133-34.133 34.133h-68.267c-20.48 0-34.133-13.653-34.133-34.133v-68.267c0-20.48 13.653-34.133 34.133-34.133h68.267c20.48 0 34.133 13.653 34.133 34.133v68.267zM204.8 550.4h-68.267v68.267h68.267v-68.267zM204.8 448h-68.267c-20.48 0-34.133-13.653-34.133-34.133v-68.267c0-20.48 13.653-34.133 34.133-34.133h68.267c20.48 0 34.133 13.653 34.133 34.133v68.267c0 20.48-13.653 34.133-34.133 34.133zM204.8 345.6h-68.267v68.267h68.267v-68.267z" />
<glyph unicode="&#xe922;" glyph-name="rdc-strategy-commitment" d="M839.68 325.12l-88.747-92.16-88.747 92.16-27.307-27.307 92.16-88.747-92.16-88.747 27.307-27.307 88.747 92.16 88.747-92.16 27.307 27.307-92.16 88.747 92.16 88.747zM184.32 570.88l88.747 92.16 88.747-92.16 27.307 27.307-92.16 88.747 92.16 88.747-27.307 27.307-88.747-92.16-88.747 92.16-27.307-27.307 92.16-88.747-92.16-88.747zM600.747 700.587l23.893-23.893 92.16 88.747v-163.84c0-64.853-54.613-119.467-119.467-119.467h-204.8c-85.333 0-153.6-68.267-153.6-153.6v-54.613c-58.027-6.827-102.4-58.027-102.4-116.053 0-64.853 54.613-119.467 119.467-119.467s119.467 54.613 119.467 119.467c0 61.44-44.373 109.227-102.4 116.053v54.613c0 64.853 54.613 119.467 119.467 119.467h204.8c85.333 0 153.6 68.267 153.6 153.6v163.84l88.747-88.747 23.893 23.893-133.12 133.12-129.707-133.12zM341.333 157.867c0-47.787-37.547-85.333-85.333-85.333s-85.333 37.547-85.333 85.333 37.547 85.333 85.333 85.333 85.333-37.547 85.333-85.333zM887.467 960h-750.933c-75.093 0-136.533-61.44-136.533-136.533v-750.933c0-75.093 61.44-136.533 136.533-136.533h750.933c75.093 0 136.533 61.44 136.533 136.533v750.933c0 75.093-61.44 136.533-136.533 136.533zM989.867 72.533c0-58.027-44.373-102.4-102.4-102.4h-750.933c-58.027 0-102.4 44.373-102.4 102.4v750.933c0 58.027 44.373 102.4 102.4 102.4h750.933c58.027 0 102.4-44.373 102.4-102.4v-750.933z" />
<glyph unicode="&#xe923;" glyph-name="rdc-tenant-portal" d="M955.733 925.867h-887.467c-37.547 0-68.267-30.72-68.267-68.267v-819.2c0-37.547 30.72-68.267 68.267-68.267h887.467c37.547 0 68.267 30.72 68.267 68.267v819.2c0 37.547-30.72 68.267-68.267 68.267zM989.867 38.4c0-20.48-13.653-34.133-34.133-34.133h-887.467c-20.48 0-34.133 13.653-34.133 34.133v716.8h955.733v-716.8zM989.867 789.333h-955.733v68.267c0 20.48 13.653 34.133 34.133 34.133h887.467c20.48 0 34.133-13.653 34.133-34.133v-68.267zM921.6 686.933h-785.067v-341.333h785.067v341.333zM887.467 379.733h-716.8v273.067h716.8v-273.067zM409.6 72.533h204.8v204.8h-204.8v-204.8zM443.733 243.2h136.533v-136.533h-136.533v136.533zM341.333 277.333h-204.8v-204.8h204.8v204.8zM307.2 106.667h-136.533v136.533h136.533v-136.533zM682.667 72.533h204.8v204.8h-204.8v-204.8zM716.8 243.2h136.533v-136.533h-136.533v136.533zM853.333 857.6h68.267v-34.133h-68.267v34.133zM716.8 857.6h68.267v-34.133h-68.267v34.133z" />
<glyph unicode="&#xe924;" glyph-name="rdc-tours-insights" d="M512 823.467c-170.667 0-307.2-102.4-307.2-273.067 0-146.773 170.667-204.8 170.667-443.733h273.067c0 238.933 170.667 273.067 170.667 443.733s-136.533 273.067-307.2 273.067zM614.4 140.8h-204.8c-6.827 122.88-61.44 201.387-105.813 262.827-37.547 51.2-64.853 92.16-64.853 146.773 0 139.947 112.64 238.933 273.067 238.933s273.067-98.987 273.067-238.933c0-64.853-30.72-109.227-68.267-160.427-44.373-61.44-92.16-129.707-102.4-249.173zM375.467 4.267c0-37.547 30.72-68.267 68.267-68.267h136.533c37.547 0 68.267 30.72 68.267 68.267v68.267h-273.067v-68.267zM409.6 38.4h204.8v-34.133c0-20.48-13.653-34.133-34.133-34.133h-136.533c-20.48 0-34.133 13.653-34.133 34.133v34.133zM124.974 221.653l101.37 101.37 24.136-24.136-101.37-101.37-24.136 24.136zM124.977 913.284l24.136 24.136 101.37-101.37-24.136-24.136-101.37 101.37zM773.504 298.884l24.136 24.136 101.37-101.37-24.136-24.136-101.37 101.37zM773.507 836.046l101.37 101.37 24.136-24.136-101.37-101.37-24.136 24.136zM0 550.4h136.533v-34.133h-136.533v34.133zM887.467 550.4h136.533v-34.133h-136.533v34.133zM512 960h34.133v-102.4h-34.133v102.4zM474.453 471.893l-88.747 58.027-20.48-27.307 116.053-78.507 68.267 102.4 88.747-58.027 20.48 27.307-116.053 78.507z" />
<glyph unicode="&#xe925;" glyph-name="rdc-benefits" d="M409.6 755.2c-225.28 0-409.6-184.32-409.6-409.6s184.32-409.6 409.6-409.6 409.6 184.32 409.6 409.6h-409.6v409.6zM785.067 311.467c-17.067-191.147-177.493-341.333-375.467-341.333-208.213 0-375.467 167.253-375.467 375.467 0 194.56 150.187 354.987 341.333 375.467v-409.6h409.6zM863.573 799.573c-102.4 102.4-242.347 160.427-385.707 160.427v-546.133h546.133c0 143.36-58.027 283.307-160.427 385.707zM512 925.867c122.88-6.827 242.347-61.44 327.68-150.187 88.747-88.747 139.947-204.8 150.187-327.68h-477.867v477.867z" />
<glyph unicode="&#xe926;" glyph-name="rdc-competitive" d="M955.733 960h-887.467c-37.547 0-68.267-30.72-68.267-68.267v-716.8c0-37.547 30.72-68.267 68.267-68.267h307.2v-136.533h-68.267v-34.133h409.6v34.133h-68.267v136.533h307.2c37.547 0 68.267 30.72 68.267 68.267v716.8c0 37.547-30.72 68.267-68.267 68.267zM614.4-29.867h-204.8v136.533h204.8v-136.533zM989.867 174.933c0-20.48-13.653-34.133-34.133-34.133h-887.467c-20.48 0-34.133 13.653-34.133 34.133v716.8c0 20.48 13.653 34.133 34.133 34.133h887.467c20.48 0 34.133-13.653 34.133-34.133v-716.8zM136.533 277.333h136.533v136.533h-136.533v-136.533zM170.667 379.733h68.267v-68.267h-68.267v68.267zM341.333 277.333h136.533v273.067h-136.533v-273.067zM375.467 516.267h68.267v-204.8h-68.267v204.8zM546.133 277.333h136.533v204.8h-136.533v-204.8zM580.267 448h68.267v-136.533h-68.267v136.533zM750.933 277.333h136.533v477.867h-136.533v-477.867zM785.067 721.067h68.267v-409.6h-68.267v409.6z" />
<glyph unicode="&#xe927;" glyph-name="rdc-creative" d="M512 960c-187.733 0-341.333-153.6-341.333-341.333 0-208.213 204.8-276.48 204.8-443.733 0-102.4 0-204.8 0-204.8h273.067c0 0 0 98.987 0 204.8 0 167.253 204.8 238.933 204.8 443.733 0 187.733-153.6 341.333-341.333 341.333zM614.4 4.267h-204.8v68.267h204.8v-68.267zM614.4 106.667h-204.8v68.267h204.8v-68.267zM617.813 209.067h-208.213c-10.24 75.093-54.613 129.707-98.987 184.32-54.613 64.853-102.4 129.707-102.4 225.28 0 170.667 136.533 307.2 307.2 307.2s307.2-136.533 307.2-307.2c0-95.573-51.2-157.013-102.4-225.28-47.787-54.613-92.16-109.227-102.4-184.32zM583.68 758.613l-139.947-242.347-58.027 102.4h-78.507v-34.133h58.027l78.507-136.533 133.12 235.52 61.44-133.12h78.507v34.133h-58.027zM894.293 960h-47.787c88.747-85.333 143.36-208.213 143.36-341.333s-54.613-256-143.36-341.333h47.787c81.92 92.16 129.707 211.627 129.707 341.333s-51.2 249.173-129.707 341.333zM177.493 960h-47.787c-78.507-92.16-129.707-211.627-129.707-341.333s51.2-249.173 129.707-341.333h47.787c-88.747 85.333-143.36 208.213-143.36 341.333s54.613 256 143.36 341.333z" />
<glyph unicode="&#xe928;" glyph-name="rdc-empowering-excellence" d="M819.2 925.867h-614.4l-204.8-375.467 512-580.267 512 580.267-204.8 375.467zM508.587 21.333l-467.627 532.48 184.32 337.92h566.613l187.733-337.92-471.040-532.48zM600.747 669.867l-88.747 153.6-88.747-153.6-174.080-37.547 119.467-133.12-17.067-177.493 160.427 71.68 160.427-71.68-17.067 177.493 119.467 133.12-174.080 37.547zM634.88 379.733l-122.88 54.613-122.88-54.613 13.653 133.12-88.747 98.987 129.707 27.307 68.267 116.053 68.267-116.053 129.707-27.307-88.747-98.987 13.653-133.12z" />
<glyph unicode="&#xe929;" glyph-name="rdc-honest" d="M477.867 448l-102.4 102.4-102.4-102.4 204.8-204.8 273.067 273.067-102.4 102.4-170.667-170.667zM477.867 290.987l-157.013 157.013 54.613 54.613 102.4-102.4 170.667 170.667 54.613-54.613-225.28-225.28zM512 960c-283.307 0-512-228.693-512-512 0-105.813 34.133-208.213 88.747-290.133l-88.747-221.867 221.867 88.747c81.92-54.613 184.32-88.747 290.133-88.747 283.307 0 512 228.693 512 512s-228.693 512-512 512zM512-29.867c-95.573 0-191.147 27.307-269.653 81.92l-13.653 10.24-17.067-6.827-150.187-58.027 58.027 150.187 6.827 17.067-10.24 13.653c-54.613 78.507-81.92 174.080-81.92 269.653 0 262.827 215.040 477.867 477.867 477.867s477.867-215.040 477.867-477.867c0-262.827-215.040-477.867-477.867-477.867zM512 840.533c-215.040 0-392.533-177.493-392.533-392.533h34.133c0 197.973 160.427 358.4 358.4 358.4v34.133z" />
<glyph unicode="&#xe92a;" glyph-name="rdc-innovative-technology-2" d="M512 584.533c-75.093 0-136.533-61.44-136.533-136.533s61.44-136.533 136.533-136.533c75.093 0 136.533 61.44 136.533 136.533s-61.44 136.533-136.533 136.533zM512 345.6c-58.027 0-102.4 44.373-102.4 102.4s44.373 102.4 102.4 102.4 102.4-44.373 102.4-102.4c0-58.027-44.373-102.4-102.4-102.4zM955.733 704c-27.307 47.787-92.16 71.68-174.080 71.68-10.24 0-20.48 0-30.72 0l13.653-34.133c6.827 0 13.653 0 20.48 0 71.68 0 122.88-20.48 143.36-54.613 30.72-54.613 0-133.12-64.853-211.627-34.133 37.547-71.68 71.68-119.467 105.813-27.307 218.453-122.88 378.88-232.107 378.88-61.44 0-116.053-51.2-160.427-133.12l27.307-20.48c37.547 71.68 81.92 119.467 133.12 119.467 61.44 0 116.053-68.267 150.187-163.84-47.787-10.24-98.987-27.307-150.187-47.787-98.987 40.96-191.147 61.44-269.653 61.44-81.92 0-146.773-23.893-174.080-71.68-37.547-64.853-6.827-160.427 71.68-256-78.507-95.573-109.227-191.147-71.68-256 27.307-47.787 92.16-71.68 174.080-71.68 27.307 0 54.613 3.413 85.333 6.827 44.373-116.053 109.227-191.147 184.32-191.147s143.36 75.093 184.32 191.147c30.72-3.413 58.027-6.827 85.333-6.827 81.92 0 143.36 23.893 174.080 71.68 37.547 64.853 6.827 160.427-71.68 256 78.507 95.573 109.227 191.147 71.68 256zM836.267 448c-27.307-27.307-58.027-58.027-88.747-85.333 3.413 27.307 3.413 58.027 3.413 85.333s0 58.027-3.413 85.333c34.133-27.307 61.44-58.027 88.747-85.333zM614.4 270.507c-88.747-51.2-180.907-88.747-266.24-105.813-13.653 37.547-20.48 78.507-27.307 119.467 0-6.827 27.307-17.067 34.133-20.48 17.067-10.24 37.547-23.893 54.613-34.133l30.72 20.48c-10.24 6.827-20.48 10.24-30.72 17.067-34.133 20.48-64.853 40.96-95.573 61.44-3.413 40.96-6.827 81.92-6.827 119.467s3.413 78.507 6.827 116.053c30.72 20.48 61.44 40.96 95.573 61.44s68.267 37.547 102.4 51.2c34.133-13.653 68.267-30.72 102.4-51.2s64.853-40.96 95.573-64.853c3.413-37.547 6.827-75.093 6.827-112.64s-3.413-75.093-6.827-112.64c-30.72-23.893-61.44-44.373-95.573-64.853zM703.147 287.573c-6.827-40.96-17.067-81.92-27.307-119.467-37.547 6.827-78.507 20.48-119.467 37.547 23.893 13.653 51.2 23.893 75.093 40.96 23.893 10.24 47.787 23.893 71.68 40.96zM276.48 362.667c-34.133 27.307-64.853 58.027-92.16 85.333 27.307 30.72 58.027 58.027 92.16 85.333-3.413-27.307-3.413-54.613-3.413-85.333s0-58.027 3.413-85.333zM675.84 731.307c13.653-37.547 20.48-78.507 27.307-119.467-23.893 17.067-47.787 30.72-71.68 44.373s-51.2 27.307-75.093 40.96c40.96 13.653 78.507 23.893 119.467 34.133zM392.533 656.213c-23.893-13.653-47.787-30.72-71.68-44.373 6.827 40.96 17.067 81.92 30.72 119.467 37.547-6.827 78.507-20.48 119.467-34.133-27.307-13.653-54.613-27.307-78.507-40.96zM143.36 502.613c-51.2 75.093-68.267 143.36-44.373 184.32 20.48 37.547 71.68 54.613 143.36 54.613 23.893 0 47.787-3.413 71.68-6.827-13.653-47.787-27.307-98.987-34.133-157.013-44.373-34.133-85.333-71.68-119.467-105.813-3.413 10.24-10.24 20.48-17.067 30.72zM242.347 154.453c-71.68 0-122.88 20.48-143.36 54.613-23.893 40.96-10.24 109.227 44.373 184.32 6.827 10.24 13.653 17.067 20.48 27.307 34.133-37.547 71.68-71.68 119.467-105.813 6.827-54.613 17.067-109.227 34.133-157.013-27.307-3.413-51.2-3.413-75.093-3.413zM512-29.867c-61.44 0-116.053 68.267-150.187 163.84 47.787 10.24 98.987 27.307 150.187 47.787 51.2-20.48 102.4-37.547 150.187-47.787-34.133-95.573-88.747-163.84-150.187-163.84zM925.013 209.067c-20.48-37.547-71.68-54.613-143.36-54.613-23.893 0-47.787 3.413-71.68 6.827 13.653 47.787 27.307 98.987 34.133 157.013 44.373 34.133 85.333 68.267 119.467 105.813 61.44-81.92 92.16-160.427 61.44-215.040z" />
<glyph unicode="&#xe92b;" glyph-name="rdc-lead-management" d="M1000.107 792.747l-143.36 143.36c-13.653 13.653-34.133 13.653-47.787 0l-416.427-416.427-68.267-259.413 259.413 68.267 416.427 413.013c13.653 13.653 13.653 37.547 0 51.2zM372.053 308.053l20.48 78.507 58.027-58.027-78.507-20.48zM488.107 338.773l-85.333 85.333 20.48 75.093 143.36-143.36-78.507-17.067zM590.507 379.733l-146.773 146.773 307.2 307.2 146.773-146.773-307.2-307.2zM921.6 710.827l-146.773 146.773 54.613 54.613 143.36-143.36-51.2-58.027zM785.067 174.933h-170.667c-20.48 0-34.133-13.653-34.133-34.133v-170.667h-512c-20.48 0-34.133 13.653-34.133 34.133v819.2c0 20.48 13.653 34.133 34.133 34.133h580.267v34.133h-580.267c-37.547 0-68.267-30.72-68.267-68.267v-819.2c0-37.547 30.72-68.267 68.267-68.267h546.133c78.507 78.507 126.293 126.293 204.8 204.8v307.2h-34.133v-273.067zM692.907 62.293l-78.507-78.507v157.013h157.013l-78.507-78.507zM273.067 721.067h170.667v-34.133h-170.667v34.133zM136.533 584.533h170.667v-34.133h-170.667v34.133zM136.533 448h136.533v-34.133h-136.533v34.133zM136.533 721.067h68.267v-34.133h-68.267v34.133z" />
<glyph unicode="&#xe92c;" glyph-name="rdc-leadership" d="M955.733 891.733h-136.533v34.133c0 20.48-13.653 34.133-34.133 34.133h-546.133c-20.48 0-34.133-13.653-34.133-34.133v-34.133h-136.533c-37.547 0-68.267-30.72-68.267-68.267v-68.267c0-112.64 92.16-204.8 204.8-204.8h3.413c13.653-122.88 109.227-218.453 232.107-235.52-13.653-40.96-54.613-71.68-98.987-71.68v-273.067h-68.267v-34.133h477.867v34.133h-68.267v273.067c-44.373 0-85.333 30.72-95.573 71.68 119.467 17.067 215.040 112.64 232.107 235.52v0c112.64 0 204.8 92.16 204.8 204.8v68.267c0 37.547-30.72 68.267-68.267 68.267zM34.133 755.2v68.267c0 20.48 13.653 34.133 34.133 34.133h136.533v-273.067c-95.573 0-170.667 75.093-170.667 170.667zM648.533-29.867h-273.067v136.533h273.067v-136.533zM549.547 311.467c13.653-47.787 51.2-85.333 98.987-98.987v-71.68h-273.067v71.68c47.787 13.653 85.333 51.2 98.987 98.987h75.093zM546.133 345.6h-68.267c-133.12 0-238.933 105.813-238.933 238.933v341.333h546.133v-341.333c0-133.12-105.813-238.933-238.933-238.933zM989.867 755.2c0-95.573-75.093-170.667-170.667-170.667v273.067h136.533c20.48 0 34.133-13.653 34.133-34.133v-68.267zM307.2 857.6h34.133v-68.267h-34.133v68.267zM307.2 721.067h34.133v-136.533h-34.133v136.533z" />
<glyph unicode="&#xe92d;" glyph-name="rdc-marketing-materials" d="M955.733 823.467h-716.8c-37.547 0-68.267-30.72-68.267-68.267v-750.933c0-37.547 30.72-68.267 68.267-68.267h716.8c37.547 0 68.267 30.72 68.267 68.267v750.933c0 37.547-30.72 68.267-68.267 68.267zM989.867 4.267c0-20.48-13.653-34.133-34.133-34.133h-716.8c-20.48 0-34.133 13.653-34.133 34.133v750.933c0 20.48 13.653 34.133 34.133 34.133h716.8c20.48 0 34.133-13.653 34.133-34.133v-750.933zM750.933 652.8h78.507l-215.040-215.040-136.533 136.533-180.907-146.773 20.48-27.307 160.427 126.293 136.533-136.533 238.933 238.933v-78.507h34.133v136.533h-136.533zM34.133 140.8v750.933c0 20.48 13.653 34.133 34.133 34.133h716.8c20.48 0 34.133-13.653 34.133-34.133h34.133c0 37.547-30.72 68.267-68.267 68.267h-716.8c-37.547 0-68.267-30.72-68.267-68.267v-750.933c0-37.547 30.72-68.267 68.267-68.267h34.133v34.133h-34.133c-20.48 0-34.133 13.653-34.133 34.133zM307.2 311.467h375.467v-34.133h-375.467v34.133zM307.2 209.067h136.533v-34.133h-136.533v34.133zM750.933 311.467h136.533v-34.133h-136.533v34.133zM512 209.067h375.467v-34.133h-375.467v34.133zM307.2 106.667h409.6v-34.133h-409.6v34.133z" />
<glyph unicode="&#xe92e;" glyph-name="rdc-our-mission" d="M464.213 427.52l23.893-23.893 71.68 71.68c10.24-17.067 20.48-37.547 20.48-58.027 0-58.027-44.373-102.4-102.4-102.4s-102.4 44.373-102.4 102.4c0 58.027 44.373 102.4 102.4 102.4l30.72 30.72c-10.24 0-20.48 0-30.72 0-75.093 0-136.533-61.44-136.533-136.533s61.44-136.533 136.533-136.533 136.533 61.44 136.533 136.533c0 30.72-10.24 61.44-30.72 81.92l95.573 95.573c40.96-47.787 68.267-112.64 68.267-180.907 0-150.187-122.88-273.067-273.067-273.067s-273.067 122.88-273.067 273.067 122.88 273.067 273.067 273.067c47.787 0 95.573-13.653 133.12-37.547l23.893 23.893c-40.96 34.133-95.573 51.2-153.6 51.2-170.667 0-307.2-136.533-307.2-307.2s136.533-307.2 307.2-307.2 307.2 136.533 307.2 307.2c0 78.507-30.72 150.187-78.507 204.8l34.133 34.133h180.907l102.4 102.4-88.747 88.747 68.267 68.267-23.893 23.893-68.267-68.267-92.16 92.16-102.4-102.4v-180.907l-252.587-249.173zM976.213 755.2l-68.267-68.267h-133.12l133.12 133.12 68.267-64.853zM750.933 843.947l68.267 68.267 64.853-64.853-133.12-136.533v133.12zM887.467 584.533c20.48-51.2 34.133-109.227 34.133-170.667 0-245.76-197.973-443.733-443.733-443.733s-443.733 197.973-443.733 443.733 197.973 443.733 443.733 443.733c61.44 0 119.467-13.653 170.667-34.133v37.547c-54.613 20.48-109.227 30.72-170.667 30.72-262.827 0-477.867-215.040-477.867-477.867s215.040-477.867 477.867-477.867 477.867 215.040 477.867 477.867c0 61.44-10.24 116.053-30.72 170.667h-37.547z" />
<glyph unicode="&#xe92f;" glyph-name="rdc-profile" d="M682.667 277.333l-170.667-204.8-170.667 204.8c-150.187 0-273.067-122.88-273.067-273.067 0-37.547 30.72-68.267 68.267-68.267h750.933c37.547 0 68.267 30.72 68.267 68.267 0 150.187-122.88 273.067-273.067 273.067zM887.467-29.867h-750.933c-20.48 0-34.133 13.653-34.133 34.133 0 126.293 98.987 228.693 221.867 238.933l187.733-221.867 187.733 221.867c122.88-6.827 221.867-112.64 221.867-238.933 0-20.48-13.653-34.133-34.133-34.133zM273.067 652.8v0c13.653-170.667 112.64-341.333 238.933-341.333 133.12 0 238.933 197.973 238.933 375.467s-105.813 273.067-238.933 273.067c-133.12 0-238.933-95.573-238.933-273.067 0-10.24 0-23.893 0-34.133 0 0 0 0 0 0zM716.8 686.933c0-170.667-102.4-341.333-204.8-341.333-95.573 0-191.147 146.773-204.8 307.2 0 37.547 34.133 68.267 75.093 68.267h129.707c81.92 0 146.773 54.613 160.427 129.707 27.307-40.96 44.373-95.573 44.373-163.84zM515.413 925.867c51.2 0 98.987-13.653 133.12-44.373v-6.827c0-64.853-64.853-119.467-136.533-119.467h-129.707c-27.307 0-51.2-10.24-71.68-27.307 13.653 122.88 92.16 197.973 204.8 197.973z" />
<glyph unicode="&#xe930;" glyph-name="rdc-reliable" d="M819.2 960h-614.4c0-112.64-92.16-204.8-204.8-204.8v-153.6c0-310.613 211.627-583.68 512-665.6 300.373 81.92 512 354.987 512 665.6v153.6c-112.64 0-204.8 92.16-204.8 204.8zM989.867 601.6c0-293.547-194.56-552.96-477.867-631.467-283.307 81.92-477.867 337.92-477.867 631.467v122.88c105.813 13.653 187.733 95.573 201.387 201.387h549.547c13.653-105.813 98.987-187.733 201.387-201.387v-122.88zM716.8 584.533h-34.133v34.133c0 95.573-75.093 170.667-170.667 170.667s-170.667-75.093-170.667-170.667v-34.133h-34.133c-20.48 0-34.133-13.653-34.133-34.133v-307.2c0-20.48 13.653-34.133 34.133-34.133h409.6c20.48 0 34.133 13.653 34.133 34.133v307.2c0 20.48-13.653 34.133-34.133 34.133zM375.467 618.667c0 75.093 61.44 136.533 136.533 136.533s136.533-61.44 136.533-136.533v-34.133h-273.067v34.133zM716.8 243.2h-409.6v307.2h409.6v-307.2zM512 482.133c-37.547 0-68.267-30.72-68.267-68.267 0-23.893 13.653-47.787 34.133-58.027v-10.24c0-20.48 13.653-34.133 34.133-34.133s34.133 13.653 34.133 34.133v10.24c20.48 10.24 34.133 34.133 34.133 58.027 0 37.547-30.72 68.267-68.267 68.267zM512 379.733c-20.48 0-34.133 13.653-34.133 34.133s13.653 34.133 34.133 34.133 34.133-13.653 34.133-34.133-13.653-34.133-34.133-34.133z" />
<glyph unicode="&#xe931;" glyph-name="rdc-supportive-environment" d="M512 789.333c-187.733 0-341.333-153.6-341.333-341.333s153.6-341.333 341.333-341.333c187.733 0 341.333 153.6 341.333 341.333s-153.6 341.333-341.333 341.333zM512 140.8c-170.667 0-307.2 136.533-307.2 307.2s136.533 307.2 307.2 307.2c170.667 0 307.2-136.533 307.2-307.2s-136.533-307.2-307.2-307.2zM341.333 550.4h102.4v-34.133h-102.4v34.133zM580.267 550.4h102.4v-34.133h-102.4v34.133zM477.867 960h34.133v-102.4h-34.133v102.4zM512 38.4h34.133v-102.4h-34.133v102.4zM0 482.133h102.4v-34.133h-102.4v34.133zM921.6 516.267h102.4v-34.133h-102.4v34.133zM807.637 128.217l24.136 24.136 101.37-101.37-24.136-24.136-101.37 101.37zM90.844 845.017l24.136 24.136 101.37-101.37-24.136-24.136-101.37 101.37zM90.84 50.986l101.37 101.37 24.136-24.136-101.37-101.37-24.136 24.136zM807.64 767.779l101.37 101.37 24.136-24.136-101.37-101.37-24.136 24.136zM512 209.067c112.64 0 204.8 92.16 204.8 204.8h-409.6c0-112.64 92.16-204.8 204.8-204.8zM512 243.2c-81.92 0-153.6 58.027-167.253 136.533h334.507c-13.653-78.507-85.333-136.533-167.253-136.533z" />
<glyph unicode="&#xe932;" glyph-name="rdc-technology" d="M969.387 441.173l-34.133 283.307c51.2 13.653 88.747 61.44 88.747 116.053 0 64.853-54.613 119.467-119.467 119.467-54.613 0-98.987-37.547-116.053-88.747l-501.76-34.133c-20.48 34.133-58.027 54.613-98.987 54.613-64.853 0-119.467-54.613-119.467-119.467 0-51.2 34.133-95.573 81.92-112.64l-64.853-416.427c-47.787 0-85.333-37.547-85.333-85.333s37.547-85.333 85.333-85.333c34.133 0 64.853 20.48 78.507 51.2l314.027-61.44c0-3.413 0-3.413 0-6.827 0-64.853 54.613-119.467 119.467-119.467s119.467 54.613 119.467 119.467c0 13.653-3.413 27.307-6.827 40.96l204.8 184.32c6.827-3.413 13.653-3.413 23.893-3.413 47.787 0 85.333 37.547 85.333 85.333 0 37.547-23.893 68.267-54.613 78.507zM863.573 403.627l-180.907 37.547c3.413 44.373-13.653 92.16-47.787 126.293 0 0-3.413 3.413-6.827 3.413l204.8 174.080c17.067-13.653 40.96-23.893 68.267-23.893l30.72-273.067c-27.307-3.413-54.613-20.48-68.267-44.373zM375.467 448c0 75.093 61.44 136.533 136.533 136.533s136.533-61.44 136.533-136.533c0-75.093-61.44-136.533-136.533-136.533s-136.533 61.44-136.533 136.533zM904.533 925.867c47.787 0 85.333-37.547 85.333-85.333s-37.547-85.333-85.333-85.333c-47.787 0-85.333 37.547-85.333 85.333s37.547 85.333 85.333 85.333zM785.067 837.12c0-23.893 6.827-47.787 20.48-64.853l-208.213-177.493c-23.893 13.653-54.613 23.893-85.333 23.893-37.547 0-75.093-13.653-105.813-37.547l-122.88 119.467c13.653 20.48 23.893 44.373 23.893 71.68 0 10.24-3.413 23.893-6.827 34.133l484.693 30.72zM102.4 772.267c0 47.787 37.547 85.333 85.333 85.333s85.333-37.547 85.333-85.333c0-47.787-37.547-85.333-85.333-85.333s-85.333 37.547-85.333 85.333zM187.733 652.8c27.307 0 51.2 10.24 71.68 23.893l122.88-122.88c-40.96-47.787-51.2-116.053-27.307-170.667l-208.213-167.253c-6.827 6.827-17.067 13.653-27.307 20.48l64.853 416.427c0 0 3.413 0 3.413 0zM85.333 106.667c-27.307 0-51.2 23.893-51.2 51.2s23.893 51.2 51.2 51.2 51.2-23.893 51.2-51.2-23.893-51.2-51.2-51.2zM597.333-29.867c-47.787 0-85.333 37.547-85.333 85.333s37.547 85.333 85.333 85.333c47.787 0 85.333-37.547 85.333-85.333s-37.547-85.333-85.333-85.333zM692.907 127.147c-20.48 27.307-54.613 47.787-95.573 47.787-51.2 0-95.573-34.133-112.64-78.507l-314.027 61.44c0 0 0 0 0 0 0 10.24-3.413 20.48-6.827 30.72l204.8 163.84c6.827-10.24 13.653-17.067 20.48-27.307 34.133-34.133 78.507-51.2 119.467-51.2s88.747 17.067 119.467 51.2c23.893 23.893 37.547 51.2 44.373 78.507l177.493-37.547c0-3.413 0-3.413 0-6.827 0-23.893 10.24-47.787 27.307-64.853l-184.32-167.253zM938.667 311.467c-27.307 0-51.2 23.893-51.2 51.2s23.893 51.2 51.2 51.2 51.2-23.893 51.2-51.2-23.893-51.2-51.2-51.2z" />
<glyph unicode="&#xe933;" glyph-name="rdc-top-commission" d="M590.507 717.653l92.16 242.347h-341.333l92.16-242.347c-204.8-20.48-365.227-194.56-365.227-406.187v-170.667c0-112.64 92.16-204.8 204.8-204.8h477.867c112.64 0 204.8 92.16 204.8 204.8v170.667c0 211.627-160.427 385.707-365.227 406.187zM389.12 925.867h242.347l-85.333-204.8h-68.267l-88.747 204.8zM921.6 140.8c0-95.573-75.093-170.667-170.667-170.667h-477.867c-95.573 0-170.667 75.093-170.667 170.667v170.667c0 208.213 167.253 375.467 375.467 375.467h68.267c208.213 0 375.467-167.253 375.467-375.467v-170.667zM580.267 413.867h34.133c0 58.027-44.373 102.4-102.4 102.4v34.133h-34.133v-34.133c-58.027 0-102.4-44.373-102.4-102.4s44.373-102.4 102.4-102.4v-136.533c-37.547 0-68.267 30.72-68.267 68.267h-34.133c0-58.027 44.373-102.4 102.4-102.4v-34.133h34.133v34.133c58.027 0 102.4 44.373 102.4 102.4s-44.373 102.4-102.4 102.4v136.533c37.547 0 68.267-30.72 68.267-68.267zM477.867 345.6c-37.547 0-68.267 30.72-68.267 68.267s30.72 68.267 68.267 68.267v-136.533zM580.267 243.2c0-37.547-30.72-68.267-68.267-68.267v136.533c37.547 0 68.267-30.72 68.267-68.267z" />
<glyph unicode="&#xe934;" glyph-name="rdc-transparent" d="M989.867 89.6l-177.493 177.493c47.787 71.68 75.093 157.013 75.093 245.76 0 245.76-197.973 443.733-443.733 443.733s-443.733-194.56-443.733-440.32 197.973-443.733 443.733-443.733c92.16 0 177.493 27.307 249.173 75.093 0 0 177.493-177.493 177.493-177.493 30.72-30.72 88.747-34.133 119.467 0 34.133 34.133 34.133 88.747 0 119.467zM34.133 516.267c0 225.28 184.32 409.6 409.6 409.6s409.6-184.32 409.6-409.6-184.32-409.6-409.6-409.6-409.6 184.32-409.6 409.6zM795.307 239.787l30.72-30.72-71.68-71.68-30.72 30.72 71.68 71.68zM965.973-5.973c-20.48-20.48-51.2-20.48-71.68 0l-116.053 116.053 71.68 71.68c0 0 116.053-116.053 116.053-116.053 20.48-17.067 20.48-51.2 0-71.68zM443.733 755.2c-187.733 0-341.333-238.933-341.333-238.933s153.6-238.933 341.333-238.933 341.333 238.933 341.333 238.933-153.6 238.933-341.333 238.933zM443.733 311.467c-139.947 0-259.413 150.187-300.373 204.8 37.547 54.613 160.427 204.8 300.373 204.8s259.413-150.187 300.373-204.8c-40.96-54.613-160.427-204.8-300.373-204.8zM443.733 652.8c-75.093 0-136.533-61.44-136.533-136.533s61.44-136.533 136.533-136.533c75.093 0 136.533 61.44 136.533 136.533s-61.44 136.533-136.533 136.533zM443.733 413.867c-58.027 0-102.4 44.373-102.4 102.4s44.373 102.4 102.4 102.4c58.027 0 102.4-44.373 102.4-102.4s-44.373-102.4-102.4-102.4z" />
<glyph unicode="&#xe935;" glyph-name="rdc-what-we-do" d="M477.867 652.8h341.333v-34.133h-341.333v34.133zM389.12 673.28l-27.307 27.307-88.747-92.16-54.613 58.027-27.307-27.307 81.92-78.507zM955.733 277.333v546.133c0 20.48-13.653 34.133-34.133 34.133h-819.2c-20.48 0-34.133-13.653-34.133-34.133v-546.133c-37.547 0-68.267-30.72-68.267-68.267v-238.933c0-20.48 13.653-34.133 34.133-34.133h955.733c20.48 0 34.133 13.653 34.133 34.133v238.933c0 37.547-30.72 68.267-68.267 68.267zM102.4 823.467h819.2v-546.133h-238.933c0-95.573-75.093-170.667-170.667-170.667s-170.667 75.093-170.667 170.667h-238.933v546.133zM989.867-29.867h-955.733v238.933c0 20.48 13.653 34.133 34.133 34.133h242.347c17.067-95.573 98.987-170.667 201.387-170.667s184.32 75.093 201.387 170.667h242.347c20.48 0 34.133-13.653 34.133-34.133v-238.933zM477.867 448h341.333v-34.133h-341.333v34.133zM361.813 495.787l-88.747-92.16-54.613 58.027-27.307-27.307 81.92-78.507 116.053 112.64zM170.667 925.867h682.667v-34.133h34.133v34.133c0 20.48-13.653 34.133-34.133 34.133h-682.667c-20.48 0-34.133-13.653-34.133-34.133v-34.133h34.133v34.133z" />
<glyph unicode="&#xe936;" glyph-name="rdc-who-we-are" d="M648.533 427.52c0 102.4-61.44 157.013-136.533 157.013s-136.533-51.2-136.533-157.013c0-102.4 61.44-218.453 136.533-218.453s136.533 116.053 136.533 218.453zM512 550.4c20.48 0 37.547-3.413 51.2-13.653-10.24-105.813-146.773-105.813-153.6-105.813 0 75.093 37.547 119.467 102.4 119.467zM413.013 396.8c58.027 0 157.013 27.307 180.907 112.64 13.653-20.48 20.48-47.787 20.48-81.92 0-88.747-51.2-184.32-102.4-184.32-44.373 0-88.747 75.093-98.987 153.6zM238.933 209.067c58.027 0 102.4 85.333 102.4 160.427s-44.373 112.64-102.4 112.64-102.4-37.547-102.4-112.64c0-75.093 44.373-160.427 102.4-160.427zM238.933 448c44.373 0 68.267-30.72 68.267-78.507 0-64.853-37.547-126.293-68.267-126.293s-68.267 61.44-68.267 126.293c0 47.787 23.893 78.507 68.267 78.507zM887.467 369.493c0 75.093-44.373 112.64-102.4 112.64s-102.4-37.547-102.4-112.64c0-75.093 44.373-160.427 102.4-160.427s102.4 85.333 102.4 160.427zM716.8 369.493c0 51.2 23.893 78.507 68.267 78.507s68.267-30.72 68.267-78.507c0-64.853-37.547-126.293-68.267-126.293s-68.267 61.44-68.267 126.293zM972.8 4.267c0 3.413 0 95.573-54.613 150.187-27.307 27.307-58.027 40.96-98.987 40.96v-34.133c30.72 0 58.027-10.24 75.093-30.72 23.893-27.307 37.547-64.853 40.96-88.747h-150.187v34.133c0 75.093-61.44 136.533-136.533 136.533l-136.533-136.533-136.533 136.533c-75.093 0-136.533-61.44-136.533-136.533v-34.133h-184.32c3.413 27.307 13.653 64.853 40.96 88.747 20.48 20.48 44.373 30.72 75.093 30.72v34.133c-40.96 0-75.093-13.653-98.987-40.96-54.613-54.613-54.613-143.36-54.613-150.187h221.867v-68.267h546.133v68.267h187.733zM750.933-29.867h-477.867v102.4c0 51.2 37.547 95.573 88.747 102.4l150.187-150.187 150.187 150.187c51.2-6.827 88.747-51.2 88.747-102.4v-102.4zM512 960l-512-273.067v-170.667l512 273.067 512-273.067v170.667l-512 273.067zM989.867 574.293l-477.867 252.587-477.867-252.587v92.16l477.867 256 477.867-256v-92.16z" />
</font>
</defs>
</svg>
